0
SECTION
2
HEADER
999
SHELL=/bin/bash3
0
ENDSEC
0
SECTION
2
TABLES
0
TABLE
2
LAYER
0
LAYER
2
/elevators.g/elevator_right.r
62
253
0
LAYER
2
/elevators.g/elevator_left.r
62
253
0
ENDTAB
0
ENDSEC
0
SECTION
2
ENTITIES
0
3DFACE
8
/elevators.g/elevator_right.r
62
253
10
1.331250
20
15.003409
30
0.590625
11
1.331250
21
7.763325
31
0.590625
12
1.445161
22
13.325806
32
0.611129
0
3DFACE
8
/elevators.g/elevator_right.r
62
253
10
1.331250
20
7.763325
30
0.590625
11
1.800000
21
7.660261
31
0.675000
12
1.445161
22
13.325806
32
0.611129
0
3DFACE
8
/elevators.g/elevator_right.r
62
253
10
0.925000
20
7.852647
30
0.506250
11
0.943056
21
21.600000
31
0.510000
12
0.925000
22
21.600000
32
0.506250
0
3DFACE
8
/elevators.g/elevator_right.r
62
253
10
0.925000
20
7.852647
30
0.506250
11
1.331250
21
7.763325
31
0.590625
12
1.331250
22
15.003409
32
0.590625
0
3DFACE
8
/elevators.g/elevator_right.r
62
253
10
0.925000
20
7.852647
30
0.506250
11
1.331250
21
15.003409
31
0.590625
12
0.943056
22
21.600000
32
0.510000
0
3DFACE
8
/elevators.g/elevator_right.r
62
253
10
0.581250
20
7.928227
30
0.421875
11
0.925000
21
21.600000
31
0.506250
12
0.581250
22
21.600000
32
0.421875
0
3DFACE
8
/elevators.g/elevator_right.r
62
253
10
0.581250
20
7.928227
30
0.421875
11
0.925000
21
7.852647
31
0.506250
12
0.925000
22
21.600000
32
0.506250
0
3DFACE
8
/elevators.g/elevator_right.r
62
253
10
0.300000
20
7.990065
30
0.337500
11
0.581250
21
21.600000
31
0.421875
12
0.300000
22
21.600000
32
0.337500
0
3DFACE
8
/elevators.g/elevator_right.r
62
253
10
0.300000
20
7.990065
30
0.337500
11
0.581250
21
7.928227
31
0.421875
12
0.581250
22
21.600000
32
0.421875
0
3DFACE
8
/elevators.g/elevator_right.r
62
253
10
0.081250
20
8.038162
30
0.253125
11
0.300000
21
21.600000
31
0.337500
12
0.081250
22
21.600000
32
0.253125
0
3DFACE
8
/elevators.g/elevator_right.r
62
253
10
0.081250
20
8.038162
30
0.253125
11
0.300000
21
7.990065
31
0.337500
12
0.300000
22
21.600000
32
0.337500
0
3DFACE
8
/elevators.g/elevator_right.r
62
253
10
-0.075000
20
8.072516
30
0.168750
11
0.081250
21
21.600000
31
0.253125
12
-0.075000
22
21.600000
32
0.168750
0
3DFACE
8
/elevators.g/elevator_right.r
62
253
10
-0.075000
20
8.072516
30
0.168750
11
0.081250
21
8.038162
31
0.253125
12
0.081250
22
21.600000
32
0.253125
0
3DFACE
8
/elevators.g/elevator_right.r
62
253
10
-0.129688
20
8.084540
30
0.126562
11
-0.075000
21
21.600000
31
0.168750
12
-0.129688
22
21.600000
32
0.126562
0
3DFACE
8
/elevators.g/elevator_right.r
62
253
10
-0.129688
20
8.084540
30
0.126562
11
-0.075000
21
8.072516
31
0.168750
12
-0.075000
22
21.600000
32
0.168750
0
3DFACE
8
/elevators.g/elevator_right.r
62
253
10
-0.168750
20
8.093129
30
0.084375
11
-0.129688
21
21.600000
31
0.126562
12
-0.168750
22
21.600000
32
0.084375
0
3DFACE
8
/elevators.g/elevator_right.r
62
253
10
-0.168750
20
8.093129
30
0.084375
11
-0.129688
21
8.084540
31
0.126562
12
-0.129688
22
21.600000
32
0.126562
0
3DFACE
8
/elevators.g/elevator_right.r
62
253
10
-0.192188
20
8.098282
30
0.042187
11
-0.168750
21
21.600000
31
0.084375
12
-0.192188
22
21.600000
32
0.042187
0
3DFACE
8
/elevators.g/elevator_right.r
62
253
10
-0.192188
20
8.098282
30
0.042187
11
-0.168750
21
8.093129
31
0.084375
12
-0.168750
22
21.600000
32
0.084375
0
3DFACE
8
/elevators.g/elevator_right.r
62
253
10
-0.200000
20
8.100000
30
-0.000000
11
-0.192188
21
21.600000
31
0.042187
12
-0.200000
22
21.600000
32
-0.000000
0
3DFACE
8
/elevators.g/elevator_right.r
62
253
10
-0.200000
20
8.100000
30
-0.000000
11
-0.192188
21
8.098282
31
0.042187
12
-0.192188
22
21.600000
32
0.042187
0
3DFACE
8
/elevators.g/elevator_right.r
62
253
10
-0.192188
20
8.098282
30
-0.042188
11
-0.200000
21
21.600000
31
-0.000000
12
-0.192188
22
21.600000
32
-0.042188
0
3DFACE
8
/elevators.g/elevator_right.r
62
253
10
-0.192188
20
8.098282
30
-0.042188
11
-0.200000
21
8.100000
31
-0.000000
12
-0.200000
22
21.600000
32
-0.000000
0
3DFACE
8
/elevators.g/elevator_right.r
62
253
10
-0.168750
20
8.093129
30
-0.084375
11
-0.192188
21
21.600000
31
-0.042188
12
-0.168750
22
21.600000
32
-0.084375
0
3DFACE
8
/elevators.g/elevator_right.r
62
253
10
-0.168750
20
8.093129
30
-0.084375
11
-0.192188
21
8.098282
31
-0.042188
12
-0.192188
22
21.600000
32
-0.042188
0
3DFACE
8
/elevators.g/elevator_right.r
62
253
10
-0.129688
20
8.084540
30
-0.126563
11
-0.168750
21
21.600000
31
-0.084375
12
-0.129688
22
21.600000
32
-0.126563
0
3DFACE
8
/elevators.g/elevator_right.r
62
253
10
-0.129688
20
8.084540
30
-0.126563
11
-0.168750
21
8.093129
31
-0.084375
12
-0.168750
22
21.600000
32
-0.084375
0
3DFACE
8
/elevators.g/elevator_right.r
62
253
10
-0.075000
20
8.072516
30
-0.168750
11
-0.129688
21
21.600000
31
-0.126563
12
-0.075000
22
21.600000
32
-0.168750
0
3DFACE
8
/elevators.g/elevator_right.r
62
253
10
-0.075000
20
8.072516
30
-0.168750
11
-0.129688
21
8.084540
31
-0.126563
12
-0.129688
22
21.600000
32
-0.126563
0
3DFACE
8
/elevators.g/elevator_right.r
62
253
10
0.081250
20
8.038162
30
-0.253125
11
-0.075000
21
21.600000
31
-0.168750
12
0.081250
22
21.600000
32
-0.253125
0
3DFACE
8
/elevators.g/elevator_right.r
62
253
10
0.081250
20
8.038162
30
-0.253125
11
-0.075000
21
8.072516
31
-0.168750
12
-0.075000
22
21.600000
32
-0.168750
0
3DFACE
8
/elevators.g/elevator_right.r
62
253
10
0.300000
20
7.990065
30
-0.337500
11
0.081250
21
21.600000
31
-0.253125
12
0.300000
22
21.600000
32
-0.337500
0
3DFACE
8
/elevators.g/elevator_right.r
62
253
10
0.300000
20
7.990065
30
-0.337500
11
0.081250
21
8.038162
31
-0.253125
12
0.081250
22
21.600000
32
-0.253125
0
3DFACE
8
/elevators.g/elevator_right.r
62
253
10
0.581250
20
7.928227
30
-0.421875
11
0.300000
21
21.600000
31
-0.337500
12
0.581250
22
21.600000
32
-0.421875
0
3DFACE
8
/elevators.g/elevator_right.r
62
253
10
0.581250
20
7.928227
30
-0.421875
11
0.300000
21
7.990065
31
-0.337500
12
0.300000
22
21.600000
32
-0.337500
0
3DFACE
8
/elevators.g/elevator_right.r
62
253
10
0.925000
20
7.852647
30
-0.506250
11
0.581250
21
21.600000
31
-0.421875
12
0.925000
22
21.600000
32
-0.506250
0
3DFACE
8
/elevators.g/elevator_right.r
62
253
10
0.925000
20
7.852647
30
-0.506250
11
0.581250
21
7.928227
31
-0.421875
12
0.581250
22
21.600000
32
-0.421875
0
3DFACE
8
/elevators.g/elevator_right.r
62
253
10
1.112934
20
18.424582
30
-0.545282
11
0.925000
21
21.600000
31
-0.506250
12
0.943056
22
21.600000
32
-0.510000
0
3DFACE
8
/elevators.g/elevator_right.r
62
253
10
0.925000
20
7.852647
30
-0.506250
11
1.331250
21
14.666734
31
-0.590625
12
1.331250
22
7.763325
32
-0.590625
0
3DFACE
8
/elevators.g/elevator_right.r
62
253
10
0.925000
20
7.852647
30
-0.506250
11
0.925000
21
21.600000
31
-0.506250
12
1.331250
22
14.666734
32
-0.590625
0
3DFACE
8
/elevators.g/elevator_right.r
62
253
10
0.925000
20
21.600000
30
-0.506250
11
1.112934
21
18.424582
31
-0.545282
12
1.331250
22
14.666734
32
-0.590625
0
3DFACE
8
/elevators.g/elevator_right.r
62
253
10
1.800000
20
7.660261
30
-0.675000
11
1.331250
21
7.763325
31
-0.590625
12
1.331250
22
14.666734
32
-0.590625
0
3DFACE
8
/elevators.g/elevator_right.r
62
253
10
1.800000
20
21.600000
30
0.508038
11
1.800000
21
21.600000
31
0.510000
12
1.800000
22
19.408251
32
0.536788
0
3DFACE
8
/elevators.g/elevator_right.r
62
253
10
1.800000
20
20.622168
30
-0.520865
11
1.800000
21
21.600000
31
-0.510000
12
1.800000
22
21.600000
32
-0.508038
0
3DFACE
8
/elevators.g/elevator_right.r
62
253
10
1.800000
20
7.882011
30
0.672465
11
1.800000
21
7.660261
31
0.675000
12
1.800000
22
7.882011
32
-0.672290
0
3DFACE
8
/elevators.g/elevator_right.r
62
253
10
1.800000
20
7.660261
30
0.675000
11
1.800000
21
7.660261
31
-0.675000
12
1.800000
22
7.882011
32
-0.672290
0
3DFACE
8
/elevators.g/elevator_right.r
62
253
10
4.574485
20
17.479043
30
0.042187
11
4.574485
21
17.479043
31
-0.042187
12
4.050000
22
21.600000
32
0.045342
0
3DFACE
8
/elevators.g/elevator_right.r
62
253
10
4.574485
20
17.479043
30
-0.042187
11
4.050000
21
21.600000
31
-0.045342
12
4.050000
22
21.600000
32
0.045342
0
3DFACE
8
/elevators.g/elevator_right.r
62
253
10
5.933556
20
6.800630
30
-0.017663
11
4.574485
21
17.479043
31
0.042187
12
5.933556
22
6.800630
32
0.017663
0
3DFACE
8
/elevators.g/elevator_right.r
62
253
10
5.933556
20
6.800630
30
-0.017663
11
4.574485
21
17.479043
31
-0.042187
12
4.574485
22
17.479043
32
0.042187
0
3DFACE
8
/elevators.g/elevator_right.r
62
253
10
0.943056
20
21.600000
30
-0.510000
11
1.800000
21
20.622168
31
-0.520865
12
1.112934
22
18.424582
32
-0.545282
0
3DFACE
8
/elevators.g/elevator_right.r
62
253
10
1.800000
20
20.622168
30
-0.520865
11
1.878279
21
16.573544
31
-0.565850
12
1.112934
22
18.424582
32
-0.545282
0
3DFACE
8
/elevators.g/elevator_right.r
62
253
10
0.943056
20
21.600000
30
-0.510000
11
1.800000
21
21.600000
31
-0.510000
12
1.800000
22
20.622168
32
-0.520865
0
3DFACE
8
/elevators.g/elevator_right.r
62
253
10
1.331250
20
15.003409
30
0.590625
11
1.800000
21
21.600000
31
0.510000
12
0.943056
22
21.600000
32
0.510000
0
3DFACE
8
/elevators.g/elevator_right.r
62
253
10
1.833788
20
14.560267
30
0.596041
11
1.331250
21
15.003409
31
0.590625
12
1.445161
22
13.325806
32
0.611129
0
3DFACE
8
/elevators.g/elevator_right.r
62
253
10
1.833788
20
14.560267
30
0.596041
11
1.837996
21
15.003426
31
0.590625
12
1.331250
22
15.003409
32
0.590625
0
3DFACE
8
/elevators.g/elevator_right.r
62
253
10
1.331250
20
15.003409
30
0.590625
11
1.837996
21
15.003426
31
0.590625
12
1.800000
22
19.408251
32
0.536788
0
3DFACE
8
/elevators.g/elevator_right.r
62
253
10
1.331250
20
15.003409
30
0.590625
11
1.800000
21
19.408251
31
0.536788
12
1.800000
22
21.600000
32
0.510000
0
3DFACE
8
/elevators.g/elevator_right.r
62
253
10
1.828835
20
7.653923
30
-0.675000
11
2.793958
21
7.441719
31
0.590625
12
1.828835
22
7.653924
32
0.675000
0
3DFACE
8
/elevators.g/elevator_right.r
62
253
10
0.300000
20
7.990065
30
0.337500
11
1.331250
21
7.763325
31
0.590625
12
0.581250
22
7.928227
32
0.421875
0
3DFACE
8
/elevators.g/elevator_right.r
62
253
10
1.331250
20
7.763325
30
0.590625
11
0.925000
21
7.852647
31
0.506250
12
0.581250
22
7.928227
32
0.421875
0
3DFACE
8
/elevators.g/elevator_right.r
62
253
10
0.081250
20
8.038162
30
0.253125
11
1.800000
21
7.660261
31
0.675000
12
0.300000
22
7.990065
32
0.337500
0
3DFACE
8
/elevators.g/elevator_right.r
62
253
10
1.800000
20
7.660261
30
0.675000
11
1.331250
21
7.763325
31
0.590625
12
0.300000
22
7.990065
32
0.337500
0
3DFACE
8
/elevators.g/elevator_right.r
62
253
10
1.800000
20
7.660261
30
0.675000
11
1.331250
21
7.763325
31
-0.590625
12
1.800000
22
7.660261
32
-0.675000
0
3DFACE
8
/elevators.g/elevator_right.r
62
253
10
2.793958
20
7.441719
30
-0.590625
11
5.689324
21
6.805116
31
0.168750
12
1.828835
22
7.653923
32
-0.675000
0
3DFACE
8
/elevators.g/elevator_right.r
62
253
10
5.689324
20
6.805116
30
0.168750
11
5.367617
21
6.875850
31
0.253125
12
1.828835
22
7.653923
32
-0.675000
0
3DFACE
8
/elevators.g/elevator_right.r
62
253
10
4.917227
20
6.974877
30
-0.337500
11
5.791789
21
6.782587
31
-0.130359
12
4.338153
22
7.102198
32
-0.421875
0
3DFACE
8
/elevators.g/elevator_right.r
62
253
10
5.791789
20
6.782587
30
-0.130359
11
5.791789
21
6.782587
31
0.130359
12
4.338153
22
7.102198
32
-0.421875
0
3DFACE
8
/elevators.g/elevator_right.r
62
253
10
5.689324
20
6.805116
30
-0.168750
11
4.917227
21
6.974877
31
-0.337500
12
5.367617
22
6.875850
32
-0.253125
0
3DFACE
8
/elevators.g/elevator_right.r
62
253
10
5.689324
20
6.805116
30
-0.168750
11
5.791789
21
6.782587
31
-0.130359
12
4.917227
22
6.974877
32
-0.337500
0
3DFACE
8
/elevators.g/elevator_right.r
62
253
10
1.828835
20
7.653923
30
-0.675000
11
5.367617
21
6.875850
31
0.253125
12
4.917227
22
6.974877
32
0.337500
0
3DFACE
8
/elevators.g/elevator_right.r
62
253
10
1.828835
20
7.653923
30
-0.675000
11
4.917227
21
6.974877
31
0.337500
12
4.338153
22
7.102198
32
0.421875
0
3DFACE
8
/elevators.g/elevator_right.r
62
253
10
1.828835
20
7.653923
30
-0.675000
11
4.338153
21
7.102198
31
0.421875
12
3.630397
22
7.257812
32
0.506250
0
3DFACE
8
/elevators.g/elevator_right.r
62
253
10
1.828835
20
7.653923
30
-0.675000
11
3.630397
21
7.257812
31
0.506250
12
2.793958
22
7.441719
32
0.590625
0
3DFACE
8
/elevators.g/elevator_right.r
62
253
10
1.800000
20
7.660261
30
0.675000
11
0.081250
21
8.038162
31
0.253125
12
-0.075000
22
8.072516
32
0.168750
0
3DFACE
8
/elevators.g/elevator_right.r
62
253
10
1.800000
20
7.660261
30
0.675000
11
-0.075000
21
8.072516
31
0.168750
12
-0.129688
22
8.084540
32
0.126562
0
3DFACE
8
/elevators.g/elevator_right.r
62
253
10
1.800000
20
7.660261
30
0.675000
11
-0.129688
21
8.084540
31
0.126562
12
-0.168750
22
8.093129
32
0.084375
0
3DFACE
8
/elevators.g/elevator_right.r
62
253
10
1.800000
20
7.660261
30
0.675000
11
-0.168750
21
8.093129
31
0.084375
12
-0.192188
22
8.098282
32
0.042187
0
3DFACE
8
/elevators.g/elevator_right.r
62
253
10
1.800000
20
7.660261
30
0.675000
11
-0.192188
21
8.098282
31
0.042187
12
-0.200000
22
8.100000
32
-0.000000
0
3DFACE
8
/elevators.g/elevator_right.r
62
253
10
1.800000
20
7.660261
30
0.675000
11
-0.200000
21
8.100000
31
-0.000000
12
-0.192188
22
8.098282
32
-0.042188
0
3DFACE
8
/elevators.g/elevator_right.r
62
253
10
1.800000
20
7.660261
30
0.675000
11
-0.192188
21
8.098282
31
-0.042188
12
-0.168750
22
8.093129
32
-0.084375
0
3DFACE
8
/elevators.g/elevator_right.r
62
253
10
1.800000
20
7.660261
30
0.675000
11
-0.168750
21
8.093129
31
-0.084375
12
-0.129688
22
8.084540
32
-0.126563
0
3DFACE
8
/elevators.g/elevator_right.r
62
253
10
1.800000
20
7.660261
30
0.675000
11
-0.129688
21
8.084540
31
-0.126563
12
-0.075000
22
8.072516
32
-0.168750
0
3DFACE
8
/elevators.g/elevator_right.r
62
253
10
1.800000
20
7.660261
30
0.675000
11
-0.075000
21
8.072516
31
-0.168750
12
0.081250
22
8.038162
32
-0.253125
0
3DFACE
8
/elevators.g/elevator_right.r
62
253
10
1.800000
20
7.660261
30
0.675000
11
0.081250
21
8.038162
31
-0.253125
12
0.300000
22
7.990065
32
-0.337500
0
3DFACE
8
/elevators.g/elevator_right.r
62
253
10
1.800000
20
7.660261
30
0.675000
11
0.300000
21
7.990065
31
-0.337500
12
0.581250
22
7.928227
32
-0.421875
0
3DFACE
8
/elevators.g/elevator_right.r
62
253
10
1.800000
20
7.660261
30
0.675000
11
0.581250
21
7.928227
31
-0.421875
12
0.925000
22
7.852647
32
-0.506250
0
3DFACE
8
/elevators.g/elevator_right.r
62
253
10
1.800000
20
7.660261
30
0.675000
11
0.925000
21
7.852647
31
-0.506250
12
1.331250
22
7.763325
32
-0.590625
0
3DFACE
8
/elevators.g/elevator_right.r
62
253
10
2.793958
20
7.441719
30
-0.590625
11
5.791789
21
6.782587
31
0.130359
12
5.689324
22
6.805116
32
0.168750
0
3DFACE
8
/elevators.g/elevator_right.r
62
253
10
5.791789
20
6.782587
30
0.130359
11
2.793958
21
7.441719
31
-0.590625
12
3.630397
22
7.257812
32
-0.506250
0
3DFACE
8
/elevators.g/elevator_right.r
62
253
10
5.791789
20
6.782587
30
0.130359
11
3.630397
21
7.257812
31
-0.506250
12
4.338153
22
7.102198
32
-0.421875
0
3DFACE
8
/elevators.g/elevator_right.r
62
253
10
0.925000
20
21.600000
30
-0.506250
11
1.800000
21
21.600000
31
-0.510000
12
0.943056
22
21.600000
32
-0.510000
0
3DFACE
8
/elevators.g/elevator_right.r
62
253
10
0.581250
20
21.600000
30
-0.421875
11
1.817237
21
21.600000
31
-0.506250
12
0.925000
22
21.600000
32
-0.506250
0
3DFACE
8
/elevators.g/elevator_right.r
62
253
10
1.817237
20
21.600000
30
-0.506250
11
1.800000
21
21.600000
31
-0.508038
12
0.925000
22
21.600000
32
-0.506250
0
3DFACE
8
/elevators.g/elevator_right.r
62
253
10
0.300000
20
21.600000
30
-0.337500
11
2.505321
21
21.600000
31
-0.421875
12
0.581250
22
21.600000
32
-0.421875
0
3DFACE
8
/elevators.g/elevator_right.r
62
253
10
2.505321
20
21.600000
30
-0.421875
11
1.817237
21
21.600000
31
-0.506250
12
0.581250
22
21.600000
32
-0.421875
0
3DFACE
8
/elevators.g/elevator_right.r
62
253
10
0.081250
20
21.600000
30
-0.253125
11
3.068298
21
21.600000
31
-0.337500
12
0.300000
22
21.600000
32
-0.337500
0
3DFACE
8
/elevators.g/elevator_right.r
62
253
10
3.068298
20
21.600000
30
-0.337500
11
2.505321
21
21.600000
31
-0.421875
12
0.300000
22
21.600000
32
-0.337500
0
3DFACE
8
/elevators.g/elevator_right.r
62
253
10
-0.075000
20
21.600000
30
-0.168750
11
3.506169
21
21.600000
31
-0.253125
12
0.081250
22
21.600000
32
-0.253125
0
3DFACE
8
/elevators.g/elevator_right.r
62
253
10
3.506169
20
21.600000
30
-0.253125
11
3.068298
21
21.600000
31
-0.337500
12
0.081250
22
21.600000
32
-0.253125
0
3DFACE
8
/elevators.g/elevator_right.r
62
253
10
-0.129688
20
21.600000
30
-0.126563
11
3.818934
21
21.600000
31
-0.168750
12
-0.075000
22
21.600000
32
-0.168750
0
3DFACE
8
/elevators.g/elevator_right.r
62
253
10
3.818934
20
21.600000
30
-0.168750
11
3.506169
21
21.600000
31
-0.253125
12
-0.075000
22
21.600000
32
-0.168750
0
3DFACE
8
/elevators.g/elevator_right.r
62
253
10
-0.168750
20
21.600000
30
-0.084375
11
3.928402
21
21.600000
31
-0.126562
12
-0.129688
22
21.600000
32
-0.126563
0
3DFACE
8
/elevators.g/elevator_right.r
62
253
10
3.928402
20
21.600000
30
-0.126562
11
3.818934
21
21.600000
31
-0.168750
12
-0.129688
22
21.600000
32
-0.126563
0
3DFACE
8
/elevators.g/elevator_right.r
62
253
10
-0.192188
20
21.600000
30
-0.042188
11
4.006593
21
21.600000
31
-0.084375
12
-0.168750
22
21.600000
32
-0.084375
0
3DFACE
8
/elevators.g/elevator_right.r
62
253
10
4.006593
20
21.600000
30
-0.084375
11
3.928402
21
21.600000
31
-0.126562
12
-0.168750
22
21.600000
32
-0.084375
0
3DFACE
8
/elevators.g/elevator_right.r
62
253
10
-0.168750
20
21.600000
30
0.084375
11
4.050000
21
21.600000
31
0.045342
12
-0.192188
22
21.600000
32
0.042187
0
3DFACE
8
/elevators.g/elevator_right.r
62
253
10
4.050000
20
21.600000
30
0.045342
11
4.050000
21
21.600000
31
-0.045342
12
-0.192188
22
21.600000
32
0.042187
0
3DFACE
8
/elevators.g/elevator_right.r
62
253
10
-0.129688
20
21.600000
30
0.126562
11
3.928402
21
21.600000
31
0.126562
12
-0.168750
22
21.600000
32
0.084375
0
3DFACE
8
/elevators.g/elevator_right.r
62
253
10
3.928402
20
21.600000
30
0.126562
11
4.006593
21
21.600000
31
0.084375
12
-0.168750
22
21.600000
32
0.084375
0
3DFACE
8
/elevators.g/elevator_right.r
62
253
10
-0.075000
20
21.600000
30
0.168750
11
3.818934
21
21.600000
31
0.168750
12
-0.129688
22
21.600000
32
0.126562
0
3DFACE
8
/elevators.g/elevator_right.r
62
253
10
3.818934
20
21.600000
30
0.168750
11
3.928402
21
21.600000
31
0.126562
12
-0.129688
22
21.600000
32
0.126562
0
3DFACE
8
/elevators.g/elevator_right.r
62
253
10
0.081250
20
21.600000
30
0.253125
11
3.506169
21
21.600000
31
0.253125
12
-0.075000
22
21.600000
32
0.168750
0
3DFACE
8
/elevators.g/elevator_right.r
62
253
10
3.506169
20
21.600000
30
0.253125
11
3.818934
21
21.600000
31
0.168750
12
-0.075000
22
21.600000
32
0.168750
0
3DFACE
8
/elevators.g/elevator_right.r
62
253
10
0.300000
20
21.600000
30
0.337500
11
3.068298
21
21.600000
31
0.337500
12
0.081250
22
21.600000
32
0.253125
0
3DFACE
8
/elevators.g/elevator_right.r
62
253
10
3.068298
20
21.600000
30
0.337500
11
3.506169
21
21.600000
31
0.253125
12
0.081250
22
21.600000
32
0.253125
0
3DFACE
8
/elevators.g/elevator_right.r
62
253
10
0.581250
20
21.600000
30
0.421875
11
2.505321
21
21.600000
31
0.421875
12
0.300000
22
21.600000
32
0.337500
0
3DFACE
8
/elevators.g/elevator_right.r
62
253
10
2.505321
20
21.600000
30
0.421875
11
3.068298
21
21.600000
31
0.337500
12
0.300000
22
21.600000
32
0.337500
0
3DFACE
8
/elevators.g/elevator_right.r
62
253
10
0.925000
20
21.600000
30
0.506250
11
1.817237
21
21.600000
31
0.506250
12
0.581250
22
21.600000
32
0.421875
0
3DFACE
8
/elevators.g/elevator_right.r
62
253
10
1.817237
20
21.600000
30
0.506250
11
2.505321
21
21.600000
31
0.421875
12
0.581250
22
21.600000
32
0.421875
0
3DFACE
8
/elevators.g/elevator_right.r
62
253
10
0.943056
20
21.600000
30
0.510000
11
1.800000
21
21.600000
31
0.508038
12
0.925000
22
21.600000
32
0.506250
0
3DFACE
8
/elevators.g/elevator_right.r
62
253
10
1.800000
20
21.600000
30
0.508038
11
1.817237
21
21.600000
31
0.506250
12
0.925000
22
21.600000
32
0.506250
0
3DFACE
8
/elevators.g/elevator_right.r
62
253
10
0.943056
20
21.600000
30
0.510000
11
1.800000
21
21.600000
31
0.510000
12
1.800000
22
21.600000
32
0.508038
0
3DFACE
8
/elevators.g/elevator_right.r
62
253
10
0.925000
20
21.600000
30
-0.506250
11
1.800000
21
21.600000
31
-0.508038
12
1.800000
22
21.600000
32
-0.510000
0
3DFACE
8
/elevators.g/elevator_right.r
62
253
10
-0.192188
20
21.600000
30
-0.042188
11
4.050000
21
21.600000
31
-0.045342
12
4.006593
22
21.600000
32
-0.084375
0
3DFACE
8
/elevators.g/elevator_right.r
62
253
10
-0.168750
20
21.600000
30
0.084375
11
4.006593
21
21.600000
31
0.084375
12
4.050000
22
21.600000
32
0.045342
0
3DFACE
8
/elevators.g/elevator_right.r
62
253
10
4.050000
20
21.600000
30
-0.045342
11
-0.192188
21
21.600000
31
-0.042188
12
-0.200000
22
21.600000
32
-0.000000
0
3DFACE
8
/elevators.g/elevator_right.r
62
253
10
4.050000
20
21.600000
30
-0.045342
11
-0.200000
21
21.600000
31
-0.000000
12
-0.192188
22
21.600000
32
0.042187
0
3DFACE
8
/elevators.g/elevator_right.r
62
253
10
1.800000
20
7.882011
30
0.672465
11
1.445161
21
13.325806
31
0.611129
12
1.800000
22
7.660261
32
0.675000
0
3DFACE
8
/elevators.g/elevator_right.r
62
253
10
1.833788
20
14.560267
30
0.596041
11
1.800000
21
7.882011
31
0.672465
12
1.828835
22
7.653924
32
0.675000
0
3DFACE
8
/elevators.g/elevator_right.r
62
253
10
1.833788
20
14.560267
30
0.596041
11
1.445161
21
13.325806
31
0.611129
12
1.800000
22
7.882011
32
0.672465
0
3DFACE
8
/elevators.g/elevator_right.r
62
253
10
1.331250
20
14.666734
30
-0.590625
11
1.800000
21
7.882011
31
-0.672290
12
1.800000
22
7.660261
32
-0.675000
0
3DFACE
8
/elevators.g/elevator_right.r
62
253
10
1.112934
20
18.424582
30
-0.545282
11
1.896264
21
14.542521
31
-0.590625
12
1.331250
22
14.666734
32
-0.590625
0
3DFACE
8
/elevators.g/elevator_right.r
62
253
10
1.896264
20
14.542521
30
-0.590625
11
1.828835
21
7.653923
31
-0.675000
12
1.331250
22
14.666734
32
-0.590625
0
3DFACE
8
/elevators.g/elevator_right.r
62
253
10
1.112934
20
18.424582
30
-0.545282
11
1.878279
21
16.573544
31
-0.565850
12
1.896264
22
14.542521
32
-0.590625
0
3DFACE
8
/elevators.g/elevator_right.r
62
253
10
1.828835
20
7.653923
30
-0.675000
11
1.800000
21
7.882011
31
-0.672290
12
1.331250
22
14.666734
32
-0.590625
0
3DFACE
8
/elevators.g/elevator_right.r
62
253
10
1.828835
20
7.653924
30
0.675000
11
1.800000
21
7.882011
31
-0.672290
12
1.828835
22
7.653923
32
-0.675000
0
3DFACE
8
/elevators.g/elevator_right.r
62
253
10
1.828835
20
7.653924
30
0.675000
11
1.800000
21
7.882011
31
0.672465
12
1.800000
22
7.882011
32
-0.672290
0
3DFACE
8
/elevators.g/elevator_right.r
62
253
10
2.793958
20
7.441719
30
0.590625
11
1.837996
21
15.003426
31
0.590625
12
1.828835
22
7.653924
32
0.675000
0
3DFACE
8
/elevators.g/elevator_right.r
62
253
10
1.837996
20
15.003426
30
0.590625
11
1.833788
21
14.560267
31
0.596041
12
1.828835
22
7.653924
32
0.675000
0
3DFACE
8
/elevators.g/elevator_right.r
62
253
10
3.630397
20
7.257812
30
0.506250
11
1.817237
21
21.600000
31
0.506250
12
2.793958
22
7.441719
32
0.590625
0
3DFACE
8
/elevators.g/elevator_right.r
62
253
10
1.817237
20
21.600000
30
0.506250
11
1.800000
21
21.600000
31
0.508038
12
1.800000
22
19.408251
32
0.536788
0
3DFACE
8
/elevators.g/elevator_right.r
62
253
10
1.817237
20
21.600000
30
0.506250
11
1.800000
21
19.408251
31
0.536788
12
1.837996
22
15.003426
32
0.590625
0
3DFACE
8
/elevators.g/elevator_right.r
62
253
10
1.817237
20
21.600000
30
0.506250
11
1.837996
21
15.003426
31
0.590625
12
2.793958
22
7.441719
32
0.590625
0
3DFACE
8
/elevators.g/elevator_right.r
62
253
10
4.338153
20
7.102198
30
0.421875
11
2.505321
21
21.600000
31
0.421875
12
3.630397
22
7.257812
32
0.506250
0
3DFACE
8
/elevators.g/elevator_right.r
62
253
10
2.505321
20
21.600000
30
0.421875
11
1.817237
21
21.600000
31
0.506250
12
3.630397
22
7.257812
32
0.506250
0
3DFACE
8
/elevators.g/elevator_right.r
62
253
10
4.917227
20
6.974877
30
0.337500
11
3.068298
21
21.600000
31
0.337500
12
4.338153
22
7.102198
32
0.421875
0
3DFACE
8
/elevators.g/elevator_right.r
62
253
10
3.068298
20
21.600000
30
0.337500
11
2.505321
21
21.600000
31
0.421875
12
4.338153
22
7.102198
32
0.421875
0
3DFACE
8
/elevators.g/elevator_right.r
62
253
10
5.367617
20
6.875850
30
0.253125
11
3.506169
21
21.600000
31
0.253125
12
4.917227
22
6.974877
32
0.337500
0
3DFACE
8
/elevators.g/elevator_right.r
62
253
10
3.506169
20
21.600000
30
0.253125
11
3.068298
21
21.600000
31
0.337500
12
4.917227
22
6.974877
32
0.337500
0
3DFACE
8
/elevators.g/elevator_right.r
62
253
10
5.689324
20
6.805116
30
0.168750
11
3.818934
21
21.600000
31
0.168750
12
5.367617
22
6.875850
32
0.253125
0
3DFACE
8
/elevators.g/elevator_right.r
62
253
10
3.818934
20
21.600000
30
0.168750
11
3.506169
21
21.600000
31
0.253125
12
5.367617
22
6.875850
32
0.253125
0
3DFACE
8
/elevators.g/elevator_right.r
62
253
10
5.791789
20
6.782587
30
0.130359
11
5.801484
21
6.783821
31
0.126562
12
5.689324
22
6.805116
32
0.168750
0
3DFACE
8
/elevators.g/elevator_right.r
62
253
10
5.801484
20
6.783821
30
0.126562
11
3.928402
21
21.600000
31
0.126562
12
5.689324
22
6.805116
32
0.168750
0
3DFACE
8
/elevators.g/elevator_right.r
62
253
10
3.928402
20
21.600000
30
0.126562
11
3.818934
21
21.600000
31
0.168750
12
5.689324
22
6.805116
32
0.168750
0
3DFACE
8
/elevators.g/elevator_right.r
62
253
10
5.801484
20
6.783821
30
0.126562
11
5.878438
21
6.793615
31
0.084375
12
3.928402
22
21.600000
32
0.126562
0
3DFACE
8
/elevators.g/elevator_right.r
62
253
10
5.878438
20
6.793615
30
0.084375
11
4.006593
21
21.600000
31
0.084375
12
3.928402
22
21.600000
32
0.126562
0
3DFACE
8
/elevators.g/elevator_right.r
62
253
10
5.878438
20
6.793615
30
0.084375
11
4.574485
21
17.479043
31
0.042187
12
4.006593
22
21.600000
32
0.084375
0
3DFACE
8
/elevators.g/elevator_right.r
62
253
10
4.574485
20
17.479043
30
0.042187
11
4.050000
21
21.600000
31
0.045342
12
4.006593
22
21.600000
32
0.084375
0
3DFACE
8
/elevators.g/elevator_right.r
62
253
10
5.878438
20
6.793615
30
0.084375
11
5.924609
21
6.799491
31
0.042187
12
4.574485
22
17.479043
32
0.042187
0
3DFACE
8
/elevators.g/elevator_right.r
62
253
10
4.574485
20
17.479043
30
0.042187
11
5.924609
21
6.799491
31
0.042187
12
5.933556
22
6.800630
32
0.017663
0
3DFACE
8
/elevators.g/elevator_right.r
62
253
10
4.574485
20
17.479043
30
-0.042187
11
5.933556
21
6.800630
31
-0.017663
12
5.924609
22
6.799491
32
-0.042187
0
3DFACE
8
/elevators.g/elevator_right.r
62
253
10
5.924609
20
6.799491
30
-0.042187
11
5.878438
21
6.793615
31
-0.084375
12
4.574485
22
17.479043
32
-0.042187
0
3DFACE
8
/elevators.g/elevator_right.r
62
253
10
5.878438
20
6.793615
30
-0.084375
11
4.006593
21
21.600000
31
-0.084375
12
4.574485
22
17.479043
32
-0.042187
0
3DFACE
8
/elevators.g/elevator_right.r
62
253
10
4.006593
20
21.600000
30
-0.084375
11
4.050000
21
21.600000
31
-0.045342
12
4.574485
22
17.479043
32
-0.042187
0
3DFACE
8
/elevators.g/elevator_right.r
62
253
10
5.801484
20
6.783821
30
-0.126562
11
4.006593
21
21.600000
31
-0.084375
12
5.878438
22
6.793615
32
-0.084375
0
3DFACE
8
/elevators.g/elevator_right.r
62
253
10
5.801484
20
6.783821
30
-0.126562
11
3.928402
21
21.600000
31
-0.126562
12
4.006593
22
21.600000
32
-0.084375
0
3DFACE
8
/elevators.g/elevator_right.r
62
253
10
5.801484
20
6.783821
30
-0.126562
11
5.689324
21
6.805116
31
-0.168750
12
3.928402
22
21.600000
32
-0.126562
0
3DFACE
8
/elevators.g/elevator_right.r
62
253
10
5.689324
20
6.805116
30
-0.168750
11
3.818934
21
21.600000
31
-0.168750
12
3.928402
22
21.600000
32
-0.126562
0
3DFACE
8
/elevators.g/elevator_right.r
62
253
10
5.801484
20
6.783821
30
-0.126562
11
5.791789
21
6.782587
31
-0.130359
12
5.689324
22
6.805116
32
-0.168750
0
3DFACE
8
/elevators.g/elevator_right.r
62
253
10
5.367617
20
6.875850
30
-0.253125
11
3.818934
21
21.600000
31
-0.168750
12
5.689324
22
6.805116
32
-0.168750
0
3DFACE
8
/elevators.g/elevator_right.r
62
253
10
5.367617
20
6.875850
30
-0.253125
11
3.506169
21
21.600000
31
-0.253125
12
3.818934
22
21.600000
32
-0.168750
0
3DFACE
8
/elevators.g/elevator_right.r
62
253
10
4.917227
20
6.974877
30
-0.337500
11
3.506169
21
21.600000
31
-0.253125
12
5.367617
22
6.875850
32
-0.253125
0
3DFACE
8
/elevators.g/elevator_right.r
62
253
10
4.917227
20
6.974877
30
-0.337500
11
3.068298
21
21.600000
31
-0.337500
12
3.506169
22
21.600000
32
-0.253125
0
3DFACE
8
/elevators.g/elevator_right.r
62
253
10
4.338153
20
7.102198
30
-0.421875
11
3.068298
21
21.600000
31
-0.337500
12
4.917227
22
6.974877
32
-0.337500
0
3DFACE
8
/elevators.g/elevator_right.r
62
253
10
4.338153
20
7.102198
30
-0.421875
11
2.505321
21
21.600000
31
-0.421875
12
3.068298
22
21.600000
32
-0.337500
0
3DFACE
8
/elevators.g/elevator_right.r
62
253
10
3.630397
20
7.257812
30
-0.506250
11
2.505321
21
21.600000
31
-0.421875
12
4.338153
22
7.102198
32
-0.421875
0
3DFACE
8
/elevators.g/elevator_right.r
62
253
10
3.630397
20
7.257812
30
-0.506250
11
1.817237
21
21.600000
31
-0.506250
12
2.505321
22
21.600000
32
-0.421875
0
3DFACE
8
/elevators.g/elevator_right.r
62
253
10
3.630397
20
7.257812
30
-0.506250
11
1.800000
21
20.622168
31
-0.520865
12
1.817237
22
21.600000
32
-0.506250
0
3DFACE
8
/elevators.g/elevator_right.r
62
253
10
1.800000
20
20.622168
30
-0.520865
11
1.800000
21
21.600000
31
-0.508038
12
1.817237
22
21.600000
32
-0.506250
0
3DFACE
8
/elevators.g/elevator_right.r
62
253
10
3.630397
20
7.257812
30
-0.506250
11
2.793958
21
7.441719
31
-0.590625
12
1.896264
22
14.542521
32
-0.590625
0
3DFACE
8
/elevators.g/elevator_right.r
62
253
10
3.630397
20
7.257812
30
-0.506250
11
1.896264
21
14.542521
31
-0.590625
12
1.878279
22
16.573544
32
-0.565850
0
3DFACE
8
/elevators.g/elevator_right.r
62
253
10
3.630397
20
7.257812
30
-0.506250
11
1.878279
21
16.573544
31
-0.565850
12
1.800000
22
20.622168
32
-0.520865
0
3DFACE
8
/elevators.g/elevator_right.r
62
253
10
1.896264
20
14.542521
30
-0.590625
11
2.793958
21
7.441719
31
-0.590625
12
1.828835
22
7.653923
32
-0.675000
0
3DFACE
8
/elevators.g/elevator_right.r
62
253
10
5.791789
20
6.782587
30
-0.130359
11
5.801484
21
6.783821
31
0.126562
12
5.791789
22
6.782587
32
0.130359
0
3DFACE
8
/elevators.g/elevator_right.r
62
253
10
5.791789
20
6.782587
30
-0.130359
11
5.801484
21
6.783821
31
-0.126562
12
5.878438
22
6.793615
32
-0.084375
0
3DFACE
8
/elevators.g/elevator_right.r
62
253
10
5.791789
20
6.782587
30
-0.130359
11
5.878438
21
6.793615
31
-0.084375
12
5.924609
22
6.799491
32
-0.042187
0
3DFACE
8
/elevators.g/elevator_right.r
62
253
10
5.791789
20
6.782587
30
-0.130359
11
5.924609
21
6.799491
31
-0.042187
12
5.933556
22
6.800630
32
-0.017663
0
3DFACE
8
/elevators.g/elevator_right.r
62
253
10
5.791789
20
6.782587
30
-0.130359
11
5.933556
21
6.800630
31
-0.017663
12
5.933556
22
6.800630
32
0.017663
0
3DFACE
8
/elevators.g/elevator_right.r
62
253
10
5.791789
20
6.782587
30
-0.130359
11
5.933556
21
6.800630
31
0.017663
12
5.924609
22
6.799491
32
0.042187
0
3DFACE
8
/elevators.g/elevator_right.r
62
253
10
5.791789
20
6.782587
30
-0.130359
11
5.924609
21
6.799491
31
0.042187
12
5.878438
22
6.793615
32
0.084375
0
3DFACE
8
/elevators.g/elevator_right.r
62
253
10
5.791789
20
6.782587
30
-0.130359
11
5.878438
21
6.793615
31
0.084375
12
5.801484
22
6.783821
32
0.126562
0
3DFACE
8
/elevators.g/elevator_left.r
62
253
10
1.800000
20
-7.660261
30
-0.675000
11
1.445161
21
-13.325806
31
-0.611129
12
1.331250
22
-7.763325
32
-0.590625
0
3DFACE
8
/elevators.g/elevator_left.r
62
253
10
1.445161
20
-13.325806
30
-0.611129
11
1.331250
21
-15.003409
31
-0.590625
12
1.331250
22
-7.763325
32
-0.590625
0
3DFACE
8
/elevators.g/elevator_left.r
62
253
10
1.331250
20
-7.763325
30
-0.590625
11
1.331250
21
-15.003409
31
-0.590625
12
0.925000
22
-7.852647
32
-0.506250
0
3DFACE
8
/elevators.g/elevator_left.r
62
253
10
0.925000
20
-7.852647
30
-0.506250
11
0.943056
21
-21.600000
31
-0.510000
12
0.925000
22
-21.600000
32
-0.506250
0
3DFACE
8
/elevators.g/elevator_left.r
62
253
10
0.925000
20
-7.852647
30
-0.506250
11
1.331250
21
-15.003409
31
-0.590625
12
0.943056
22
-21.600000
32
-0.510000
0
3DFACE
8
/elevators.g/elevator_left.r
62
253
10
0.925000
20
-7.852647
30
-0.506250
11
0.925000
21
-21.600000
31
-0.506250
12
0.581250
22
-7.928227
32
-0.421875
0
3DFACE
8
/elevators.g/elevator_left.r
62
253
10
0.925000
20
-21.600000
30
-0.506250
11
0.581250
21
-21.600000
31
-0.421875
12
0.581250
22
-7.928227
32
-0.421875
0
3DFACE
8
/elevators.g/elevator_left.r
62
253
10
0.581250
20
-7.928227
30
-0.421875
11
0.581250
21
-21.600000
31
-0.421875
12
0.300000
22
-7.990065
32
-0.337500
0
3DFACE
8
/elevators.g/elevator_left.r
62
253
10
0.581250
20
-21.600000
30
-0.421875
11
0.300000
21
-21.600000
31
-0.337500
12
0.300000
22
-7.990065
32
-0.337500
0
3DFACE
8
/elevators.g/elevator_left.r
62
253
10
0.300000
20
-7.990065
30
-0.337500
11
0.300000
21
-21.600000
31
-0.337500
12
0.081250
22
-8.038162
32
-0.253125
0
3DFACE
8
/elevators.g/elevator_left.r
62
253
10
0.300000
20
-21.600000
30
-0.337500
11
0.081250
21
-21.600000
31
-0.253125
12
0.081250
22
-8.038162
32
-0.253125
0
3DFACE
8
/elevators.g/elevator_left.r
62
253
10
0.081250
20
-8.038162
30
-0.253125
11
0.081250
21
-21.600000
31
-0.253125
12
-0.075000
22
-8.072516
32
-0.168750
0
3DFACE
8
/elevators.g/elevator_left.r
62
253
10
0.081250
20
-21.600000
30
-0.253125
11
-0.075000
21
-21.600000
31
-0.168750
12
-0.075000
22
-8.072516
32
-0.168750
0
3DFACE
8
/elevators.g/elevator_left.r
62
253
10
-0.075000
20
-8.072516
30
-0.168750
11
-0.075000
21
-21.600000
31
-0.168750
12
-0.129688
22
-8.084540
32
-0.126563
0
3DFACE
8
/elevators.g/elevator_left.r
62
253
10
-0.075000
20
-21.600000
30
-0.168750
11
-0.129688
21
-21.600000
31
-0.126563
12
-0.129688
22
-8.084540
32
-0.126563
0
3DFACE
8
/elevators.g/elevator_left.r
62
253
10
-0.129688
20
-21.600000
30
-0.126563
11
-0.168750
21
-8.093129
31
-0.084375
12
-0.129688
22
-8.084540
32
-0.126563
0
3DFACE
8
/elevators.g/elevator_left.r
62
253
10
-0.129688
20
-21.600000
30
-0.126563
11
-0.168750
21
-21.600000
31
-0.084375
12
-0.168750
22
-8.093129
32
-0.084375
0
3DFACE
8
/elevators.g/elevator_left.r
62
253
10
-0.168750
20
-21.600000
30
-0.084375
11
-0.192188
21
-8.098282
31
-0.042188
12
-0.168750
22
-8.093129
32
-0.084375
0
3DFACE
8
/elevators.g/elevator_left.r
62
253
10
-0.168750
20
-21.600000
30
-0.084375
11
-0.192188
21
-21.600000
31
-0.042188
12
-0.192188
22
-8.098282
32
-0.042188
0
3DFACE
8
/elevators.g/elevator_left.r
62
253
10
-0.192188
20
-21.600000
30
-0.042188
11
-0.200000
21
-8.100000
31
-0.000000
12
-0.192188
22
-8.098282
32
-0.042188
0
3DFACE
8
/elevators.g/elevator_left.r
62
253
10
-0.192188
20
-21.600000
30
-0.042188
11
-0.200000
21
-21.600000
31
-0.000000
12
-0.200000
22
-8.100000
32
-0.000000
0
3DFACE
8
/elevators.g/elevator_left.r
62
253
10
-0.192188
20
-8.098282
30
0.042187
11
-0.200000
21
-21.600000
31
-0.000000
12
-0.192188
22
-21.600000
32
0.042187
0
3DFACE
8
/elevators.g/elevator_left.r
62
253
10
-0.192188
20
-8.098282
30
0.042187
11
-0.200000
21
-8.100000
31
-0.000000
12
-0.200000
22
-21.600000
32
-0.000000
0
3DFACE
8
/elevators.g/elevator_left.r
62
253
10
-0.168750
20
-8.093129
30
0.084375
11
-0.192188
21
-21.600000
31
0.042187
12
-0.168750
22
-21.600000
32
0.084375
0
3DFACE
8
/elevators.g/elevator_left.r
62
253
10
-0.168750
20
-8.093129
30
0.084375
11
-0.192188
21
-8.098282
31
0.042187
12
-0.192188
22
-21.600000
32
0.042187
0
3DFACE
8
/elevators.g/elevator_left.r
62
253
10
-0.129688
20
-8.084540
30
0.126562
11
-0.168750
21
-21.600000
31
0.084375
12
-0.129688
22
-21.600000
32
0.126562
0
3DFACE
8
/elevators.g/elevator_left.r
62
253
10
-0.129688
20
-8.084540
30
0.126562
11
-0.168750
21
-8.093129
31
0.084375
12
-0.168750
22
-21.600000
32
0.084375
0
3DFACE
8
/elevators.g/elevator_left.r
62
253
10
-0.075000
20
-8.072516
30
0.168750
11
-0.129688
21
-21.600000
31
0.126562
12
-0.075000
22
-21.600000
32
0.168750
0
3DFACE
8
/elevators.g/elevator_left.r
62
253
10
-0.075000
20
-8.072516
30
0.168750
11
-0.129688
21
-8.084540
31
0.126562
12
-0.129688
22
-21.600000
32
0.126562
0
3DFACE
8
/elevators.g/elevator_left.r
62
253
10
0.081250
20
-8.038162
30
0.253125
11
-0.075000
21
-21.600000
31
0.168750
12
0.081250
22
-21.600000
32
0.253125
0
3DFACE
8
/elevators.g/elevator_left.r
62
253
10
0.081250
20
-8.038162
30
0.253125
11
-0.075000
21
-8.072516
31
0.168750
12
-0.075000
22
-21.600000
32
0.168750
0
3DFACE
8
/elevators.g/elevator_left.r
62
253
10
0.300000
20
-7.990065
30
0.337500
11
0.081250
21
-21.600000
31
0.253125
12
0.300000
22
-21.600000
32
0.337500
0
3DFACE
8
/elevators.g/elevator_left.r
62
253
10
0.300000
20
-7.990065
30
0.337500
11
0.081250
21
-8.038162
31
0.253125
12
0.081250
22
-21.600000
32
0.253125
0
3DFACE
8
/elevators.g/elevator_left.r
62
253
10
0.581250
20
-7.928227
30
0.421875
11
0.300000
21
-21.600000
31
0.337500
12
0.581250
22
-21.600000
32
0.421875
0
3DFACE
8
/elevators.g/elevator_left.r
62
253
10
0.581250
20
-7.928227
30
0.421875
11
0.300000
21
-7.990065
31
0.337500
12
0.300000
22
-21.600000
32
0.337500
0
3DFACE
8
/elevators.g/elevator_left.r
62
253
10
0.925000
20
-7.852647
30
0.506250
11
0.581250
21
-21.600000
31
0.421875
12
0.925000
22
-21.600000
32
0.506250
0
3DFACE
8
/elevators.g/elevator_left.r
62
253
10
0.925000
20
-7.852647
30
0.506250
11
0.581250
21
-7.928227
31
0.421875
12
0.581250
22
-21.600000
32
0.421875
0
3DFACE
8
/elevators.g/elevator_left.r
62
253
10
0.925000
20
-21.600000
30
0.506250
11
1.331250
21
-14.666734
31
0.590625
12
0.925000
22
-7.852647
32
0.506250
0
3DFACE
8
/elevators.g/elevator_left.r
62
253
10
1.331250
20
-14.666734
30
0.590625
11
1.331250
21
-7.763325
31
0.590625
12
0.925000
22
-7.852647
32
0.506250
0
3DFACE
8
/elevators.g/elevator_left.r
62
253
10
0.925000
20
-21.600000
30
0.506250
11
0.943056
21
-21.600000
31
0.510000
12
1.112934
22
-18.424582
32
0.545282
0
3DFACE
8
/elevators.g/elevator_left.r
62
253
10
0.925000
20
-21.600000
30
0.506250
11
1.112934
21
-18.424582
31
0.545282
12
1.331250
22
-14.666734
32
0.590625
0
3DFACE
8
/elevators.g/elevator_left.r
62
253
10
1.800000
20
-7.660261
30
0.675000
11
1.331250
21
-7.763325
31
0.590625
12
1.331250
22
-14.666734
32
0.590625
0
3DFACE
8
/elevators.g/elevator_left.r
62
253
10
1.800000
20
-7.882011
30
0.672290
11
1.800000
21
-7.660261
31
-0.675000
12
1.800000
22
-7.660261
32
0.675000
0
3DFACE
8
/elevators.g/elevator_left.r
62
253
10
1.800000
20
-21.600000
30
-0.508038
11
1.800000
21
-21.600000
31
-0.510000
12
1.800000
22
-19.408251
32
-0.536788
0
3DFACE
8
/elevators.g/elevator_left.r
62
253
10
1.800000
20
-20.622168
30
0.520865
11
1.800000
21
-21.600000
31
0.510000
12
1.800000
22
-21.600000
32
0.508038
0
3DFACE
8
/elevators.g/elevator_left.r
62
253
10
1.800000
20
-7.882011
30
0.672290
11
1.800000
21
-7.882011
31
-0.672465
12
1.800000
22
-7.660261
32
-0.675000
0
3DFACE
8
/elevators.g/elevator_left.r
62
253
10
5.933556
20
-6.800630
30
0.017663
11
4.574485
21
-17.479043
31
0.042187
12
5.933556
22
-6.800630
32
-0.017663
0
3DFACE
8
/elevators.g/elevator_left.r
62
253
10
4.050000
20
-21.600000
30
0.045342
11
4.574485
21
-17.479043
31
-0.042187
12
4.574485
22
-17.479043
32
0.042187
0
3DFACE
8
/elevators.g/elevator_left.r
62
253
10
4.574485
20
-17.479043
30
-0.042187
11
5.933556
21
-6.800630
31
-0.017663
12
4.574485
22
-17.479043
32
0.042187
0
3DFACE
8
/elevators.g/elevator_left.r
62
253
10
4.050000
20
-21.600000
30
0.045342
11
4.050000
21
-21.600000
31
-0.045342
12
4.574485
22
-17.479043
32
-0.042187
0
3DFACE
8
/elevators.g/elevator_left.r
62
253
10
0.943056
20
-21.600000
30
0.510000
11
1.800000
21
-20.622168
31
0.520865
12
1.112934
22
-18.424582
32
0.545282
0
3DFACE
8
/elevators.g/elevator_left.r
62
253
10
1.800000
20
-20.622168
30
0.520865
11
1.878279
21
-16.573544
31
0.565850
12
1.112934
22
-18.424582
32
0.545282
0
3DFACE
8
/elevators.g/elevator_left.r
62
253
10
0.943056
20
-21.600000
30
0.510000
11
1.800000
21
-21.600000
31
0.510000
12
1.800000
22
-20.622168
32
0.520865
0
3DFACE
8
/elevators.g/elevator_left.r
62
253
10
1.331250
20
-15.003409
30
-0.590625
11
1.800000
21
-21.600000
31
-0.510000
12
0.943056
22
-21.600000
32
-0.510000
0
3DFACE
8
/elevators.g/elevator_left.r
62
253
10
1.833788
20
-14.560267
30
-0.596041
11
1.331250
21
-15.003409
31
-0.590625
12
1.445161
22
-13.325806
32
-0.611129
0
3DFACE
8
/elevators.g/elevator_left.r
62
253
10
1.833788
20
-14.560267
30
-0.596041
11
1.837996
21
-15.003426
31
-0.590625
12
1.331250
22
-15.003409
32
-0.590625
0
3DFACE
8
/elevators.g/elevator_left.r
62
253
10
1.331250
20
-15.003409
30
-0.590625
11
1.837996
21
-15.003426
31
-0.590625
12
1.800000
22
-19.408251
32
-0.536788
0
3DFACE
8
/elevators.g/elevator_left.r
62
253
10
1.331250
20
-15.003409
30
-0.590625
11
1.800000
21
-19.408251
31
-0.536788
12
1.800000
22
-21.600000
32
-0.510000
0
3DFACE
8
/elevators.g/elevator_left.r
62
253
10
4.917227
20
-6.974877
30
-0.337500
11
5.689324
21
-6.805116
31
-0.168750
12
5.367617
22
-6.875850
32
-0.253125
0
3DFACE
8
/elevators.g/elevator_left.r
62
253
10
0.300000
20
-7.990065
30
0.337500
11
1.800000
21
-7.660261
31
0.675000
12
0.081250
22
-8.038162
32
0.253125
0
3DFACE
8
/elevators.g/elevator_left.r
62
253
10
4.338153
20
-7.102198
30
-0.421875
11
5.791789
21
-6.782587
31
-0.130359
12
4.917227
22
-6.974877
32
-0.337500
0
3DFACE
8
/elevators.g/elevator_left.r
62
253
10
5.791789
20
-6.782587
30
-0.130359
11
5.689324
21
-6.805116
31
-0.168750
12
4.917227
22
-6.974877
32
-0.337500
0
3DFACE
8
/elevators.g/elevator_left.r
62
253
10
1.828835
20
-7.653924
30
-0.675000
11
5.791789
21
-6.782587
31
0.130359
12
2.793958
22
-7.441719
32
-0.590625
0
3DFACE
8
/elevators.g/elevator_left.r
62
253
10
5.791789
20
-6.782587
30
0.130359
11
5.791789
21
-6.782587
31
-0.130359
12
2.793958
22
-7.441719
32
-0.590625
0
3DFACE
8
/elevators.g/elevator_left.r
62
253
10
1.828835
20
-7.653923
30
0.675000
11
5.367617
21
-6.875850
31
0.253125
12
1.828835
22
-7.653924
32
-0.675000
0
3DFACE
8
/elevators.g/elevator_left.r
62
253
10
5.367617
20
-6.875850
30
0.253125
11
5.689324
21
-6.805116
31
0.168750
12
1.828835
22
-7.653924
32
-0.675000
0
3DFACE
8
/elevators.g/elevator_left.r
62
253
10
1.800000
20
-7.660261
30
0.675000
11
1.800000
21
-7.660261
31
-0.675000
12
0.081250
22
-8.038162
32
0.253125
0
3DFACE
8
/elevators.g/elevator_left.r
62
253
10
0.581250
20
-7.928227
30
0.421875
11
1.331250
21
-7.763325
31
0.590625
12
0.300000
22
-7.990065
32
0.337500
0
3DFACE
8
/elevators.g/elevator_left.r
62
253
10
1.331250
20
-7.763325
30
0.590625
11
1.800000
21
-7.660261
31
0.675000
12
0.300000
22
-7.990065
32
0.337500
0
3DFACE
8
/elevators.g/elevator_left.r
62
253
10
0.581250
20
-7.928227
30
0.421875
11
0.925000
21
-7.852647
31
0.506250
12
1.331250
22
-7.763325
32
0.590625
0
3DFACE
8
/elevators.g/elevator_left.r
62
253
10
1.828835
20
-7.653924
30
-0.675000
11
5.689324
21
-6.805116
31
0.168750
12
5.791789
22
-6.782587
32
0.130359
0
3DFACE
8
/elevators.g/elevator_left.r
62
253
10
5.791789
20
-6.782587
30
-0.130359
11
4.338153
21
-7.102198
31
-0.421875
12
3.630397
22
-7.257812
32
-0.506250
0
3DFACE
8
/elevators.g/elevator_left.r
62
253
10
5.791789
20
-6.782587
30
-0.130359
11
3.630397
21
-7.257812
31
-0.506250
12
2.793958
22
-7.441719
32
-0.590625
0
3DFACE
8
/elevators.g/elevator_left.r
62
253
10
1.828835
20
-7.653923
30
0.675000
11
2.793958
21
-7.441719
31
0.590625
12
3.630397
22
-7.257812
32
0.506250
0
3DFACE
8
/elevators.g/elevator_left.r
62
253
10
1.828835
20
-7.653923
30
0.675000
11
3.630397
21
-7.257812
31
0.506250
12
4.338153
22
-7.102198
32
0.421875
0
3DFACE
8
/elevators.g/elevator_left.r
62
253
10
1.828835
20
-7.653923
30
0.675000
11
4.338153
21
-7.102198
31
0.421875
12
4.917227
22
-6.974877
32
0.337500
0
3DFACE
8
/elevators.g/elevator_left.r
62
253
10
1.828835
20
-7.653923
30
0.675000
11
4.917227
21
-6.974877
31
0.337500
12
5.367617
22
-6.875850
32
0.253125
0
3DFACE
8
/elevators.g/elevator_left.r
62
253
10
1.800000
20
-7.660261
30
-0.675000
11
1.331250
21
-7.763325
31
-0.590625
12
0.925000
22
-7.852647
32
-0.506250
0
3DFACE
8
/elevators.g/elevator_left.r
62
253
10
1.800000
20
-7.660261
30
-0.675000
11
0.925000
21
-7.852647
31
-0.506250
12
0.581250
22
-7.928227
32
-0.421875
0
3DFACE
8
/elevators.g/elevator_left.r
62
253
10
1.800000
20
-7.660261
30
-0.675000
11
0.581250
21
-7.928227
31
-0.421875
12
0.300000
22
-7.990065
32
-0.337500
0
3DFACE
8
/elevators.g/elevator_left.r
62
253
10
1.800000
20
-7.660261
30
-0.675000
11
0.300000
21
-7.990065
31
-0.337500
12
0.081250
22
-8.038162
32
-0.253125
0
3DFACE
8
/elevators.g/elevator_left.r
62
253
10
1.800000
20
-7.660261
30
-0.675000
11
0.081250
21
-8.038162
31
-0.253125
12
-0.075000
22
-8.072516
32
-0.168750
0
3DFACE
8
/elevators.g/elevator_left.r
62
253
10
1.800000
20
-7.660261
30
-0.675000
11
-0.075000
21
-8.072516
31
-0.168750
12
-0.129688
22
-8.084540
32
-0.126563
0
3DFACE
8
/elevators.g/elevator_left.r
62
253
10
1.800000
20
-7.660261
30
-0.675000
11
-0.129688
21
-8.084540
31
-0.126563
12
-0.168750
22
-8.093129
32
-0.084375
0
3DFACE
8
/elevators.g/elevator_left.r
62
253
10
1.800000
20
-7.660261
30
-0.675000
11
-0.168750
21
-8.093129
31
-0.084375
12
-0.192188
22
-8.098282
32
-0.042188
0
3DFACE
8
/elevators.g/elevator_left.r
62
253
10
1.800000
20
-7.660261
30
-0.675000
11
-0.192188
21
-8.098282
31
-0.042188
12
-0.200000
22
-8.100000
32
-0.000000
0
3DFACE
8
/elevators.g/elevator_left.r
62
253
10
1.800000
20
-7.660261
30
-0.675000
11
-0.200000
21
-8.100000
31
-0.000000
12
-0.192188
22
-8.098282
32
0.042187
0
3DFACE
8
/elevators.g/elevator_left.r
62
253
10
1.800000
20
-7.660261
30
-0.675000
11
-0.192188
21
-8.098282
31
0.042187
12
-0.168750
22
-8.093129
32
0.084375
0
3DFACE
8
/elevators.g/elevator_left.r
62
253
10
1.800000
20
-7.660261
30
-0.675000
11
-0.168750
21
-8.093129
31
0.084375
12
-0.129688
22
-8.084540
32
0.126562
0
3DFACE
8
/elevators.g/elevator_left.r
62
253
10
1.800000
20
-7.660261
30
-0.675000
11
-0.129688
21
-8.084540
31
0.126562
12
-0.075000
22
-8.072516
32
0.168750
0
3DFACE
8
/elevators.g/elevator_left.r
62
253
10
1.800000
20
-7.660261
30
-0.675000
11
-0.075000
21
-8.072516
31
0.168750
12
0.081250
22
-8.038162
32
0.253125
0
3DFACE
8
/elevators.g/elevator_left.r
62
253
10
0.925000
20
-21.600000
30
0.506250
11
1.800000
21
-21.600000
31
0.510000
12
0.943056
22
-21.600000
32
0.510000
0
3DFACE
8
/elevators.g/elevator_left.r
62
253
10
0.581250
20
-21.600000
30
0.421875
11
1.817237
21
-21.600000
31
0.506250
12
0.925000
22
-21.600000
32
0.506250
0
3DFACE
8
/elevators.g/elevator_left.r
62
253
10
1.817237
20
-21.600000
30
0.506250
11
1.800000
21
-21.600000
31
0.508038
12
0.925000
22
-21.600000
32
0.506250
0
3DFACE
8
/elevators.g/elevator_left.r
62
253
10
0.300000
20
-21.600000
30
0.337500
11
2.505321
21
-21.600000
31
0.421875
12
0.581250
22
-21.600000
32
0.421875
0
3DFACE
8
/elevators.g/elevator_left.r
62
253
10
2.505321
20
-21.600000
30
0.421875
11
1.817237
21
-21.600000
31
0.506250
12
0.581250
22
-21.600000
32
0.421875
0
3DFACE
8
/elevators.g/elevator_left.r
62
253
10
0.081250
20
-21.600000
30
0.253125
11
3.068298
21
-21.600000
31
0.337500
12
0.300000
22
-21.600000
32
0.337500
0
3DFACE
8
/elevators.g/elevator_left.r
62
253
10
3.068298
20
-21.600000
30
0.337500
11
2.505321
21
-21.600000
31
0.421875
12
0.300000
22
-21.600000
32
0.337500
0
3DFACE
8
/elevators.g/elevator_left.r
62
253
10
-0.075000
20
-21.600000
30
0.168750
11
3.506169
21
-21.600000
31
0.253125
12
0.081250
22
-21.600000
32
0.253125
0
3DFACE
8
/elevators.g/elevator_left.r
62
253
10
3.506169
20
-21.600000
30
0.253125
11
3.068298
21
-21.600000
31
0.337500
12
0.081250
22
-21.600000
32
0.253125
0
3DFACE
8
/elevators.g/elevator_left.r
62
253
10
-0.129688
20
-21.600000
30
0.126562
11
3.818934
21
-21.600000
31
0.168750
12
-0.075000
22
-21.600000
32
0.168750
0
3DFACE
8
/elevators.g/elevator_left.r
62
253
10
3.818934
20
-21.600000
30
0.168750
11
3.506169
21
-21.600000
31
0.253125
12
-0.075000
22
-21.600000
32
0.168750
0
3DFACE
8
/elevators.g/elevator_left.r
62
253
10
-0.168750
20
-21.600000
30
0.084375
11
3.928402
21
-21.600000
31
0.126562
12
-0.129688
22
-21.600000
32
0.126562
0
3DFACE
8
/elevators.g/elevator_left.r
62
253
10
3.928402
20
-21.600000
30
0.126562
11
3.818934
21
-21.600000
31
0.168750
12
-0.129688
22
-21.600000
32
0.126562
0
3DFACE
8
/elevators.g/elevator_left.r
62
253
10
-0.192188
20
-21.600000
30
0.042187
11
4.006593
21
-21.600000
31
0.084375
12
-0.168750
22
-21.600000
32
0.084375
0
3DFACE
8
/elevators.g/elevator_left.r
62
253
10
4.006593
20
-21.600000
30
0.084375
11
3.928402
21
-21.600000
31
0.126562
12
-0.168750
22
-21.600000
32
0.084375
0
3DFACE
8
/elevators.g/elevator_left.r
62
253
10
-0.168750
20
-21.600000
30
-0.084375
11
4.050000
21
-21.600000
31
-0.045342
12
-0.192188
22
-21.600000
32
-0.042188
0
3DFACE
8
/elevators.g/elevator_left.r
62
253
10
4.050000
20
-21.600000
30
-0.045342
11
4.050000
21
-21.600000
31
0.045342
12
-0.192188
22
-21.600000
32
-0.042188
0
3DFACE
8
/elevators.g/elevator_left.r
62
253
10
-0.129688
20
-21.600000
30
-0.126563
11
3.928402
21
-21.600000
31
-0.126562
12
-0.168750
22
-21.600000
32
-0.084375
0
3DFACE
8
/elevators.g/elevator_left.r
62
253
10
3.928402
20
-21.600000
30
-0.126562
11
4.006593
21
-21.600000
31
-0.084375
12
-0.168750
22
-21.600000
32
-0.084375
0
3DFACE
8
/elevators.g/elevator_left.r
62
253
10
-0.075000
20
-21.600000
30
-0.168750
11
3.818934
21
-21.600000
31
-0.168750
12
-0.129688
22
-21.600000
32
-0.126563
0
3DFACE
8
/elevators.g/elevator_left.r
62
253
10
3.818934
20
-21.600000
30
-0.168750
11
3.928402
21
-21.600000
31
-0.126562
12
-0.129688
22
-21.600000
32
-0.126563
0
3DFACE
8
/elevators.g/elevator_left.r
62
253
10
0.081250
20
-21.600000
30
-0.253125
11
3.506169
21
-21.600000
31
-0.253125
12
-0.075000
22
-21.600000
32
-0.168750
0
3DFACE
8
/elevators.g/elevator_left.r
62
253
10
3.506169
20
-21.600000
30
-0.253125
11
3.818934
21
-21.600000
31
-0.168750
12
-0.075000
22
-21.600000
32
-0.168750
0
3DFACE
8
/elevators.g/elevator_left.r
62
253
10
0.300000
20
-21.600000
30
-0.337500
11
3.068298
21
-21.600000
31
-0.337500
12
0.081250
22
-21.600000
32
-0.253125
0
3DFACE
8
/elevators.g/elevator_left.r
62
253
10
3.068298
20
-21.600000
30
-0.337500
11
3.506169
21
-21.600000
31
-0.253125
12
0.081250
22
-21.600000
32
-0.253125
0
3DFACE
8
/elevators.g/elevator_left.r
62
253
10
0.581250
20
-21.600000
30
-0.421875
11
2.505321
21
-21.600000
31
-0.421875
12
0.300000
22
-21.600000
32
-0.337500
0
3DFACE
8
/elevators.g/elevator_left.r
62
253
10
2.505321
20
-21.600000
30
-0.421875
11
3.068298
21
-21.600000
31
-0.337500
12
0.300000
22
-21.600000
32
-0.337500
0
3DFACE
8
/elevators.g/elevator_left.r
62
253
10
0.925000
20
-21.600000
30
-0.506250
11
1.817237
21
-21.600000
31
-0.506250
12
0.581250
22
-21.600000
32
-0.421875
0
3DFACE
8
/elevators.g/elevator_left.r
62
253
10
1.817237
20
-21.600000
30
-0.506250
11
2.505321
21
-21.600000
31
-0.421875
12
0.581250
22
-21.600000
32
-0.421875
0
3DFACE
8
/elevators.g/elevator_left.r
62
253
10
0.943056
20
-21.600000
30
-0.510000
11
1.800000
21
-21.600000
31
-0.508038
12
0.925000
22
-21.600000
32
-0.506250
0
3DFACE
8
/elevators.g/elevator_left.r
62
253
10
1.800000
20
-21.600000
30
-0.508038
11
1.817237
21
-21.600000
31
-0.506250
12
0.925000
22
-21.600000
32
-0.506250
0
3DFACE
8
/elevators.g/elevator_left.r
62
253
10
0.943056
20
-21.600000
30
-0.510000
11
1.800000
21
-21.600000
31
-0.510000
12
1.800000
22
-21.600000
32
-0.508038
0
3DFACE
8
/elevators.g/elevator_left.r
62
253
10
0.925000
20
-21.600000
30
0.506250
11
1.800000
21
-21.600000
31
0.508038
12
1.800000
22
-21.600000
32
0.510000
0
3DFACE
8
/elevators.g/elevator_left.r
62
253
10
-0.192188
20
-21.600000
30
0.042187
11
4.050000
21
-21.600000
31
0.045342
12
4.006593
22
-21.600000
32
0.084375
0
3DFACE
8
/elevators.g/elevator_left.r
62
253
10
-0.168750
20
-21.600000
30
-0.084375
11
4.006593
21
-21.600000
31
-0.084375
12
4.050000
22
-21.600000
32
-0.045342
0
3DFACE
8
/elevators.g/elevator_left.r
62
253
10
4.050000
20
-21.600000
30
0.045342
11
-0.192188
21
-21.600000
31
0.042187
12
-0.200000
22
-21.600000
32
-0.000000
0
3DFACE
8
/elevators.g/elevator_left.r
62
253
10
4.050000
20
-21.600000
30
0.045342
11
-0.200000
21
-21.600000
31
-0.000000
12
-0.192188
22
-21.600000
32
-0.042188
0
3DFACE
8
/elevators.g/elevator_left.r
62
253
10
1.800000
20
-7.882011
30
-0.672465
11
1.445161
21
-13.325806
31
-0.611129
12
1.800000
22
-7.660261
32
-0.675000
0
3DFACE
8
/elevators.g/elevator_left.r
62
253
10
1.833788
20
-14.560267
30
-0.596041
11
1.800000
21
-7.882011
31
-0.672465
12
1.828835
22
-7.653924
32
-0.675000
0
3DFACE
8
/elevators.g/elevator_left.r
62
253
10
1.833788
20
-14.560267
30
-0.596041
11
1.445161
21
-13.325806
31
-0.611129
12
1.800000
22
-7.882011
32
-0.672465
0
3DFACE
8
/elevators.g/elevator_left.r
62
253
10
1.331250
20
-14.666734
30
0.590625
11
1.800000
21
-7.882011
31
0.672290
12
1.800000
22
-7.660261
32
0.675000
0
3DFACE
8
/elevators.g/elevator_left.r
62
253
10
1.896264
20
-14.542521
30
0.590625
11
1.828835
21
-7.653923
31
0.675000
12
1.800000
22
-7.882011
32
0.672290
0
3DFACE
8
/elevators.g/elevator_left.r
62
253
10
1.878279
20
-16.573544
30
0.565850
11
1.331250
21
-14.666734
31
0.590625
12
1.112934
22
-18.424582
32
0.545282
0
3DFACE
8
/elevators.g/elevator_left.r
62
253
10
1.878279
20
-16.573544
30
0.565850
11
1.896264
21
-14.542521
31
0.590625
12
1.331250
22
-14.666734
32
0.590625
0
3DFACE
8
/elevators.g/elevator_left.r
62
253
10
1.331250
20
-14.666734
30
0.590625
11
1.896264
21
-14.542521
31
0.590625
12
1.800000
22
-7.882011
32
0.672290
0
3DFACE
8
/elevators.g/elevator_left.r
62
253
10
1.800000
20
-7.882011
30
-0.672465
11
1.828835
21
-7.653923
31
0.675000
12
1.828835
22
-7.653924
32
-0.675000
0
3DFACE
8
/elevators.g/elevator_left.r
62
253
10
1.800000
20
-7.882011
30
-0.672465
11
1.800000
21
-7.882011
31
0.672290
12
1.828835
22
-7.653923
32
0.675000
0
3DFACE
8
/elevators.g/elevator_left.r
62
253
10
1.837996
20
-15.003426
30
-0.590625
11
1.828835
21
-7.653924
31
-0.675000
12
2.793958
22
-7.441719
32
-0.590625
0
3DFACE
8
/elevators.g/elevator_left.r
62
253
10
1.837996
20
-15.003426
30
-0.590625
11
1.833788
21
-14.560267
31
-0.596041
12
1.828835
22
-7.653924
32
-0.675000
0
3DFACE
8
/elevators.g/elevator_left.r
62
253
10
1.817237
20
-21.600000
30
-0.506250
11
2.793958
21
-7.441719
31
-0.590625
12
3.630397
22
-7.257812
32
-0.506250
0
3DFACE
8
/elevators.g/elevator_left.r
62
253
10
1.817237
20
-21.600000
30
-0.506250
11
1.800000
21
-21.600000
31
-0.508038
12
1.800000
22
-19.408251
32
-0.536788
0
3DFACE
8
/elevators.g/elevator_left.r
62
253
10
1.817237
20
-21.600000
30
-0.506250
11
1.800000
21
-19.408251
31
-0.536788
12
1.837996
22
-15.003426
32
-0.590625
0
3DFACE
8
/elevators.g/elevator_left.r
62
253
10
1.817237
20
-21.600000
30
-0.506250
11
1.837996
21
-15.003426
31
-0.590625
12
2.793958
22
-7.441719
32
-0.590625
0
3DFACE
8
/elevators.g/elevator_left.r
62
253
10
4.338153
20
-7.102198
30
-0.421875
11
2.505321
21
-21.600000
31
-0.421875
12
3.630397
22
-7.257812
32
-0.506250
0
3DFACE
8
/elevators.g/elevator_left.r
62
253
10
2.505321
20
-21.600000
30
-0.421875
11
1.817237
21
-21.600000
31
-0.506250
12
3.630397
22
-7.257812
32
-0.506250
0
3DFACE
8
/elevators.g/elevator_left.r
62
253
10
4.917227
20
-6.974877
30
-0.337500
11
3.068298
21
-21.600000
31
-0.337500
12
4.338153
22
-7.102198
32
-0.421875
0
3DFACE
8
/elevators.g/elevator_left.r
62
253
10
3.068298
20
-21.600000
30
-0.337500
11
2.505321
21
-21.600000
31
-0.421875
12
4.338153
22
-7.102198
32
-0.421875
0
3DFACE
8
/elevators.g/elevator_left.r
62
253
10
5.367617
20
-6.875850
30
-0.253125
11
3.506169
21
-21.600000
31
-0.253125
12
4.917227
22
-6.974877
32
-0.337500
0
3DFACE
8
/elevators.g/elevator_left.r
62
253
10
3.506169
20
-21.600000
30
-0.253125
11
3.068298
21
-21.600000
31
-0.337500
12
4.917227
22
-6.974877
32
-0.337500
0
3DFACE
8
/elevators.g/elevator_left.r
62
253
10
5.689324
20
-6.805116
30
-0.168750
11
3.818934
21
-21.600000
31
-0.168750
12
5.367617
22
-6.875850
32
-0.253125
0
3DFACE
8
/elevators.g/elevator_left.r
62
253
10
3.818934
20
-21.600000
30
-0.168750
11
3.506169
21
-21.600000
31
-0.253125
12
5.367617
22
-6.875850
32
-0.253125
0
3DFACE
8
/elevators.g/elevator_left.r
62
253
10
3.928402
20
-21.600000
30
-0.126562
11
5.791789
21
-6.782587
31
-0.130359
12
5.801484
22
-6.783821
32
-0.126562
0
3DFACE
8
/elevators.g/elevator_left.r
62
253
10
3.928402
20
-21.600000
30
-0.126562
11
3.818934
21
-21.600000
31
-0.168750
12
5.689324
22
-6.805116
32
-0.168750
0
3DFACE
8
/elevators.g/elevator_left.r
62
253
10
3.928402
20
-21.600000
30
-0.126562
11
5.689324
21
-6.805116
31
-0.168750
12
5.791789
22
-6.782587
32
-0.130359
0
3DFACE
8
/elevators.g/elevator_left.r
62
253
10
4.006593
20
-21.600000
30
-0.084375
11
5.801484
21
-6.783821
31
-0.126562
12
5.878438
22
-6.793615
32
-0.084375
0
3DFACE
8
/elevators.g/elevator_left.r
62
253
10
4.006593
20
-21.600000
30
-0.084375
11
3.928402
21
-21.600000
31
-0.126562
12
5.801484
22
-6.783821
32
-0.126562
0
3DFACE
8
/elevators.g/elevator_left.r
62
253
10
4.574485
20
-17.479043
30
-0.042187
11
5.878438
21
-6.793615
31
-0.084375
12
5.924609
22
-6.799491
32
-0.042187
0
3DFACE
8
/elevators.g/elevator_left.r
62
253
10
5.878438
20
-6.793615
30
-0.084375
11
4.050000
21
-21.600000
31
-0.045342
12
4.006593
22
-21.600000
32
-0.084375
0
3DFACE
8
/elevators.g/elevator_left.r
62
253
10
5.878438
20
-6.793615
30
-0.084375
11
4.574485
21
-17.479043
31
-0.042187
12
4.050000
22
-21.600000
32
-0.045342
0
3DFACE
8
/elevators.g/elevator_left.r
62
253
10
5.924609
20
-6.799491
30
-0.042187
11
5.933556
21
-6.800630
31
-0.017663
12
4.574485
22
-17.479043
32
-0.042187
0
3DFACE
8
/elevators.g/elevator_left.r
62
253
10
5.933556
20
-6.800630
30
0.017663
11
5.924609
21
-6.799491
31
0.042187
12
4.574485
22
-17.479043
32
0.042187
0
3DFACE
8
/elevators.g/elevator_left.r
62
253
10
4.006593
20
-21.600000
30
0.084375
11
5.924609
21
-6.799491
31
0.042187
12
5.878438
22
-6.793615
32
0.084375
0
3DFACE
8
/elevators.g/elevator_left.r
62
253
10
4.006593
20
-21.600000
30
0.084375
11
4.050000
21
-21.600000
31
0.045342
12
4.574485
22
-17.479043
32
0.042187
0
3DFACE
8
/elevators.g/elevator_left.r
62
253
10
4.006593
20
-21.600000
30
0.084375
11
4.574485
21
-17.479043
31
0.042187
12
5.924609
22
-6.799491
32
0.042187
0
3DFACE
8
/elevators.g/elevator_left.r
62
253
10
3.928402
20
-21.600000
30
0.126562
11
5.878438
21
-6.793615
31
0.084375
12
5.801484
22
-6.783821
32
0.126562
0
3DFACE
8
/elevators.g/elevator_left.r
62
253
10
3.928402
20
-21.600000
30
0.126562
11
4.006593
21
-21.600000
31
0.084375
12
5.878438
22
-6.793615
32
0.084375
0
3DFACE
8
/elevators.g/elevator_left.r
62
253
10
5.689324
20
-6.805116
30
0.168750
11
5.801484
21
-6.783821
31
0.126562
12
5.791789
22
-6.782587
32
0.130359
0
3DFACE
8
/elevators.g/elevator_left.r
62
253
10
5.801484
20
-6.783821
30
0.126562
11
3.818934
21
-21.600000
31
0.168750
12
3.928402
22
-21.600000
32
0.126562
0
3DFACE
8
/elevators.g/elevator_left.r
62
253
10
5.801484
20
-6.783821
30
0.126562
11
5.689324
21
-6.805116
31
0.168750
12
3.818934
22
-21.600000
32
0.168750
0
3DFACE
8
/elevators.g/elevator_left.r
62
253
10
3.818934
20
-21.600000
30
0.168750
11
5.689324
21
-6.805116
31
0.168750
12
3.506169
22
-21.600000
32
0.253125
0
3DFACE
8
/elevators.g/elevator_left.r
62
253
10
5.689324
20
-6.805116
30
0.168750
11
5.367617
21
-6.875850
31
0.253125
12
3.506169
22
-21.600000
32
0.253125
0
3DFACE
8
/elevators.g/elevator_left.r
62
253
10
3.506169
20
-21.600000
30
0.253125
11
5.367617
21
-6.875850
31
0.253125
12
3.068298
22
-21.600000
32
0.337500
0
3DFACE
8
/elevators.g/elevator_left.r
62
253
10
5.367617
20
-6.875850
30
0.253125
11
4.917227
21
-6.974877
31
0.337500
12
3.068298
22
-21.600000
32
0.337500
0
3DFACE
8
/elevators.g/elevator_left.r
62
253
10
3.068298
20
-21.600000
30
0.337500
11
4.917227
21
-6.974877
31
0.337500
12
2.505321
22
-21.600000
32
0.421875
0
3DFACE
8
/elevators.g/elevator_left.r
62
253
10
4.917227
20
-6.974877
30
0.337500
11
4.338153
21
-7.102198
31
0.421875
12
2.505321
22
-21.600000
32
0.421875
0
3DFACE
8
/elevators.g/elevator_left.r
62
253
10
2.505321
20
-21.600000
30
0.421875
11
4.338153
21
-7.102198
31
0.421875
12
1.817237
22
-21.600000
32
0.506250
0
3DFACE
8
/elevators.g/elevator_left.r
62
253
10
4.338153
20
-7.102198
30
0.421875
11
3.630397
21
-7.257812
31
0.506250
12
1.817237
22
-21.600000
32
0.506250
0
3DFACE
8
/elevators.g/elevator_left.r
62
253
10
1.817237
20
-21.600000
30
0.506250
11
3.630397
21
-7.257812
31
0.506250
12
1.800000
22
-21.600000
32
0.508038
0
3DFACE
8
/elevators.g/elevator_left.r
62
253
10
3.630397
20
-7.257812
30
0.506250
11
2.793958
21
-7.441719
31
0.590625
12
1.896264
22
-14.542521
32
0.590625
0
3DFACE
8
/elevators.g/elevator_left.r
62
253
10
3.630397
20
-7.257812
30
0.506250
11
1.896264
21
-14.542521
31
0.590625
12
1.878279
22
-16.573544
32
0.565850
0
3DFACE
8
/elevators.g/elevator_left.r
62
253
10
3.630397
20
-7.257812
30
0.506250
11
1.878279
21
-16.573544
31
0.565850
12
1.800000
22
-20.622168
32
0.520865
0
3DFACE
8
/elevators.g/elevator_left.r
62
253
10
3.630397
20
-7.257812
30
0.506250
11
1.800000
21
-20.622168
31
0.520865
12
1.800000
22
-21.600000
32
0.508038
0
3DFACE
8
/elevators.g/elevator_left.r
62
253
10
2.793958
20
-7.441719
30
0.590625
11
1.828835
21
-7.653923
31
0.675000
12
1.896264
22
-14.542521
32
0.590625
0
3DFACE
8
/elevators.g/elevator_left.r
62
253
10
5.791789
20
-6.782587
30
0.130359
11
5.801484
21
-6.783821
31
-0.126562
12
5.791789
22
-6.782587
32
-0.130359
0
3DFACE
8
/elevators.g/elevator_left.r
62
253
10
5.791789
20
-6.782587
30
0.130359
11
5.801484
21
-6.783821
31
0.126562
12
5.878438
22
-6.793615
32
0.084375
0
3DFACE
8
/elevators.g/elevator_left.r
62
253
10
5.791789
20
-6.782587
30
0.130359
11
5.878438
21
-6.793615
31
0.084375
12
5.924609
22
-6.799491
32
0.042187
0
3DFACE
8
/elevators.g/elevator_left.r
62
253
10
5.791789
20
-6.782587
30
0.130359
11
5.924609
21
-6.799491
31
0.042187
12
5.933556
22
-6.800630
32
0.017663
0
3DFACE
8
/elevators.g/elevator_left.r
62
253
10
5.791789
20
-6.782587
30
0.130359
11
5.933556
21
-6.800630
31
0.017663
12
5.933556
22
-6.800630
32
-0.017663
0
3DFACE
8
/elevators.g/elevator_left.r
62
253
10
5.791789
20
-6.782587
30
0.130359
11
5.933556
21
-6.800630
31
-0.017663
12
5.924609
22
-6.799491
32
-0.042187
0
3DFACE
8
/elevators.g/elevator_left.r
62
253
10
5.791789
20
-6.782587
30
0.130359
11
5.924609
21
-6.799491
31
-0.042187
12
5.878438
22
-6.793615
32
-0.084375
0
3DFACE
8
/elevators.g/elevator_left.r
62
253
10
5.791789
20
-6.782587
30
0.130359
11
5.878438
21
-6.793615
31
-0.084375
12
5.801484
22
-6.783821
32
-0.126562
0
ENDSEC
0
EOF
