0
SECTION
2
HEADER
999
SHELL=/bin/bash3
0
ENDSEC
0
SECTION
2
TABLES
0
TABLE
2
LAYER
0
LAYER
2
/control_wheel.r
62
254
0
ENDTAB
0
ENDSEC
0
SECTION
2
ENTITIES
0
3DFACE
8
/control_wheel.r
62
254
10
-0.011111
20
0.354725
30
0.185599
11
0.003902
21
0.356218
31
0.183012
12
-0.003902
22
0.356218
32
0.183012
0
3DFACE
8
/control_wheel.r
62
254
10
-0.016629
20
0.351966
30
0.190377
11
0.011111
21
0.354725
31
0.185599
12
-0.011111
22
0.354725
32
0.185599
0
3DFACE
8
/control_wheel.r
62
254
10
0.011111
20
0.354725
30
0.185599
11
0.003902
21
0.356218
31
0.183012
12
-0.011111
22
0.354725
32
0.185599
0
3DFACE
8
/control_wheel.r
62
254
10
-0.019616
20
0.348361
30
0.196621
11
0.016629
21
0.351966
31
0.190377
12
-0.016629
22
0.351966
32
0.190377
0
3DFACE
8
/control_wheel.r
62
254
10
0.016629
20
0.351966
30
0.190377
11
0.011111
21
0.354725
31
0.185599
12
-0.016629
22
0.351966
32
0.190377
0
3DFACE
8
/control_wheel.r
62
254
10
-0.019616
20
0.344459
30
0.203379
11
0.019616
21
0.348361
31
0.196621
12
-0.019616
22
0.348361
32
0.196621
0
3DFACE
8
/control_wheel.r
62
254
10
0.019616
20
0.348361
30
0.196621
11
0.016629
21
0.351966
31
0.190377
12
-0.019616
22
0.348361
32
0.196621
0
3DFACE
8
/control_wheel.r
62
254
10
-0.016629
20
0.340854
30
0.209623
11
0.019616
21
0.344459
31
0.203379
12
-0.019616
22
0.344459
32
0.203379
0
3DFACE
8
/control_wheel.r
62
254
10
0.019616
20
0.344459
30
0.203379
11
0.019616
21
0.348361
31
0.196621
12
-0.019616
22
0.344459
32
0.203379
0
3DFACE
8
/control_wheel.r
62
254
10
-0.011111
20
0.338095
30
0.214401
11
0.016629
21
0.340854
31
0.209623
12
-0.016629
22
0.340854
32
0.209623
0
3DFACE
8
/control_wheel.r
62
254
10
0.016629
20
0.340854
30
0.209623
11
0.019616
21
0.344459
31
0.203379
12
-0.016629
22
0.340854
32
0.209623
0
3DFACE
8
/control_wheel.r
62
254
10
-0.003902
20
0.336602
30
0.216988
11
0.011111
21
0.338095
31
0.214401
12
-0.011111
22
0.338095
32
0.214401
0
3DFACE
8
/control_wheel.r
62
254
10
0.011111
20
0.338095
30
0.214401
11
0.016629
21
0.340854
31
0.209623
12
-0.011111
22
0.338095
32
0.214401
0
3DFACE
8
/control_wheel.r
62
254
10
-0.003902
20
0.336602
30
0.216988
11
0.003902
21
0.336602
31
0.216988
12
0.011111
22
0.338095
32
0.214401
0
3DFACE
8
/control_wheel.r
62
254
10
-0.011111
20
0.338095
30
-0.214401
11
0.003902
21
0.336602
31
-0.216988
12
-0.003902
22
0.336602
32
-0.216988
0
3DFACE
8
/control_wheel.r
62
254
10
-0.016629
20
0.340854
30
-0.209623
11
0.011111
21
0.338095
31
-0.214401
12
-0.011111
22
0.338095
32
-0.214401
0
3DFACE
8
/control_wheel.r
62
254
10
0.011111
20
0.338095
30
-0.214401
11
0.003902
21
0.336602
31
-0.216988
12
-0.011111
22
0.338095
32
-0.214401
0
3DFACE
8
/control_wheel.r
62
254
10
-0.019616
20
0.344459
30
-0.203379
11
0.016629
21
0.340854
31
-0.209623
12
-0.016629
22
0.340854
32
-0.209623
0
3DFACE
8
/control_wheel.r
62
254
10
0.016629
20
0.340854
30
-0.209623
11
0.011111
21
0.338095
31
-0.214401
12
-0.016629
22
0.340854
32
-0.209623
0
3DFACE
8
/control_wheel.r
62
254
10
-0.019616
20
0.348361
30
-0.196621
11
0.019616
21
0.344459
31
-0.203379
12
-0.019616
22
0.344459
32
-0.203379
0
3DFACE
8
/control_wheel.r
62
254
10
0.019616
20
0.344459
30
-0.203379
11
0.016629
21
0.340854
31
-0.209623
12
-0.019616
22
0.344459
32
-0.203379
0
3DFACE
8
/control_wheel.r
62
254
10
-0.016629
20
0.351966
30
-0.190377
11
0.019616
21
0.348361
31
-0.196621
12
-0.019616
22
0.348361
32
-0.196621
0
3DFACE
8
/control_wheel.r
62
254
10
0.019616
20
0.348361
30
-0.196621
11
0.019616
21
0.344459
31
-0.203379
12
-0.019616
22
0.348361
32
-0.196621
0
3DFACE
8
/control_wheel.r
62
254
10
-0.011111
20
0.354725
30
-0.185599
11
0.016629
21
0.351966
31
-0.190377
12
-0.016629
22
0.351966
32
-0.190377
0
3DFACE
8
/control_wheel.r
62
254
10
0.016629
20
0.351966
30
-0.190377
11
0.019616
21
0.348361
31
-0.196621
12
-0.016629
22
0.351966
32
-0.190377
0
3DFACE
8
/control_wheel.r
62
254
10
-0.003902
20
0.356218
30
-0.183012
11
0.011111
21
0.354725
31
-0.185599
12
-0.011111
22
0.354725
32
-0.185599
0
3DFACE
8
/control_wheel.r
62
254
10
0.011111
20
0.354725
30
-0.185599
11
0.016629
21
0.351966
31
-0.190377
12
-0.011111
22
0.354725
32
-0.185599
0
3DFACE
8
/control_wheel.r
62
254
10
-0.003902
20
0.356218
30
-0.183012
11
0.003902
21
0.356218
31
-0.183012
12
0.011111
22
0.354725
32
-0.185599
0
3DFACE
8
/control_wheel.r
62
254
10
-0.011111
20
-0.016629
30
-0.400000
11
0.003902
21
-0.019616
31
-0.400000
12
-0.003902
22
-0.019616
32
-0.400000
0
3DFACE
8
/control_wheel.r
62
254
10
-0.016629
20
-0.011111
30
-0.400000
11
0.011111
21
-0.016629
31
-0.400000
12
-0.011111
22
-0.016629
32
-0.400000
0
3DFACE
8
/control_wheel.r
62
254
10
0.011111
20
-0.016629
30
-0.400000
11
0.003902
21
-0.019616
31
-0.400000
12
-0.011111
22
-0.016629
32
-0.400000
0
3DFACE
8
/control_wheel.r
62
254
10
-0.019616
20
-0.003902
30
-0.400000
11
0.016629
21
-0.011111
31
-0.400000
12
-0.016629
22
-0.011111
32
-0.400000
0
3DFACE
8
/control_wheel.r
62
254
10
0.016629
20
-0.011111
30
-0.400000
11
0.011111
21
-0.016629
31
-0.400000
12
-0.016629
22
-0.011111
32
-0.400000
0
3DFACE
8
/control_wheel.r
62
254
10
-0.019616
20
0.003902
30
-0.400000
11
0.019616
21
-0.003902
31
-0.400000
12
-0.019616
22
-0.003902
32
-0.400000
0
3DFACE
8
/control_wheel.r
62
254
10
0.019616
20
-0.003902
30
-0.400000
11
0.016629
21
-0.011111
31
-0.400000
12
-0.019616
22
-0.003902
32
-0.400000
0
3DFACE
8
/control_wheel.r
62
254
10
-0.016629
20
0.011111
30
-0.400000
11
0.019616
21
0.003902
31
-0.400000
12
-0.019616
22
0.003902
32
-0.400000
0
3DFACE
8
/control_wheel.r
62
254
10
0.019616
20
0.003902
30
-0.400000
11
0.019616
21
-0.003902
31
-0.400000
12
-0.019616
22
0.003902
32
-0.400000
0
3DFACE
8
/control_wheel.r
62
254
10
-0.011111
20
0.016629
30
-0.400000
11
0.016629
21
0.011111
31
-0.400000
12
-0.016629
22
0.011111
32
-0.400000
0
3DFACE
8
/control_wheel.r
62
254
10
0.016629
20
0.011111
30
-0.400000
11
0.019616
21
0.003902
31
-0.400000
12
-0.016629
22
0.011111
32
-0.400000
0
3DFACE
8
/control_wheel.r
62
254
10
-0.003902
20
0.019616
30
-0.400000
11
0.011111
21
0.016629
31
-0.400000
12
-0.011111
22
0.016629
32
-0.400000
0
3DFACE
8
/control_wheel.r
62
254
10
0.011111
20
0.016629
30
-0.400000
11
0.016629
21
0.011111
31
-0.400000
12
-0.011111
22
0.016629
32
-0.400000
0
3DFACE
8
/control_wheel.r
62
254
10
-0.003902
20
0.019616
30
-0.400000
11
0.003902
21
0.019616
31
-0.400000
12
0.011111
22
0.016629
32
-0.400000
0
3DFACE
8
/control_wheel.r
62
254
10
-0.011111
20
-0.354725
30
-0.185599
11
0.003902
21
-0.356218
31
-0.183012
12
-0.003902
22
-0.356218
32
-0.183012
0
3DFACE
8
/control_wheel.r
62
254
10
-0.016629
20
-0.351966
30
-0.190377
11
0.011111
21
-0.354725
31
-0.185599
12
-0.011111
22
-0.354725
32
-0.185599
0
3DFACE
8
/control_wheel.r
62
254
10
0.011111
20
-0.354725
30
-0.185599
11
0.003902
21
-0.356218
31
-0.183012
12
-0.011111
22
-0.354725
32
-0.185599
0
3DFACE
8
/control_wheel.r
62
254
10
-0.019616
20
-0.348361
30
-0.196621
11
0.016629
21
-0.351966
31
-0.190377
12
-0.016629
22
-0.351966
32
-0.190377
0
3DFACE
8
/control_wheel.r
62
254
10
0.016629
20
-0.351966
30
-0.190377
11
0.011111
21
-0.354725
31
-0.185599
12
-0.016629
22
-0.351966
32
-0.190377
0
3DFACE
8
/control_wheel.r
62
254
10
-0.019616
20
-0.344459
30
-0.203379
11
0.019616
21
-0.348361
31
-0.196621
12
-0.019616
22
-0.348361
32
-0.196621
0
3DFACE
8
/control_wheel.r
62
254
10
0.019616
20
-0.348361
30
-0.196621
11
0.016629
21
-0.351966
31
-0.190377
12
-0.019616
22
-0.348361
32
-0.196621
0
3DFACE
8
/control_wheel.r
62
254
10
-0.016629
20
-0.340854
30
-0.209623
11
0.019616
21
-0.344459
31
-0.203379
12
-0.019616
22
-0.344459
32
-0.203379
0
3DFACE
8
/control_wheel.r
62
254
10
0.019616
20
-0.344459
30
-0.203379
11
0.019616
21
-0.348361
31
-0.196621
12
-0.019616
22
-0.344459
32
-0.203379
0
3DFACE
8
/control_wheel.r
62
254
10
-0.011111
20
-0.338095
30
-0.214401
11
0.016629
21
-0.340854
31
-0.209623
12
-0.016629
22
-0.340854
32
-0.209623
0
3DFACE
8
/control_wheel.r
62
254
10
0.016629
20
-0.340854
30
-0.209623
11
0.019616
21
-0.344459
31
-0.203379
12
-0.016629
22
-0.340854
32
-0.209623
0
3DFACE
8
/control_wheel.r
62
254
10
-0.003902
20
-0.336602
30
-0.216988
11
0.011111
21
-0.338095
31
-0.214401
12
-0.011111
22
-0.338095
32
-0.214401
0
3DFACE
8
/control_wheel.r
62
254
10
0.011111
20
-0.338095
30
-0.214401
11
0.016629
21
-0.340854
31
-0.209623
12
-0.011111
22
-0.338095
32
-0.214401
0
3DFACE
8
/control_wheel.r
62
254
10
-0.003902
20
-0.336602
30
-0.216988
11
0.003902
21
-0.336602
31
-0.216988
12
0.011111
22
-0.338095
32
-0.214401
0
3DFACE
8
/control_wheel.r
62
254
10
0.003902
20
-0.265735
30
-0.176072
11
0.011111
21
-0.338095
31
-0.214401
12
0.003902
22
-0.336602
32
-0.216988
0
3DFACE
8
/control_wheel.r
62
254
10
0.003902
20
0.234581
30
0.112785
11
0.011111
21
0.033259
31
0.000000
12
0.003902
22
0.039231
32
0.000000
0
3DFACE
8
/control_wheel.r
62
254
10
0.003902
20
-0.019616
30
-0.033975
11
0.010000
21
-0.217287
31
-0.145184
12
0.003902
22
-0.214965
32
-0.146760
0
3DFACE
8
/control_wheel.r
62
254
10
0.010000
20
-0.217287
30
-0.145184
11
0.011111
21
-0.016629
31
-0.028803
12
0.011111
22
-0.338095
32
-0.214401
0
3DFACE
8
/control_wheel.r
62
254
10
0.003902
20
0.356218
30
0.183012
11
0.010000
21
0.283284
31
0.143821
12
0.003902
22
0.285351
32
0.142097
0
3DFACE
8
/control_wheel.r
62
254
10
0.010000
20
0.283284
30
0.143821
11
0.011111
21
0.354725
31
0.185599
12
0.011111
22
0.033259
32
0.000000
0
3DFACE
8
/control_wheel.r
62
254
10
0.011111
20
-0.338095
30
-0.214401
11
0.003902
21
-0.265735
31
-0.176072
12
0.010000
22
-0.266194
32
-0.173421
0
3DFACE
8
/control_wheel.r
62
254
10
0.011111
20
-0.338095
30
-0.214401
11
0.010000
21
-0.266194
31
-0.173421
12
0.010000
22
-0.217287
32
-0.145184
0
3DFACE
8
/control_wheel.r
62
254
10
0.010000
20
-0.217287
30
-0.145184
11
0.003902
21
-0.019616
31
-0.033975
12
0.011111
22
-0.016629
32
-0.028803
0
3DFACE
8
/control_wheel.r
62
254
10
0.011111
20
0.033259
30
0.000000
11
0.003902
21
0.234581
31
0.112785
12
0.010000
22
0.234377
32
0.115584
0
3DFACE
8
/control_wheel.r
62
254
10
0.011111
20
0.033259
30
0.000000
11
0.010000
21
0.234377
31
0.115584
12
0.010000
22
0.283284
32
0.143821
0
3DFACE
8
/control_wheel.r
62
254
10
0.010000
20
0.283284
30
0.143821
11
0.003902
21
0.356218
31
0.183012
12
0.011111
22
0.354725
32
0.185599
0
3DFACE
8
/control_wheel.r
62
254
10
0.011111
20
-0.338095
30
-0.214401
11
0.016629
21
-0.011111
31
-0.019246
12
0.016629
22
-0.340854
32
-0.209623
0
3DFACE
8
/control_wheel.r
62
254
10
0.011111
20
0.033259
30
0.000000
11
0.016629
21
0.351966
31
0.190377
12
0.016629
22
0.022223
32
0.000000
0
3DFACE
8
/control_wheel.r
62
254
10
0.011111
20
0.033259
30
0.000000
11
0.011111
21
0.354725
31
0.185599
12
0.016629
22
0.351966
32
0.190377
0
3DFACE
8
/control_wheel.r
62
254
10
0.011111
20
-0.338095
30
-0.214401
11
0.011111
21
-0.016629
31
-0.028803
12
0.016629
22
-0.011111
32
-0.019246
0
3DFACE
8
/control_wheel.r
62
254
10
0.019616
20
-0.003902
30
-0.006758
11
0.019616
21
-0.344459
31
-0.203379
12
0.016629
22
-0.011111
32
-0.019246
0
3DFACE
8
/control_wheel.r
62
254
10
0.016629
20
0.022223
30
0.000000
11
0.019616
21
0.348361
31
0.196621
12
0.019616
22
0.007804
32
0.000000
0
3DFACE
8
/control_wheel.r
62
254
10
0.016629
20
0.022223
30
0.000000
11
0.016629
21
0.351966
31
0.190377
12
0.019616
22
0.348361
32
0.196621
0
3DFACE
8
/control_wheel.r
62
254
10
0.019616
20
-0.344459
30
-0.203379
11
0.016629
21
-0.340854
31
-0.209623
12
0.016629
22
-0.011111
32
-0.019246
0
3DFACE
8
/control_wheel.r
62
254
10
0.016629
20
-0.351966
30
-0.190377
11
0.019616
21
-0.348361
31
-0.196621
12
0.016629
22
-0.022223
32
-0.000000
0
3DFACE
8
/control_wheel.r
62
254
10
0.019616
20
0.344459
30
0.203379
11
0.016629
21
0.011111
31
0.019246
12
0.019616
22
0.003902
32
0.006758
0
3DFACE
8
/control_wheel.r
62
254
10
0.019616
20
-0.348361
30
-0.196621
11
0.019616
21
-0.007804
31
-0.000000
12
0.016629
22
-0.022223
32
-0.000000
0
3DFACE
8
/control_wheel.r
62
254
10
0.019616
20
0.344459
30
0.203379
11
0.016629
21
0.340854
31
0.209623
12
0.016629
22
0.011111
32
0.019246
0
3DFACE
8
/control_wheel.r
62
254
10
0.011111
20
-0.354725
30
-0.185599
11
0.016629
21
-0.351966
31
-0.190377
12
0.011111
22
-0.033259
32
-0.000000
0
3DFACE
8
/control_wheel.r
62
254
10
0.016629
20
0.340854
30
0.209623
11
0.011111
21
0.016629
31
0.028803
12
0.016629
22
0.011111
32
0.019246
0
3DFACE
8
/control_wheel.r
62
254
10
0.016629
20
-0.351966
30
-0.190377
11
0.016629
21
-0.022223
31
-0.000000
12
0.011111
22
-0.033259
32
-0.000000
0
3DFACE
8
/control_wheel.r
62
254
10
0.016629
20
0.340854
30
0.209623
11
0.011111
21
0.338095
31
0.214401
12
0.011111
22
0.016629
32
0.028803
0
3DFACE
8
/control_wheel.r
62
254
10
0.003902
20
-0.356218
30
-0.183012
11
0.011111
21
-0.354725
31
-0.185599
12
0.003902
22
-0.285351
32
-0.142097
0
3DFACE
8
/control_wheel.r
62
254
10
0.011111
20
0.338095
30
0.214401
11
0.010000
21
0.217287
31
0.145184
12
0.011111
22
0.016629
32
0.028803
0
3DFACE
8
/control_wheel.r
62
254
10
0.010000
20
-0.283284
30
-0.143821
11
0.011111
21
-0.354725
31
-0.185599
12
0.011111
22
-0.033259
32
-0.000000
0
3DFACE
8
/control_wheel.r
62
254
10
0.011111
20
0.338095
30
0.214401
11
0.003902
21
0.336602
31
0.216988
12
0.003902
22
0.265735
32
0.176072
0
3DFACE
8
/control_wheel.r
62
254
10
0.011111
20
0.338095
30
0.214401
11
0.003902
21
0.265735
31
0.176072
12
0.010000
22
0.266194
32
0.173421
0
3DFACE
8
/control_wheel.r
62
254
10
0.011111
20
0.338095
30
0.214401
11
0.010000
21
0.266194
31
0.173421
12
0.010000
22
0.217287
32
0.145184
0
3DFACE
8
/control_wheel.r
62
254
10
0.010000
20
0.217287
30
0.145184
11
0.003902
21
0.214965
31
0.146760
12
0.003902
22
0.019616
32
0.033975
0
3DFACE
8
/control_wheel.r
62
254
10
0.010000
20
0.217287
30
0.145184
11
0.003902
21
0.019616
31
0.033975
12
0.011111
22
0.016629
32
0.028803
0
3DFACE
8
/control_wheel.r
62
254
10
0.011111
20
-0.033259
30
-0.000000
11
0.003902
21
-0.039231
31
-0.000000
12
0.003902
22
-0.234581
32
-0.112785
0
3DFACE
8
/control_wheel.r
62
254
10
0.011111
20
-0.033259
30
-0.000000
11
0.003902
21
-0.234581
31
-0.112785
12
0.010000
22
-0.234377
32
-0.115584
0
3DFACE
8
/control_wheel.r
62
254
10
0.011111
20
-0.033259
30
-0.000000
11
0.010000
21
-0.234377
31
-0.115584
12
0.010000
22
-0.283284
32
-0.143821
0
3DFACE
8
/control_wheel.r
62
254
10
0.010000
20
-0.283284
30
-0.143821
11
0.003902
21
-0.285351
31
-0.142097
12
0.011111
22
-0.354725
32
-0.185599
0
3DFACE
8
/control_wheel.r
62
254
10
-0.003902
20
-0.356218
30
-0.183012
11
0.000000
21
-0.285947
31
-0.142441
12
-0.003902
22
-0.285351
32
-0.142097
0
3DFACE
8
/control_wheel.r
62
254
10
-0.003902
20
-0.234581
30
-0.112785
11
0.003902
21
-0.039231
31
-0.000000
12
-0.003902
22
-0.039231
32
-0.000000
0
3DFACE
8
/control_wheel.r
62
254
10
-0.003902
20
0.019616
30
0.033975
11
0.000000
21
0.214369
31
0.146416
12
-0.003902
22
0.214965
32
0.146760
0
3DFACE
8
/control_wheel.r
62
254
10
-0.003902
20
0.265735
30
0.176072
11
0.003902
21
0.336602
31
0.216988
12
-0.003902
22
0.336602
32
0.216988
0
3DFACE
8
/control_wheel.r
62
254
10
0.003902
20
-0.285351
30
-0.142097
11
-0.003902
21
-0.356218
31
-0.183012
12
0.003902
22
-0.356218
32
-0.183012
0
3DFACE
8
/control_wheel.r
62
254
10
0.003902
20
0.214965
30
0.146760
11
-0.003902
21
0.019616
31
0.033975
12
0.003902
22
0.019616
32
0.033975
0
3DFACE
8
/control_wheel.r
62
254
10
0.000000
20
0.266331
30
0.176416
11
0.003902
21
0.265735
31
0.176072
12
0.003902
22
0.336602
32
0.216988
0
3DFACE
8
/control_wheel.r
62
254
10
0.000000
20
-0.233985
30
-0.112441
11
0.003902
21
-0.234581
31
-0.112785
12
0.003902
22
-0.039231
32
-0.000000
0
3DFACE
8
/control_wheel.r
62
254
10
-0.003902
20
-0.234581
30
-0.112785
11
0.000000
21
-0.233985
31
-0.112441
12
0.003902
22
-0.039231
32
-0.000000
0
3DFACE
8
/control_wheel.r
62
254
10
-0.003902
20
0.265735
30
0.176072
11
0.000000
21
0.266331
31
0.176416
12
0.003902
22
0.336602
32
0.216988
0
3DFACE
8
/control_wheel.r
62
254
10
0.003902
20
-0.285351
30
-0.142097
11
0.000000
21
-0.285947
31
-0.142441
12
-0.003902
22
-0.356218
32
-0.183012
0
3DFACE
8
/control_wheel.r
62
254
10
0.003902
20
0.214965
30
0.146760
11
0.000000
21
0.214369
31
0.146416
12
-0.003902
22
0.019616
32
0.033975
0
3DFACE
8
/control_wheel.r
62
254
10
-0.010000
20
-0.234377
30
-0.115584
11
-0.011111
21
-0.033259
31
0.000000
12
-0.011111
22
-0.354725
32
-0.185599
0
3DFACE
8
/control_wheel.r
62
254
10
-0.011111
20
0.016629
30
0.028803
11
-0.010000
21
0.266194
31
0.173421
12
-0.011111
22
0.338095
32
0.214401
0
3DFACE
8
/control_wheel.r
62
254
10
-0.011111
20
-0.354725
30
-0.185599
11
-0.003902
21
-0.356218
31
-0.183012
12
-0.003902
22
-0.285351
32
-0.142097
0
3DFACE
8
/control_wheel.r
62
254
10
-0.011111
20
-0.354725
30
-0.185599
11
-0.003902
21
-0.285351
31
-0.142097
12
-0.010000
22
-0.283284
32
-0.143821
0
3DFACE
8
/control_wheel.r
62
254
10
-0.011111
20
-0.354725
30
-0.185599
11
-0.010000
21
-0.283284
31
-0.143821
12
-0.010000
22
-0.234377
32
-0.115584
0
3DFACE
8
/control_wheel.r
62
254
10
-0.010000
20
-0.234377
30
-0.115584
11
-0.003902
21
-0.234581
31
-0.112785
12
-0.003902
22
-0.039231
32
-0.000000
0
3DFACE
8
/control_wheel.r
62
254
10
-0.010000
20
-0.234377
30
-0.115584
11
-0.003902
21
-0.039231
31
-0.000000
12
-0.011111
22
-0.033259
32
0.000000
0
3DFACE
8
/control_wheel.r
62
254
10
-0.011111
20
0.016629
30
0.028803
11
-0.003902
21
0.019616
31
0.033975
12
-0.003902
22
0.214965
32
0.146760
0
3DFACE
8
/control_wheel.r
62
254
10
-0.011111
20
0.016629
30
0.028803
11
-0.003902
21
0.214965
31
0.146760
12
-0.010000
22
0.217287
32
0.145184
0
3DFACE
8
/control_wheel.r
62
254
10
-0.011111
20
0.016629
30
0.028803
11
-0.010000
21
0.217287
31
0.145184
12
-0.010000
22
0.266194
32
0.173421
0
3DFACE
8
/control_wheel.r
62
254
10
-0.010000
20
0.266194
30
0.173421
11
-0.003902
21
0.265735
31
0.176072
12
-0.003902
22
0.336602
32
0.216988
0
3DFACE
8
/control_wheel.r
62
254
10
-0.010000
20
0.266194
30
0.173421
11
-0.003902
21
0.336602
31
0.216988
12
-0.011111
22
0.338095
32
0.214401
0
3DFACE
8
/control_wheel.r
62
254
10
-0.016629
20
-0.022223
30
0.000000
11
-0.016629
21
-0.351966
31
-0.190377
12
-0.011111
22
-0.033259
32
0.000000
0
3DFACE
8
/control_wheel.r
62
254
10
-0.016629
20
0.011111
30
0.019246
11
-0.011111
21
0.338095
31
0.214401
12
-0.016629
22
0.340854
32
0.209623
0
3DFACE
8
/control_wheel.r
62
254
10
-0.016629
20
-0.351966
30
-0.190377
11
-0.011111
21
-0.354725
31
-0.185599
12
-0.011111
22
-0.033259
32
0.000000
0
3DFACE
8
/control_wheel.r
62
254
10
-0.016629
20
0.011111
30
0.019246
11
-0.011111
21
0.016629
31
0.028803
12
-0.011111
22
0.338095
32
0.214401
0
3DFACE
8
/control_wheel.r
62
254
10
-0.019616
20
-0.007804
30
-0.000000
11
-0.019616
21
-0.348361
31
-0.196621
12
-0.016629
22
-0.022223
32
0.000000
0
3DFACE
8
/control_wheel.r
62
254
10
-0.019616
20
0.003902
30
0.006758
11
-0.016629
21
0.340854
31
0.209623
12
-0.019616
22
0.344459
32
0.203379
0
3DFACE
8
/control_wheel.r
62
254
10
-0.019616
20
-0.348361
30
-0.196621
11
-0.016629
21
-0.351966
31
-0.190377
12
-0.016629
22
-0.022223
32
0.000000
0
3DFACE
8
/control_wheel.r
62
254
10
-0.019616
20
0.003902
30
0.006758
11
-0.016629
21
0.011111
31
0.019246
12
-0.016629
22
0.340854
32
0.209623
0
3DFACE
8
/control_wheel.r
62
254
10
-0.019616
20
-0.003902
30
-0.006758
11
-0.016629
21
-0.340854
31
-0.209623
12
-0.019616
22
-0.344459
32
-0.203379
0
3DFACE
8
/control_wheel.r
62
254
10
-0.016629
20
0.022223
30
0.000000
11
-0.019616
21
0.348361
31
0.196621
12
-0.016629
22
0.351966
32
0.190377
0
3DFACE
8
/control_wheel.r
62
254
10
-0.016629
20
0.022223
30
0.000000
11
-0.019616
21
0.007804
31
-0.000000
12
-0.019616
22
0.348361
32
0.196621
0
3DFACE
8
/control_wheel.r
62
254
10
-0.019616
20
-0.003902
30
-0.006758
11
-0.016629
21
-0.011111
31
-0.019246
12
-0.016629
22
-0.340854
32
-0.209623
0
3DFACE
8
/control_wheel.r
62
254
10
-0.011111
20
-0.338095
30
-0.214401
11
-0.016629
21
-0.011111
31
-0.019246
12
-0.011111
22
-0.016629
32
-0.028803
0
3DFACE
8
/control_wheel.r
62
254
10
-0.011111
20
0.033259
30
0.000000
11
-0.016629
21
0.351966
31
0.190377
12
-0.011111
22
0.354725
32
0.185599
0
3DFACE
8
/control_wheel.r
62
254
10
-0.011111
20
0.033259
30
0.000000
11
-0.016629
21
0.022223
31
0.000000
12
-0.016629
22
0.351966
32
0.190377
0
3DFACE
8
/control_wheel.r
62
254
10
-0.011111
20
-0.338095
30
-0.214401
11
-0.016629
21
-0.340854
31
-0.209623
12
-0.016629
22
-0.011111
32
-0.019246
0
3DFACE
8
/control_wheel.r
62
254
10
-0.011111
20
-0.016629
30
-0.028803
11
-0.010000
21
-0.266194
31
-0.173421
12
-0.011111
22
-0.338095
32
-0.214401
0
3DFACE
8
/control_wheel.r
62
254
10
-0.010000
20
0.234377
30
0.115584
11
-0.011111
21
0.033259
31
0.000000
12
-0.011111
22
0.354725
32
0.185599
0
3DFACE
8
/control_wheel.r
62
254
10
-0.003902
20
0.356218
30
0.183012
11
-0.003902
21
0.285351
31
0.142097
12
-0.010000
22
0.283284
32
0.143821
0
3DFACE
8
/control_wheel.r
62
254
10
-0.003902
20
-0.019616
30
-0.033975
11
-0.003902
21
-0.214965
31
-0.146760
12
-0.010000
22
-0.217287
32
-0.145184
0
3DFACE
8
/control_wheel.r
62
254
10
-0.003902
20
-0.265735
30
-0.176072
11
-0.003902
21
-0.336602
31
-0.216988
12
-0.011111
22
-0.338095
32
-0.214401
0
3DFACE
8
/control_wheel.r
62
254
10
-0.003902
20
0.234581
30
0.112785
11
-0.003902
21
0.039231
31
0.000000
12
-0.011111
22
0.033259
32
0.000000
0
3DFACE
8
/control_wheel.r
62
254
10
-0.011111
20
-0.016629
30
-0.028803
11
-0.003902
21
-0.019616
31
-0.033975
12
-0.010000
22
-0.217287
32
-0.145184
0
3DFACE
8
/control_wheel.r
62
254
10
-0.011111
20
-0.016629
30
-0.028803
11
-0.010000
21
-0.217287
31
-0.145184
12
-0.010000
22
-0.266194
32
-0.173421
0
3DFACE
8
/control_wheel.r
62
254
10
-0.010000
20
-0.266194
30
-0.173421
11
-0.003902
21
-0.265735
31
-0.176072
12
-0.011111
22
-0.338095
32
-0.214401
0
3DFACE
8
/control_wheel.r
62
254
10
-0.011111
20
0.354725
30
0.185599
11
-0.003902
21
0.356218
31
0.183012
12
-0.010000
22
0.283284
32
0.143821
0
3DFACE
8
/control_wheel.r
62
254
10
-0.011111
20
0.354725
30
0.185599
11
-0.010000
21
0.283284
31
0.143821
12
-0.010000
22
0.234377
32
0.115584
0
3DFACE
8
/control_wheel.r
62
254
10
-0.010000
20
0.234377
30
0.115584
11
-0.003902
21
0.234581
31
0.112785
12
-0.011111
22
0.033259
32
0.000000
0
3DFACE
8
/control_wheel.r
62
254
10
-0.003902
20
-0.265735
30
-0.176072
11
0.003902
21
-0.336602
31
-0.216988
12
-0.003902
22
-0.336602
32
-0.216988
0
3DFACE
8
/control_wheel.r
62
254
10
-0.003902
20
-0.019616
30
-0.033975
11
0.000000
21
-0.214369
31
-0.146416
12
-0.003902
22
-0.214965
32
-0.146760
0
3DFACE
8
/control_wheel.r
62
254
10
-0.003902
20
0.356218
30
0.183012
11
0.000000
21
0.285947
31
0.142441
12
-0.003902
22
0.285351
32
0.142097
0
3DFACE
8
/control_wheel.r
62
254
10
-0.003902
20
0.234581
30
0.112785
11
0.003902
21
0.039231
31
0.000000
12
-0.003902
22
0.039231
32
0.000000
0
3DFACE
8
/control_wheel.r
62
254
10
0.003902
20
0.285351
30
0.142097
11
-0.003902
21
0.356218
31
0.183012
12
0.003902
22
0.356218
32
0.183012
0
3DFACE
8
/control_wheel.r
62
254
10
0.003902
20
-0.214965
30
-0.146760
11
-0.003902
21
-0.019616
31
-0.033975
12
0.003902
22
-0.019616
32
-0.033975
0
3DFACE
8
/control_wheel.r
62
254
10
0.000000
20
-0.266331
30
-0.176416
11
0.003902
21
-0.265735
31
-0.176072
12
0.003902
22
-0.336602
32
-0.216988
0
3DFACE
8
/control_wheel.r
62
254
10
0.000000
20
0.233985
30
0.112441
11
0.003902
21
0.234581
31
0.112785
12
0.003902
22
0.039231
32
0.000000
0
3DFACE
8
/control_wheel.r
62
254
10
-0.003902
20
-0.265735
30
-0.176072
11
0.000000
21
-0.266331
31
-0.176416
12
0.003902
22
-0.336602
32
-0.216988
0
3DFACE
8
/control_wheel.r
62
254
10
-0.003902
20
0.234581
30
0.112785
11
0.000000
21
0.233985
31
0.112441
12
0.003902
22
0.039231
32
0.000000
0
3DFACE
8
/control_wheel.r
62
254
10
0.003902
20
0.285351
30
0.142097
11
0.000000
21
0.285947
31
0.142441
12
-0.003902
22
0.356218
32
0.183012
0
3DFACE
8
/control_wheel.r
62
254
10
0.003902
20
-0.214965
30
-0.146760
11
0.000000
21
-0.214369
31
-0.146416
12
-0.003902
22
-0.019616
32
-0.033975
0
3DFACE
8
/control_wheel.r
62
254
10
-0.011111
20
-0.338095
30
0.214401
11
0.003902
21
-0.336602
31
0.216988
12
-0.003902
22
-0.336602
32
0.216988
0
3DFACE
8
/control_wheel.r
62
254
10
-0.016629
20
-0.340854
30
0.209623
11
0.011111
21
-0.338095
31
0.214401
12
-0.011111
22
-0.338095
32
0.214401
0
3DFACE
8
/control_wheel.r
62
254
10
0.011111
20
-0.338095
30
0.214401
11
0.003902
21
-0.336602
31
0.216988
12
-0.011111
22
-0.338095
32
0.214401
0
3DFACE
8
/control_wheel.r
62
254
10
-0.019616
20
-0.344459
30
0.203379
11
0.016629
21
-0.340854
31
0.209623
12
-0.016629
22
-0.340854
32
0.209623
0
3DFACE
8
/control_wheel.r
62
254
10
0.016629
20
-0.340854
30
0.209623
11
0.011111
21
-0.338095
31
0.214401
12
-0.016629
22
-0.340854
32
0.209623
0
3DFACE
8
/control_wheel.r
62
254
10
-0.019616
20
-0.348361
30
0.196621
11
0.019616
21
-0.344459
31
0.203379
12
-0.019616
22
-0.344459
32
0.203379
0
3DFACE
8
/control_wheel.r
62
254
10
0.019616
20
-0.344459
30
0.203379
11
0.016629
21
-0.340854
31
0.209623
12
-0.019616
22
-0.344459
32
0.203379
0
3DFACE
8
/control_wheel.r
62
254
10
-0.016629
20
-0.351966
30
0.190377
11
0.019616
21
-0.348361
31
0.196621
12
-0.019616
22
-0.348361
32
0.196621
0
3DFACE
8
/control_wheel.r
62
254
10
0.019616
20
-0.348361
30
0.196621
11
0.019616
21
-0.344459
31
0.203379
12
-0.019616
22
-0.348361
32
0.196621
0
3DFACE
8
/control_wheel.r
62
254
10
-0.011111
20
-0.354725
30
0.185599
11
0.016629
21
-0.351966
31
0.190377
12
-0.016629
22
-0.351966
32
0.190377
0
3DFACE
8
/control_wheel.r
62
254
10
0.016629
20
-0.351966
30
0.190377
11
0.019616
21
-0.348361
31
0.196621
12
-0.016629
22
-0.351966
32
0.190377
0
3DFACE
8
/control_wheel.r
62
254
10
-0.003902
20
-0.356218
30
0.183012
11
0.011111
21
-0.354725
31
0.185599
12
-0.011111
22
-0.354725
32
0.185599
0
3DFACE
8
/control_wheel.r
62
254
10
0.011111
20
-0.354725
30
0.185599
11
0.016629
21
-0.351966
31
0.190377
12
-0.011111
22
-0.354725
32
0.185599
0
3DFACE
8
/control_wheel.r
62
254
10
-0.003902
20
-0.356218
30
0.183012
11
0.003902
21
-0.356218
31
0.183012
12
0.011111
22
-0.354725
32
0.185599
0
3DFACE
8
/control_wheel.r
62
254
10
0.010000
20
-0.283284
30
0.143821
11
0.003902
21
-0.356218
31
0.183012
12
0.003902
22
-0.285351
32
0.142097
0
3DFACE
8
/control_wheel.r
62
254
10
0.010000
20
0.217287
30
-0.145184
11
0.003902
21
0.019616
31
-0.033975
12
0.003902
22
0.214965
32
-0.146760
0
3DFACE
8
/control_wheel.r
62
254
10
0.011111
20
-0.033259
30
-0.000000
11
0.003902
21
-0.234581
31
0.112785
12
0.003902
22
-0.039231
32
-0.000000
0
3DFACE
8
/control_wheel.r
62
254
10
0.010000
20
-0.234377
30
0.115584
11
0.011111
21
-0.033259
31
-0.000000
12
0.011111
22
-0.354725
32
0.185599
0
3DFACE
8
/control_wheel.r
62
254
10
0.011111
20
0.338095
30
-0.214401
11
0.003902
21
0.265735
31
-0.176072
12
0.003902
22
0.336602
32
-0.216988
0
3DFACE
8
/control_wheel.r
62
254
10
0.010000
20
0.266194
30
-0.173421
11
0.011111
21
0.338095
31
-0.214401
12
0.011111
22
0.016629
32
-0.028803
0
3DFACE
8
/control_wheel.r
62
254
10
0.011111
20
-0.354725
30
0.185599
11
0.003902
21
-0.356218
31
0.183012
12
0.010000
22
-0.283284
32
0.143821
0
3DFACE
8
/control_wheel.r
62
254
10
0.011111
20
-0.354725
30
0.185599
11
0.010000
21
-0.283284
31
0.143821
12
0.010000
22
-0.234377
32
0.115584
0
3DFACE
8
/control_wheel.r
62
254
10
0.010000
20
-0.234377
30
0.115584
11
0.003902
21
-0.234581
31
0.112785
12
0.011111
22
-0.033259
32
-0.000000
0
3DFACE
8
/control_wheel.r
62
254
10
0.011111
20
0.016629
30
-0.028803
11
0.003902
21
0.019616
31
-0.033975
12
0.010000
22
0.217287
32
-0.145184
0
3DFACE
8
/control_wheel.r
62
254
10
0.011111
20
0.016629
30
-0.028803
11
0.010000
21
0.217287
31
-0.145184
12
0.010000
22
0.266194
32
-0.173421
0
3DFACE
8
/control_wheel.r
62
254
10
0.010000
20
0.266194
30
-0.173421
11
0.003902
21
0.265735
31
-0.176072
12
0.011111
22
0.338095
32
-0.214401
0
3DFACE
8
/control_wheel.r
62
254
10
0.016629
20
-0.022223
30
-0.000000
11
0.016629
21
-0.351966
31
0.190377
12
0.011111
22
-0.033259
32
-0.000000
0
3DFACE
8
/control_wheel.r
62
254
10
0.016629
20
0.011111
30
-0.019246
11
0.011111
21
0.338095
31
-0.214401
12
0.016629
22
0.340854
32
-0.209623
0
3DFACE
8
/control_wheel.r
62
254
10
0.016629
20
0.011111
30
-0.019246
11
0.011111
21
0.016629
31
-0.028803
12
0.011111
22
0.338095
32
-0.214401
0
3DFACE
8
/control_wheel.r
62
254
10
0.016629
20
-0.351966
30
0.190377
11
0.011111
21
-0.354725
31
0.185599
12
0.011111
22
-0.033259
32
-0.000000
0
3DFACE
8
/control_wheel.r
62
254
10
0.019616
20
-0.007804
30
-0.000000
11
0.019616
21
-0.348361
31
0.196621
12
0.016629
22
-0.022223
32
-0.000000
0
3DFACE
8
/control_wheel.r
62
254
10
0.019616
20
0.003902
30
-0.006758
11
0.016629
21
0.340854
31
-0.209623
12
0.019616
22
0.344459
32
-0.203379
0
3DFACE
8
/control_wheel.r
62
254
10
0.019616
20
-0.348361
30
0.196621
11
0.016629
21
-0.351966
31
0.190377
12
0.016629
22
-0.022223
32
-0.000000
0
3DFACE
8
/control_wheel.r
62
254
10
0.019616
20
0.003902
30
-0.006758
11
0.016629
21
0.011111
31
-0.019246
12
0.016629
22
0.340854
32
-0.209623
0
3DFACE
8
/control_wheel.r
62
254
10
0.019616
20
-0.003902
30
0.006758
11
0.016629
21
-0.340854
31
0.209623
12
0.019616
22
-0.344459
32
0.203379
0
3DFACE
8
/control_wheel.r
62
254
10
0.016629
20
0.022223
30
0.000000
11
0.019616
21
0.348361
31
-0.196621
12
0.016629
22
0.351966
32
-0.190377
0
3DFACE
8
/control_wheel.r
62
254
10
0.016629
20
0.022223
30
0.000000
11
0.019616
21
0.007804
31
0.000000
12
0.019616
22
0.348361
32
-0.196621
0
3DFACE
8
/control_wheel.r
62
254
10
0.019616
20
-0.003902
30
0.006758
11
0.016629
21
-0.011111
31
0.019246
12
0.016629
22
-0.340854
32
0.209623
0
3DFACE
8
/control_wheel.r
62
254
10
0.016629
20
-0.011111
30
0.019246
11
0.011111
21
-0.338095
31
0.214401
12
0.016629
22
-0.340854
32
0.209623
0
3DFACE
8
/control_wheel.r
62
254
10
0.011111
20
0.033259
30
0.000000
11
0.016629
21
0.351966
31
-0.190377
12
0.011111
22
0.354725
32
-0.185599
0
3DFACE
8
/control_wheel.r
62
254
10
0.011111
20
0.033259
30
0.000000
11
0.016629
21
0.022223
31
0.000000
12
0.016629
22
0.351966
32
-0.190377
0
3DFACE
8
/control_wheel.r
62
254
10
0.016629
20
-0.011111
30
0.019246
11
0.011111
21
-0.016629
31
0.028803
12
0.011111
22
-0.338095
32
0.214401
0
3DFACE
8
/control_wheel.r
62
254
10
0.010000
20
-0.266194
30
0.173421
11
0.011111
21
-0.338095
31
0.214401
12
0.011111
22
-0.016629
32
0.028803
0
3DFACE
8
/control_wheel.r
62
254
10
0.003902
20
0.285351
30
-0.142097
11
0.011111
21
0.354725
31
-0.185599
12
0.003902
22
0.356218
32
-0.183012
0
3DFACE
8
/control_wheel.r
62
254
10
0.011111
20
0.354725
30
-0.185599
11
0.010000
21
0.234377
31
-0.115584
12
0.011111
22
0.033259
32
0.000000
0
3DFACE
8
/control_wheel.r
62
254
10
0.011111
20
-0.016629
30
0.028803
11
0.003902
21
-0.019616
31
0.033975
12
0.003902
22
-0.214965
32
0.146760
0
3DFACE
8
/control_wheel.r
62
254
10
0.011111
20
-0.016629
30
0.028803
11
0.003902
21
-0.214965
31
0.146760
12
0.010000
22
-0.217287
32
0.145184
0
3DFACE
8
/control_wheel.r
62
254
10
0.011111
20
-0.016629
30
0.028803
11
0.010000
21
-0.217287
31
0.145184
12
0.010000
22
-0.266194
32
0.173421
0
3DFACE
8
/control_wheel.r
62
254
10
0.010000
20
-0.266194
30
0.173421
11
0.003902
21
-0.265735
31
0.176072
12
0.003902
22
-0.336602
32
0.216988
0
3DFACE
8
/control_wheel.r
62
254
10
0.010000
20
-0.266194
30
0.173421
11
0.003902
21
-0.336602
31
0.216988
12
0.011111
22
-0.338095
32
0.214401
0
3DFACE
8
/control_wheel.r
62
254
10
0.011111
20
0.354725
30
-0.185599
11
0.003902
21
0.285351
31
-0.142097
12
0.010000
22
0.283284
32
-0.143821
0
3DFACE
8
/control_wheel.r
62
254
10
0.011111
20
0.354725
30
-0.185599
11
0.010000
21
0.283284
31
-0.143821
12
0.010000
22
0.234377
32
-0.115584
0
3DFACE
8
/control_wheel.r
62
254
10
0.010000
20
0.234377
30
-0.115584
11
0.003902
21
0.234581
31
-0.112785
12
0.003902
22
0.039231
32
0.000000
0
3DFACE
8
/control_wheel.r
62
254
10
0.010000
20
0.234377
30
-0.115584
11
0.003902
21
0.039231
31
0.000000
12
0.011111
22
0.033259
32
0.000000
0
3DFACE
8
/control_wheel.r
62
254
10
-0.003902
20
-0.336602
30
0.216988
11
0.000000
21
-0.266331
31
0.176416
12
-0.003902
22
-0.265735
32
0.176072
0
3DFACE
8
/control_wheel.r
62
254
10
-0.003902
20
-0.214965
30
0.146760
11
0.003902
21
-0.019616
31
0.033975
12
-0.003902
22
-0.019616
32
0.033975
0
3DFACE
8
/control_wheel.r
62
254
10
-0.003902
20
0.285351
30
-0.142097
11
0.003902
21
0.356218
31
-0.183012
12
-0.003902
22
0.356218
32
-0.183012
0
3DFACE
8
/control_wheel.r
62
254
10
-0.003902
20
0.039231
30
0.000000
11
0.000000
21
0.233985
31
-0.112441
12
-0.003902
22
0.234581
32
-0.112785
0
3DFACE
8
/control_wheel.r
62
254
10
0.003902
20
-0.265735
30
0.176072
11
-0.003902
21
-0.336602
31
0.216988
12
0.003902
22
-0.336602
32
0.216988
0
3DFACE
8
/control_wheel.r
62
254
10
0.003902
20
0.234581
30
-0.112785
11
-0.003902
21
0.039231
31
0.000000
12
0.003902
22
0.039231
32
0.000000
0
3DFACE
8
/control_wheel.r
62
254
10
0.000000
20
0.285947
30
-0.142441
11
0.003902
21
0.285351
31
-0.142097
12
0.003902
22
0.356218
32
-0.183012
0
3DFACE
8
/control_wheel.r
62
254
10
0.000000
20
-0.214369
30
0.146416
11
0.003902
21
-0.214965
31
0.146760
12
0.003902
22
-0.019616
32
0.033975
0
3DFACE
8
/control_wheel.r
62
254
10
-0.003902
20
-0.214965
30
0.146760
11
0.000000
21
-0.214369
31
0.146416
12
0.003902
22
-0.019616
32
0.033975
0
3DFACE
8
/control_wheel.r
62
254
10
-0.003902
20
0.285351
30
-0.142097
11
0.000000
21
0.285947
31
-0.142441
12
0.003902
22
0.356218
32
-0.183012
0
3DFACE
8
/control_wheel.r
62
254
10
0.003902
20
-0.265735
30
0.176072
11
0.000000
21
-0.266331
31
0.176416
12
-0.003902
22
-0.336602
32
0.216988
0
3DFACE
8
/control_wheel.r
62
254
10
0.003902
20
0.234581
30
-0.112785
11
0.000000
21
0.233985
31
-0.112441
12
-0.003902
22
0.039231
32
0.000000
0
3DFACE
8
/control_wheel.r
62
254
10
-0.010000
20
-0.217287
30
0.145184
11
-0.011111
21
-0.016629
31
0.028803
12
-0.011111
22
-0.338095
32
0.214401
0
3DFACE
8
/control_wheel.r
62
254
10
-0.011111
20
0.033259
30
0.000000
11
-0.010000
21
0.283284
31
-0.143821
12
-0.011111
22
0.354725
32
-0.185599
0
3DFACE
8
/control_wheel.r
62
254
10
-0.003902
20
0.285351
30
-0.142097
11
-0.003902
21
0.356218
31
-0.183012
12
-0.011111
22
0.354725
32
-0.185599
0
3DFACE
8
/control_wheel.r
62
254
10
-0.011111
20
-0.338095
30
0.214401
11
-0.003902
21
-0.336602
31
0.216988
12
-0.003902
22
-0.265735
32
0.176072
0
3DFACE
8
/control_wheel.r
62
254
10
-0.011111
20
-0.338095
30
0.214401
11
-0.003902
21
-0.265735
31
0.176072
12
-0.010000
22
-0.266194
32
0.173421
0
3DFACE
8
/control_wheel.r
62
254
10
-0.011111
20
-0.338095
30
0.214401
11
-0.010000
21
-0.266194
31
0.173421
12
-0.010000
22
-0.217287
32
0.145184
0
3DFACE
8
/control_wheel.r
62
254
10
-0.010000
20
-0.217287
30
0.145184
11
-0.003902
21
-0.214965
31
0.146760
12
-0.003902
22
-0.019616
32
0.033975
0
3DFACE
8
/control_wheel.r
62
254
10
-0.010000
20
-0.217287
30
0.145184
11
-0.003902
21
-0.019616
31
0.033975
12
-0.011111
22
-0.016629
32
0.028803
0
3DFACE
8
/control_wheel.r
62
254
10
-0.011111
20
0.033259
30
0.000000
11
-0.003902
21
0.039231
31
0.000000
12
-0.003902
22
0.234581
32
-0.112785
0
3DFACE
8
/control_wheel.r
62
254
10
-0.011111
20
0.033259
30
0.000000
11
-0.003902
21
0.234581
31
-0.112785
12
-0.010000
22
0.234377
32
-0.115584
0
3DFACE
8
/control_wheel.r
62
254
10
-0.011111
20
0.033259
30
0.000000
11
-0.010000
21
0.234377
31
-0.115584
12
-0.010000
22
0.283284
32
-0.143821
0
3DFACE
8
/control_wheel.r
62
254
10
-0.010000
20
0.283284
30
-0.143821
11
-0.003902
21
0.285351
31
-0.142097
12
-0.011111
22
0.354725
32
-0.185599
0
3DFACE
8
/control_wheel.r
62
254
10
-0.016629
20
-0.340854
30
0.209623
11
-0.011111
21
-0.016629
31
0.028803
12
-0.016629
22
-0.011111
32
0.019246
0
3DFACE
8
/control_wheel.r
62
254
10
-0.011111
20
0.033259
30
0.000000
11
-0.016629
21
0.351966
31
-0.190377
12
-0.016629
22
0.022223
32
0.000000
0
3DFACE
8
/control_wheel.r
62
254
10
-0.011111
20
0.033259
30
0.000000
11
-0.011111
21
0.354725
31
-0.185599
12
-0.016629
22
0.351966
32
-0.190377
0
3DFACE
8
/control_wheel.r
62
254
10
-0.016629
20
-0.340854
30
0.209623
11
-0.011111
21
-0.338095
31
0.214401
12
-0.011111
22
-0.016629
32
0.028803
0
3DFACE
8
/control_wheel.r
62
254
10
-0.019616
20
-0.344459
30
0.203379
11
-0.016629
21
-0.011111
31
0.019246
12
-0.019616
22
-0.003902
32
0.006758
0
3DFACE
8
/control_wheel.r
62
254
10
-0.016629
20
0.022223
30
0.000000
11
-0.019616
21
0.348361
31
-0.196621
12
-0.019616
22
0.007804
32
-0.000000
0
3DFACE
8
/control_wheel.r
62
254
10
-0.016629
20
0.022223
30
0.000000
11
-0.016629
21
0.351966
31
-0.190377
12
-0.019616
22
0.348361
32
-0.196621
0
3DFACE
8
/control_wheel.r
62
254
10
-0.019616
20
-0.344459
30
0.203379
11
-0.016629
21
-0.340854
31
0.209623
12
-0.016629
22
-0.011111
32
0.019246
0
3DFACE
8
/control_wheel.r
62
254
10
-0.016629
20
-0.351966
30
0.190377
11
-0.019616
21
-0.348361
31
0.196621
12
-0.016629
22
-0.022223
32
0.000000
0
3DFACE
8
/control_wheel.r
62
254
10
-0.019616
20
0.003902
30
-0.006758
11
-0.019616
21
0.344459
31
-0.203379
12
-0.016629
22
0.011111
32
-0.019246
0
3DFACE
8
/control_wheel.r
62
254
10
-0.019616
20
-0.348361
30
0.196621
11
-0.019616
21
-0.007804
31
-0.000000
12
-0.016629
22
-0.022223
32
0.000000
0
3DFACE
8
/control_wheel.r
62
254
10
-0.019616
20
0.344459
30
-0.203379
11
-0.016629
21
0.340854
31
-0.209623
12
-0.016629
22
0.011111
32
-0.019246
0
3DFACE
8
/control_wheel.r
62
254
10
-0.011111
20
-0.354725
30
0.185599
11
-0.016629
21
-0.351966
31
0.190377
12
-0.011111
22
-0.033259
32
0.000000
0
3DFACE
8
/control_wheel.r
62
254
10
-0.016629
20
0.011111
30
-0.019246
11
-0.011111
21
0.338095
31
-0.214401
12
-0.011111
22
0.016629
32
-0.028803
0
3DFACE
8
/control_wheel.r
62
254
10
-0.016629
20
0.011111
30
-0.019246
11
-0.016629
21
0.340854
31
-0.209623
12
-0.011111
22
0.338095
32
-0.214401
0
3DFACE
8
/control_wheel.r
62
254
10
-0.016629
20
-0.351966
30
0.190377
11
-0.016629
21
-0.022223
31
0.000000
12
-0.011111
22
-0.033259
32
0.000000
0
3DFACE
8
/control_wheel.r
62
254
10
-0.011111
20
-0.033259
30
0.000000
11
-0.010000
21
-0.283284
31
0.143821
12
-0.011111
22
-0.354725
32
0.185599
0
3DFACE
8
/control_wheel.r
62
254
10
-0.011111
20
0.338095
30
-0.214401
11
-0.010000
21
0.217287
31
-0.145184
12
-0.011111
22
0.016629
32
-0.028803
0
3DFACE
8
/control_wheel.r
62
254
10
-0.010000
20
-0.283284
30
0.143821
11
-0.003902
21
-0.285351
31
0.142097
12
-0.003902
22
-0.356218
32
0.183012
0
3DFACE
8
/control_wheel.r
62
254
10
-0.011111
20
-0.033259
30
0.000000
11
-0.003902
21
-0.039231
31
-0.000000
12
-0.003902
22
-0.234581
32
0.112785
0
3DFACE
8
/control_wheel.r
62
254
10
-0.010000
20
0.217287
30
-0.145184
11
-0.003902
21
0.214965
31
-0.146760
12
-0.003902
22
0.019616
32
-0.033975
0
3DFACE
8
/control_wheel.r
62
254
10
-0.011111
20
0.338095
30
-0.214401
11
-0.003902
21
0.336602
31
-0.216988
12
-0.003902
22
0.265735
32
-0.176072
0
3DFACE
8
/control_wheel.r
62
254
10
-0.011111
20
-0.033259
30
0.000000
11
-0.003902
21
-0.234581
31
0.112785
12
-0.010000
22
-0.234377
32
0.115584
0
3DFACE
8
/control_wheel.r
62
254
10
-0.011111
20
-0.033259
30
0.000000
11
-0.010000
21
-0.234377
31
0.115584
12
-0.010000
22
-0.283284
32
0.143821
0
3DFACE
8
/control_wheel.r
62
254
10
-0.010000
20
-0.283284
30
0.143821
11
-0.003902
21
-0.356218
31
0.183012
12
-0.011111
22
-0.354725
32
0.185599
0
3DFACE
8
/control_wheel.r
62
254
10
-0.011111
20
0.338095
30
-0.214401
11
-0.003902
21
0.265735
31
-0.176072
12
-0.010000
22
0.266194
32
-0.173421
0
3DFACE
8
/control_wheel.r
62
254
10
-0.011111
20
0.338095
30
-0.214401
11
-0.010000
21
0.266194
31
-0.173421
12
-0.010000
22
0.217287
32
-0.145184
0
3DFACE
8
/control_wheel.r
62
254
10
-0.010000
20
0.217287
30
-0.145184
11
-0.003902
21
0.019616
31
-0.033975
12
-0.011111
22
0.016629
32
-0.028803
0
3DFACE
8
/control_wheel.r
62
254
10
-0.003902
20
-0.285351
30
0.142097
11
0.003902
21
-0.356218
31
0.183012
12
-0.003902
22
-0.356218
32
0.183012
0
3DFACE
8
/control_wheel.r
62
254
10
-0.003902
20
-0.039231
30
-0.000000
11
0.000000
21
-0.233985
31
0.112441
12
-0.003902
22
-0.234581
32
0.112785
0
3DFACE
8
/control_wheel.r
62
254
10
-0.003902
20
0.336602
30
-0.216988
11
0.000000
21
0.266331
31
-0.176416
12
-0.003902
22
0.265735
32
-0.176072
0
3DFACE
8
/control_wheel.r
62
254
10
-0.003902
20
0.214965
30
-0.146760
11
0.003902
21
0.019616
31
-0.033975
12
-0.003902
22
0.019616
32
-0.033975
0
3DFACE
8
/control_wheel.r
62
254
10
0.003902
20
0.265735
30
-0.176072
11
-0.003902
21
0.336602
31
-0.216988
12
0.003902
22
0.336602
32
-0.216988
0
3DFACE
8
/control_wheel.r
62
254
10
0.003902
20
-0.234581
30
0.112785
11
-0.003902
21
-0.039231
31
-0.000000
12
0.003902
22
-0.039231
32
-0.000000
0
3DFACE
8
/control_wheel.r
62
254
10
0.000000
20
-0.285947
30
0.142441
11
0.003902
21
-0.285351
31
0.142097
12
0.003902
22
-0.356218
32
0.183012
0
3DFACE
8
/control_wheel.r
62
254
10
0.000000
20
0.214369
30
-0.146416
11
0.003902
21
0.214965
31
-0.146760
12
0.003902
22
0.019616
32
-0.033975
0
3DFACE
8
/control_wheel.r
62
254
10
-0.003902
20
-0.285351
30
0.142097
11
0.000000
21
-0.285947
31
0.142441
12
0.003902
22
-0.356218
32
0.183012
0
3DFACE
8
/control_wheel.r
62
254
10
-0.003902
20
0.214965
30
-0.146760
11
0.000000
21
0.214369
31
-0.146416
12
0.003902
22
0.019616
32
-0.033975
0
3DFACE
8
/control_wheel.r
62
254
10
0.003902
20
0.265735
30
-0.176072
11
0.000000
21
0.266331
31
-0.176416
12
-0.003902
22
0.336602
32
-0.216988
0
3DFACE
8
/control_wheel.r
62
254
10
0.003902
20
-0.234581
30
0.112785
11
0.000000
21
-0.233985
31
0.112441
12
-0.003902
22
-0.039231
32
-0.000000
0
3DFACE
8
/control_wheel.r
62
254
10
-0.011111
20
0.016629
30
0.400000
11
0.003902
21
0.019616
31
0.400000
12
-0.003902
22
0.019616
32
0.400000
0
3DFACE
8
/control_wheel.r
62
254
10
-0.016629
20
0.011111
30
0.400000
11
0.011111
21
0.016629
31
0.400000
12
-0.011111
22
0.016629
32
0.400000
0
3DFACE
8
/control_wheel.r
62
254
10
0.011111
20
0.016629
30
0.400000
11
0.003902
21
0.019616
31
0.400000
12
-0.011111
22
0.016629
32
0.400000
0
3DFACE
8
/control_wheel.r
62
254
10
-0.019616
20
0.003902
30
0.400000
11
0.016629
21
0.011111
31
0.400000
12
-0.016629
22
0.011111
32
0.400000
0
3DFACE
8
/control_wheel.r
62
254
10
0.016629
20
0.011111
30
0.400000
11
0.011111
21
0.016629
31
0.400000
12
-0.016629
22
0.011111
32
0.400000
0
3DFACE
8
/control_wheel.r
62
254
10
-0.019616
20
-0.003902
30
0.400000
11
0.019616
21
0.003902
31
0.400000
12
-0.019616
22
0.003902
32
0.400000
0
3DFACE
8
/control_wheel.r
62
254
10
0.019616
20
0.003902
30
0.400000
11
0.016629
21
0.011111
31
0.400000
12
-0.019616
22
0.003902
32
0.400000
0
3DFACE
8
/control_wheel.r
62
254
10
-0.016629
20
-0.011111
30
0.400000
11
0.019616
21
-0.003902
31
0.400000
12
-0.019616
22
-0.003902
32
0.400000
0
3DFACE
8
/control_wheel.r
62
254
10
0.019616
20
-0.003902
30
0.400000
11
0.019616
21
0.003902
31
0.400000
12
-0.019616
22
-0.003902
32
0.400000
0
3DFACE
8
/control_wheel.r
62
254
10
-0.011111
20
-0.016629
30
0.400000
11
0.016629
21
-0.011111
31
0.400000
12
-0.016629
22
-0.011111
32
0.400000
0
3DFACE
8
/control_wheel.r
62
254
10
0.016629
20
-0.011111
30
0.400000
11
0.019616
21
-0.003902
31
0.400000
12
-0.016629
22
-0.011111
32
0.400000
0
3DFACE
8
/control_wheel.r
62
254
10
-0.003902
20
-0.019616
30
0.400000
11
0.011111
21
-0.016629
31
0.400000
12
-0.011111
22
-0.016629
32
0.400000
0
3DFACE
8
/control_wheel.r
62
254
10
0.011111
20
-0.016629
30
0.400000
11
0.016629
21
-0.011111
31
0.400000
12
-0.011111
22
-0.016629
32
0.400000
0
3DFACE
8
/control_wheel.r
62
254
10
-0.003902
20
-0.019616
30
0.400000
11
0.003902
21
-0.019616
31
0.400000
12
0.011111
22
-0.016629
32
0.400000
0
3DFACE
8
/control_wheel.r
62
254
10
0.010000
20
-0.017090
30
0.317241
11
0.003902
21
-0.019616
31
0.400000
12
0.003902
22
-0.019616
32
0.318170
0
3DFACE
8
/control_wheel.r
62
254
10
0.010000
20
-0.017090
30
-0.260768
11
0.003902
21
-0.019616
31
-0.033975
12
0.003902
22
-0.019616
32
-0.259546
0
3DFACE
8
/control_wheel.r
62
254
10
0.011111
20
-0.016629
30
0.400000
11
0.010000
21
-0.017090
31
0.260768
12
0.011111
22
-0.016629
32
0.028803
0
3DFACE
8
/control_wheel.r
62
254
10
0.011111
20
-0.016629
30
-0.400000
11
0.003902
21
-0.019616
31
-0.318170
12
0.003902
22
-0.019616
32
-0.400000
0
3DFACE
8
/control_wheel.r
62
254
10
0.010000
20
-0.017090
30
-0.317241
11
0.011111
21
-0.016629
31
-0.400000
12
0.011111
22
-0.016629
32
-0.028803
0
3DFACE
8
/control_wheel.r
62
254
10
0.011111
20
-0.016629
30
0.400000
11
0.003902
21
-0.019616
31
0.400000
12
0.010000
22
-0.017090
32
0.317241
0
3DFACE
8
/control_wheel.r
62
254
10
0.011111
20
-0.016629
30
0.400000
11
0.010000
21
-0.017090
31
0.317241
12
0.010000
22
-0.017090
32
0.260768
0
3DFACE
8
/control_wheel.r
62
254
10
0.010000
20
-0.017090
30
0.260768
11
0.003902
21
-0.019616
31
0.259546
12
0.003902
22
-0.019616
32
0.033975
0
3DFACE
8
/control_wheel.r
62
254
10
0.010000
20
-0.017090
30
0.260768
11
0.003902
21
-0.019616
31
0.033975
12
0.011111
22
-0.016629
32
0.028803
0
3DFACE
8
/control_wheel.r
62
254
10
0.011111
20
-0.016629
30
-0.028803
11
0.003902
21
-0.019616
31
-0.033975
12
0.010000
22
-0.017090
32
-0.260768
0
3DFACE
8
/control_wheel.r
62
254
10
0.011111
20
-0.016629
30
-0.028803
11
0.010000
21
-0.017090
31
-0.260768
12
0.010000
22
-0.017090
32
-0.317241
0
3DFACE
8
/control_wheel.r
62
254
10
0.010000
20
-0.017090
30
-0.317241
11
0.003902
21
-0.019616
31
-0.318170
12
0.011111
22
-0.016629
32
-0.400000
0
3DFACE
8
/control_wheel.r
62
254
10
0.016629
20
-0.011111
30
0.400000
11
0.011111
21
-0.016629
31
0.028803
12
0.016629
22
-0.011111
32
0.019246
0
3DFACE
8
/control_wheel.r
62
254
10
0.011111
20
-0.016629
30
-0.400000
11
0.016629
21
-0.011111
31
-0.400000
12
0.011111
22
-0.016629
32
-0.028803
0
3DFACE
8
/control_wheel.r
62
254
10
0.016629
20
-0.011111
30
-0.400000
11
0.016629
21
-0.011111
31
-0.019246
12
0.011111
22
-0.016629
32
-0.028803
0
3DFACE
8
/control_wheel.r
62
254
10
0.016629
20
-0.011111
30
0.400000
11
0.011111
21
-0.016629
31
0.400000
12
0.011111
22
-0.016629
32
0.028803
0
3DFACE
8
/control_wheel.r
62
254
10
0.019616
20
-0.003902
30
0.006758
11
0.016629
21
-0.011111
31
0.400000
12
0.016629
22
-0.011111
32
0.019246
0
3DFACE
8
/control_wheel.r
62
254
10
0.016629
20
-0.011111
30
-0.400000
11
0.019616
21
-0.003902
31
-0.400000
12
0.016629
22
-0.011111
32
-0.019246
0
3DFACE
8
/control_wheel.r
62
254
10
0.019616
20
-0.003902
30
0.006758
11
0.019616
21
-0.003902
31
0.400000
12
0.016629
22
-0.011111
32
0.400000
0
3DFACE
8
/control_wheel.r
62
254
10
0.019616
20
-0.003902
30
-0.400000
11
0.019616
21
-0.003902
31
-0.006758
12
0.016629
22
-0.011111
32
-0.019246
0
3DFACE
8
/control_wheel.r
62
254
10
0.019616
20
0.007804
30
0.000000
11
0.019616
21
0.344459
31
-0.203379
12
0.019616
22
0.348361
32
-0.196621
0
3DFACE
8
/control_wheel.r
62
254
10
0.019616
20
0.007804
30
0.000000
11
0.019616
21
0.348361
31
0.196621
12
0.019616
22
0.344459
32
0.203379
0
3DFACE
8
/control_wheel.r
62
254
10
0.019616
20
0.003902
30
0.006758
11
0.019616
21
0.007804
31
0.000000
12
0.019616
22
0.344459
32
0.203379
0
3DFACE
8
/control_wheel.r
62
254
10
0.019616
20
-0.003902
30
0.400000
11
0.019616
21
0.003902
31
0.006758
12
0.019616
22
0.003902
32
0.400000
0
3DFACE
8
/control_wheel.r
62
254
10
0.019616
20
0.007804
30
0.000000
11
0.019616
21
0.003902
31
-0.006758
12
0.019616
22
0.344459
32
-0.203379
0
3DFACE
8
/control_wheel.r
62
254
10
0.019616
20
-0.344459
30
0.203379
11
0.019616
21
-0.007804
31
-0.000000
12
0.019616
22
-0.003902
32
0.006758
0
3DFACE
8
/control_wheel.r
62
254
10
0.019616
20
0.003902
30
-0.400000
11
0.019616
21
-0.003902
31
-0.006758
12
0.019616
22
-0.003902
32
-0.400000
0
3DFACE
8
/control_wheel.r
62
254
10
0.019616
20
-0.344459
30
-0.203379
11
0.019616
21
-0.007804
31
-0.000000
12
0.019616
22
-0.348361
32
-0.196621
0
3DFACE
8
/control_wheel.r
62
254
10
0.019616
20
-0.344459
30
-0.203379
11
0.019616
21
-0.003902
31
-0.006758
12
0.019616
22
-0.007804
32
-0.000000
0
3DFACE
8
/control_wheel.r
62
254
10
0.019616
20
-0.344459
30
0.203379
11
0.019616
21
-0.348361
31
0.196621
12
0.019616
22
-0.007804
32
-0.000000
0
3DFACE
8
/control_wheel.r
62
254
10
0.019616
20
-0.003902
30
0.400000
11
0.019616
21
0.003902
31
-0.400000
12
0.019616
22
0.003902
32
-0.006758
0
3DFACE
8
/control_wheel.r
62
254
10
0.019616
20
-0.003902
30
0.400000
11
0.019616
21
0.003902
31
-0.006758
12
0.019616
22
0.003902
32
0.006758
0
3DFACE
8
/control_wheel.r
62
254
10
0.019616
20
0.007804
30
0.000000
11
0.019616
21
0.003902
31
0.006758
12
0.019616
22
0.003902
32
-0.006758
0
3DFACE
8
/control_wheel.r
62
254
10
0.019616
20
-0.007804
30
-0.000000
11
0.019616
21
-0.003902
31
-0.006758
12
0.019616
22
-0.003902
32
0.006758
0
3DFACE
8
/control_wheel.r
62
254
10
0.019616
20
0.003902
30
-0.400000
11
0.019616
21
-0.003902
31
0.400000
12
0.019616
22
-0.003902
32
0.006758
0
3DFACE
8
/control_wheel.r
62
254
10
0.019616
20
0.003902
30
-0.400000
11
0.019616
21
-0.003902
31
0.006758
12
0.019616
22
-0.003902
32
-0.006758
0
3DFACE
8
/control_wheel.r
62
254
10
0.016629
20
0.011111
30
-0.019246
11
0.019616
21
0.003902
31
-0.400000
12
0.016629
22
0.011111
32
-0.400000
0
3DFACE
8
/control_wheel.r
62
254
10
0.016629
20
0.011111
30
0.019246
11
0.016629
21
0.011111
31
0.400000
12
0.019616
22
0.003902
32
0.006758
0
3DFACE
8
/control_wheel.r
62
254
10
0.016629
20
0.011111
30
-0.019246
11
0.019616
21
0.003902
31
-0.006758
12
0.019616
22
0.003902
32
-0.400000
0
3DFACE
8
/control_wheel.r
62
254
10
0.016629
20
0.011111
30
0.400000
11
0.019616
21
0.003902
31
0.400000
12
0.019616
22
0.003902
32
0.006758
0
3DFACE
8
/control_wheel.r
62
254
10
0.011111
20
0.016629
30
-0.028803
11
0.016629
21
0.011111
31
-0.400000
12
0.011111
22
0.016629
32
-0.400000
0
3DFACE
8
/control_wheel.r
62
254
10
0.016629
20
0.011111
30
0.019246
11
0.011111
21
0.016629
31
0.400000
12
0.016629
22
0.011111
32
0.400000
0
3DFACE
8
/control_wheel.r
62
254
10
0.011111
20
0.016629
30
-0.028803
11
0.016629
21
0.011111
31
-0.019246
12
0.016629
22
0.011111
32
-0.400000
0
3DFACE
8
/control_wheel.r
62
254
10
0.016629
20
0.011111
30
0.019246
11
0.011111
21
0.016629
31
0.028803
12
0.011111
22
0.016629
32
0.400000
0
3DFACE
8
/control_wheel.r
62
254
10
0.003902
20
0.019616
30
0.400000
11
0.010000
21
0.017090
31
0.317241
12
0.003902
22
0.019616
32
0.318170
0
3DFACE
8
/control_wheel.r
62
254
10
0.003902
20
0.019616
30
-0.318170
11
0.011111
21
0.016629
31
-0.400000
12
0.003902
22
0.019616
32
-0.400000
0
3DFACE
8
/control_wheel.r
62
254
10
0.003902
20
0.019616
30
-0.033975
11
0.010000
21
0.017090
31
-0.260768
12
0.003902
22
0.019616
32
-0.259546
0
3DFACE
8
/control_wheel.r
62
254
10
0.010000
20
0.017090
30
-0.260768
11
0.011111
21
0.016629
31
-0.028803
12
0.011111
22
0.016629
32
-0.400000
0
3DFACE
8
/control_wheel.r
62
254
10
0.010000
20
0.017090
30
0.317241
11
0.011111
21
0.016629
31
0.400000
12
0.011111
22
0.016629
32
0.028803
0
3DFACE
8
/control_wheel.r
62
254
10
0.011111
20
0.016629
30
-0.400000
11
0.003902
21
0.019616
31
-0.318170
12
0.010000
22
0.017090
32
-0.317241
0
3DFACE
8
/control_wheel.r
62
254
10
0.011111
20
0.016629
30
-0.400000
11
0.010000
21
0.017090
31
-0.317241
12
0.010000
22
0.017090
32
-0.260768
0
3DFACE
8
/control_wheel.r
62
254
10
0.010000
20
0.017090
30
-0.260768
11
0.003902
21
0.019616
31
-0.033975
12
0.011111
22
0.016629
32
-0.028803
0
3DFACE
8
/control_wheel.r
62
254
10
0.011111
20
0.016629
30
0.028803
11
0.003902
21
0.019616
31
0.033975
12
0.003902
22
0.019616
32
0.259546
0
3DFACE
8
/control_wheel.r
62
254
10
0.011111
20
0.016629
30
0.028803
11
0.003902
21
0.019616
31
0.259546
12
0.010000
22
0.017090
32
0.260768
0
3DFACE
8
/control_wheel.r
62
254
10
0.011111
20
0.016629
30
0.028803
11
0.010000
21
0.017090
31
0.260768
12
0.010000
22
0.017090
32
0.317241
0
3DFACE
8
/control_wheel.r
62
254
10
0.010000
20
0.017090
30
0.317241
11
0.003902
21
0.019616
31
0.400000
12
0.011111
22
0.016629
32
0.400000
0
3DFACE
8
/control_wheel.r
62
254
10
-0.003902
20
0.019616
30
0.400000
11
0.000000
21
0.019616
31
0.318858
12
-0.003902
22
0.019616
32
0.318170
0
3DFACE
8
/control_wheel.r
62
254
10
-0.003902
20
0.019616
30
0.259546
11
0.003902
21
0.019616
31
0.033975
12
-0.003902
22
0.019616
32
0.033975
0
3DFACE
8
/control_wheel.r
62
254
10
-0.003902
20
0.019616
30
-0.318170
11
0.003902
21
0.019616
31
-0.400000
12
-0.003902
22
0.019616
32
-0.400000
0
3DFACE
8
/control_wheel.r
62
254
10
-0.003902
20
0.019616
30
-0.033975
11
0.000000
21
0.019616
31
-0.258858
12
-0.003902
22
0.019616
32
-0.259546
0
3DFACE
8
/control_wheel.r
62
254
10
0.003902
20
0.019616
30
0.318170
11
-0.003902
21
0.019616
31
0.400000
12
0.003902
22
0.019616
32
0.400000
0
3DFACE
8
/control_wheel.r
62
254
10
0.003902
20
0.019616
30
-0.259546
11
-0.003902
21
0.019616
31
-0.033975
12
0.003902
22
0.019616
32
-0.033975
0
3DFACE
8
/control_wheel.r
62
254
10
0.000000
20
0.019616
30
-0.318858
11
0.003902
21
0.019616
31
-0.318170
12
0.003902
22
0.019616
32
-0.400000
0
3DFACE
8
/control_wheel.r
62
254
10
0.000000
20
0.019616
30
0.258858
11
0.003902
21
0.019616
31
0.259546
12
0.003902
22
0.019616
32
0.033975
0
3DFACE
8
/control_wheel.r
62
254
10
-0.003902
20
0.019616
30
0.259546
11
0.000000
21
0.019616
31
0.258858
12
0.003902
22
0.019616
32
0.033975
0
3DFACE
8
/control_wheel.r
62
254
10
-0.003902
20
0.019616
30
-0.318170
11
0.000000
21
0.019616
31
-0.318858
12
0.003902
22
0.019616
32
-0.400000
0
3DFACE
8
/control_wheel.r
62
254
10
0.003902
20
0.019616
30
0.318170
11
0.000000
21
0.019616
31
0.318858
12
-0.003902
22
0.019616
32
0.400000
0
3DFACE
8
/control_wheel.r
62
254
10
0.003902
20
0.019616
30
-0.259546
11
0.000000
21
0.019616
31
-0.258858
12
-0.003902
22
0.019616
32
-0.033975
0
3DFACE
8
/control_wheel.r
62
254
10
-0.010000
20
0.017090
30
0.260768
11
-0.011111
21
0.016629
31
0.028803
12
-0.011111
22
0.016629
32
0.400000
0
3DFACE
8
/control_wheel.r
62
254
10
-0.011111
20
0.016629
30
-0.028803
11
-0.010000
21
0.017090
31
-0.317241
12
-0.011111
22
0.016629
32
-0.400000
0
3DFACE
8
/control_wheel.r
62
254
10
-0.003902
20
0.019616
30
0.400000
11
-0.003902
21
0.019616
31
0.318170
12
-0.010000
22
0.017090
32
0.317241
0
3DFACE
8
/control_wheel.r
62
254
10
-0.003902
20
0.019616
30
-0.033975
11
-0.003902
21
0.019616
31
-0.259546
12
-0.010000
22
0.017090
32
-0.260768
0
3DFACE
8
/control_wheel.r
62
254
10
-0.003902
20
0.019616
30
-0.318170
11
-0.003902
21
0.019616
31
-0.400000
12
-0.011111
22
0.016629
32
-0.400000
0
3DFACE
8
/control_wheel.r
62
254
10
-0.011111
20
0.016629
30
0.400000
11
-0.003902
21
0.019616
31
0.400000
12
-0.010000
22
0.017090
32
0.317241
0
3DFACE
8
/control_wheel.r
62
254
10
-0.011111
20
0.016629
30
0.400000
11
-0.010000
21
0.017090
31
0.317241
12
-0.010000
22
0.017090
32
0.260768
0
3DFACE
8
/control_wheel.r
62
254
10
-0.010000
20
0.017090
30
0.260768
11
-0.003902
21
0.019616
31
0.259546
12
-0.003902
22
0.019616
32
0.033975
0
3DFACE
8
/control_wheel.r
62
254
10
-0.010000
20
0.017090
30
0.260768
11
-0.003902
21
0.019616
31
0.033975
12
-0.011111
22
0.016629
32
0.028803
0
3DFACE
8
/control_wheel.r
62
254
10
-0.011111
20
0.016629
30
-0.028803
11
-0.003902
21
0.019616
31
-0.033975
12
-0.010000
22
0.017090
32
-0.260768
0
3DFACE
8
/control_wheel.r
62
254
10
-0.011111
20
0.016629
30
-0.028803
11
-0.010000
21
0.017090
31
-0.260768
12
-0.010000
22
0.017090
32
-0.317241
0
3DFACE
8
/control_wheel.r
62
254
10
-0.010000
20
0.017090
30
-0.317241
11
-0.003902
21
0.019616
31
-0.318170
12
-0.011111
22
0.016629
32
-0.400000
0
3DFACE
8
/control_wheel.r
62
254
10
-0.016629
20
0.011111
30
0.400000
11
-0.011111
21
0.016629
31
0.028803
12
-0.016629
22
0.011111
32
0.019246
0
3DFACE
8
/control_wheel.r
62
254
10
-0.016629
20
0.011111
30
-0.019246
11
-0.011111
21
0.016629
31
-0.028803
12
-0.016629
22
0.011111
32
-0.400000
0
3DFACE
8
/control_wheel.r
62
254
10
-0.011111
20
0.016629
30
-0.028803
11
-0.011111
21
0.016629
31
-0.400000
12
-0.016629
22
0.011111
32
-0.400000
0
3DFACE
8
/control_wheel.r
62
254
10
-0.016629
20
0.011111
30
0.400000
11
-0.011111
21
0.016629
31
0.400000
12
-0.011111
22
0.016629
32
0.028803
0
3DFACE
8
/control_wheel.r
62
254
10
-0.019616
20
0.003902
30
0.400000
11
-0.016629
21
0.011111
31
0.400000
12
-0.019616
22
0.003902
32
0.006758
0
3DFACE
8
/control_wheel.r
62
254
10
-0.019616
20
0.003902
30
-0.006758
11
-0.016629
21
0.011111
31
-0.019246
12
-0.019616
22
0.003902
32
-0.400000
0
3DFACE
8
/control_wheel.r
62
254
10
-0.016629
20
0.011111
30
-0.019246
11
-0.016629
21
0.011111
31
-0.400000
12
-0.019616
22
0.003902
32
-0.400000
0
3DFACE
8
/control_wheel.r
62
254
10
-0.016629
20
0.011111
30
0.400000
11
-0.016629
21
0.011111
31
0.019246
12
-0.019616
22
0.003902
32
0.006758
0
3DFACE
8
/control_wheel.r
62
254
10
-0.019616
20
0.007804
30
-0.000000
11
-0.019616
21
0.344459
31
0.203379
12
-0.019616
22
0.348361
32
0.196621
0
3DFACE
8
/control_wheel.r
62
254
10
-0.019616
20
0.007804
30
-0.000000
11
-0.019616
21
0.348361
31
-0.196621
12
-0.019616
22
0.344459
32
-0.203379
0
3DFACE
8
/control_wheel.r
62
254
10
-0.019616
20
0.003902
30
-0.006758
11
-0.019616
21
0.007804
31
-0.000000
12
-0.019616
22
0.344459
32
-0.203379
0
3DFACE
8
/control_wheel.r
62
254
10
-0.019616
20
-0.003902
30
-0.400000
11
-0.019616
21
0.003902
31
-0.006758
12
-0.019616
22
0.003902
32
-0.400000
0
3DFACE
8
/control_wheel.r
62
254
10
-0.019616
20
0.007804
30
-0.000000
11
-0.019616
21
0.003902
31
0.006758
12
-0.019616
22
0.344459
32
0.203379
0
3DFACE
8
/control_wheel.r
62
254
10
-0.019616
20
-0.344459
30
-0.203379
11
-0.019616
21
-0.007804
31
-0.000000
12
-0.019616
22
-0.003902
32
-0.006758
0
3DFACE
8
/control_wheel.r
62
254
10
-0.019616
20
0.003902
30
0.400000
11
-0.019616
21
-0.003902
31
0.006758
12
-0.019616
22
-0.003902
32
0.400000
0
3DFACE
8
/control_wheel.r
62
254
10
-0.019616
20
-0.344459
30
0.203379
11
-0.019616
21
-0.007804
31
-0.000000
12
-0.019616
22
-0.348361
32
0.196621
0
3DFACE
8
/control_wheel.r
62
254
10
-0.019616
20
-0.344459
30
0.203379
11
-0.019616
21
-0.003902
31
0.006758
12
-0.019616
22
-0.007804
32
-0.000000
0
3DFACE
8
/control_wheel.r
62
254
10
-0.019616
20
-0.344459
30
-0.203379
11
-0.019616
21
-0.348361
31
-0.196621
12
-0.019616
22
-0.007804
32
-0.000000
0
3DFACE
8
/control_wheel.r
62
254
10
-0.019616
20
-0.003902
30
-0.400000
11
-0.019616
21
0.003902
31
0.400000
12
-0.019616
22
0.003902
32
0.006758
0
3DFACE
8
/control_wheel.r
62
254
10
-0.019616
20
-0.003902
30
-0.400000
11
-0.019616
21
0.003902
31
0.006758
12
-0.019616
22
0.003902
32
-0.006758
0
3DFACE
8
/control_wheel.r
62
254
10
-0.019616
20
0.007804
30
-0.000000
11
-0.019616
21
0.003902
31
-0.006758
12
-0.019616
22
0.003902
32
0.006758
0
3DFACE
8
/control_wheel.r
62
254
10
-0.019616
20
-0.007804
30
-0.000000
11
-0.019616
21
-0.003902
31
0.006758
12
-0.019616
22
-0.003902
32
-0.006758
0
3DFACE
8
/control_wheel.r
62
254
10
-0.019616
20
0.003902
30
0.400000
11
-0.019616
21
-0.003902
31
-0.400000
12
-0.019616
22
-0.003902
32
-0.006758
0
3DFACE
8
/control_wheel.r
62
254
10
-0.019616
20
0.003902
30
0.400000
11
-0.019616
21
-0.003902
31
-0.006758
12
-0.019616
22
-0.003902
32
0.006758
0
3DFACE
8
/control_wheel.r
62
254
10
-0.019616
20
-0.003902
30
0.006758
11
-0.016629
21
-0.011111
31
0.400000
12
-0.019616
22
-0.003902
32
0.400000
0
3DFACE
8
/control_wheel.r
62
254
10
-0.019616
20
-0.003902
30
-0.006758
11
-0.019616
21
-0.003902
31
-0.400000
12
-0.016629
22
-0.011111
32
-0.019246
0
3DFACE
8
/control_wheel.r
62
254
10
-0.019616
20
-0.003902
30
0.006758
11
-0.016629
21
-0.011111
31
0.019246
12
-0.016629
22
-0.011111
32
0.400000
0
3DFACE
8
/control_wheel.r
62
254
10
-0.019616
20
-0.003902
30
-0.400000
11
-0.016629
21
-0.011111
31
-0.400000
12
-0.016629
22
-0.011111
32
-0.019246
0
3DFACE
8
/control_wheel.r
62
254
10
-0.016629
20
-0.011111
30
0.019246
11
-0.011111
21
-0.016629
31
0.400000
12
-0.016629
22
-0.011111
32
0.400000
0
3DFACE
8
/control_wheel.r
62
254
10
-0.016629
20
-0.011111
30
-0.019246
11
-0.016629
21
-0.011111
31
-0.400000
12
-0.011111
22
-0.016629
32
-0.028803
0
3DFACE
8
/control_wheel.r
62
254
10
-0.016629
20
-0.011111
30
-0.400000
11
-0.011111
21
-0.016629
31
-0.400000
12
-0.011111
22
-0.016629
32
-0.028803
0
3DFACE
8
/control_wheel.r
62
254
10
-0.016629
20
-0.011111
30
0.019246
11
-0.011111
21
-0.016629
31
0.028803
12
-0.011111
22
-0.016629
32
0.400000
0
3DFACE
8
/control_wheel.r
62
254
10
-0.011111
20
-0.016629
30
0.028803
11
-0.010000
21
-0.017090
31
0.317241
12
-0.011111
22
-0.016629
32
0.400000
0
3DFACE
8
/control_wheel.r
62
254
10
-0.011111
20
-0.016629
30
-0.400000
11
-0.010000
21
-0.017090
31
-0.260768
12
-0.011111
22
-0.016629
32
-0.028803
0
3DFACE
8
/control_wheel.r
62
254
10
-0.010000
20
-0.017090
30
0.317241
11
-0.003902
21
-0.019616
31
0.318170
12
-0.003902
22
-0.019616
32
0.400000
0
3DFACE
8
/control_wheel.r
62
254
10
-0.010000
20
-0.017090
30
-0.260768
11
-0.003902
21
-0.019616
31
-0.259546
12
-0.003902
22
-0.019616
32
-0.033975
0
3DFACE
8
/control_wheel.r
62
254
10
-0.011111
20
-0.016629
30
-0.400000
11
-0.003902
21
-0.019616
31
-0.400000
12
-0.003902
22
-0.019616
32
-0.318170
0
3DFACE
8
/control_wheel.r
62
254
10
-0.011111
20
-0.016629
30
0.028803
11
-0.003902
21
-0.019616
31
0.033975
12
-0.003902
22
-0.019616
32
0.259546
0
3DFACE
8
/control_wheel.r
62
254
10
-0.011111
20
-0.016629
30
0.028803
11
-0.003902
21
-0.019616
31
0.259546
12
-0.010000
22
-0.017090
32
0.260768
0
3DFACE
8
/control_wheel.r
62
254
10
-0.011111
20
-0.016629
30
0.028803
11
-0.010000
21
-0.017090
31
0.260768
12
-0.010000
22
-0.017090
32
0.317241
0
3DFACE
8
/control_wheel.r
62
254
10
-0.010000
20
-0.017090
30
0.317241
11
-0.003902
21
-0.019616
31
0.400000
12
-0.011111
22
-0.016629
32
0.400000
0
3DFACE
8
/control_wheel.r
62
254
10
-0.011111
20
-0.016629
30
-0.400000
11
-0.003902
21
-0.019616
31
-0.318170
12
-0.010000
22
-0.017090
32
-0.317241
0
3DFACE
8
/control_wheel.r
62
254
10
-0.011111
20
-0.016629
30
-0.400000
11
-0.010000
21
-0.017090
31
-0.317241
12
-0.010000
22
-0.017090
32
-0.260768
0
3DFACE
8
/control_wheel.r
62
254
10
-0.010000
20
-0.017090
30
-0.260768
11
-0.003902
21
-0.019616
31
-0.033975
12
-0.011111
22
-0.016629
32
-0.028803
0
3DFACE
8
/control_wheel.r
62
254
10
-0.003902
20
-0.019616
30
0.318170
11
0.003902
21
-0.019616
31
0.400000
12
-0.003902
22
-0.019616
32
0.400000
0
3DFACE
8
/control_wheel.r
62
254
10
-0.003902
20
-0.019616
30
0.033975
11
0.000000
21
-0.019616
31
0.258858
12
-0.003902
22
-0.019616
32
0.259546
0
3DFACE
8
/control_wheel.r
62
254
10
-0.003902
20
-0.019616
30
-0.400000
11
0.000000
21
-0.019616
31
-0.318858
12
-0.003902
22
-0.019616
32
-0.318170
0
3DFACE
8
/control_wheel.r
62
254
10
-0.003902
20
-0.019616
30
-0.259546
11
0.003902
21
-0.019616
31
-0.033975
12
-0.003902
22
-0.019616
32
-0.033975
0
3DFACE
8
/control_wheel.r
62
254
10
0.003902
20
-0.019616
30
-0.318170
11
-0.003902
21
-0.019616
31
-0.400000
12
0.003902
22
-0.019616
32
-0.400000
0
3DFACE
8
/control_wheel.r
62
254
10
0.003902
20
-0.019616
30
0.259546
11
-0.003902
21
-0.019616
31
0.033975
12
0.003902
22
-0.019616
32
0.033975
0
3DFACE
8
/control_wheel.r
62
254
10
0.000000
20
-0.019616
30
0.318858
11
0.003902
21
-0.019616
31
0.318170
12
0.003902
22
-0.019616
32
0.400000
0
3DFACE
8
/control_wheel.r
62
254
10
0.000000
20
-0.019616
30
-0.258858
11
0.003902
21
-0.019616
31
-0.259546
12
0.003902
22
-0.019616
32
-0.033975
0
3DFACE
8
/control_wheel.r
62
254
10
-0.003902
20
-0.019616
30
0.318170
11
0.000000
21
-0.019616
31
0.318858
12
0.003902
22
-0.019616
32
0.400000
0
3DFACE
8
/control_wheel.r
62
254
10
-0.003902
20
-0.019616
30
-0.259546
11
0.000000
21
-0.019616
31
-0.258858
12
0.003902
22
-0.019616
32
-0.033975
0
3DFACE
8
/control_wheel.r
62
254
10
0.003902
20
-0.019616
30
-0.318170
11
0.000000
21
-0.019616
31
-0.318858
12
-0.003902
22
-0.019616
32
-0.400000
0
3DFACE
8
/control_wheel.r
62
254
10
0.003902
20
-0.019616
30
0.259546
11
0.000000
21
-0.019616
31
0.258858
12
-0.003902
22
-0.019616
32
0.033975
0
3DFACE
8
/control_wheel.r
62
254
10
-0.010000
20
-0.030389
30
0.259993
11
-0.010000
21
-0.017090
31
0.317241
12
-0.010000
22
-0.017090
32
0.260768
0
3DFACE
8
/control_wheel.r
62
254
10
-0.010000
20
-0.283284
30
-0.143821
11
-0.010000
21
-0.240355
31
-0.103679
12
-0.010000
22
-0.234377
32
-0.115584
0
3DFACE
8
/control_wheel.r
62
254
10
-0.010000
20
-0.036945
30
-0.316085
11
-0.010000
21
-0.017090
31
-0.260768
12
-0.010000
22
-0.017090
32
-0.317241
0
3DFACE
8
/control_wheel.r
62
254
10
-0.010000
20
0.266194
30
0.173421
11
-0.010000
21
0.217287
31
0.145184
12
-0.010000
22
0.255265
32
0.190038
0
3DFACE
8
/control_wheel.r
62
254
10
-0.010000
20
0.204559
30
-0.243783
11
-0.010000
21
0.217287
31
-0.145184
12
-0.010000
22
0.231477
32
-0.218387
0
3DFACE
8
/control_wheel.r
62
254
10
-0.010000
20
0.313402
30
-0.055261
11
-0.010000
21
0.317698
31
0.018504
12
-0.010000
22
0.317698
32
-0.018504
0
3DFACE
8
/control_wheel.r
62
254
10
-0.010000
20
0.304867
30
-0.091271
11
-0.010000
21
0.313402
31
0.055261
12
-0.010000
22
0.313402
32
-0.055261
0
3DFACE
8
/control_wheel.r
62
254
10
-0.010000
20
0.313402
30
0.055261
11
-0.010000
21
0.317698
31
0.018504
12
-0.010000
22
0.313402
32
-0.055261
0
3DFACE
8
/control_wheel.r
62
254
10
-0.010000
20
0.292210
30
-0.126047
11
-0.010000
21
0.304867
31
0.091271
12
-0.010000
22
0.304867
32
-0.091271
0
3DFACE
8
/control_wheel.r
62
254
10
-0.010000
20
0.304867
30
0.091271
11
-0.010000
21
0.313402
31
0.055261
12
-0.010000
22
0.304867
32
-0.091271
0
3DFACE
8
/control_wheel.r
62
254
10
-0.010000
20
0.283284
30
-0.143821
11
-0.010000
21
0.292210
31
0.126047
12
-0.010000
22
0.292210
32
-0.126047
0
3DFACE
8
/control_wheel.r
62
254
10
-0.010000
20
0.292210
30
0.126047
11
-0.010000
21
0.304867
31
0.091271
12
-0.010000
22
0.292210
32
-0.126047
0
3DFACE
8
/control_wheel.r
62
254
10
-0.010000
20
0.240355
30
-0.103679
11
-0.010000
21
0.283284
31
-0.143821
12
-0.010000
22
0.234377
32
-0.115584
0
3DFACE
8
/control_wheel.r
62
254
10
-0.010000
20
0.283284
30
0.143821
11
-0.010000
21
0.292210
31
0.126047
12
-0.010000
22
0.283284
32
-0.143821
0
3DFACE
8
/control_wheel.r
62
254
10
-0.010000
20
0.283284
30
0.143821
11
-0.010000
21
0.240355
31
0.103679
12
-0.010000
22
0.234377
32
0.115584
0
3DFACE
8
/control_wheel.r
62
254
10
-0.010000
20
0.217287
30
-0.145184
11
-0.010000
21
0.266194
31
-0.173421
12
-0.010000
22
0.231477
32
-0.218387
0
3DFACE
8
/control_wheel.r
62
254
10
-0.010000
20
0.190400
30
0.179633
11
-0.010000
21
0.204559
31
0.243783
12
-0.010000
22
0.209966
32
0.156314
0
3DFACE
8
/control_wheel.r
62
254
10
-0.010000
20
0.174874
30
-0.265883
11
-0.010000
21
0.190400
31
-0.179633
12
-0.010000
22
0.204559
32
-0.243783
0
3DFACE
8
/control_wheel.r
62
254
10
-0.010000
20
0.204559
30
0.243783
11
-0.010000
21
0.231477
31
0.218387
12
-0.010000
22
0.209966
32
0.156314
0
3DFACE
8
/control_wheel.r
62
254
10
-0.010000
20
0.190400
30
-0.179633
11
-0.010000
21
0.209966
31
-0.156314
12
-0.010000
22
0.204559
32
-0.243783
0
3DFACE
8
/control_wheel.r
62
254
10
-0.010000
20
0.168258
30
0.200522
11
-0.010000
21
0.174874
31
0.265883
12
-0.010000
22
0.190400
32
0.179633
0
3DFACE
8
/control_wheel.r
62
254
10
-0.010000
20
0.142824
30
-0.284387
11
-0.010000
21
0.168258
31
-0.200522
12
-0.010000
22
0.174874
32
-0.265883
0
3DFACE
8
/control_wheel.r
62
254
10
-0.010000
20
0.174874
30
0.265883
11
-0.010000
21
0.204559
31
0.243783
12
-0.010000
22
0.190400
32
0.179633
0
3DFACE
8
/control_wheel.r
62
254
10
-0.010000
20
0.168258
30
-0.200522
11
-0.010000
21
0.190400
31
-0.179633
12
-0.010000
22
0.174874
32
-0.265883
0
3DFACE
8
/control_wheel.r
62
254
10
-0.010000
20
0.117479
30
0.233920
11
-0.010000
21
0.142824
31
0.284387
12
-0.010000
22
0.143841
32
0.218700
0
3DFACE
8
/control_wheel.r
62
254
10
-0.010000
20
0.108843
30
-0.299045
11
-0.010000
21
0.117479
31
-0.233920
12
-0.010000
22
0.142824
32
-0.284387
0
3DFACE
8
/control_wheel.r
62
254
10
-0.010000
20
0.142824
30
0.284387
11
-0.010000
21
0.174874
31
0.265883
12
-0.010000
22
0.143841
32
0.218700
0
3DFACE
8
/control_wheel.r
62
254
10
-0.010000
20
0.117479
30
-0.233920
11
-0.010000
21
0.143841
31
-0.218700
12
-0.010000
22
0.142824
32
-0.284387
0
3DFACE
8
/control_wheel.r
62
254
10
-0.010000
20
0.089528
30
0.245977
11
-0.010000
21
0.108843
31
0.299045
12
-0.010000
22
0.117479
32
0.233920
0
3DFACE
8
/control_wheel.r
62
254
10
-0.010000
20
0.073390
30
-0.309659
11
-0.010000
21
0.089528
31
-0.245977
12
-0.010000
22
0.108843
32
-0.299045
0
3DFACE
8
/control_wheel.r
62
254
10
-0.010000
20
0.108843
30
0.299045
11
-0.010000
21
0.142824
31
0.284387
12
-0.010000
22
0.117479
32
0.233920
0
3DFACE
8
/control_wheel.r
62
254
10
-0.010000
20
0.089528
30
-0.245977
11
-0.010000
21
0.117479
31
-0.233920
12
-0.010000
22
0.108843
32
-0.299045
0
3DFACE
8
/control_wheel.r
62
254
10
-0.010000
20
0.060367
30
0.254707
11
-0.010000
21
0.073390
31
0.309659
12
-0.010000
22
0.089528
32
0.245977
0
3DFACE
8
/control_wheel.r
62
254
10
-0.010000
20
0.036945
30
-0.316085
11
-0.010000
21
0.060367
31
-0.254707
12
-0.010000
22
0.073390
32
-0.309659
0
3DFACE
8
/control_wheel.r
62
254
10
-0.010000
20
0.073390
30
0.309659
11
-0.010000
21
0.108843
31
0.299045
12
-0.010000
22
0.089528
32
0.245977
0
3DFACE
8
/control_wheel.r
62
254
10
-0.010000
20
0.060367
30
-0.254707
11
-0.010000
21
0.089528
31
-0.245977
12
-0.010000
22
0.073390
32
-0.309659
0
3DFACE
8
/control_wheel.r
62
254
10
-0.010000
20
0.030389
30
0.259993
11
-0.010000
21
0.036945
31
0.316085
12
-0.010000
22
0.060367
32
0.254707
0
3DFACE
8
/control_wheel.r
62
254
10
-0.010000
20
0.017090
30
-0.317241
11
-0.010000
21
0.030389
31
-0.259993
12
-0.010000
22
0.036945
32
-0.316085
0
3DFACE
8
/control_wheel.r
62
254
10
-0.010000
20
0.036945
30
0.316085
11
-0.010000
21
0.073390
31
0.309659
12
-0.010000
22
0.060367
32
0.254707
0
3DFACE
8
/control_wheel.r
62
254
10
-0.010000
20
0.030389
30
-0.259993
11
-0.010000
21
0.060367
31
-0.254707
12
-0.010000
22
0.036945
32
-0.316085
0
3DFACE
8
/control_wheel.r
62
254
10
-0.010000
20
0.036945
30
0.316085
11
-0.010000
21
0.017090
31
0.260768
12
-0.010000
22
0.017090
32
0.317241
0
3DFACE
8
/control_wheel.r
62
254
10
-0.010000
20
0.017090
30
-0.317241
11
-0.010000
21
0.017090
31
-0.260768
12
-0.010000
22
0.030389
32
-0.259993
0
3DFACE
8
/control_wheel.r
62
254
10
-0.010000
20
-0.060367
30
0.254707
11
-0.010000
21
-0.036945
31
0.316085
12
-0.010000
22
-0.030389
32
0.259993
0
3DFACE
8
/control_wheel.r
62
254
10
-0.010000
20
-0.073390
30
-0.309659
11
-0.010000
21
-0.060367
31
-0.254707
12
-0.010000
22
-0.036945
32
-0.316085
0
3DFACE
8
/control_wheel.r
62
254
10
-0.010000
20
-0.036945
30
0.316085
11
-0.010000
21
-0.017090
31
0.317241
12
-0.010000
22
-0.030389
32
0.259993
0
3DFACE
8
/control_wheel.r
62
254
10
-0.010000
20
-0.060367
30
-0.254707
11
-0.010000
21
-0.030389
31
-0.259993
12
-0.010000
22
-0.036945
32
-0.316085
0
3DFACE
8
/control_wheel.r
62
254
10
-0.010000
20
-0.089528
30
0.245977
11
-0.010000
21
-0.073390
31
0.309659
12
-0.010000
22
-0.060367
32
0.254707
0
3DFACE
8
/control_wheel.r
62
254
10
-0.010000
20
-0.108843
30
-0.299045
11
-0.010000
21
-0.089528
31
-0.245977
12
-0.010000
22
-0.073390
32
-0.309659
0
3DFACE
8
/control_wheel.r
62
254
10
-0.010000
20
-0.073390
30
0.309659
11
-0.010000
21
-0.036945
31
0.316085
12
-0.010000
22
-0.060367
32
0.254707
0
3DFACE
8
/control_wheel.r
62
254
10
-0.010000
20
-0.089528
30
-0.245977
11
-0.010000
21
-0.060367
31
-0.254707
12
-0.010000
22
-0.073390
32
-0.309659
0
3DFACE
8
/control_wheel.r
62
254
10
-0.010000
20
-0.117479
30
0.233920
11
-0.010000
21
-0.108843
31
0.299045
12
-0.010000
22
-0.089528
32
0.245977
0
3DFACE
8
/control_wheel.r
62
254
10
-0.010000
20
-0.142824
30
-0.284387
11
-0.010000
21
-0.117479
31
-0.233920
12
-0.010000
22
-0.108843
32
-0.299045
0
3DFACE
8
/control_wheel.r
62
254
10
-0.010000
20
-0.108843
30
0.299045
11
-0.010000
21
-0.073390
31
0.309659
12
-0.010000
22
-0.089528
32
0.245977
0
3DFACE
8
/control_wheel.r
62
254
10
-0.010000
20
-0.117479
30
-0.233920
11
-0.010000
21
-0.089528
31
-0.245977
12
-0.010000
22
-0.108843
32
-0.299045
0
3DFACE
8
/control_wheel.r
62
254
10
-0.010000
20
-0.143841
30
0.218700
11
-0.010000
21
-0.142824
31
0.284387
12
-0.010000
22
-0.117479
32
0.233920
0
3DFACE
8
/control_wheel.r
62
254
10
-0.010000
20
-0.174874
30
-0.265883
11
-0.010000
21
-0.143841
31
-0.218700
12
-0.010000
22
-0.142824
32
-0.284387
0
3DFACE
8
/control_wheel.r
62
254
10
-0.010000
20
-0.142824
30
0.284387
11
-0.010000
21
-0.108843
31
0.299045
12
-0.010000
22
-0.117479
32
0.233920
0
3DFACE
8
/control_wheel.r
62
254
10
-0.010000
20
-0.143841
30
-0.218700
11
-0.010000
21
-0.117479
31
-0.233920
12
-0.010000
22
-0.142824
32
-0.284387
0
3DFACE
8
/control_wheel.r
62
254
10
-0.010000
20
-0.190400
30
0.179633
11
-0.010000
21
-0.174874
31
0.265883
12
-0.010000
22
-0.168258
32
0.200522
0
3DFACE
8
/control_wheel.r
62
254
10
-0.010000
20
-0.204559
30
-0.243783
11
-0.010000
21
-0.190400
31
-0.179633
12
-0.010000
22
-0.174874
32
-0.265883
0
3DFACE
8
/control_wheel.r
62
254
10
-0.010000
20
-0.174874
30
0.265883
11
-0.010000
21
-0.142824
31
0.284387
12
-0.010000
22
-0.168258
32
0.200522
0
3DFACE
8
/control_wheel.r
62
254
10
-0.010000
20
-0.190400
30
-0.179633
11
-0.010000
21
-0.168258
31
-0.200522
12
-0.010000
22
-0.174874
32
-0.265883
0
3DFACE
8
/control_wheel.r
62
254
10
-0.010000
20
-0.209966
30
0.156314
11
-0.010000
21
-0.204559
31
0.243783
12
-0.010000
22
-0.190400
32
0.179633
0
3DFACE
8
/control_wheel.r
62
254
10
-0.010000
20
-0.231477
30
-0.218387
11
-0.010000
21
-0.209966
31
-0.156314
12
-0.010000
22
-0.204559
32
-0.243783
0
3DFACE
8
/control_wheel.r
62
254
10
-0.010000
20
-0.204559
30
0.243783
11
-0.010000
21
-0.174874
31
0.265883
12
-0.010000
22
-0.190400
32
0.179633
0
3DFACE
8
/control_wheel.r
62
254
10
-0.010000
20
-0.209966
30
-0.156314
11
-0.010000
21
-0.190400
31
-0.179633
12
-0.010000
22
-0.204559
32
-0.243783
0
3DFACE
8
/control_wheel.r
62
254
10
-0.010000
20
-0.266194
30
0.173421
11
-0.010000
21
-0.231477
31
0.218387
12
-0.010000
22
-0.217287
32
0.145184
0
3DFACE
8
/control_wheel.r
62
254
10
-0.010000
20
-0.217287
30
-0.145184
11
-0.010000
21
-0.255265
31
-0.190038
12
-0.010000
22
-0.266194
32
-0.173421
0
3DFACE
8
/control_wheel.r
62
254
10
-0.010000
20
-0.231477
30
0.218387
11
-0.010000
21
-0.204559
31
0.243783
12
-0.010000
22
-0.217287
32
0.145184
0
3DFACE
8
/control_wheel.r
62
254
10
-0.010000
20
-0.292210
30
-0.126047
11
-0.010000
21
-0.283284
31
0.143821
12
-0.010000
22
-0.283284
32
-0.143821
0
3DFACE
8
/control_wheel.r
62
254
10
-0.010000
20
-0.240355
30
0.103679
11
-0.010000
21
-0.283284
31
0.143821
12
-0.010000
22
-0.234377
32
0.115584
0
3DFACE
8
/control_wheel.r
62
254
10
-0.010000
20
-0.304867
30
-0.091271
11
-0.010000
21
-0.292210
31
0.126047
12
-0.010000
22
-0.292210
32
-0.126047
0
3DFACE
8
/control_wheel.r
62
254
10
-0.010000
20
-0.292210
30
0.126047
11
-0.010000
21
-0.283284
31
0.143821
12
-0.010000
22
-0.292210
32
-0.126047
0
3DFACE
8
/control_wheel.r
62
254
10
-0.010000
20
-0.313402
30
-0.055261
11
-0.010000
21
-0.304867
31
0.091271
12
-0.010000
22
-0.304867
32
-0.091271
0
3DFACE
8
/control_wheel.r
62
254
10
-0.010000
20
-0.304867
30
0.091271
11
-0.010000
21
-0.292210
31
0.126047
12
-0.010000
22
-0.304867
32
-0.091271
0
3DFACE
8
/control_wheel.r
62
254
10
-0.010000
20
-0.317698
30
-0.018504
11
-0.010000
21
-0.313402
31
0.055261
12
-0.010000
22
-0.313402
32
-0.055261
0
3DFACE
8
/control_wheel.r
62
254
10
-0.010000
20
-0.313402
30
0.055261
11
-0.010000
21
-0.304867
31
0.091271
12
-0.010000
22
-0.313402
32
-0.055261
0
3DFACE
8
/control_wheel.r
62
254
10
-0.010000
20
-0.317698
30
-0.018504
11
-0.010000
21
-0.317698
31
0.018504
12
-0.010000
22
-0.313402
32
0.055261
0
3DFACE
8
/control_wheel.r
62
254
10
-0.010000
20
-0.283284
30
-0.143821
11
-0.010000
21
-0.261320
31
0.015220
12
-0.010000
22
-0.261320
32
-0.015220
0
3DFACE
8
/control_wheel.r
62
254
10
-0.010000
20
-0.283284
30
-0.143821
11
-0.010000
21
-0.261320
31
-0.015220
12
-0.010000
22
-0.257786
32
-0.045455
0
3DFACE
8
/control_wheel.r
62
254
10
-0.010000
20
-0.283284
30
-0.143821
11
-0.010000
21
-0.257786
31
-0.045455
12
-0.010000
22
-0.250766
32
-0.075075
0
3DFACE
8
/control_wheel.r
62
254
10
-0.010000
20
-0.283284
30
-0.143821
11
-0.010000
21
-0.250766
31
-0.075075
12
-0.010000
22
-0.240355
32
-0.103679
0
3DFACE
8
/control_wheel.r
62
254
10
-0.010000
20
-0.036945
30
-0.316085
11
-0.010000
21
-0.030389
31
-0.259993
12
-0.010000
22
-0.017090
32
-0.260768
0
3DFACE
8
/control_wheel.r
62
254
10
-0.010000
20
0.217287
30
0.145184
11
-0.010000
21
0.231477
31
0.218387
12
-0.010000
22
0.255265
32
0.190038
0
3DFACE
8
/control_wheel.r
62
254
10
-0.010000
20
0.204559
30
-0.243783
11
-0.010000
21
0.209966
31
-0.156314
12
-0.010000
22
0.217287
32
-0.145184
0
3DFACE
8
/control_wheel.r
62
254
10
-0.010000
20
0.257786
30
-0.045455
11
-0.010000
21
0.261320
31
-0.015220
12
-0.010000
22
0.283284
32
0.143821
0
3DFACE
8
/control_wheel.r
62
254
10
-0.010000
20
0.257786
30
-0.045455
11
-0.010000
21
0.283284
31
0.143821
12
-0.010000
22
0.283284
32
-0.143821
0
3DFACE
8
/control_wheel.r
62
254
10
-0.010000
20
0.250766
30
-0.075075
11
-0.010000
21
0.257786
31
-0.045455
12
-0.010000
22
0.283284
32
-0.143821
0
3DFACE
8
/control_wheel.r
62
254
10
-0.010000
20
0.240355
30
-0.103679
11
-0.010000
21
0.250766
31
-0.075075
12
-0.010000
22
0.283284
32
-0.143821
0
3DFACE
8
/control_wheel.r
62
254
10
-0.010000
20
0.283284
30
0.143821
11
-0.010000
21
0.261320
31
-0.015220
12
-0.010000
22
0.261320
32
0.015220
0
3DFACE
8
/control_wheel.r
62
254
10
-0.010000
20
0.283284
30
0.143821
11
-0.010000
21
0.261320
31
0.015220
12
-0.010000
22
0.257786
32
0.045455
0
3DFACE
8
/control_wheel.r
62
254
10
-0.010000
20
0.283284
30
0.143821
11
-0.010000
21
0.257786
31
0.045455
12
-0.010000
22
0.250766
32
0.075075
0
3DFACE
8
/control_wheel.r
62
254
10
-0.010000
20
0.283284
30
0.143821
11
-0.010000
21
0.250766
31
0.075075
12
-0.010000
22
0.240355
32
0.103679
0
3DFACE
8
/control_wheel.r
62
254
10
-0.010000
20
0.266194
30
-0.173421
11
-0.010000
21
0.255265
31
-0.190038
12
-0.010000
22
0.231477
32
-0.218387
0
3DFACE
8
/control_wheel.r
62
254
10
-0.010000
20
0.231477
30
0.218387
11
-0.010000
21
0.217287
31
0.145184
12
-0.010000
22
0.209966
32
0.156314
0
3DFACE
8
/control_wheel.r
62
254
10
-0.010000
20
0.142824
30
-0.284387
11
-0.010000
21
0.143841
31
-0.218700
12
-0.010000
22
0.168258
32
-0.200522
0
3DFACE
8
/control_wheel.r
62
254
10
-0.010000
20
0.174874
30
0.265883
11
-0.010000
21
0.168258
31
0.200522
12
-0.010000
22
0.143841
32
0.218700
0
3DFACE
8
/control_wheel.r
62
254
10
-0.010000
20
0.036945
30
0.316085
11
-0.010000
21
0.030389
31
0.259993
12
-0.010000
22
0.017090
32
0.260768
0
3DFACE
8
/control_wheel.r
62
254
10
-0.010000
20
-0.174874
30
-0.265883
11
-0.010000
21
-0.168258
31
-0.200522
12
-0.010000
22
-0.143841
32
-0.218700
0
3DFACE
8
/control_wheel.r
62
254
10
-0.010000
20
-0.142824
30
0.284387
11
-0.010000
21
-0.143841
31
0.218700
12
-0.010000
22
-0.168258
32
0.200522
0
3DFACE
8
/control_wheel.r
62
254
10
-0.010000
20
-0.231477
30
-0.218387
11
-0.010000
21
-0.217287
31
-0.145184
12
-0.010000
22
-0.209966
32
-0.156314
0
3DFACE
8
/control_wheel.r
62
254
10
-0.010000
20
-0.266194
30
0.173421
11
-0.010000
21
-0.255265
31
0.190038
12
-0.010000
22
-0.231477
32
0.218387
0
3DFACE
8
/control_wheel.r
62
254
10
-0.010000
20
-0.217287
30
-0.145184
11
-0.010000
21
-0.231477
31
-0.218387
12
-0.010000
22
-0.255265
32
-0.190038
0
3DFACE
8
/control_wheel.r
62
254
10
-0.010000
20
-0.204559
30
0.243783
11
-0.010000
21
-0.209966
31
0.156314
12
-0.010000
22
-0.217287
32
0.145184
0
3DFACE
8
/control_wheel.r
62
254
10
-0.010000
20
-0.257786
30
0.045455
11
-0.010000
21
-0.261320
31
0.015220
12
-0.010000
22
-0.283284
32
-0.143821
0
3DFACE
8
/control_wheel.r
62
254
10
-0.010000
20
-0.257786
30
0.045455
11
-0.010000
21
-0.283284
31
-0.143821
12
-0.010000
22
-0.283284
32
0.143821
0
3DFACE
8
/control_wheel.r
62
254
10
-0.010000
20
-0.250766
30
0.075075
11
-0.010000
21
-0.257786
31
0.045455
12
-0.010000
22
-0.283284
32
0.143821
0
3DFACE
8
/control_wheel.r
62
254
10
-0.010000
20
-0.240355
30
0.103679
11
-0.010000
21
-0.250766
31
0.075075
12
-0.010000
22
-0.283284
32
0.143821
0
3DFACE
8
/control_wheel.r
62
254
10
0.010000
20
0.217287
30
-0.145184
11
0.010000
21
0.255265
31
-0.190038
12
0.010000
22
0.266194
32
-0.173421
0
3DFACE
8
/control_wheel.r
62
254
10
0.010000
20
-0.036945
30
0.316085
11
0.010000
21
-0.017090
31
0.260768
12
0.010000
22
-0.017090
32
0.317241
0
3DFACE
8
/control_wheel.r
62
254
10
0.010000
20
-0.283284
30
0.143821
11
0.010000
21
-0.240355
31
0.103679
12
0.010000
22
-0.234377
32
0.115584
0
3DFACE
8
/control_wheel.r
62
254
10
0.010000
20
-0.017090
30
-0.260768
11
0.010000
21
-0.030389
31
-0.259993
12
0.010000
22
-0.017090
32
-0.317241
0
3DFACE
8
/control_wheel.r
62
254
10
0.010000
20
0.313402
30
0.055261
11
0.010000
21
0.317698
31
-0.018504
12
0.010000
22
0.317698
32
0.018504
0
3DFACE
8
/control_wheel.r
62
254
10
0.010000
20
0.204559
30
0.243783
11
0.010000
21
0.217287
31
0.145184
12
0.010000
22
0.231477
32
0.218387
0
3DFACE
8
/control_wheel.r
62
254
10
0.010000
20
0.304867
30
0.091271
11
0.010000
21
0.313402
31
-0.055261
12
0.010000
22
0.313402
32
0.055261
0
3DFACE
8
/control_wheel.r
62
254
10
0.010000
20
0.313402
30
-0.055261
11
0.010000
21
0.317698
31
-0.018504
12
0.010000
22
0.313402
32
0.055261
0
3DFACE
8
/control_wheel.r
62
254
10
0.010000
20
0.292210
30
0.126047
11
0.010000
21
0.304867
31
-0.091271
12
0.010000
22
0.304867
32
0.091271
0
3DFACE
8
/control_wheel.r
62
254
10
0.010000
20
0.304867
30
-0.091271
11
0.010000
21
0.313402
31
-0.055261
12
0.010000
22
0.304867
32
0.091271
0
3DFACE
8
/control_wheel.r
62
254
10
0.010000
20
0.283284
30
0.143821
11
0.010000
21
0.292210
31
-0.126047
12
0.010000
22
0.292210
32
0.126047
0
3DFACE
8
/control_wheel.r
62
254
10
0.010000
20
0.292210
30
-0.126047
11
0.010000
21
0.304867
31
-0.091271
12
0.010000
22
0.292210
32
0.126047
0
3DFACE
8
/control_wheel.r
62
254
10
0.010000
20
0.240355
30
0.103679
11
0.010000
21
0.283284
31
0.143821
12
0.010000
22
0.234377
32
0.115584
0
3DFACE
8
/control_wheel.r
62
254
10
0.010000
20
0.283284
30
-0.143821
11
0.010000
21
0.292210
31
-0.126047
12
0.010000
22
0.283284
32
0.143821
0
3DFACE
8
/control_wheel.r
62
254
10
0.010000
20
0.283284
30
-0.143821
11
0.010000
21
0.240355
31
-0.103679
12
0.010000
22
0.234377
32
-0.115584
0
3DFACE
8
/control_wheel.r
62
254
10
0.010000
20
0.217287
30
0.145184
11
0.010000
21
0.266194
31
0.173421
12
0.010000
22
0.231477
32
0.218387
0
3DFACE
8
/control_wheel.r
62
254
10
0.010000
20
0.190400
30
-0.179633
11
0.010000
21
0.204559
31
-0.243783
12
0.010000
22
0.209966
32
-0.156314
0
3DFACE
8
/control_wheel.r
62
254
10
0.010000
20
0.174874
30
0.265883
11
0.010000
21
0.190400
31
0.179633
12
0.010000
22
0.204559
32
0.243783
0
3DFACE
8
/control_wheel.r
62
254
10
0.010000
20
0.204559
30
-0.243783
11
0.010000
21
0.231477
31
-0.218387
12
0.010000
22
0.209966
32
-0.156314
0
3DFACE
8
/control_wheel.r
62
254
10
0.010000
20
0.190400
30
0.179633
11
0.010000
21
0.209966
31
0.156314
12
0.010000
22
0.204559
32
0.243783
0
3DFACE
8
/control_wheel.r
62
254
10
0.010000
20
0.168258
30
-0.200522
11
0.010000
21
0.174874
31
-0.265883
12
0.010000
22
0.190400
32
-0.179633
0
3DFACE
8
/control_wheel.r
62
254
10
0.010000
20
0.142824
30
0.284387
11
0.010000
21
0.168258
31
0.200522
12
0.010000
22
0.174874
32
0.265883
0
3DFACE
8
/control_wheel.r
62
254
10
0.010000
20
0.174874
30
-0.265883
11
0.010000
21
0.204559
31
-0.243783
12
0.010000
22
0.190400
32
-0.179633
0
3DFACE
8
/control_wheel.r
62
254
10
0.010000
20
0.168258
30
0.200522
11
0.010000
21
0.190400
31
0.179633
12
0.010000
22
0.174874
32
0.265883
0
3DFACE
8
/control_wheel.r
62
254
10
0.010000
20
0.117479
30
-0.233920
11
0.010000
21
0.142824
31
-0.284387
12
0.010000
22
0.143841
32
-0.218700
0
3DFACE
8
/control_wheel.r
62
254
10
0.010000
20
0.108843
30
0.299045
11
0.010000
21
0.117479
31
0.233920
12
0.010000
22
0.142824
32
0.284387
0
3DFACE
8
/control_wheel.r
62
254
10
0.010000
20
0.142824
30
-0.284387
11
0.010000
21
0.174874
31
-0.265883
12
0.010000
22
0.143841
32
-0.218700
0
3DFACE
8
/control_wheel.r
62
254
10
0.010000
20
0.117479
30
0.233920
11
0.010000
21
0.143841
31
0.218700
12
0.010000
22
0.142824
32
0.284387
0
3DFACE
8
/control_wheel.r
62
254
10
0.010000
20
0.089528
30
-0.245977
11
0.010000
21
0.108843
31
-0.299045
12
0.010000
22
0.117479
32
-0.233920
0
3DFACE
8
/control_wheel.r
62
254
10
0.010000
20
0.073390
30
0.309659
11
0.010000
21
0.089528
31
0.245977
12
0.010000
22
0.108843
32
0.299045
0
3DFACE
8
/control_wheel.r
62
254
10
0.010000
20
0.108843
30
-0.299045
11
0.010000
21
0.142824
31
-0.284387
12
0.010000
22
0.117479
32
-0.233920
0
3DFACE
8
/control_wheel.r
62
254
10
0.010000
20
0.089528
30
0.245977
11
0.010000
21
0.117479
31
0.233920
12
0.010000
22
0.108843
32
0.299045
0
3DFACE
8
/control_wheel.r
62
254
10
0.010000
20
0.060367
30
-0.254707
11
0.010000
21
0.073390
31
-0.309659
12
0.010000
22
0.089528
32
-0.245977
0
3DFACE
8
/control_wheel.r
62
254
10
0.010000
20
0.036945
30
0.316085
11
0.010000
21
0.060367
31
0.254707
12
0.010000
22
0.073390
32
0.309659
0
3DFACE
8
/control_wheel.r
62
254
10
0.010000
20
0.073390
30
-0.309659
11
0.010000
21
0.108843
31
-0.299045
12
0.010000
22
0.089528
32
-0.245977
0
3DFACE
8
/control_wheel.r
62
254
10
0.010000
20
0.060367
30
0.254707
11
0.010000
21
0.089528
31
0.245977
12
0.010000
22
0.073390
32
0.309659
0
3DFACE
8
/control_wheel.r
62
254
10
0.010000
20
0.030389
30
-0.259993
11
0.010000
21
0.036945
31
-0.316085
12
0.010000
22
0.060367
32
-0.254707
0
3DFACE
8
/control_wheel.r
62
254
10
0.010000
20
0.017090
30
0.317241
11
0.010000
21
0.030389
31
0.259993
12
0.010000
22
0.036945
32
0.316085
0
3DFACE
8
/control_wheel.r
62
254
10
0.010000
20
0.036945
30
-0.316085
11
0.010000
21
0.073390
31
-0.309659
12
0.010000
22
0.060367
32
-0.254707
0
3DFACE
8
/control_wheel.r
62
254
10
0.010000
20
0.030389
30
0.259993
11
0.010000
21
0.060367
31
0.254707
12
0.010000
22
0.036945
32
0.316085
0
3DFACE
8
/control_wheel.r
62
254
10
0.010000
20
0.036945
30
-0.316085
11
0.010000
21
0.017090
31
-0.260768
12
0.010000
22
0.017090
32
-0.317241
0
3DFACE
8
/control_wheel.r
62
254
10
0.010000
20
0.017090
30
0.317241
11
0.010000
21
0.017090
31
0.260768
12
0.010000
22
0.030389
32
0.259993
0
3DFACE
8
/control_wheel.r
62
254
10
0.010000
20
-0.060367
30
-0.254707
11
0.010000
21
-0.036945
31
-0.316085
12
0.010000
22
-0.030389
32
-0.259993
0
3DFACE
8
/control_wheel.r
62
254
10
0.010000
20
-0.073390
30
0.309659
11
0.010000
21
-0.060367
31
0.254707
12
0.010000
22
-0.036945
32
0.316085
0
3DFACE
8
/control_wheel.r
62
254
10
0.010000
20
-0.036945
30
-0.316085
11
0.010000
21
-0.017090
31
-0.317241
12
0.010000
22
-0.030389
32
-0.259993
0
3DFACE
8
/control_wheel.r
62
254
10
0.010000
20
-0.060367
30
0.254707
11
0.010000
21
-0.030389
31
0.259993
12
0.010000
22
-0.036945
32
0.316085
0
3DFACE
8
/control_wheel.r
62
254
10
0.010000
20
-0.089528
30
-0.245977
11
0.010000
21
-0.073390
31
-0.309659
12
0.010000
22
-0.060367
32
-0.254707
0
3DFACE
8
/control_wheel.r
62
254
10
0.010000
20
-0.108843
30
0.299045
11
0.010000
21
-0.089528
31
0.245977
12
0.010000
22
-0.073390
32
0.309659
0
3DFACE
8
/control_wheel.r
62
254
10
0.010000
20
-0.073390
30
-0.309659
11
0.010000
21
-0.036945
31
-0.316085
12
0.010000
22
-0.060367
32
-0.254707
0
3DFACE
8
/control_wheel.r
62
254
10
0.010000
20
-0.089528
30
0.245977
11
0.010000
21
-0.060367
31
0.254707
12
0.010000
22
-0.073390
32
0.309659
0
3DFACE
8
/control_wheel.r
62
254
10
0.010000
20
-0.117479
30
-0.233920
11
0.010000
21
-0.108843
31
-0.299045
12
0.010000
22
-0.089528
32
-0.245977
0
3DFACE
8
/control_wheel.r
62
254
10
0.010000
20
-0.142824
30
0.284387
11
0.010000
21
-0.117479
31
0.233920
12
0.010000
22
-0.108843
32
0.299045
0
3DFACE
8
/control_wheel.r
62
254
10
0.010000
20
-0.108843
30
-0.299045
11
0.010000
21
-0.073390
31
-0.309659
12
0.010000
22
-0.089528
32
-0.245977
0
3DFACE
8
/control_wheel.r
62
254
10
0.010000
20
-0.117479
30
0.233920
11
0.010000
21
-0.089528
31
0.245977
12
0.010000
22
-0.108843
32
0.299045
0
3DFACE
8
/control_wheel.r
62
254
10
0.010000
20
-0.143841
30
-0.218700
11
0.010000
21
-0.142824
31
-0.284387
12
0.010000
22
-0.117479
32
-0.233920
0
3DFACE
8
/control_wheel.r
62
254
10
0.010000
20
-0.174874
30
0.265883
11
0.010000
21
-0.143841
31
0.218700
12
0.010000
22
-0.142824
32
0.284387
0
3DFACE
8
/control_wheel.r
62
254
10
0.010000
20
-0.142824
30
-0.284387
11
0.010000
21
-0.108843
31
-0.299045
12
0.010000
22
-0.117479
32
-0.233920
0
3DFACE
8
/control_wheel.r
62
254
10
0.010000
20
-0.143841
30
0.218700
11
0.010000
21
-0.117479
31
0.233920
12
0.010000
22
-0.142824
32
0.284387
0
3DFACE
8
/control_wheel.r
62
254
10
0.010000
20
-0.190400
30
-0.179633
11
0.010000
21
-0.174874
31
-0.265883
12
0.010000
22
-0.168258
32
-0.200522
0
3DFACE
8
/control_wheel.r
62
254
10
0.010000
20
-0.204559
30
0.243783
11
0.010000
21
-0.190400
31
0.179633
12
0.010000
22
-0.174874
32
0.265883
0
3DFACE
8
/control_wheel.r
62
254
10
0.010000
20
-0.174874
30
-0.265883
11
0.010000
21
-0.142824
31
-0.284387
12
0.010000
22
-0.168258
32
-0.200522
0
3DFACE
8
/control_wheel.r
62
254
10
0.010000
20
-0.190400
30
0.179633
11
0.010000
21
-0.168258
31
0.200522
12
0.010000
22
-0.174874
32
0.265883
0
3DFACE
8
/control_wheel.r
62
254
10
0.010000
20
-0.209966
30
-0.156314
11
0.010000
21
-0.204559
31
-0.243783
12
0.010000
22
-0.190400
32
-0.179633
0
3DFACE
8
/control_wheel.r
62
254
10
0.010000
20
-0.231477
30
0.218387
11
0.010000
21
-0.209966
31
0.156314
12
0.010000
22
-0.204559
32
0.243783
0
3DFACE
8
/control_wheel.r
62
254
10
0.010000
20
-0.204559
30
-0.243783
11
0.010000
21
-0.174874
31
-0.265883
12
0.010000
22
-0.190400
32
-0.179633
0
3DFACE
8
/control_wheel.r
62
254
10
0.010000
20
-0.209966
30
0.156314
11
0.010000
21
-0.190400
31
0.179633
12
0.010000
22
-0.204559
32
0.243783
0
3DFACE
8
/control_wheel.r
62
254
10
0.010000
20
-0.266194
30
-0.173421
11
0.010000
21
-0.231477
31
-0.218387
12
0.010000
22
-0.217287
32
-0.145184
0
3DFACE
8
/control_wheel.r
62
254
10
0.010000
20
-0.217287
30
0.145184
11
0.010000
21
-0.255265
31
0.190038
12
0.010000
22
-0.266194
32
0.173421
0
3DFACE
8
/control_wheel.r
62
254
10
0.010000
20
-0.231477
30
-0.218387
11
0.010000
21
-0.204559
31
-0.243783
12
0.010000
22
-0.217287
32
-0.145184
0
3DFACE
8
/control_wheel.r
62
254
10
0.010000
20
-0.292210
30
0.126047
11
0.010000
21
-0.283284
31
-0.143821
12
0.010000
22
-0.283284
32
0.143821
0
3DFACE
8
/control_wheel.r
62
254
10
0.010000
20
-0.240355
30
-0.103679
11
0.010000
21
-0.283284
31
-0.143821
12
0.010000
22
-0.234377
32
-0.115584
0
3DFACE
8
/control_wheel.r
62
254
10
0.010000
20
-0.304867
30
0.091271
11
0.010000
21
-0.292210
31
-0.126047
12
0.010000
22
-0.292210
32
0.126047
0
3DFACE
8
/control_wheel.r
62
254
10
0.010000
20
-0.292210
30
-0.126047
11
0.010000
21
-0.283284
31
-0.143821
12
0.010000
22
-0.292210
32
0.126047
0
3DFACE
8
/control_wheel.r
62
254
10
0.010000
20
-0.313402
30
0.055261
11
0.010000
21
-0.304867
31
-0.091271
12
0.010000
22
-0.304867
32
0.091271
0
3DFACE
8
/control_wheel.r
62
254
10
0.010000
20
-0.304867
30
-0.091271
11
0.010000
21
-0.292210
31
-0.126047
12
0.010000
22
-0.304867
32
0.091271
0
3DFACE
8
/control_wheel.r
62
254
10
0.010000
20
-0.317698
30
0.018504
11
0.010000
21
-0.313402
31
-0.055261
12
0.010000
22
-0.313402
32
0.055261
0
3DFACE
8
/control_wheel.r
62
254
10
0.010000
20
-0.313402
30
-0.055261
11
0.010000
21
-0.304867
31
-0.091271
12
0.010000
22
-0.313402
32
0.055261
0
3DFACE
8
/control_wheel.r
62
254
10
0.010000
20
-0.317698
30
0.018504
11
0.010000
21
-0.317698
31
-0.018504
12
0.010000
22
-0.313402
32
-0.055261
0
3DFACE
8
/control_wheel.r
62
254
10
0.010000
20
0.217287
30
-0.145184
11
0.010000
21
0.231477
31
-0.218387
12
0.010000
22
0.255265
32
-0.190038
0
3DFACE
8
/control_wheel.r
62
254
10
0.010000
20
-0.036945
30
0.316085
11
0.010000
21
-0.030389
31
0.259993
12
0.010000
22
-0.017090
32
0.260768
0
3DFACE
8
/control_wheel.r
62
254
10
0.010000
20
-0.283284
30
0.143821
11
0.010000
21
-0.261320
31
-0.015220
12
0.010000
22
-0.261320
32
0.015220
0
3DFACE
8
/control_wheel.r
62
254
10
0.010000
20
-0.283284
30
0.143821
11
0.010000
21
-0.261320
31
0.015220
12
0.010000
22
-0.257786
32
0.045455
0
3DFACE
8
/control_wheel.r
62
254
10
0.010000
20
-0.283284
30
0.143821
11
0.010000
21
-0.257786
31
0.045455
12
0.010000
22
-0.250766
32
0.075075
0
3DFACE
8
/control_wheel.r
62
254
10
0.010000
20
-0.283284
30
0.143821
11
0.010000
21
-0.250766
31
0.075075
12
0.010000
22
-0.240355
32
0.103679
0
3DFACE
8
/control_wheel.r
62
254
10
0.010000
20
0.204559
30
0.243783
11
0.010000
21
0.209966
31
0.156314
12
0.010000
22
0.217287
32
0.145184
0
3DFACE
8
/control_wheel.r
62
254
10
0.010000
20
0.257786
30
0.045455
11
0.010000
21
0.261320
31
0.015220
12
0.010000
22
0.283284
32
-0.143821
0
3DFACE
8
/control_wheel.r
62
254
10
0.010000
20
0.257786
30
0.045455
11
0.010000
21
0.283284
31
-0.143821
12
0.010000
22
0.283284
32
0.143821
0
3DFACE
8
/control_wheel.r
62
254
10
0.010000
20
0.250766
30
0.075075
11
0.010000
21
0.257786
31
0.045455
12
0.010000
22
0.283284
32
0.143821
0
3DFACE
8
/control_wheel.r
62
254
10
0.010000
20
0.240355
30
0.103679
11
0.010000
21
0.250766
31
0.075075
12
0.010000
22
0.283284
32
0.143821
0
3DFACE
8
/control_wheel.r
62
254
10
0.010000
20
0.283284
30
-0.143821
11
0.010000
21
0.261320
31
0.015220
12
0.010000
22
0.261320
32
-0.015220
0
3DFACE
8
/control_wheel.r
62
254
10
0.010000
20
0.283284
30
-0.143821
11
0.010000
21
0.261320
31
-0.015220
12
0.010000
22
0.257786
32
-0.045455
0
3DFACE
8
/control_wheel.r
62
254
10
0.010000
20
0.283284
30
-0.143821
11
0.010000
21
0.257786
31
-0.045455
12
0.010000
22
0.250766
32
-0.075075
0
3DFACE
8
/control_wheel.r
62
254
10
0.010000
20
0.283284
30
-0.143821
11
0.010000
21
0.250766
31
-0.075075
12
0.010000
22
0.240355
32
-0.103679
0
3DFACE
8
/control_wheel.r
62
254
10
0.010000
20
0.266194
30
0.173421
11
0.010000
21
0.255265
31
0.190038
12
0.010000
22
0.231477
32
0.218387
0
3DFACE
8
/control_wheel.r
62
254
10
0.010000
20
0.231477
30
-0.218387
11
0.010000
21
0.217287
31
-0.145184
12
0.010000
22
0.209966
32
-0.156314
0
3DFACE
8
/control_wheel.r
62
254
10
0.010000
20
0.142824
30
0.284387
11
0.010000
21
0.143841
31
0.218700
12
0.010000
22
0.168258
32
0.200522
0
3DFACE
8
/control_wheel.r
62
254
10
0.010000
20
0.174874
30
-0.265883
11
0.010000
21
0.168258
31
-0.200522
12
0.010000
22
0.143841
32
-0.218700
0
3DFACE
8
/control_wheel.r
62
254
10
0.010000
20
0.036945
30
-0.316085
11
0.010000
21
0.030389
31
-0.259993
12
0.010000
22
0.017090
32
-0.260768
0
3DFACE
8
/control_wheel.r
62
254
10
0.010000
20
-0.174874
30
0.265883
11
0.010000
21
-0.168258
31
0.200522
12
0.010000
22
-0.143841
32
0.218700
0
3DFACE
8
/control_wheel.r
62
254
10
0.010000
20
-0.142824
30
-0.284387
11
0.010000
21
-0.143841
31
-0.218700
12
0.010000
22
-0.168258
32
-0.200522
0
3DFACE
8
/control_wheel.r
62
254
10
0.010000
20
-0.231477
30
0.218387
11
0.010000
21
-0.217287
31
0.145184
12
0.010000
22
-0.209966
32
0.156314
0
3DFACE
8
/control_wheel.r
62
254
10
0.010000
20
-0.266194
30
-0.173421
11
0.010000
21
-0.255265
31
-0.190038
12
0.010000
22
-0.231477
32
-0.218387
0
3DFACE
8
/control_wheel.r
62
254
10
0.010000
20
-0.217287
30
0.145184
11
0.010000
21
-0.231477
31
0.218387
12
0.010000
22
-0.255265
32
0.190038
0
3DFACE
8
/control_wheel.r
62
254
10
0.010000
20
-0.204559
30
-0.243783
11
0.010000
21
-0.209966
31
-0.156314
12
0.010000
22
-0.217287
32
-0.145184
0
3DFACE
8
/control_wheel.r
62
254
10
0.010000
20
-0.257786
30
-0.045455
11
0.010000
21
-0.261320
31
-0.015220
12
0.010000
22
-0.283284
32
0.143821
0
3DFACE
8
/control_wheel.r
62
254
10
0.010000
20
-0.257786
30
-0.045455
11
0.010000
21
-0.283284
31
0.143821
12
0.010000
22
-0.283284
32
-0.143821
0
3DFACE
8
/control_wheel.r
62
254
10
0.010000
20
-0.250766
30
-0.075075
11
0.010000
21
-0.257786
31
-0.045455
12
0.010000
22
-0.283284
32
-0.143821
0
3DFACE
8
/control_wheel.r
62
254
10
0.010000
20
-0.240355
30
-0.103679
11
0.010000
21
-0.250766
31
-0.075075
12
0.010000
22
-0.283284
32
-0.143821
0
3DFACE
8
/control_wheel.r
62
254
10
-0.010000
20
-0.036945
30
-0.316085
11
0.000000
21
-0.019616
31
-0.318858
12
0.000000
22
-0.037150
32
-0.317836
0
3DFACE
8
/control_wheel.r
62
254
10
-0.003902
20
-0.019616
30
-0.318170
11
-0.010000
21
-0.036945
31
-0.316085
12
-0.010000
22
-0.017090
32
-0.317241
0
3DFACE
8
/control_wheel.r
62
254
10
-0.003902
20
-0.019616
30
-0.318170
11
0.000000
21
-0.019616
31
-0.318858
12
-0.010000
22
-0.036945
32
-0.316085
0
3DFACE
8
/control_wheel.r
62
254
10
0.000000
20
-0.073797
30
-0.311374
11
-0.010000
21
-0.036945
31
-0.316085
12
0.000000
22
-0.037150
32
-0.317836
0
3DFACE
8
/control_wheel.r
62
254
10
0.000000
20
-0.073797
30
-0.311374
11
-0.010000
21
-0.073390
31
-0.309659
12
-0.010000
22
-0.036945
32
-0.316085
0
3DFACE
8
/control_wheel.r
62
254
10
-0.010000
20
-0.073390
30
-0.309659
11
0.000000
21
-0.109446
31
-0.300702
12
-0.010000
22
-0.108843
32
-0.299045
0
3DFACE
8
/control_wheel.r
62
254
10
-0.010000
20
-0.073390
30
-0.309659
11
0.000000
21
-0.073797
31
-0.311374
12
0.000000
22
-0.109446
32
-0.300702
0
3DFACE
8
/control_wheel.r
62
254
10
-0.010000
20
-0.108843
30
-0.299045
11
0.000000
21
-0.143616
31
-0.285962
12
-0.010000
22
-0.142824
32
-0.284387
0
3DFACE
8
/control_wheel.r
62
254
10
-0.010000
20
-0.108843
30
-0.299045
11
0.000000
21
-0.109446
31
-0.300702
12
0.000000
22
-0.143616
32
-0.285962
0
3DFACE
8
/control_wheel.r
62
254
10
-0.010000
20
-0.142824
30
-0.284387
11
0.000000
21
-0.175843
31
-0.267356
12
-0.010000
22
-0.174874
32
-0.265883
0
3DFACE
8
/control_wheel.r
62
254
10
-0.010000
20
-0.142824
30
-0.284387
11
0.000000
21
-0.143616
31
-0.285962
12
0.000000
22
-0.175843
32
-0.267356
0
3DFACE
8
/control_wheel.r
62
254
10
-0.010000
20
-0.174874
30
-0.265883
11
0.000000
21
-0.205692
31
-0.245134
12
-0.010000
22
-0.204559
32
-0.243783
0
3DFACE
8
/control_wheel.r
62
254
10
-0.010000
20
-0.174874
30
-0.265883
11
0.000000
21
-0.175843
31
-0.267356
12
0.000000
22
-0.205692
32
-0.245134
0
3DFACE
8
/control_wheel.r
62
254
10
-0.010000
20
-0.204559
30
-0.243783
11
0.000000
21
-0.232760
31
-0.219597
12
-0.010000
22
-0.231477
32
-0.218387
0
3DFACE
8
/control_wheel.r
62
254
10
-0.010000
20
-0.204559
30
-0.243783
11
0.000000
21
-0.205692
31
-0.245134
12
0.000000
22
-0.232760
32
-0.219597
0
3DFACE
8
/control_wheel.r
62
254
10
-0.010000
20
-0.255265
30
-0.190038
11
-0.010000
21
-0.231477
31
-0.218387
12
0.000000
22
-0.256679
32
-0.191091
0
3DFACE
8
/control_wheel.r
62
254
10
-0.010000
20
-0.231477
30
-0.218387
11
0.000000
21
-0.232760
31
-0.219597
12
0.000000
22
-0.256679
32
-0.191091
0
3DFACE
8
/control_wheel.r
62
254
10
-0.010000
20
-0.255265
30
-0.190038
11
-0.003902
21
-0.265735
31
-0.176072
12
-0.010000
22
-0.266194
32
-0.173421
0
3DFACE
8
/control_wheel.r
62
254
10
-0.010000
20
-0.255265
30
-0.190038
11
0.000000
21
-0.256679
31
-0.191091
12
0.000000
22
-0.266331
32
-0.176416
0
3DFACE
8
/control_wheel.r
62
254
10
-0.010000
20
-0.255265
30
-0.190038
11
0.000000
21
-0.266331
31
-0.176416
12
-0.003902
22
-0.265735
32
-0.176072
0
3DFACE
8
/control_wheel.r
62
254
10
-0.010000
20
-0.283284
30
-0.143821
11
0.000000
21
-0.293829
31
-0.126746
12
-0.010000
22
-0.292210
32
-0.126047
0
3DFACE
8
/control_wheel.r
62
254
10
-0.003902
20
-0.285351
30
-0.142097
11
0.000000
21
-0.285947
31
-0.142441
12
0.000000
22
-0.293829
32
-0.126746
0
3DFACE
8
/control_wheel.r
62
254
10
-0.010000
20
-0.283284
30
-0.143821
11
-0.003902
21
-0.285351
31
-0.142097
12
0.000000
22
-0.293829
32
-0.126746
0
3DFACE
8
/control_wheel.r
62
254
10
-0.010000
20
-0.304867
30
-0.091271
11
-0.010000
21
-0.292210
31
-0.126047
12
0.000000
22
-0.306557
32
-0.091777
0
3DFACE
8
/control_wheel.r
62
254
10
-0.010000
20
-0.292210
30
-0.126047
11
0.000000
21
-0.293829
31
-0.126746
12
0.000000
22
-0.306557
32
-0.091777
0
3DFACE
8
/control_wheel.r
62
254
10
-0.010000
20
-0.313402
30
-0.055261
11
-0.010000
21
-0.304867
31
-0.091271
12
0.000000
22
-0.315138
32
-0.055567
0
3DFACE
8
/control_wheel.r
62
254
10
-0.010000
20
-0.304867
30
-0.091271
11
0.000000
21
-0.306557
31
-0.091777
12
0.000000
22
-0.315138
32
-0.055567
0
3DFACE
8
/control_wheel.r
62
254
10
-0.010000
20
-0.317698
30
-0.018504
11
-0.010000
21
-0.313402
31
-0.055261
12
0.000000
22
-0.319459
32
-0.018606
0
3DFACE
8
/control_wheel.r
62
254
10
-0.010000
20
-0.313402
30
-0.055261
11
0.000000
21
-0.315138
31
-0.055567
12
0.000000
22
-0.319459
32
-0.018606
0
3DFACE
8
/control_wheel.r
62
254
10
-0.010000
20
-0.317698
30
0.018504
11
-0.010000
21
-0.317698
31
-0.018504
12
0.000000
22
-0.319459
32
0.018606
0
3DFACE
8
/control_wheel.r
62
254
10
-0.010000
20
-0.317698
30
-0.018504
11
0.000000
21
-0.319459
31
-0.018606
12
0.000000
22
-0.319459
32
0.018606
0
3DFACE
8
/control_wheel.r
62
254
10
-0.010000
20
-0.313402
30
0.055261
11
-0.010000
21
-0.317698
31
0.018504
12
0.000000
22
-0.315138
32
0.055567
0
3DFACE
8
/control_wheel.r
62
254
10
-0.010000
20
-0.317698
30
0.018504
11
0.000000
21
-0.319459
31
0.018606
12
0.000000
22
-0.315138
32
0.055567
0
3DFACE
8
/control_wheel.r
62
254
10
-0.010000
20
-0.304867
30
0.091271
11
-0.010000
21
-0.313402
31
0.055261
12
0.000000
22
-0.306557
32
0.091777
0
3DFACE
8
/control_wheel.r
62
254
10
-0.010000
20
-0.313402
30
0.055261
11
0.000000
21
-0.315138
31
0.055567
12
0.000000
22
-0.306557
32
0.091777
0
3DFACE
8
/control_wheel.r
62
254
10
-0.010000
20
-0.292210
30
0.126047
11
-0.010000
21
-0.304867
31
0.091271
12
0.000000
22
-0.293829
32
0.126746
0
3DFACE
8
/control_wheel.r
62
254
10
-0.010000
20
-0.304867
30
0.091271
11
0.000000
21
-0.306557
31
0.091777
12
0.000000
22
-0.293829
32
0.126746
0
3DFACE
8
/control_wheel.r
62
254
10
-0.010000
20
-0.292210
30
0.126047
11
-0.003902
21
-0.285351
31
0.142097
12
-0.010000
22
-0.283284
32
0.143821
0
3DFACE
8
/control_wheel.r
62
254
10
-0.010000
20
-0.292210
30
0.126047
11
0.000000
21
-0.293829
31
0.126746
12
0.000000
22
-0.285947
32
0.142441
0
3DFACE
8
/control_wheel.r
62
254
10
-0.010000
20
-0.292210
30
0.126047
11
0.000000
21
-0.285947
31
0.142441
12
-0.003902
22
-0.285351
32
0.142097
0
3DFACE
8
/control_wheel.r
62
254
10
-0.010000
20
-0.266194
30
0.173421
11
0.000000
21
-0.256679
31
0.191091
12
-0.010000
22
-0.255265
32
0.190038
0
3DFACE
8
/control_wheel.r
62
254
10
-0.003902
20
-0.265735
30
0.176072
11
0.000000
21
-0.266331
31
0.176416
12
0.000000
22
-0.256679
32
0.191091
0
3DFACE
8
/control_wheel.r
62
254
10
-0.010000
20
-0.266194
30
0.173421
11
-0.003902
21
-0.265735
31
0.176072
12
0.000000
22
-0.256679
32
0.191091
0
3DFACE
8
/control_wheel.r
62
254
10
-0.010000
20
-0.231477
30
0.218387
11
-0.010000
21
-0.255265
31
0.190038
12
0.000000
22
-0.232760
32
0.219597
0
3DFACE
8
/control_wheel.r
62
254
10
-0.010000
20
-0.255265
30
0.190038
11
0.000000
21
-0.256679
31
0.191091
12
0.000000
22
-0.232760
32
0.219597
0
3DFACE
8
/control_wheel.r
62
254
10
-0.010000
20
-0.204559
30
0.243783
11
-0.010000
21
-0.231477
31
0.218387
12
0.000000
22
-0.205692
32
0.245134
0
3DFACE
8
/control_wheel.r
62
254
10
-0.010000
20
-0.231477
30
0.218387
11
0.000000
21
-0.232760
31
0.219597
12
0.000000
22
-0.205692
32
0.245134
0
3DFACE
8
/control_wheel.r
62
254
10
-0.010000
20
-0.174874
30
0.265883
11
-0.010000
21
-0.204559
31
0.243783
12
0.000000
22
-0.175843
32
0.267356
0
3DFACE
8
/control_wheel.r
62
254
10
-0.010000
20
-0.204559
30
0.243783
11
0.000000
21
-0.205692
31
0.245134
12
0.000000
22
-0.175843
32
0.267356
0
3DFACE
8
/control_wheel.r
62
254
10
-0.010000
20
-0.142824
30
0.284387
11
-0.010000
21
-0.174874
31
0.265883
12
0.000000
22
-0.143616
32
0.285962
0
3DFACE
8
/control_wheel.r
62
254
10
-0.010000
20
-0.174874
30
0.265883
11
0.000000
21
-0.175843
31
0.267356
12
0.000000
22
-0.143616
32
0.285962
0
3DFACE
8
/control_wheel.r
62
254
10
-0.010000
20
-0.108843
30
0.299045
11
-0.010000
21
-0.142824
31
0.284387
12
0.000000
22
-0.109446
32
0.300702
0
3DFACE
8
/control_wheel.r
62
254
10
-0.010000
20
-0.142824
30
0.284387
11
0.000000
21
-0.143616
31
0.285962
12
0.000000
22
-0.109446
32
0.300702
0
3DFACE
8
/control_wheel.r
62
254
10
-0.010000
20
-0.073390
30
0.309659
11
-0.010000
21
-0.108843
31
0.299045
12
0.000000
22
-0.073797
32
0.311374
0
3DFACE
8
/control_wheel.r
62
254
10
-0.010000
20
-0.108843
30
0.299045
11
0.000000
21
-0.109446
31
0.300702
12
0.000000
22
-0.073797
32
0.311374
0
3DFACE
8
/control_wheel.r
62
254
10
-0.010000
20
-0.036945
30
0.316085
11
-0.010000
21
-0.073390
31
0.309659
12
0.000000
22
-0.037150
32
0.317836
0
3DFACE
8
/control_wheel.r
62
254
10
-0.010000
20
-0.073390
30
0.309659
11
0.000000
21
-0.073797
31
0.311374
12
0.000000
22
-0.037150
32
0.317836
0
3DFACE
8
/control_wheel.r
62
254
10
-0.010000
20
-0.036945
30
0.316085
11
-0.003902
21
-0.019616
31
0.318170
12
-0.010000
22
-0.017090
32
0.317241
0
3DFACE
8
/control_wheel.r
62
254
10
0.000000
20
-0.019616
30
0.318858
11
-0.010000
21
-0.036945
31
0.316085
12
0.000000
22
-0.037150
32
0.317836
0
3DFACE
8
/control_wheel.r
62
254
10
0.000000
20
-0.019616
30
0.318858
11
-0.003902
21
-0.019616
31
0.318170
12
-0.010000
22
-0.036945
32
0.316085
0
3DFACE
8
/control_wheel.r
62
254
10
-0.003902
20
0.019616
30
0.318170
11
-0.010000
21
0.036945
31
0.316085
12
-0.010000
22
0.017090
32
0.317241
0
3DFACE
8
/control_wheel.r
62
254
10
0.000000
20
0.037150
30
0.317836
11
-0.003902
21
0.019616
31
0.318170
12
0.000000
22
0.019616
32
0.318858
0
3DFACE
8
/control_wheel.r
62
254
10
0.000000
20
0.037150
30
0.317836
11
-0.010000
21
0.036945
31
0.316085
12
-0.003902
22
0.019616
32
0.318170
0
3DFACE
8
/control_wheel.r
62
254
10
0.000000
20
0.037150
30
0.317836
11
-0.010000
21
0.073390
31
0.309659
12
-0.010000
22
0.036945
32
0.316085
0
3DFACE
8
/control_wheel.r
62
254
10
0.000000
20
0.037150
30
0.317836
11
0.000000
21
0.073797
31
0.311374
12
-0.010000
22
0.073390
32
0.309659
0
3DFACE
8
/control_wheel.r
62
254
10
0.000000
20
0.073797
30
0.311374
11
-0.010000
21
0.108843
31
0.299045
12
-0.010000
22
0.073390
32
0.309659
0
3DFACE
8
/control_wheel.r
62
254
10
0.000000
20
0.073797
30
0.311374
11
0.000000
21
0.109446
31
0.300702
12
-0.010000
22
0.108843
32
0.299045
0
3DFACE
8
/control_wheel.r
62
254
10
0.000000
20
0.109446
30
0.300702
11
-0.010000
21
0.142824
31
0.284387
12
-0.010000
22
0.108843
32
0.299045
0
3DFACE
8
/control_wheel.r
62
254
10
0.000000
20
0.109446
30
0.300702
11
0.000000
21
0.143616
31
0.285962
12
-0.010000
22
0.142824
32
0.284387
0
3DFACE
8
/control_wheel.r
62
254
10
0.000000
20
0.143616
30
0.285962
11
-0.010000
21
0.174874
31
0.265883
12
-0.010000
22
0.142824
32
0.284387
0
3DFACE
8
/control_wheel.r
62
254
10
0.000000
20
0.143616
30
0.285962
11
0.000000
21
0.175843
31
0.267356
12
-0.010000
22
0.174874
32
0.265883
0
3DFACE
8
/control_wheel.r
62
254
10
0.000000
20
0.175843
30
0.267356
11
-0.010000
21
0.204559
31
0.243783
12
-0.010000
22
0.174874
32
0.265883
0
3DFACE
8
/control_wheel.r
62
254
10
0.000000
20
0.175843
30
0.267356
11
0.000000
21
0.205692
31
0.245134
12
-0.010000
22
0.204559
32
0.243783
0
3DFACE
8
/control_wheel.r
62
254
10
0.000000
20
0.205692
30
0.245134
11
-0.010000
21
0.231477
31
0.218387
12
-0.010000
22
0.204559
32
0.243783
0
3DFACE
8
/control_wheel.r
62
254
10
0.000000
20
0.205692
30
0.245134
11
0.000000
21
0.232760
31
0.219597
12
-0.010000
22
0.231477
32
0.218387
0
3DFACE
8
/control_wheel.r
62
254
10
-0.010000
20
0.231477
30
0.218387
11
0.000000
21
0.232760
31
0.219597
12
-0.010000
22
0.255265
32
0.190038
0
3DFACE
8
/control_wheel.r
62
254
10
0.000000
20
0.232760
30
0.219597
11
0.000000
21
0.256679
31
0.191091
12
-0.010000
22
0.255265
32
0.190038
0
3DFACE
8
/control_wheel.r
62
254
10
-0.010000
20
0.255265
30
0.190038
11
-0.003902
21
0.265735
31
0.176072
12
-0.010000
22
0.266194
32
0.173421
0
3DFACE
8
/control_wheel.r
62
254
10
0.000000
20
0.256679
30
0.191091
11
0.000000
21
0.266331
31
0.176416
12
-0.003902
22
0.265735
32
0.176072
0
3DFACE
8
/control_wheel.r
62
254
10
-0.010000
20
0.255265
30
0.190038
11
0.000000
21
0.256679
31
0.191091
12
-0.003902
22
0.265735
32
0.176072
0
3DFACE
8
/control_wheel.r
62
254
10
-0.003902
20
0.285351
30
0.142097
11
-0.010000
21
0.292210
31
0.126047
12
-0.010000
22
0.283284
32
0.143821
0
3DFACE
8
/control_wheel.r
62
254
10
0.000000
20
0.285947
30
0.142441
11
0.000000
21
0.293829
31
0.126746
12
-0.010000
22
0.292210
32
0.126047
0
3DFACE
8
/control_wheel.r
62
254
10
-0.003902
20
0.285351
30
0.142097
11
0.000000
21
0.285947
31
0.142441
12
-0.010000
22
0.292210
32
0.126047
0
3DFACE
8
/control_wheel.r
62
254
10
-0.010000
20
0.292210
30
0.126047
11
0.000000
21
0.293829
31
0.126746
12
-0.010000
22
0.304867
32
0.091271
0
3DFACE
8
/control_wheel.r
62
254
10
0.000000
20
0.293829
30
0.126746
11
0.000000
21
0.306557
31
0.091777
12
-0.010000
22
0.304867
32
0.091271
0
3DFACE
8
/control_wheel.r
62
254
10
-0.010000
20
0.304867
30
0.091271
11
0.000000
21
0.306557
31
0.091777
12
-0.010000
22
0.313402
32
0.055261
0
3DFACE
8
/control_wheel.r
62
254
10
0.000000
20
0.306557
30
0.091777
11
0.000000
21
0.315138
31
0.055567
12
-0.010000
22
0.313402
32
0.055261
0
3DFACE
8
/control_wheel.r
62
254
10
-0.010000
20
0.313402
30
0.055261
11
0.000000
21
0.315138
31
0.055567
12
-0.010000
22
0.317698
32
0.018504
0
3DFACE
8
/control_wheel.r
62
254
10
0.000000
20
0.315138
30
0.055567
11
0.000000
21
0.319459
31
0.018606
12
-0.010000
22
0.317698
32
0.018504
0
3DFACE
8
/control_wheel.r
62
254
10
-0.010000
20
0.317698
30
0.018504
11
0.000000
21
0.319459
31
0.018606
12
-0.010000
22
0.317698
32
-0.018504
0
3DFACE
8
/control_wheel.r
62
254
10
0.000000
20
0.319459
30
0.018606
11
0.000000
21
0.319459
31
-0.018606
12
-0.010000
22
0.317698
32
-0.018504
0
3DFACE
8
/control_wheel.r
62
254
10
-0.010000
20
0.317698
30
-0.018504
11
0.000000
21
0.319459
31
-0.018606
12
-0.010000
22
0.313402
32
-0.055261
0
3DFACE
8
/control_wheel.r
62
254
10
0.000000
20
0.319459
30
-0.018606
11
0.000000
21
0.315138
31
-0.055567
12
-0.010000
22
0.313402
32
-0.055261
0
3DFACE
8
/control_wheel.r
62
254
10
-0.010000
20
0.313402
30
-0.055261
11
0.000000
21
0.315138
31
-0.055567
12
-0.010000
22
0.304867
32
-0.091271
0
3DFACE
8
/control_wheel.r
62
254
10
0.000000
20
0.315138
30
-0.055567
11
0.000000
21
0.306557
31
-0.091777
12
-0.010000
22
0.304867
32
-0.091271
0
3DFACE
8
/control_wheel.r
62
254
10
-0.010000
20
0.304867
30
-0.091271
11
0.000000
21
0.306557
31
-0.091777
12
-0.010000
22
0.292210
32
-0.126047
0
3DFACE
8
/control_wheel.r
62
254
10
0.000000
20
0.306557
30
-0.091777
11
0.000000
21
0.293829
31
-0.126746
12
-0.010000
22
0.292210
32
-0.126047
0
3DFACE
8
/control_wheel.r
62
254
10
-0.010000
20
0.292210
30
-0.126047
11
-0.003902
21
0.285351
31
-0.142097
12
-0.010000
22
0.283284
32
-0.143821
0
3DFACE
8
/control_wheel.r
62
254
10
0.000000
20
0.293829
30
-0.126746
11
0.000000
21
0.285947
31
-0.142441
12
-0.003902
22
0.285351
32
-0.142097
0
3DFACE
8
/control_wheel.r
62
254
10
-0.010000
20
0.292210
30
-0.126047
11
0.000000
21
0.293829
31
-0.126746
12
-0.003902
22
0.285351
32
-0.142097
0
3DFACE
8
/control_wheel.r
62
254
10
-0.003902
20
0.265735
30
-0.176072
11
-0.010000
21
0.255265
31
-0.190038
12
-0.010000
22
0.266194
32
-0.173421
0
3DFACE
8
/control_wheel.r
62
254
10
0.000000
20
0.266331
30
-0.176416
11
0.000000
21
0.256679
31
-0.191091
12
-0.010000
22
0.255265
32
-0.190038
0
3DFACE
8
/control_wheel.r
62
254
10
-0.003902
20
0.265735
30
-0.176072
11
0.000000
21
0.266331
31
-0.176416
12
-0.010000
22
0.255265
32
-0.190038
0
3DFACE
8
/control_wheel.r
62
254
10
-0.010000
20
0.255265
30
-0.190038
11
0.000000
21
0.256679
31
-0.191091
12
-0.010000
22
0.231477
32
-0.218387
0
3DFACE
8
/control_wheel.r
62
254
10
0.000000
20
0.256679
30
-0.191091
11
0.000000
21
0.232760
31
-0.219597
12
-0.010000
22
0.231477
32
-0.218387
0
3DFACE
8
/control_wheel.r
62
254
10
-0.010000
20
0.231477
30
-0.218387
11
0.000000
21
0.232760
31
-0.219597
12
-0.010000
22
0.204559
32
-0.243783
0
3DFACE
8
/control_wheel.r
62
254
10
0.000000
20
0.232760
30
-0.219597
11
0.000000
21
0.205692
31
-0.245134
12
-0.010000
22
0.204559
32
-0.243783
0
3DFACE
8
/control_wheel.r
62
254
10
-0.010000
20
0.204559
30
-0.243783
11
0.000000
21
0.205692
31
-0.245134
12
-0.010000
22
0.174874
32
-0.265883
0
3DFACE
8
/control_wheel.r
62
254
10
0.000000
20
0.205692
30
-0.245134
11
0.000000
21
0.175843
31
-0.267356
12
-0.010000
22
0.174874
32
-0.265883
0
3DFACE
8
/control_wheel.r
62
254
10
-0.010000
20
0.174874
30
-0.265883
11
0.000000
21
0.175843
31
-0.267356
12
-0.010000
22
0.142824
32
-0.284387
0
3DFACE
8
/control_wheel.r
62
254
10
0.000000
20
0.175843
30
-0.267356
11
0.000000
21
0.143616
31
-0.285962
12
-0.010000
22
0.142824
32
-0.284387
0
3DFACE
8
/control_wheel.r
62
254
10
-0.010000
20
0.142824
30
-0.284387
11
0.000000
21
0.143616
31
-0.285962
12
-0.010000
22
0.108843
32
-0.299045
0
3DFACE
8
/control_wheel.r
62
254
10
0.000000
20
0.143616
30
-0.285962
11
0.000000
21
0.109446
31
-0.300702
12
-0.010000
22
0.108843
32
-0.299045
0
3DFACE
8
/control_wheel.r
62
254
10
-0.010000
20
0.108843
30
-0.299045
11
0.000000
21
0.109446
31
-0.300702
12
-0.010000
22
0.073390
32
-0.309659
0
3DFACE
8
/control_wheel.r
62
254
10
0.000000
20
0.109446
30
-0.300702
11
0.000000
21
0.073797
31
-0.311374
12
-0.010000
22
0.073390
32
-0.309659
0
3DFACE
8
/control_wheel.r
62
254
10
-0.010000
20
0.036945
30
-0.316085
11
0.000000
21
0.073797
31
-0.311374
12
0.000000
22
0.037150
32
-0.317836
0
3DFACE
8
/control_wheel.r
62
254
10
-0.010000
20
0.036945
30
-0.316085
11
-0.010000
21
0.073390
31
-0.309659
12
0.000000
22
0.073797
32
-0.311374
0
3DFACE
8
/control_wheel.r
62
254
10
0.000000
20
0.019616
30
-0.318858
11
-0.010000
21
0.036945
31
-0.316085
12
0.000000
22
0.037150
32
-0.317836
0
3DFACE
8
/control_wheel.r
62
254
10
-0.010000
20
0.036945
30
-0.316085
11
-0.003902
21
0.019616
31
-0.318170
12
-0.010000
22
0.017090
32
-0.317241
0
3DFACE
8
/control_wheel.r
62
254
10
-0.010000
20
0.036945
30
-0.316085
11
0.000000
21
0.019616
31
-0.318858
12
-0.003902
22
0.019616
32
-0.318170
0
3DFACE
8
/control_wheel.r
62
254
10
-0.010000
20
-0.030389
30
-0.259993
11
-0.003902
21
-0.019616
31
-0.259546
12
-0.010000
22
-0.017090
32
-0.260768
0
3DFACE
8
/control_wheel.r
62
254
10
-0.010000
20
-0.030389
30
-0.259993
11
0.000000
21
-0.030184
31
-0.258242
12
0.000000
22
-0.019616
32
-0.258858
0
3DFACE
8
/control_wheel.r
62
254
10
-0.010000
20
-0.030389
30
-0.259993
11
0.000000
21
-0.019616
31
-0.258858
12
-0.003902
22
-0.019616
32
-0.259546
0
3DFACE
8
/control_wheel.r
62
254
10
0.000000
20
-0.059960
30
-0.252992
11
-0.010000
21
-0.030389
31
-0.259993
12
-0.010000
22
-0.060367
32
-0.254707
0
3DFACE
8
/control_wheel.r
62
254
10
0.000000
20
-0.059960
30
-0.252992
11
0.000000
21
-0.030184
31
-0.258242
12
-0.010000
22
-0.030389
32
-0.259993
0
3DFACE
8
/control_wheel.r
62
254
10
0.000000
20
-0.088925
30
-0.244320
11
-0.010000
21
-0.060367
31
-0.254707
12
-0.010000
22
-0.089528
32
-0.245977
0
3DFACE
8
/control_wheel.r
62
254
10
0.000000
20
-0.088925
30
-0.244320
11
0.000000
21
-0.059960
31
-0.252992
12
-0.010000
22
-0.060367
32
-0.254707
0
3DFACE
8
/control_wheel.r
62
254
10
0.000000
20
-0.116688
30
-0.232344
11
-0.010000
21
-0.089528
31
-0.245977
12
-0.010000
22
-0.117479
32
-0.233920
0
3DFACE
8
/control_wheel.r
62
254
10
0.000000
20
-0.116688
30
-0.232344
11
0.000000
21
-0.088925
31
-0.244320
12
-0.010000
22
-0.089528
32
-0.245977
0
3DFACE
8
/control_wheel.r
62
254
10
0.000000
20
-0.142872
30
-0.217227
11
-0.010000
21
-0.117479
31
-0.233920
12
-0.010000
22
-0.143841
32
-0.218700
0
3DFACE
8
/control_wheel.r
62
254
10
0.000000
20
-0.142872
30
-0.217227
11
0.000000
21
-0.116688
31
-0.232344
12
-0.010000
22
-0.117479
32
-0.233920
0
3DFACE
8
/control_wheel.r
62
254
10
0.000000
20
-0.167125
30
-0.199172
11
-0.010000
21
-0.143841
31
-0.218700
12
-0.010000
22
-0.168258
32
-0.200522
0
3DFACE
8
/control_wheel.r
62
254
10
0.000000
20
-0.167125
30
-0.199172
11
0.000000
21
-0.142872
31
-0.217227
12
-0.010000
22
-0.143841
32
-0.218700
0
3DFACE
8
/control_wheel.r
62
254
10
0.000000
20
-0.189117
30
-0.178423
11
-0.010000
21
-0.168258
31
-0.200522
12
-0.010000
22
-0.190400
32
-0.179633
0
3DFACE
8
/control_wheel.r
62
254
10
0.000000
20
-0.189117
30
-0.178423
11
0.000000
21
-0.167125
31
-0.199172
12
-0.010000
22
-0.168258
32
-0.200522
0
3DFACE
8
/control_wheel.r
62
254
10
-0.010000
20
-0.209966
30
-0.156314
11
0.000000
21
-0.208552
31
-0.155261
12
-0.010000
22
-0.190400
32
-0.179633
0
3DFACE
8
/control_wheel.r
62
254
10
0.000000
20
-0.208552
30
-0.155261
11
0.000000
21
-0.189117
31
-0.178423
12
-0.010000
22
-0.190400
32
-0.179633
0
3DFACE
8
/control_wheel.r
62
254
10
-0.003902
20
-0.214965
30
-0.146760
11
-0.010000
21
-0.209966
31
-0.156314
12
-0.010000
22
-0.217287
32
-0.145184
0
3DFACE
8
/control_wheel.r
62
254
10
0.000000
20
-0.214369
30
-0.146416
11
0.000000
21
-0.208552
31
-0.155261
12
-0.010000
22
-0.209966
32
-0.156314
0
3DFACE
8
/control_wheel.r
62
254
10
-0.003902
20
-0.214965
30
-0.146760
11
0.000000
21
-0.214369
31
-0.146416
12
-0.010000
22
-0.209966
32
-0.156314
0
3DFACE
8
/control_wheel.r
62
254
10
-0.010000
20
-0.240355
30
-0.103679
11
-0.003902
21
-0.234581
31
-0.112785
12
-0.010000
22
-0.234377
32
-0.115584
0
3DFACE
8
/control_wheel.r
62
254
10
0.000000
20
-0.238736
30
-0.102981
11
0.000000
21
-0.233985
31
-0.112441
12
-0.003902
22
-0.234581
32
-0.112785
0
3DFACE
8
/control_wheel.r
62
254
10
-0.010000
20
-0.240355
30
-0.103679
11
0.000000
21
-0.238736
31
-0.102981
12
-0.003902
22
-0.234581
32
-0.112785
0
3DFACE
8
/control_wheel.r
62
254
10
-0.010000
20
-0.250766
30
-0.075075
11
0.000000
21
-0.249077
31
-0.074569
12
-0.010000
22
-0.240355
32
-0.103679
0
3DFACE
8
/control_wheel.r
62
254
10
0.000000
20
-0.249077
30
-0.074569
11
0.000000
21
-0.238736
31
-0.102981
12
-0.010000
22
-0.240355
32
-0.103679
0
3DFACE
8
/control_wheel.r
62
254
10
-0.010000
20
-0.257786
30
-0.045455
11
0.000000
21
-0.256050
31
-0.045149
12
-0.010000
22
-0.250766
32
-0.075075
0
3DFACE
8
/control_wheel.r
62
254
10
0.000000
20
-0.256050
30
-0.045149
11
0.000000
21
-0.249077
31
-0.074569
12
-0.010000
22
-0.250766
32
-0.075075
0
3DFACE
8
/control_wheel.r
62
254
10
-0.010000
20
-0.261320
30
-0.015220
11
0.000000
21
-0.259560
31
-0.015118
12
-0.010000
22
-0.257786
32
-0.045455
0
3DFACE
8
/control_wheel.r
62
254
10
0.000000
20
-0.259560
30
-0.015118
11
0.000000
21
-0.256050
31
-0.045149
12
-0.010000
22
-0.257786
32
-0.045455
0
3DFACE
8
/control_wheel.r
62
254
10
-0.010000
20
-0.261320
30
0.015220
11
0.000000
21
-0.259560
31
0.015118
12
-0.010000
22
-0.261320
32
-0.015220
0
3DFACE
8
/control_wheel.r
62
254
10
0.000000
20
-0.259560
30
0.015118
11
0.000000
21
-0.259560
31
-0.015118
12
-0.010000
22
-0.261320
32
-0.015220
0
3DFACE
8
/control_wheel.r
62
254
10
-0.010000
20
-0.257786
30
0.045455
11
0.000000
21
-0.256050
31
0.045149
12
-0.010000
22
-0.261320
32
0.015220
0
3DFACE
8
/control_wheel.r
62
254
10
0.000000
20
-0.256050
30
0.045149
11
0.000000
21
-0.259560
31
0.015118
12
-0.010000
22
-0.261320
32
0.015220
0
3DFACE
8
/control_wheel.r
62
254
10
-0.010000
20
-0.250766
30
0.075075
11
0.000000
21
-0.249077
31
0.074569
12
-0.010000
22
-0.257786
32
0.045455
0
3DFACE
8
/control_wheel.r
62
254
10
0.000000
20
-0.249077
30
0.074569
11
0.000000
21
-0.256050
31
0.045149
12
-0.010000
22
-0.257786
32
0.045455
0
3DFACE
8
/control_wheel.r
62
254
10
-0.010000
20
-0.240355
30
0.103679
11
0.000000
21
-0.238736
31
0.102981
12
-0.010000
22
-0.250766
32
0.075075
0
3DFACE
8
/control_wheel.r
62
254
10
0.000000
20
-0.238736
30
0.102981
11
0.000000
21
-0.249077
31
0.074569
12
-0.010000
22
-0.250766
32
0.075075
0
3DFACE
8
/control_wheel.r
62
254
10
-0.003902
20
-0.234581
30
0.112785
11
-0.010000
21
-0.240355
31
0.103679
12
-0.010000
22
-0.234377
32
0.115584
0
3DFACE
8
/control_wheel.r
62
254
10
0.000000
20
-0.233985
30
0.112441
11
0.000000
21
-0.238736
31
0.102981
12
-0.010000
22
-0.240355
32
0.103679
0
3DFACE
8
/control_wheel.r
62
254
10
-0.003902
20
-0.234581
30
0.112785
11
0.000000
21
-0.233985
31
0.112441
12
-0.010000
22
-0.240355
32
0.103679
0
3DFACE
8
/control_wheel.r
62
254
10
-0.010000
20
-0.209966
30
0.156314
11
-0.003902
21
-0.214965
31
0.146760
12
-0.010000
22
-0.217287
32
0.145184
0
3DFACE
8
/control_wheel.r
62
254
10
0.000000
20
-0.208552
30
0.155261
11
0.000000
21
-0.214369
31
0.146416
12
-0.003902
22
-0.214965
32
0.146760
0
3DFACE
8
/control_wheel.r
62
254
10
-0.010000
20
-0.209966
30
0.156314
11
0.000000
21
-0.208552
31
0.155261
12
-0.003902
22
-0.214965
32
0.146760
0
3DFACE
8
/control_wheel.r
62
254
10
-0.010000
20
-0.190400
30
0.179633
11
0.000000
21
-0.189117
31
0.178423
12
-0.010000
22
-0.209966
32
0.156314
0
3DFACE
8
/control_wheel.r
62
254
10
0.000000
20
-0.189117
30
0.178423
11
0.000000
21
-0.208552
31
0.155261
12
-0.010000
22
-0.209966
32
0.156314
0
3DFACE
8
/control_wheel.r
62
254
10
-0.010000
20
-0.168258
30
0.200522
11
0.000000
21
-0.167125
31
0.199172
12
-0.010000
22
-0.190400
32
0.179633
0
3DFACE
8
/control_wheel.r
62
254
10
0.000000
20
-0.167125
30
0.199172
11
0.000000
21
-0.189117
31
0.178423
12
-0.010000
22
-0.190400
32
0.179633
0
3DFACE
8
/control_wheel.r
62
254
10
-0.010000
20
-0.143841
30
0.218700
11
0.000000
21
-0.142872
31
0.217227
12
-0.010000
22
-0.168258
32
0.200522
0
3DFACE
8
/control_wheel.r
62
254
10
0.000000
20
-0.142872
30
0.217227
11
0.000000
21
-0.167125
31
0.199172
12
-0.010000
22
-0.168258
32
0.200522
0
3DFACE
8
/control_wheel.r
62
254
10
-0.010000
20
-0.117479
30
0.233920
11
0.000000
21
-0.116688
31
0.232344
12
-0.010000
22
-0.143841
32
0.218700
0
3DFACE
8
/control_wheel.r
62
254
10
0.000000
20
-0.116688
30
0.232344
11
0.000000
21
-0.142872
31
0.217227
12
-0.010000
22
-0.143841
32
0.218700
0
3DFACE
8
/control_wheel.r
62
254
10
-0.010000
20
-0.089528
30
0.245977
11
0.000000
21
-0.088925
31
0.244320
12
-0.010000
22
-0.117479
32
0.233920
0
3DFACE
8
/control_wheel.r
62
254
10
0.000000
20
-0.088925
30
0.244320
11
0.000000
21
-0.116688
31
0.232344
12
-0.010000
22
-0.117479
32
0.233920
0
3DFACE
8
/control_wheel.r
62
254
10
-0.010000
20
-0.060367
30
0.254707
11
0.000000
21
-0.059960
31
0.252992
12
-0.010000
22
-0.089528
32
0.245977
0
3DFACE
8
/control_wheel.r
62
254
10
0.000000
20
-0.059960
30
0.252992
11
0.000000
21
-0.088925
31
0.244320
12
-0.010000
22
-0.089528
32
0.245977
0
3DFACE
8
/control_wheel.r
62
254
10
-0.010000
20
-0.060367
30
0.254707
11
0.000000
21
-0.030184
31
0.258242
12
0.000000
22
-0.059960
32
0.252992
0
3DFACE
8
/control_wheel.r
62
254
10
-0.010000
20
-0.060367
30
0.254707
11
-0.010000
21
-0.030389
31
0.259993
12
0.000000
22
-0.030184
32
0.258242
0
3DFACE
8
/control_wheel.r
62
254
10
0.000000
20
-0.030184
30
0.258242
11
-0.003902
21
-0.019616
31
0.259546
12
0.000000
22
-0.019616
32
0.258858
0
3DFACE
8
/control_wheel.r
62
254
10
0.000000
20
-0.030184
30
0.258242
11
-0.010000
21
-0.030389
31
0.259993
12
-0.010000
22
-0.017090
32
0.260768
0
3DFACE
8
/control_wheel.r
62
254
10
0.000000
20
-0.030184
30
0.258242
11
-0.010000
21
-0.017090
31
0.260768
12
-0.003902
22
-0.019616
32
0.259546
0
3DFACE
8
/control_wheel.r
62
254
10
-0.003902
20
0.019616
30
0.259546
11
0.000000
21
0.030184
31
0.258242
12
0.000000
22
0.019616
32
0.258858
0
3DFACE
8
/control_wheel.r
62
254
10
-0.010000
20
0.017090
30
0.260768
11
-0.010000
21
0.030389
31
0.259993
12
0.000000
22
0.030184
32
0.258242
0
3DFACE
8
/control_wheel.r
62
254
10
-0.003902
20
0.019616
30
0.259546
11
-0.010000
21
0.017090
31
0.260768
12
0.000000
22
0.030184
32
0.258242
0
3DFACE
8
/control_wheel.r
62
254
10
0.000000
20
0.030184
30
0.258242
11
-0.010000
21
0.060367
31
0.254707
12
0.000000
22
0.059960
32
0.252992
0
3DFACE
8
/control_wheel.r
62
254
10
0.000000
20
0.030184
30
0.258242
11
-0.010000
21
0.030389
31
0.259993
12
-0.010000
22
0.060367
32
0.254707
0
3DFACE
8
/control_wheel.r
62
254
10
-0.010000
20
0.089528
30
0.245977
11
0.000000
21
0.059960
31
0.252992
12
-0.010000
22
0.060367
32
0.254707
0
3DFACE
8
/control_wheel.r
62
254
10
-0.010000
20
0.089528
30
0.245977
11
0.000000
21
0.088925
31
0.244320
12
0.000000
22
0.059960
32
0.252992
0
3DFACE
8
/control_wheel.r
62
254
10
-0.010000
20
0.117479
30
0.233920
11
0.000000
21
0.088925
31
0.244320
12
-0.010000
22
0.089528
32
0.245977
0
3DFACE
8
/control_wheel.r
62
254
10
-0.010000
20
0.117479
30
0.233920
11
0.000000
21
0.116688
31
0.232344
12
0.000000
22
0.088925
32
0.244320
0
3DFACE
8
/control_wheel.r
62
254
10
-0.010000
20
0.143841
30
0.218700
11
0.000000
21
0.116688
31
0.232344
12
-0.010000
22
0.117479
32
0.233920
0
3DFACE
8
/control_wheel.r
62
254
10
-0.010000
20
0.143841
30
0.218700
11
0.000000
21
0.142872
31
0.217227
12
0.000000
22
0.116688
32
0.232344
0
3DFACE
8
/control_wheel.r
62
254
10
-0.010000
20
0.168258
30
0.200522
11
0.000000
21
0.142872
31
0.217227
12
-0.010000
22
0.143841
32
0.218700
0
3DFACE
8
/control_wheel.r
62
254
10
-0.010000
20
0.168258
30
0.200522
11
0.000000
21
0.167125
31
0.199172
12
0.000000
22
0.142872
32
0.217227
0
3DFACE
8
/control_wheel.r
62
254
10
-0.010000
20
0.190400
30
0.179633
11
0.000000
21
0.167125
31
0.199172
12
-0.010000
22
0.168258
32
0.200522
0
3DFACE
8
/control_wheel.r
62
254
10
-0.010000
20
0.190400
30
0.179633
11
0.000000
21
0.189117
31
0.178423
12
0.000000
22
0.167125
32
0.199172
0
3DFACE
8
/control_wheel.r
62
254
10
-0.010000
20
0.209966
30
0.156314
11
0.000000
21
0.189117
31
0.178423
12
-0.010000
22
0.190400
32
0.179633
0
3DFACE
8
/control_wheel.r
62
254
10
-0.010000
20
0.209966
30
0.156314
11
0.000000
21
0.208552
31
0.155261
12
0.000000
22
0.189117
32
0.178423
0
3DFACE
8
/control_wheel.r
62
254
10
-0.010000
20
0.217287
30
0.145184
11
0.000000
21
0.208552
31
0.155261
12
-0.010000
22
0.209966
32
0.156314
0
3DFACE
8
/control_wheel.r
62
254
10
-0.003902
20
0.214965
30
0.146760
11
0.000000
21
0.214369
31
0.146416
12
0.000000
22
0.208552
32
0.155261
0
3DFACE
8
/control_wheel.r
62
254
10
-0.010000
20
0.217287
30
0.145184
11
-0.003902
21
0.214965
31
0.146760
12
0.000000
22
0.208552
32
0.155261
0
3DFACE
8
/control_wheel.r
62
254
10
-0.010000
20
0.240355
30
0.103679
11
-0.003902
21
0.234581
31
0.112785
12
-0.010000
22
0.234377
32
0.115584
0
3DFACE
8
/control_wheel.r
62
254
10
-0.010000
20
0.240355
30
0.103679
11
0.000000
21
0.238736
31
0.102981
12
0.000000
22
0.233985
32
0.112441
0
3DFACE
8
/control_wheel.r
62
254
10
-0.010000
20
0.240355
30
0.103679
11
0.000000
21
0.233985
31
0.112441
12
-0.003902
22
0.234581
32
0.112785
0
3DFACE
8
/control_wheel.r
62
254
10
-0.010000
20
0.250766
30
0.075075
11
0.000000
21
0.238736
31
0.102981
12
-0.010000
22
0.240355
32
0.103679
0
3DFACE
8
/control_wheel.r
62
254
10
-0.010000
20
0.250766
30
0.075075
11
0.000000
21
0.249077
31
0.074569
12
0.000000
22
0.238736
32
0.102981
0
3DFACE
8
/control_wheel.r
62
254
10
-0.010000
20
0.257786
30
0.045455
11
0.000000
21
0.249077
31
0.074569
12
-0.010000
22
0.250766
32
0.075075
0
3DFACE
8
/control_wheel.r
62
254
10
-0.010000
20
0.257786
30
0.045455
11
0.000000
21
0.256050
31
0.045149
12
0.000000
22
0.249077
32
0.074569
0
3DFACE
8
/control_wheel.r
62
254
10
-0.010000
20
0.261320
30
0.015220
11
0.000000
21
0.256050
31
0.045149
12
-0.010000
22
0.257786
32
0.045455
0
3DFACE
8
/control_wheel.r
62
254
10
-0.010000
20
0.261320
30
0.015220
11
0.000000
21
0.259560
31
0.015118
12
0.000000
22
0.256050
32
0.045149
0
3DFACE
8
/control_wheel.r
62
254
10
-0.010000
20
0.261320
30
-0.015220
11
0.000000
21
0.259560
31
0.015118
12
-0.010000
22
0.261320
32
0.015220
0
3DFACE
8
/control_wheel.r
62
254
10
-0.010000
20
0.261320
30
-0.015220
11
0.000000
21
0.259560
31
-0.015118
12
0.000000
22
0.259560
32
0.015118
0
3DFACE
8
/control_wheel.r
62
254
10
-0.010000
20
0.257786
30
-0.045455
11
0.000000
21
0.259560
31
-0.015118
12
-0.010000
22
0.261320
32
-0.015220
0
3DFACE
8
/control_wheel.r
62
254
10
-0.010000
20
0.257786
30
-0.045455
11
0.000000
21
0.256050
31
-0.045149
12
0.000000
22
0.259560
32
-0.015118
0
3DFACE
8
/control_wheel.r
62
254
10
-0.010000
20
0.250766
30
-0.075075
11
0.000000
21
0.256050
31
-0.045149
12
-0.010000
22
0.257786
32
-0.045455
0
3DFACE
8
/control_wheel.r
62
254
10
-0.010000
20
0.250766
30
-0.075075
11
0.000000
21
0.249077
31
-0.074569
12
0.000000
22
0.256050
32
-0.045149
0
3DFACE
8
/control_wheel.r
62
254
10
-0.010000
20
0.240355
30
-0.103679
11
0.000000
21
0.249077
31
-0.074569
12
-0.010000
22
0.250766
32
-0.075075
0
3DFACE
8
/control_wheel.r
62
254
10
-0.010000
20
0.240355
30
-0.103679
11
0.000000
21
0.238736
31
-0.102981
12
0.000000
22
0.249077
32
-0.074569
0
3DFACE
8
/control_wheel.r
62
254
10
-0.010000
20
0.234377
30
-0.115584
11
0.000000
21
0.238736
31
-0.102981
12
-0.010000
22
0.240355
32
-0.103679
0
3DFACE
8
/control_wheel.r
62
254
10
-0.003902
20
0.234581
30
-0.112785
11
0.000000
21
0.233985
31
-0.112441
12
0.000000
22
0.238736
32
-0.102981
0
3DFACE
8
/control_wheel.r
62
254
10
-0.010000
20
0.234377
30
-0.115584
11
-0.003902
21
0.234581
31
-0.112785
12
0.000000
22
0.238736
32
-0.102981
0
3DFACE
8
/control_wheel.r
62
254
10
-0.010000
20
0.209966
30
-0.156314
11
-0.003902
21
0.214965
31
-0.146760
12
-0.010000
22
0.217287
32
-0.145184
0
3DFACE
8
/control_wheel.r
62
254
10
-0.010000
20
0.209966
30
-0.156314
11
0.000000
21
0.208552
31
-0.155261
12
0.000000
22
0.214369
32
-0.146416
0
3DFACE
8
/control_wheel.r
62
254
10
-0.010000
20
0.209966
30
-0.156314
11
0.000000
21
0.214369
31
-0.146416
12
-0.003902
22
0.214965
32
-0.146760
0
3DFACE
8
/control_wheel.r
62
254
10
-0.010000
20
0.190400
30
-0.179633
11
0.000000
21
0.208552
31
-0.155261
12
-0.010000
22
0.209966
32
-0.156314
0
3DFACE
8
/control_wheel.r
62
254
10
-0.010000
20
0.190400
30
-0.179633
11
0.000000
21
0.189117
31
-0.178423
12
0.000000
22
0.208552
32
-0.155261
0
3DFACE
8
/control_wheel.r
62
254
10
-0.010000
20
0.168258
30
-0.200522
11
0.000000
21
0.189117
31
-0.178423
12
-0.010000
22
0.190400
32
-0.179633
0
3DFACE
8
/control_wheel.r
62
254
10
-0.010000
20
0.168258
30
-0.200522
11
0.000000
21
0.167125
31
-0.199172
12
0.000000
22
0.189117
32
-0.178423
0
3DFACE
8
/control_wheel.r
62
254
10
-0.010000
20
0.143841
30
-0.218700
11
0.000000
21
0.167125
31
-0.199172
12
-0.010000
22
0.168258
32
-0.200522
0
3DFACE
8
/control_wheel.r
62
254
10
-0.010000
20
0.143841
30
-0.218700
11
0.000000
21
0.142872
31
-0.217227
12
0.000000
22
0.167125
32
-0.199172
0
3DFACE
8
/control_wheel.r
62
254
10
-0.010000
20
0.117479
30
-0.233920
11
0.000000
21
0.142872
31
-0.217227
12
-0.010000
22
0.143841
32
-0.218700
0
3DFACE
8
/control_wheel.r
62
254
10
-0.010000
20
0.117479
30
-0.233920
11
0.000000
21
0.116688
31
-0.232344
12
0.000000
22
0.142872
32
-0.217227
0
3DFACE
8
/control_wheel.r
62
254
10
-0.010000
20
0.089528
30
-0.245977
11
0.000000
21
0.116688
31
-0.232344
12
-0.010000
22
0.117479
32
-0.233920
0
3DFACE
8
/control_wheel.r
62
254
10
-0.010000
20
0.089528
30
-0.245977
11
0.000000
21
0.088925
31
-0.244320
12
0.000000
22
0.116688
32
-0.232344
0
3DFACE
8
/control_wheel.r
62
254
10
-0.010000
20
0.060367
30
-0.254707
11
0.000000
21
0.088925
31
-0.244320
12
-0.010000
22
0.089528
32
-0.245977
0
3DFACE
8
/control_wheel.r
62
254
10
-0.010000
20
0.060367
30
-0.254707
11
0.000000
21
0.059960
31
-0.252992
12
0.000000
22
0.088925
32
-0.244320
0
3DFACE
8
/control_wheel.r
62
254
10
-0.010000
20
0.030389
30
-0.259993
11
0.000000
21
0.059960
31
-0.252992
12
-0.010000
22
0.060367
32
-0.254707
0
3DFACE
8
/control_wheel.r
62
254
10
-0.010000
20
0.030389
30
-0.259993
11
0.000000
21
0.030184
31
-0.258242
12
0.000000
22
0.059960
32
-0.252992
0
3DFACE
8
/control_wheel.r
62
254
10
-0.010000
20
0.017090
30
-0.260768
11
0.000000
21
0.030184
31
-0.258242
12
-0.010000
22
0.030389
32
-0.259993
0
3DFACE
8
/control_wheel.r
62
254
10
-0.003902
20
0.019616
30
-0.259546
11
0.000000
21
0.019616
31
-0.258858
12
0.000000
22
0.030184
32
-0.258242
0
3DFACE
8
/control_wheel.r
62
254
10
-0.010000
20
0.017090
30
-0.260768
11
-0.003902
21
0.019616
31
-0.259546
12
0.000000
22
0.030184
32
-0.258242
0
3DFACE
8
/control_wheel.r
62
254
10
0.010000
20
-0.017090
30
-0.260768
11
0.000000
21
-0.030184
31
-0.258242
12
0.010000
22
-0.030389
32
-0.259993
0
3DFACE
8
/control_wheel.r
62
254
10
0.003902
20
-0.019616
30
-0.259546
11
0.000000
21
-0.019616
31
-0.258858
12
0.000000
22
-0.030184
32
-0.258242
0
3DFACE
8
/control_wheel.r
62
254
10
0.010000
20
-0.017090
30
-0.260768
11
0.003902
21
-0.019616
31
-0.259546
12
0.000000
22
-0.030184
32
-0.258242
0
3DFACE
8
/control_wheel.r
62
254
10
0.000000
20
-0.059960
30
-0.252992
11
0.010000
21
-0.030389
31
-0.259993
12
0.000000
22
-0.030184
32
-0.258242
0
3DFACE
8
/control_wheel.r
62
254
10
0.000000
20
-0.059960
30
-0.252992
11
0.010000
21
-0.060367
31
-0.254707
12
0.010000
22
-0.030389
32
-0.259993
0
3DFACE
8
/control_wheel.r
62
254
10
0.000000
20
-0.088925
30
-0.244320
11
0.010000
21
-0.060367
31
-0.254707
12
0.000000
22
-0.059960
32
-0.252992
0
3DFACE
8
/control_wheel.r
62
254
10
0.000000
20
-0.088925
30
-0.244320
11
0.010000
21
-0.089528
31
-0.245977
12
0.010000
22
-0.060367
32
-0.254707
0
3DFACE
8
/control_wheel.r
62
254
10
0.000000
20
-0.116688
30
-0.232344
11
0.010000
21
-0.089528
31
-0.245977
12
0.000000
22
-0.088925
32
-0.244320
0
3DFACE
8
/control_wheel.r
62
254
10
0.000000
20
-0.116688
30
-0.232344
11
0.010000
21
-0.117479
31
-0.233920
12
0.010000
22
-0.089528
32
-0.245977
0
3DFACE
8
/control_wheel.r
62
254
10
0.000000
20
-0.142872
30
-0.217227
11
0.010000
21
-0.117479
31
-0.233920
12
0.000000
22
-0.116688
32
-0.232344
0
3DFACE
8
/control_wheel.r
62
254
10
0.000000
20
-0.142872
30
-0.217227
11
0.010000
21
-0.143841
31
-0.218700
12
0.010000
22
-0.117479
32
-0.233920
0
3DFACE
8
/control_wheel.r
62
254
10
0.000000
20
-0.167125
30
-0.199172
11
0.010000
21
-0.143841
31
-0.218700
12
0.000000
22
-0.142872
32
-0.217227
0
3DFACE
8
/control_wheel.r
62
254
10
0.000000
20
-0.167125
30
-0.199172
11
0.010000
21
-0.168258
31
-0.200522
12
0.010000
22
-0.143841
32
-0.218700
0
3DFACE
8
/control_wheel.r
62
254
10
0.000000
20
-0.189117
30
-0.178423
11
0.010000
21
-0.168258
31
-0.200522
12
0.000000
22
-0.167125
32
-0.199172
0
3DFACE
8
/control_wheel.r
62
254
10
0.000000
20
-0.189117
30
-0.178423
11
0.010000
21
-0.190400
31
-0.179633
12
0.010000
22
-0.168258
32
-0.200522
0
3DFACE
8
/control_wheel.r
62
254
10
0.000000
20
-0.208552
30
-0.155261
11
0.010000
21
-0.190400
31
-0.179633
12
0.000000
22
-0.189117
32
-0.178423
0
3DFACE
8
/control_wheel.r
62
254
10
0.000000
20
-0.208552
30
-0.155261
11
0.010000
21
-0.209966
31
-0.156314
12
0.010000
22
-0.190400
32
-0.179633
0
3DFACE
8
/control_wheel.r
62
254
10
0.000000
20
-0.214369
30
-0.146416
11
0.010000
21
-0.209966
31
-0.156314
12
0.000000
22
-0.208552
32
-0.155261
0
3DFACE
8
/control_wheel.r
62
254
10
0.010000
20
-0.209966
30
-0.156314
11
0.003902
21
-0.214965
31
-0.146760
12
0.010000
22
-0.217287
32
-0.145184
0
3DFACE
8
/control_wheel.r
62
254
10
0.010000
20
-0.209966
30
-0.156314
11
0.000000
21
-0.214369
31
-0.146416
12
0.003902
22
-0.214965
32
-0.146760
0
3DFACE
8
/control_wheel.r
62
254
10
0.000000
20
-0.238736
30
-0.102981
11
0.003902
21
-0.234581
31
-0.112785
12
0.000000
22
-0.233985
32
-0.112441
0
3DFACE
8
/control_wheel.r
62
254
10
0.010000
20
-0.234377
30
-0.115584
11
0.000000
21
-0.238736
31
-0.102981
12
0.010000
22
-0.240355
32
-0.103679
0
3DFACE
8
/control_wheel.r
62
254
10
0.010000
20
-0.234377
30
-0.115584
11
0.003902
21
-0.234581
31
-0.112785
12
0.000000
22
-0.238736
32
-0.102981
0
3DFACE
8
/control_wheel.r
62
254
10
0.000000
20
-0.249077
30
-0.074569
11
0.010000
21
-0.240355
31
-0.103679
12
0.000000
22
-0.238736
32
-0.102981
0
3DFACE
8
/control_wheel.r
62
254
10
0.000000
20
-0.249077
30
-0.074569
11
0.010000
21
-0.250766
31
-0.075075
12
0.010000
22
-0.240355
32
-0.103679
0
3DFACE
8
/control_wheel.r
62
254
10
0.000000
20
-0.256050
30
-0.045149
11
0.010000
21
-0.250766
31
-0.075075
12
0.000000
22
-0.249077
32
-0.074569
0
3DFACE
8
/control_wheel.r
62
254
10
0.000000
20
-0.256050
30
-0.045149
11
0.010000
21
-0.257786
31
-0.045455
12
0.010000
22
-0.250766
32
-0.075075
0
3DFACE
8
/control_wheel.r
62
254
10
0.000000
20
-0.259560
30
-0.015118
11
0.010000
21
-0.257786
31
-0.045455
12
0.000000
22
-0.256050
32
-0.045149
0
3DFACE
8
/control_wheel.r
62
254
10
0.000000
20
-0.259560
30
-0.015118
11
0.010000
21
-0.261320
31
-0.015220
12
0.010000
22
-0.257786
32
-0.045455
0
3DFACE
8
/control_wheel.r
62
254
10
0.000000
20
-0.259560
30
0.015118
11
0.010000
21
-0.261320
31
-0.015220
12
0.000000
22
-0.259560
32
-0.015118
0
3DFACE
8
/control_wheel.r
62
254
10
0.000000
20
-0.259560
30
0.015118
11
0.010000
21
-0.261320
31
0.015220
12
0.010000
22
-0.261320
32
-0.015220
0
3DFACE
8
/control_wheel.r
62
254
10
0.000000
20
-0.256050
30
0.045149
11
0.010000
21
-0.261320
31
0.015220
12
0.000000
22
-0.259560
32
0.015118
0
3DFACE
8
/control_wheel.r
62
254
10
0.000000
20
-0.256050
30
0.045149
11
0.010000
21
-0.257786
31
0.045455
12
0.010000
22
-0.261320
32
0.015220
0
3DFACE
8
/control_wheel.r
62
254
10
0.000000
20
-0.249077
30
0.074569
11
0.010000
21
-0.257786
31
0.045455
12
0.000000
22
-0.256050
32
0.045149
0
3DFACE
8
/control_wheel.r
62
254
10
0.000000
20
-0.249077
30
0.074569
11
0.010000
21
-0.250766
31
0.075075
12
0.010000
22
-0.257786
32
0.045455
0
3DFACE
8
/control_wheel.r
62
254
10
0.000000
20
-0.238736
30
0.102981
11
0.010000
21
-0.250766
31
0.075075
12
0.000000
22
-0.249077
32
0.074569
0
3DFACE
8
/control_wheel.r
62
254
10
0.000000
20
-0.238736
30
0.102981
11
0.010000
21
-0.240355
31
0.103679
12
0.010000
22
-0.250766
32
0.075075
0
3DFACE
8
/control_wheel.r
62
254
10
0.000000
20
-0.233985
30
0.112441
11
0.010000
21
-0.240355
31
0.103679
12
0.000000
22
-0.238736
32
0.102981
0
3DFACE
8
/control_wheel.r
62
254
10
0.010000
20
-0.240355
30
0.103679
11
0.003902
21
-0.234581
31
0.112785
12
0.010000
22
-0.234377
32
0.115584
0
3DFACE
8
/control_wheel.r
62
254
10
0.010000
20
-0.240355
30
0.103679
11
0.000000
21
-0.233985
31
0.112441
12
0.003902
22
-0.234581
32
0.112785
0
3DFACE
8
/control_wheel.r
62
254
10
0.000000
20
-0.208552
30
0.155261
11
0.003902
21
-0.214965
31
0.146760
12
0.000000
22
-0.214369
32
0.146416
0
3DFACE
8
/control_wheel.r
62
254
10
0.010000
20
-0.217287
30
0.145184
11
0.000000
21
-0.208552
31
0.155261
12
0.010000
22
-0.209966
32
0.156314
0
3DFACE
8
/control_wheel.r
62
254
10
0.010000
20
-0.217287
30
0.145184
11
0.003902
21
-0.214965
31
0.146760
12
0.000000
22
-0.208552
32
0.155261
0
3DFACE
8
/control_wheel.r
62
254
10
0.000000
20
-0.189117
30
0.178423
11
0.010000
21
-0.209966
31
0.156314
12
0.000000
22
-0.208552
32
0.155261
0
3DFACE
8
/control_wheel.r
62
254
10
0.000000
20
-0.189117
30
0.178423
11
0.010000
21
-0.190400
31
0.179633
12
0.010000
22
-0.209966
32
0.156314
0
3DFACE
8
/control_wheel.r
62
254
10
0.000000
20
-0.167125
30
0.199172
11
0.010000
21
-0.190400
31
0.179633
12
0.000000
22
-0.189117
32
0.178423
0
3DFACE
8
/control_wheel.r
62
254
10
0.000000
20
-0.167125
30
0.199172
11
0.010000
21
-0.168258
31
0.200522
12
0.010000
22
-0.190400
32
0.179633
0
3DFACE
8
/control_wheel.r
62
254
10
0.000000
20
-0.142872
30
0.217227
11
0.010000
21
-0.168258
31
0.200522
12
0.000000
22
-0.167125
32
0.199172
0
3DFACE
8
/control_wheel.r
62
254
10
0.000000
20
-0.142872
30
0.217227
11
0.010000
21
-0.143841
31
0.218700
12
0.010000
22
-0.168258
32
0.200522
0
3DFACE
8
/control_wheel.r
62
254
10
0.000000
20
-0.116688
30
0.232344
11
0.010000
21
-0.143841
31
0.218700
12
0.000000
22
-0.142872
32
0.217227
0
3DFACE
8
/control_wheel.r
62
254
10
0.000000
20
-0.116688
30
0.232344
11
0.010000
21
-0.117479
31
0.233920
12
0.010000
22
-0.143841
32
0.218700
0
3DFACE
8
/control_wheel.r
62
254
10
0.000000
20
-0.088925
30
0.244320
11
0.010000
21
-0.117479
31
0.233920
12
0.000000
22
-0.116688
32
0.232344
0
3DFACE
8
/control_wheel.r
62
254
10
0.000000
20
-0.088925
30
0.244320
11
0.010000
21
-0.089528
31
0.245977
12
0.010000
22
-0.117479
32
0.233920
0
3DFACE
8
/control_wheel.r
62
254
10
0.000000
20
-0.059960
30
0.252992
11
0.010000
21
-0.089528
31
0.245977
12
0.000000
22
-0.088925
32
0.244320
0
3DFACE
8
/control_wheel.r
62
254
10
0.000000
20
-0.059960
30
0.252992
11
0.010000
21
-0.060367
31
0.254707
12
0.010000
22
-0.089528
32
0.245977
0
3DFACE
8
/control_wheel.r
62
254
10
0.010000
20
-0.030389
30
0.259993
11
0.010000
21
-0.060367
31
0.254707
12
0.000000
22
-0.030184
32
0.258242
0
3DFACE
8
/control_wheel.r
62
254
10
0.010000
20
-0.060367
30
0.254707
11
0.000000
21
-0.059960
31
0.252992
12
0.000000
22
-0.030184
32
0.258242
0
3DFACE
8
/control_wheel.r
62
254
10
0.000000
20
-0.030184
30
0.258242
11
0.010000
21
-0.017090
31
0.260768
12
0.010000
22
-0.030389
32
0.259993
0
3DFACE
8
/control_wheel.r
62
254
10
0.003902
20
-0.019616
30
0.259546
11
0.000000
21
-0.030184
31
0.258242
12
0.000000
22
-0.019616
32
0.258858
0
3DFACE
8
/control_wheel.r
62
254
10
0.003902
20
-0.019616
30
0.259546
11
0.010000
21
-0.017090
31
0.260768
12
0.000000
22
-0.030184
32
0.258242
0
3DFACE
8
/control_wheel.r
62
254
10
0.010000
20
0.030389
30
0.259993
11
0.010000
21
0.017090
31
0.260768
12
0.000000
22
0.030184
32
0.258242
0
3DFACE
8
/control_wheel.r
62
254
10
0.000000
20
0.030184
30
0.258242
11
0.003902
21
0.019616
31
0.259546
12
0.000000
22
0.019616
32
0.258858
0
3DFACE
8
/control_wheel.r
62
254
10
0.000000
20
0.030184
30
0.258242
11
0.010000
21
0.017090
31
0.260768
12
0.003902
22
0.019616
32
0.259546
0
3DFACE
8
/control_wheel.r
62
254
10
0.000000
20
0.030184
30
0.258242
11
0.010000
21
0.060367
31
0.254707
12
0.010000
22
0.030389
32
0.259993
0
3DFACE
8
/control_wheel.r
62
254
10
0.000000
20
0.030184
30
0.258242
11
0.000000
21
0.059960
31
0.252992
12
0.010000
22
0.060367
32
0.254707
0
3DFACE
8
/control_wheel.r
62
254
10
0.010000
20
0.089528
30
0.245977
11
0.000000
21
0.059960
31
0.252992
12
0.000000
22
0.088925
32
0.244320
0
3DFACE
8
/control_wheel.r
62
254
10
0.010000
20
0.089528
30
0.245977
11
0.010000
21
0.060367
31
0.254707
12
0.000000
22
0.059960
32
0.252992
0
3DFACE
8
/control_wheel.r
62
254
10
0.010000
20
0.117479
30
0.233920
11
0.000000
21
0.088925
31
0.244320
12
0.000000
22
0.116688
32
0.232344
0
3DFACE
8
/control_wheel.r
62
254
10
0.010000
20
0.117479
30
0.233920
11
0.010000
21
0.089528
31
0.245977
12
0.000000
22
0.088925
32
0.244320
0
3DFACE
8
/control_wheel.r
62
254
10
0.010000
20
0.143841
30
0.218700
11
0.000000
21
0.116688
31
0.232344
12
0.000000
22
0.142872
32
0.217227
0
3DFACE
8
/control_wheel.r
62
254
10
0.010000
20
0.143841
30
0.218700
11
0.010000
21
0.117479
31
0.233920
12
0.000000
22
0.116688
32
0.232344
0
3DFACE
8
/control_wheel.r
62
254
10
0.010000
20
0.168258
30
0.200522
11
0.000000
21
0.142872
31
0.217227
12
0.000000
22
0.167125
32
0.199172
0
3DFACE
8
/control_wheel.r
62
254
10
0.010000
20
0.168258
30
0.200522
11
0.010000
21
0.143841
31
0.218700
12
0.000000
22
0.142872
32
0.217227
0
3DFACE
8
/control_wheel.r
62
254
10
0.010000
20
0.190400
30
0.179633
11
0.000000
21
0.167125
31
0.199172
12
0.000000
22
0.189117
32
0.178423
0
3DFACE
8
/control_wheel.r
62
254
10
0.010000
20
0.190400
30
0.179633
11
0.010000
21
0.168258
31
0.200522
12
0.000000
22
0.167125
32
0.199172
0
3DFACE
8
/control_wheel.r
62
254
10
0.010000
20
0.209966
30
0.156314
11
0.000000
21
0.189117
31
0.178423
12
0.000000
22
0.208552
32
0.155261
0
3DFACE
8
/control_wheel.r
62
254
10
0.010000
20
0.209966
30
0.156314
11
0.010000
21
0.190400
31
0.179633
12
0.000000
22
0.189117
32
0.178423
0
3DFACE
8
/control_wheel.r
62
254
10
0.003902
20
0.214965
30
0.146760
11
0.000000
21
0.208552
31
0.155261
12
0.000000
22
0.214369
32
0.146416
0
3DFACE
8
/control_wheel.r
62
254
10
0.010000
20
0.209966
30
0.156314
11
0.003902
21
0.214965
31
0.146760
12
0.010000
22
0.217287
32
0.145184
0
3DFACE
8
/control_wheel.r
62
254
10
0.010000
20
0.209966
30
0.156314
11
0.000000
21
0.208552
31
0.155261
12
0.003902
22
0.214965
32
0.146760
0
3DFACE
8
/control_wheel.r
62
254
10
0.010000
20
0.240355
30
0.103679
11
0.000000
21
0.233985
31
0.112441
12
0.000000
22
0.238736
32
0.102981
0
3DFACE
8
/control_wheel.r
62
254
10
0.003902
20
0.234581
30
0.112785
11
0.010000
21
0.240355
31
0.103679
12
0.010000
22
0.234377
32
0.115584
0
3DFACE
8
/control_wheel.r
62
254
10
0.003902
20
0.234581
30
0.112785
11
0.000000
21
0.233985
31
0.112441
12
0.010000
22
0.240355
32
0.103679
0
3DFACE
8
/control_wheel.r
62
254
10
0.010000
20
0.250766
30
0.075075
11
0.000000
21
0.238736
31
0.102981
12
0.000000
22
0.249077
32
0.074569
0
3DFACE
8
/control_wheel.r
62
254
10
0.010000
20
0.250766
30
0.075075
11
0.010000
21
0.240355
31
0.103679
12
0.000000
22
0.238736
32
0.102981
0
3DFACE
8
/control_wheel.r
62
254
10
0.010000
20
0.257786
30
0.045455
11
0.000000
21
0.249077
31
0.074569
12
0.000000
22
0.256050
32
0.045149
0
3DFACE
8
/control_wheel.r
62
254
10
0.010000
20
0.257786
30
0.045455
11
0.010000
21
0.250766
31
0.075075
12
0.000000
22
0.249077
32
0.074569
0
3DFACE
8
/control_wheel.r
62
254
10
0.010000
20
0.261320
30
0.015220
11
0.000000
21
0.256050
31
0.045149
12
0.000000
22
0.259560
32
0.015118
0
3DFACE
8
/control_wheel.r
62
254
10
0.010000
20
0.261320
30
0.015220
11
0.010000
21
0.257786
31
0.045455
12
0.000000
22
0.256050
32
0.045149
0
3DFACE
8
/control_wheel.r
62
254
10
0.010000
20
0.261320
30
-0.015220
11
0.000000
21
0.259560
31
0.015118
12
0.000000
22
0.259560
32
-0.015118
0
3DFACE
8
/control_wheel.r
62
254
10
0.010000
20
0.261320
30
-0.015220
11
0.010000
21
0.261320
31
0.015220
12
0.000000
22
0.259560
32
0.015118
0
3DFACE
8
/control_wheel.r
62
254
10
0.010000
20
0.257786
30
-0.045455
11
0.000000
21
0.259560
31
-0.015118
12
0.000000
22
0.256050
32
-0.045149
0
3DFACE
8
/control_wheel.r
62
254
10
0.010000
20
0.257786
30
-0.045455
11
0.010000
21
0.261320
31
-0.015220
12
0.000000
22
0.259560
32
-0.015118
0
3DFACE
8
/control_wheel.r
62
254
10
0.010000
20
0.250766
30
-0.075075
11
0.000000
21
0.256050
31
-0.045149
12
0.000000
22
0.249077
32
-0.074569
0
3DFACE
8
/control_wheel.r
62
254
10
0.010000
20
0.250766
30
-0.075075
11
0.010000
21
0.257786
31
-0.045455
12
0.000000
22
0.256050
32
-0.045149
0
3DFACE
8
/control_wheel.r
62
254
10
0.010000
20
0.240355
30
-0.103679
11
0.000000
21
0.249077
31
-0.074569
12
0.000000
22
0.238736
32
-0.102981
0
3DFACE
8
/control_wheel.r
62
254
10
0.010000
20
0.240355
30
-0.103679
11
0.010000
21
0.250766
31
-0.075075
12
0.000000
22
0.249077
32
-0.074569
0
3DFACE
8
/control_wheel.r
62
254
10
0.003902
20
0.234581
30
-0.112785
11
0.000000
21
0.238736
31
-0.102981
12
0.000000
22
0.233985
32
-0.112441
0
3DFACE
8
/control_wheel.r
62
254
10
0.010000
20
0.240355
30
-0.103679
11
0.003902
21
0.234581
31
-0.112785
12
0.010000
22
0.234377
32
-0.115584
0
3DFACE
8
/control_wheel.r
62
254
10
0.010000
20
0.240355
30
-0.103679
11
0.000000
21
0.238736
31
-0.102981
12
0.003902
22
0.234581
32
-0.112785
0
3DFACE
8
/control_wheel.r
62
254
10
0.010000
20
0.209966
30
-0.156314
11
0.000000
21
0.214369
31
-0.146416
12
0.000000
22
0.208552
32
-0.155261
0
3DFACE
8
/control_wheel.r
62
254
10
0.003902
20
0.214965
30
-0.146760
11
0.010000
21
0.209966
31
-0.156314
12
0.010000
22
0.217287
32
-0.145184
0
3DFACE
8
/control_wheel.r
62
254
10
0.003902
20
0.214965
30
-0.146760
11
0.000000
21
0.214369
31
-0.146416
12
0.010000
22
0.209966
32
-0.156314
0
3DFACE
8
/control_wheel.r
62
254
10
0.010000
20
0.190400
30
-0.179633
11
0.000000
21
0.208552
31
-0.155261
12
0.000000
22
0.189117
32
-0.178423
0
3DFACE
8
/control_wheel.r
62
254
10
0.010000
20
0.190400
30
-0.179633
11
0.010000
21
0.209966
31
-0.156314
12
0.000000
22
0.208552
32
-0.155261
0
3DFACE
8
/control_wheel.r
62
254
10
0.010000
20
0.168258
30
-0.200522
11
0.000000
21
0.189117
31
-0.178423
12
0.000000
22
0.167125
32
-0.199172
0
3DFACE
8
/control_wheel.r
62
254
10
0.010000
20
0.168258
30
-0.200522
11
0.010000
21
0.190400
31
-0.179633
12
0.000000
22
0.189117
32
-0.178423
0
3DFACE
8
/control_wheel.r
62
254
10
0.010000
20
0.143841
30
-0.218700
11
0.000000
21
0.167125
31
-0.199172
12
0.000000
22
0.142872
32
-0.217227
0
3DFACE
8
/control_wheel.r
62
254
10
0.010000
20
0.143841
30
-0.218700
11
0.010000
21
0.168258
31
-0.200522
12
0.000000
22
0.167125
32
-0.199172
0
3DFACE
8
/control_wheel.r
62
254
10
0.010000
20
0.117479
30
-0.233920
11
0.000000
21
0.142872
31
-0.217227
12
0.000000
22
0.116688
32
-0.232344
0
3DFACE
8
/control_wheel.r
62
254
10
0.010000
20
0.117479
30
-0.233920
11
0.010000
21
0.143841
31
-0.218700
12
0.000000
22
0.142872
32
-0.217227
0
3DFACE
8
/control_wheel.r
62
254
10
0.010000
20
0.089528
30
-0.245977
11
0.000000
21
0.116688
31
-0.232344
12
0.000000
22
0.088925
32
-0.244320
0
3DFACE
8
/control_wheel.r
62
254
10
0.010000
20
0.089528
30
-0.245977
11
0.010000
21
0.117479
31
-0.233920
12
0.000000
22
0.116688
32
-0.232344
0
3DFACE
8
/control_wheel.r
62
254
10
0.010000
20
0.060367
30
-0.254707
11
0.000000
21
0.088925
31
-0.244320
12
0.000000
22
0.059960
32
-0.252992
0
3DFACE
8
/control_wheel.r
62
254
10
0.010000
20
0.060367
30
-0.254707
11
0.010000
21
0.089528
31
-0.245977
12
0.000000
22
0.088925
32
-0.244320
0
3DFACE
8
/control_wheel.r
62
254
10
0.010000
20
0.030389
30
-0.259993
11
0.000000
21
0.059960
31
-0.252992
12
0.000000
22
0.030184
32
-0.258242
0
3DFACE
8
/control_wheel.r
62
254
10
0.010000
20
0.030389
30
-0.259993
11
0.010000
21
0.060367
31
-0.254707
12
0.000000
22
0.059960
32
-0.252992
0
3DFACE
8
/control_wheel.r
62
254
10
0.010000
20
0.017090
30
-0.260768
11
0.010000
21
0.030389
31
-0.259993
12
0.003902
22
0.019616
32
-0.259546
0
3DFACE
8
/control_wheel.r
62
254
10
0.010000
20
0.030389
30
-0.259993
11
0.000000
21
0.030184
31
-0.258242
12
0.000000
22
0.019616
32
-0.258858
0
3DFACE
8
/control_wheel.r
62
254
10
0.010000
20
0.030389
30
-0.259993
11
0.000000
21
0.019616
31
-0.258858
12
0.003902
22
0.019616
32
-0.259546
0
3DFACE
8
/control_wheel.r
62
254
10
0.010000
20
-0.017090
30
-0.317241
11
0.010000
21
-0.036945
31
-0.316085
12
0.003902
22
-0.019616
32
-0.318170
0
3DFACE
8
/control_wheel.r
62
254
10
0.010000
20
-0.036945
30
-0.316085
11
0.000000
21
-0.037150
31
-0.317836
12
0.000000
22
-0.019616
32
-0.318858
0
3DFACE
8
/control_wheel.r
62
254
10
0.010000
20
-0.036945
30
-0.316085
11
0.000000
21
-0.019616
31
-0.318858
12
0.003902
22
-0.019616
32
-0.318170
0
3DFACE
8
/control_wheel.r
62
254
10
0.000000
20
-0.073797
30
-0.311374
11
0.010000
21
-0.036945
31
-0.316085
12
0.010000
22
-0.073390
32
-0.309659
0
3DFACE
8
/control_wheel.r
62
254
10
0.000000
20
-0.073797
30
-0.311374
11
0.000000
21
-0.037150
31
-0.317836
12
0.010000
22
-0.036945
32
-0.316085
0
3DFACE
8
/control_wheel.r
62
254
10
0.010000
20
-0.073390
30
-0.309659
11
0.000000
21
-0.109446
31
-0.300702
12
0.000000
22
-0.073797
32
-0.311374
0
3DFACE
8
/control_wheel.r
62
254
10
0.010000
20
-0.073390
30
-0.309659
11
0.010000
21
-0.108843
31
-0.299045
12
0.000000
22
-0.109446
32
-0.300702
0
3DFACE
8
/control_wheel.r
62
254
10
0.010000
20
-0.108843
30
-0.299045
11
0.000000
21
-0.143616
31
-0.285962
12
0.000000
22
-0.109446
32
-0.300702
0
3DFACE
8
/control_wheel.r
62
254
10
0.010000
20
-0.108843
30
-0.299045
11
0.010000
21
-0.142824
31
-0.284387
12
0.000000
22
-0.143616
32
-0.285962
0
3DFACE
8
/control_wheel.r
62
254
10
0.010000
20
-0.142824
30
-0.284387
11
0.000000
21
-0.175843
31
-0.267356
12
0.000000
22
-0.143616
32
-0.285962
0
3DFACE
8
/control_wheel.r
62
254
10
0.010000
20
-0.142824
30
-0.284387
11
0.010000
21
-0.174874
31
-0.265883
12
0.000000
22
-0.175843
32
-0.267356
0
3DFACE
8
/control_wheel.r
62
254
10
0.010000
20
-0.174874
30
-0.265883
11
0.000000
21
-0.205692
31
-0.245134
12
0.000000
22
-0.175843
32
-0.267356
0
3DFACE
8
/control_wheel.r
62
254
10
0.010000
20
-0.174874
30
-0.265883
11
0.010000
21
-0.204559
31
-0.243783
12
0.000000
22
-0.205692
32
-0.245134
0
3DFACE
8
/control_wheel.r
62
254
10
0.010000
20
-0.204559
30
-0.243783
11
0.000000
21
-0.232760
31
-0.219597
12
0.000000
22
-0.205692
32
-0.245134
0
3DFACE
8
/control_wheel.r
62
254
10
0.010000
20
-0.204559
30
-0.243783
11
0.010000
21
-0.231477
31
-0.218387
12
0.000000
22
-0.232760
32
-0.219597
0
3DFACE
8
/control_wheel.r
62
254
10
0.010000
20
-0.231477
30
-0.218387
11
0.000000
21
-0.256679
31
-0.191091
12
0.000000
22
-0.232760
32
-0.219597
0
3DFACE
8
/control_wheel.r
62
254
10
0.010000
20
-0.231477
30
-0.218387
11
0.010000
21
-0.255265
31
-0.190038
12
0.000000
22
-0.256679
32
-0.191091
0
3DFACE
8
/control_wheel.r
62
254
10
0.010000
20
-0.255265
30
-0.190038
11
0.000000
21
-0.266331
31
-0.176416
12
0.000000
22
-0.256679
32
-0.191091
0
3DFACE
8
/control_wheel.r
62
254
10
0.003902
20
-0.265735
30
-0.176072
11
0.010000
21
-0.255265
31
-0.190038
12
0.010000
22
-0.266194
32
-0.173421
0
3DFACE
8
/control_wheel.r
62
254
10
0.003902
20
-0.265735
30
-0.176072
11
0.000000
21
-0.266331
31
-0.176416
12
0.010000
22
-0.255265
32
-0.190038
0
3DFACE
8
/control_wheel.r
62
254
10
0.003902
20
-0.285351
30
-0.142097
11
0.000000
21
-0.293829
31
-0.126746
12
0.000000
22
-0.285947
32
-0.142441
0
3DFACE
8
/control_wheel.r
62
254
10
0.010000
20
-0.292210
30
-0.126047
11
0.003902
21
-0.285351
31
-0.142097
12
0.010000
22
-0.283284
32
-0.143821
0
3DFACE
8
/control_wheel.r
62
254
10
0.010000
20
-0.292210
30
-0.126047
11
0.000000
21
-0.293829
31
-0.126746
12
0.003902
22
-0.285351
32
-0.142097
0
3DFACE
8
/control_wheel.r
62
254
10
0.010000
20
-0.292210
30
-0.126047
11
0.000000
21
-0.306557
31
-0.091777
12
0.000000
22
-0.293829
32
-0.126746
0
3DFACE
8
/control_wheel.r
62
254
10
0.010000
20
-0.292210
30
-0.126047
11
0.010000
21
-0.304867
31
-0.091271
12
0.000000
22
-0.306557
32
-0.091777
0
3DFACE
8
/control_wheel.r
62
254
10
0.010000
20
-0.304867
30
-0.091271
11
0.000000
21
-0.315138
31
-0.055567
12
0.000000
22
-0.306557
32
-0.091777
0
3DFACE
8
/control_wheel.r
62
254
10
0.010000
20
-0.304867
30
-0.091271
11
0.010000
21
-0.313402
31
-0.055261
12
0.000000
22
-0.315138
32
-0.055567
0
3DFACE
8
/control_wheel.r
62
254
10
0.010000
20
-0.313402
30
-0.055261
11
0.000000
21
-0.319459
31
-0.018606
12
0.000000
22
-0.315138
32
-0.055567
0
3DFACE
8
/control_wheel.r
62
254
10
0.010000
20
-0.313402
30
-0.055261
11
0.010000
21
-0.317698
31
-0.018504
12
0.000000
22
-0.319459
32
-0.018606
0
3DFACE
8
/control_wheel.r
62
254
10
0.010000
20
-0.317698
30
-0.018504
11
0.000000
21
-0.319459
31
0.018606
12
0.000000
22
-0.319459
32
-0.018606
0
3DFACE
8
/control_wheel.r
62
254
10
0.010000
20
-0.317698
30
-0.018504
11
0.010000
21
-0.317698
31
0.018504
12
0.000000
22
-0.319459
32
0.018606
0
3DFACE
8
/control_wheel.r
62
254
10
0.010000
20
-0.317698
30
0.018504
11
0.000000
21
-0.315138
31
0.055567
12
0.000000
22
-0.319459
32
0.018606
0
3DFACE
8
/control_wheel.r
62
254
10
0.010000
20
-0.317698
30
0.018504
11
0.010000
21
-0.313402
31
0.055261
12
0.000000
22
-0.315138
32
0.055567
0
3DFACE
8
/control_wheel.r
62
254
10
0.010000
20
-0.313402
30
0.055261
11
0.000000
21
-0.306557
31
0.091777
12
0.000000
22
-0.315138
32
0.055567
0
3DFACE
8
/control_wheel.r
62
254
10
0.010000
20
-0.313402
30
0.055261
11
0.010000
21
-0.304867
31
0.091271
12
0.000000
22
-0.306557
32
0.091777
0
3DFACE
8
/control_wheel.r
62
254
10
0.010000
20
-0.304867
30
0.091271
11
0.000000
21
-0.293829
31
0.126746
12
0.000000
22
-0.306557
32
0.091777
0
3DFACE
8
/control_wheel.r
62
254
10
0.010000
20
-0.304867
30
0.091271
11
0.010000
21
-0.292210
31
0.126047
12
0.000000
22
-0.293829
32
0.126746
0
3DFACE
8
/control_wheel.r
62
254
10
0.010000
20
-0.292210
30
0.126047
11
0.000000
21
-0.285947
31
0.142441
12
0.000000
22
-0.293829
32
0.126746
0
3DFACE
8
/control_wheel.r
62
254
10
0.003902
20
-0.285351
30
0.142097
11
0.010000
21
-0.292210
31
0.126047
12
0.010000
22
-0.283284
32
0.143821
0
3DFACE
8
/control_wheel.r
62
254
10
0.003902
20
-0.285351
30
0.142097
11
0.000000
21
-0.285947
31
0.142441
12
0.010000
22
-0.292210
32
0.126047
0
3DFACE
8
/control_wheel.r
62
254
10
0.003902
20
-0.265735
30
0.176072
11
0.000000
21
-0.256679
31
0.191091
12
0.000000
22
-0.266331
32
0.176416
0
3DFACE
8
/control_wheel.r
62
254
10
0.010000
20
-0.255265
30
0.190038
11
0.003902
21
-0.265735
31
0.176072
12
0.010000
22
-0.266194
32
0.173421
0
3DFACE
8
/control_wheel.r
62
254
10
0.010000
20
-0.255265
30
0.190038
11
0.000000
21
-0.256679
31
0.191091
12
0.003902
22
-0.265735
32
0.176072
0
3DFACE
8
/control_wheel.r
62
254
10
0.010000
20
-0.255265
30
0.190038
11
0.000000
21
-0.232760
31
0.219597
12
0.000000
22
-0.256679
32
0.191091
0
3DFACE
8
/control_wheel.r
62
254
10
0.010000
20
-0.255265
30
0.190038
11
0.010000
21
-0.231477
31
0.218387
12
0.000000
22
-0.232760
32
0.219597
0
3DFACE
8
/control_wheel.r
62
254
10
0.010000
20
-0.231477
30
0.218387
11
0.000000
21
-0.205692
31
0.245134
12
0.000000
22
-0.232760
32
0.219597
0
3DFACE
8
/control_wheel.r
62
254
10
0.010000
20
-0.231477
30
0.218387
11
0.010000
21
-0.204559
31
0.243783
12
0.000000
22
-0.205692
32
0.245134
0
3DFACE
8
/control_wheel.r
62
254
10
0.010000
20
-0.204559
30
0.243783
11
0.000000
21
-0.175843
31
0.267356
12
0.000000
22
-0.205692
32
0.245134
0
3DFACE
8
/control_wheel.r
62
254
10
0.010000
20
-0.204559
30
0.243783
11
0.010000
21
-0.174874
31
0.265883
12
0.000000
22
-0.175843
32
0.267356
0
3DFACE
8
/control_wheel.r
62
254
10
0.010000
20
-0.174874
30
0.265883
11
0.000000
21
-0.143616
31
0.285962
12
0.000000
22
-0.175843
32
0.267356
0
3DFACE
8
/control_wheel.r
62
254
10
0.010000
20
-0.174874
30
0.265883
11
0.010000
21
-0.142824
31
0.284387
12
0.000000
22
-0.143616
32
0.285962
0
3DFACE
8
/control_wheel.r
62
254
10
0.010000
20
-0.142824
30
0.284387
11
0.000000
21
-0.109446
31
0.300702
12
0.000000
22
-0.143616
32
0.285962
0
3DFACE
8
/control_wheel.r
62
254
10
0.010000
20
-0.142824
30
0.284387
11
0.010000
21
-0.108843
31
0.299045
12
0.000000
22
-0.109446
32
0.300702
0
3DFACE
8
/control_wheel.r
62
254
10
0.010000
20
-0.108843
30
0.299045
11
0.000000
21
-0.073797
31
0.311374
12
0.000000
22
-0.109446
32
0.300702
0
3DFACE
8
/control_wheel.r
62
254
10
0.010000
20
-0.108843
30
0.299045
11
0.010000
21
-0.073390
31
0.309659
12
0.000000
22
-0.073797
32
0.311374
0
3DFACE
8
/control_wheel.r
62
254
10
0.010000
20
-0.073390
30
0.309659
11
0.000000
21
-0.037150
31
0.317836
12
0.000000
22
-0.073797
32
0.311374
0
3DFACE
8
/control_wheel.r
62
254
10
0.010000
20
-0.073390
30
0.309659
11
0.010000
21
-0.036945
31
0.316085
12
0.000000
22
-0.037150
32
0.317836
0
3DFACE
8
/control_wheel.r
62
254
10
0.000000
20
-0.037150
30
0.317836
11
0.003902
21
-0.019616
31
0.318170
12
0.000000
22
-0.019616
32
0.318858
0
3DFACE
8
/control_wheel.r
62
254
10
0.010000
20
-0.036945
30
0.316085
11
0.010000
21
-0.017090
31
0.317241
12
0.003902
22
-0.019616
32
0.318170
0
3DFACE
8
/control_wheel.r
62
254
10
0.000000
20
-0.037150
30
0.317836
11
0.010000
21
-0.036945
31
0.316085
12
0.003902
22
-0.019616
32
0.318170
0
3DFACE
8
/control_wheel.r
62
254
10
0.000000
20
0.019616
30
0.318858
11
0.010000
21
0.036945
31
0.316085
12
0.000000
22
0.037150
32
0.317836
0
3DFACE
8
/control_wheel.r
62
254
10
0.003902
20
0.019616
30
0.318170
11
0.010000
21
0.017090
31
0.317241
12
0.010000
22
0.036945
32
0.316085
0
3DFACE
8
/control_wheel.r
62
254
10
0.000000
20
0.019616
30
0.318858
11
0.003902
21
0.019616
31
0.318170
12
0.010000
22
0.036945
32
0.316085
0
3DFACE
8
/control_wheel.r
62
254
10
0.000000
20
0.037150
30
0.317836
11
0.010000
21
0.073390
31
0.309659
12
0.000000
22
0.073797
32
0.311374
0
3DFACE
8
/control_wheel.r
62
254
10
0.000000
20
0.037150
30
0.317836
11
0.010000
21
0.036945
31
0.316085
12
0.010000
22
0.073390
32
0.309659
0
3DFACE
8
/control_wheel.r
62
254
10
0.000000
20
0.073797
30
0.311374
11
0.010000
21
0.108843
31
0.299045
12
0.000000
22
0.109446
32
0.300702
0
3DFACE
8
/control_wheel.r
62
254
10
0.000000
20
0.073797
30
0.311374
11
0.010000
21
0.073390
31
0.309659
12
0.010000
22
0.108843
32
0.299045
0
3DFACE
8
/control_wheel.r
62
254
10
0.000000
20
0.109446
30
0.300702
11
0.010000
21
0.142824
31
0.284387
12
0.000000
22
0.143616
32
0.285962
0
3DFACE
8
/control_wheel.r
62
254
10
0.000000
20
0.109446
30
0.300702
11
0.010000
21
0.108843
31
0.299045
12
0.010000
22
0.142824
32
0.284387
0
3DFACE
8
/control_wheel.r
62
254
10
0.000000
20
0.143616
30
0.285962
11
0.010000
21
0.174874
31
0.265883
12
0.000000
22
0.175843
32
0.267356
0
3DFACE
8
/control_wheel.r
62
254
10
0.000000
20
0.143616
30
0.285962
11
0.010000
21
0.142824
31
0.284387
12
0.010000
22
0.174874
32
0.265883
0
3DFACE
8
/control_wheel.r
62
254
10
0.000000
20
0.175843
30
0.267356
11
0.010000
21
0.204559
31
0.243783
12
0.000000
22
0.205692
32
0.245134
0
3DFACE
8
/control_wheel.r
62
254
10
0.000000
20
0.175843
30
0.267356
11
0.010000
21
0.174874
31
0.265883
12
0.010000
22
0.204559
32
0.243783
0
3DFACE
8
/control_wheel.r
62
254
10
0.000000
20
0.205692
30
0.245134
11
0.010000
21
0.231477
31
0.218387
12
0.000000
22
0.232760
32
0.219597
0
3DFACE
8
/control_wheel.r
62
254
10
0.000000
20
0.205692
30
0.245134
11
0.010000
21
0.204559
31
0.243783
12
0.010000
22
0.231477
32
0.218387
0
3DFACE
8
/control_wheel.r
62
254
10
0.000000
20
0.256679
30
0.191091
11
0.000000
21
0.232760
31
0.219597
12
0.010000
22
0.255265
32
0.190038
0
3DFACE
8
/control_wheel.r
62
254
10
0.000000
20
0.232760
30
0.219597
11
0.010000
21
0.231477
31
0.218387
12
0.010000
22
0.255265
32
0.190038
0
3DFACE
8
/control_wheel.r
62
254
10
0.000000
20
0.256679
30
0.191091
11
0.003902
21
0.265735
31
0.176072
12
0.000000
22
0.266331
32
0.176416
0
3DFACE
8
/control_wheel.r
62
254
10
0.010000
20
0.266194
30
0.173421
11
0.000000
21
0.256679
31
0.191091
12
0.010000
22
0.255265
32
0.190038
0
3DFACE
8
/control_wheel.r
62
254
10
0.010000
20
0.266194
30
0.173421
11
0.003902
21
0.265735
31
0.176072
12
0.000000
22
0.256679
32
0.191091
0
3DFACE
8
/control_wheel.r
62
254
10
0.000000
20
0.285947
30
0.142441
11
0.010000
21
0.292210
31
0.126047
12
0.000000
22
0.293829
32
0.126746
0
3DFACE
8
/control_wheel.r
62
254
10
0.010000
20
0.292210
30
0.126047
11
0.003902
21
0.285351
31
0.142097
12
0.010000
22
0.283284
32
0.143821
0
3DFACE
8
/control_wheel.r
62
254
10
0.010000
20
0.292210
30
0.126047
11
0.000000
21
0.285947
31
0.142441
12
0.003902
22
0.285351
32
0.142097
0
3DFACE
8
/control_wheel.r
62
254
10
0.000000
20
0.306557
30
0.091777
11
0.000000
21
0.293829
31
0.126746
12
0.010000
22
0.304867
32
0.091271
0
3DFACE
8
/control_wheel.r
62
254
10
0.000000
20
0.293829
30
0.126746
11
0.010000
21
0.292210
31
0.126047
12
0.010000
22
0.304867
32
0.091271
0
3DFACE
8
/control_wheel.r
62
254
10
0.000000
20
0.315138
30
0.055567
11
0.000000
21
0.306557
31
0.091777
12
0.010000
22
0.313402
32
0.055261
0
3DFACE
8
/control_wheel.r
62
254
10
0.000000
20
0.306557
30
0.091777
11
0.010000
21
0.304867
31
0.091271
12
0.010000
22
0.313402
32
0.055261
0
3DFACE
8
/control_wheel.r
62
254
10
0.000000
20
0.319459
30
0.018606
11
0.000000
21
0.315138
31
0.055567
12
0.010000
22
0.317698
32
0.018504
0
3DFACE
8
/control_wheel.r
62
254
10
0.000000
20
0.315138
30
0.055567
11
0.010000
21
0.313402
31
0.055261
12
0.010000
22
0.317698
32
0.018504
0
3DFACE
8
/control_wheel.r
62
254
10
0.000000
20
0.319459
30
-0.018606
11
0.000000
21
0.319459
31
0.018606
12
0.010000
22
0.317698
32
-0.018504
0
3DFACE
8
/control_wheel.r
62
254
10
0.000000
20
0.319459
30
0.018606
11
0.010000
21
0.317698
31
0.018504
12
0.010000
22
0.317698
32
-0.018504
0
3DFACE
8
/control_wheel.r
62
254
10
0.000000
20
0.315138
30
-0.055567
11
0.000000
21
0.319459
31
-0.018606
12
0.010000
22
0.313402
32
-0.055261
0
3DFACE
8
/control_wheel.r
62
254
10
0.000000
20
0.319459
30
-0.018606
11
0.010000
21
0.317698
31
-0.018504
12
0.010000
22
0.313402
32
-0.055261
0
3DFACE
8
/control_wheel.r
62
254
10
0.000000
20
0.306557
30
-0.091777
11
0.000000
21
0.315138
31
-0.055567
12
0.010000
22
0.304867
32
-0.091271
0
3DFACE
8
/control_wheel.r
62
254
10
0.000000
20
0.315138
30
-0.055567
11
0.010000
21
0.313402
31
-0.055261
12
0.010000
22
0.304867
32
-0.091271
0
3DFACE
8
/control_wheel.r
62
254
10
0.000000
20
0.293829
30
-0.126746
11
0.000000
21
0.306557
31
-0.091777
12
0.010000
22
0.292210
32
-0.126047
0
3DFACE
8
/control_wheel.r
62
254
10
0.000000
20
0.306557
30
-0.091777
11
0.010000
21
0.304867
31
-0.091271
12
0.010000
22
0.292210
32
-0.126047
0
3DFACE
8
/control_wheel.r
62
254
10
0.000000
20
0.293829
30
-0.126746
11
0.003902
21
0.285351
31
-0.142097
12
0.000000
22
0.285947
32
-0.142441
0
3DFACE
8
/control_wheel.r
62
254
10
0.010000
20
0.283284
30
-0.143821
11
0.000000
21
0.293829
31
-0.126746
12
0.010000
22
0.292210
32
-0.126047
0
3DFACE
8
/control_wheel.r
62
254
10
0.010000
20
0.283284
30
-0.143821
11
0.003902
21
0.285351
31
-0.142097
12
0.000000
22
0.293829
32
-0.126746
0
3DFACE
8
/control_wheel.r
62
254
10
0.000000
20
0.266331
30
-0.176416
11
0.010000
21
0.255265
31
-0.190038
12
0.000000
22
0.256679
32
-0.191091
0
3DFACE
8
/control_wheel.r
62
254
10
0.010000
20
0.255265
30
-0.190038
11
0.003902
21
0.265735
31
-0.176072
12
0.010000
22
0.266194
32
-0.173421
0
3DFACE
8
/control_wheel.r
62
254
10
0.010000
20
0.255265
30
-0.190038
11
0.000000
21
0.266331
31
-0.176416
12
0.003902
22
0.265735
32
-0.176072
0
3DFACE
8
/control_wheel.r
62
254
10
0.000000
20
0.232760
30
-0.219597
11
0.000000
21
0.256679
31
-0.191091
12
0.010000
22
0.231477
32
-0.218387
0
3DFACE
8
/control_wheel.r
62
254
10
0.000000
20
0.256679
30
-0.191091
11
0.010000
21
0.255265
31
-0.190038
12
0.010000
22
0.231477
32
-0.218387
0
3DFACE
8
/control_wheel.r
62
254
10
0.000000
20
0.205692
30
-0.245134
11
0.000000
21
0.232760
31
-0.219597
12
0.010000
22
0.204559
32
-0.243783
0
3DFACE
8
/control_wheel.r
62
254
10
0.000000
20
0.232760
30
-0.219597
11
0.010000
21
0.231477
31
-0.218387
12
0.010000
22
0.204559
32
-0.243783
0
3DFACE
8
/control_wheel.r
62
254
10
0.000000
20
0.175843
30
-0.267356
11
0.000000
21
0.205692
31
-0.245134
12
0.010000
22
0.174874
32
-0.265883
0
3DFACE
8
/control_wheel.r
62
254
10
0.000000
20
0.205692
30
-0.245134
11
0.010000
21
0.204559
31
-0.243783
12
0.010000
22
0.174874
32
-0.265883
0
3DFACE
8
/control_wheel.r
62
254
10
0.000000
20
0.143616
30
-0.285962
11
0.000000
21
0.175843
31
-0.267356
12
0.010000
22
0.142824
32
-0.284387
0
3DFACE
8
/control_wheel.r
62
254
10
0.000000
20
0.175843
30
-0.267356
11
0.010000
21
0.174874
31
-0.265883
12
0.010000
22
0.142824
32
-0.284387
0
3DFACE
8
/control_wheel.r
62
254
10
0.000000
20
0.109446
30
-0.300702
11
0.000000
21
0.143616
31
-0.285962
12
0.010000
22
0.108843
32
-0.299045
0
3DFACE
8
/control_wheel.r
62
254
10
0.000000
20
0.143616
30
-0.285962
11
0.010000
21
0.142824
31
-0.284387
12
0.010000
22
0.108843
32
-0.299045
0
3DFACE
8
/control_wheel.r
62
254
10
0.000000
20
0.073797
30
-0.311374
11
0.000000
21
0.109446
31
-0.300702
12
0.010000
22
0.073390
32
-0.309659
0
3DFACE
8
/control_wheel.r
62
254
10
0.000000
20
0.109446
30
-0.300702
11
0.010000
21
0.108843
31
-0.299045
12
0.010000
22
0.073390
32
-0.309659
0
3DFACE
8
/control_wheel.r
62
254
10
0.010000
20
0.036945
30
-0.316085
11
0.000000
21
0.073797
31
-0.311374
12
0.010000
22
0.073390
32
-0.309659
0
3DFACE
8
/control_wheel.r
62
254
10
0.010000
20
0.036945
30
-0.316085
11
0.000000
21
0.037150
31
-0.317836
12
0.000000
22
0.073797
32
-0.311374
0
3DFACE
8
/control_wheel.r
62
254
10
0.010000
20
0.017090
30
-0.317241
11
0.003902
21
0.019616
31
-0.318170
12
0.010000
22
0.036945
32
-0.316085
0
3DFACE
8
/control_wheel.r
62
254
10
0.000000
20
0.019616
30
-0.318858
11
0.000000
21
0.037150
31
-0.317836
12
0.010000
22
0.036945
32
-0.316085
0
3DFACE
8
/control_wheel.r
62
254
10
0.003902
20
0.019616
30
-0.318170
11
0.000000
21
0.019616
31
-0.318858
12
0.010000
22
0.036945
32
-0.316085
0
ENDSEC
0
EOF
