0
SECTION
2
HEADER
999
SHELL=/bin/bash3
0
ENDSEC
0
SECTION
2
TABLES
0
TABLE
2
LAYER
0
LAYER
2
/rudders.g/rudder_lower.r
62
253
0
LAYER
2
/rudders.g/rudder_upper.r
62
253
0
ENDTAB
0
ENDSEC
0
SECTION
2
ENTITIES
0
3DFACE
8
/rudders.g/rudder_lower.r
62
253
10
1.331250
20
0.590625
30
-7.763325
11
1.445161
21
0.611129
31
-13.325806
12
1.331250
22
0.590625
32
-15.003409
0
3DFACE
8
/rudders.g/rudder_lower.r
62
253
10
1.331250
20
0.590625
30
-7.763325
11
1.800000
21
0.675000
31
-7.660261
12
1.445161
22
0.611129
32
-13.325806
0
3DFACE
8
/rudders.g/rudder_lower.r
62
253
10
0.925000
20
0.506250
30
-7.852647
11
1.331250
21
0.590625
31
-15.003409
12
0.925000
22
0.506250
32
-21.600000
0
3DFACE
8
/rudders.g/rudder_lower.r
62
253
10
1.331250
20
0.590625
30
-15.003409
11
0.943056
21
0.510000
31
-21.600000
12
0.925000
22
0.506250
32
-21.600000
0
3DFACE
8
/rudders.g/rudder_lower.r
62
253
10
0.925000
20
0.506250
30
-7.852647
11
1.331250
21
0.590625
31
-7.763325
12
1.331250
22
0.590625
32
-15.003409
0
3DFACE
8
/rudders.g/rudder_lower.r
62
253
10
0.925000
20
0.506250
30
-7.852647
11
0.581250
21
0.421875
31
-21.600000
12
0.581250
22
0.421875
32
-7.928227
0
3DFACE
8
/rudders.g/rudder_lower.r
62
253
10
0.925000
20
0.506250
30
-7.852647
11
0.925000
21
0.506250
31
-21.600000
12
0.581250
22
0.421875
32
-21.600000
0
3DFACE
8
/rudders.g/rudder_lower.r
62
253
10
0.581250
20
0.421875
30
-7.928227
11
0.300000
21
0.337500
31
-21.600000
12
0.300000
22
0.337500
32
-7.990065
0
3DFACE
8
/rudders.g/rudder_lower.r
62
253
10
0.581250
20
0.421875
30
-7.928227
11
0.581250
21
0.421875
31
-21.600000
12
0.300000
22
0.337500
32
-21.600000
0
3DFACE
8
/rudders.g/rudder_lower.r
62
253
10
0.300000
20
0.337500
30
-7.990065
11
0.081250
21
0.253125
31
-21.600000
12
0.081250
22
0.253125
32
-8.038162
0
3DFACE
8
/rudders.g/rudder_lower.r
62
253
10
0.300000
20
0.337500
30
-7.990065
11
0.300000
21
0.337500
31
-21.600000
12
0.081250
22
0.253125
32
-21.600000
0
3DFACE
8
/rudders.g/rudder_lower.r
62
253
10
0.081250
20
0.253125
30
-8.038162
11
-0.075000
21
0.168750
31
-21.600000
12
-0.075000
22
0.168750
32
-8.072516
0
3DFACE
8
/rudders.g/rudder_lower.r
62
253
10
0.081250
20
0.253125
30
-8.038162
11
0.081250
21
0.253125
31
-21.600000
12
-0.075000
22
0.168750
32
-21.600000
0
3DFACE
8
/rudders.g/rudder_lower.r
62
253
10
-0.075000
20
0.168750
30
-8.072516
11
-0.129688
21
0.126562
31
-21.600000
12
-0.129688
22
0.126562
32
-8.084540
0
3DFACE
8
/rudders.g/rudder_lower.r
62
253
10
-0.075000
20
0.168750
30
-8.072516
11
-0.075000
21
0.168750
31
-21.600000
12
-0.129688
22
0.126562
32
-21.600000
0
3DFACE
8
/rudders.g/rudder_lower.r
62
253
10
-0.129688
20
0.126562
30
-8.084540
11
-0.168750
21
0.084375
31
-21.600000
12
-0.168750
22
0.084375
32
-8.093129
0
3DFACE
8
/rudders.g/rudder_lower.r
62
253
10
-0.129688
20
0.126562
30
-8.084540
11
-0.129688
21
0.126562
31
-21.600000
12
-0.168750
22
0.084375
32
-21.600000
0
3DFACE
8
/rudders.g/rudder_lower.r
62
253
10
-0.168750
20
0.084375
30
-8.093129
11
-0.192188
21
0.042188
31
-21.600000
12
-0.192188
22
0.042188
32
-8.098282
0
3DFACE
8
/rudders.g/rudder_lower.r
62
253
10
-0.168750
20
0.084375
30
-8.093129
11
-0.168750
21
0.084375
31
-21.600000
12
-0.192188
22
0.042188
32
-21.600000
0
3DFACE
8
/rudders.g/rudder_lower.r
62
253
10
-0.192188
20
0.042188
30
-8.098282
11
-0.200000
21
0.000000
31
-21.600000
12
-0.200000
22
0.000000
32
-8.100000
0
3DFACE
8
/rudders.g/rudder_lower.r
62
253
10
-0.192188
20
0.042188
30
-8.098282
11
-0.192188
21
0.042188
31
-21.600000
12
-0.200000
22
0.000000
32
-21.600000
0
3DFACE
8
/rudders.g/rudder_lower.r
62
253
10
-0.200000
20
0.000000
30
-8.100000
11
-0.200000
21
0.000000
31
-21.600000
12
-0.192188
22
-0.042188
32
-8.098282
0
3DFACE
8
/rudders.g/rudder_lower.r
62
253
10
-0.200000
20
0.000000
30
-21.600000
11
-0.192188
21
-0.042188
31
-21.600000
12
-0.192188
22
-0.042188
32
-8.098282
0
3DFACE
8
/rudders.g/rudder_lower.r
62
253
10
-0.192188
20
-0.042188
30
-8.098282
11
-0.192188
21
-0.042188
31
-21.600000
12
-0.168750
22
-0.084375
32
-8.093129
0
3DFACE
8
/rudders.g/rudder_lower.r
62
253
10
-0.192188
20
-0.042188
30
-21.600000
11
-0.168750
21
-0.084375
31
-21.600000
12
-0.168750
22
-0.084375
32
-8.093129
0
3DFACE
8
/rudders.g/rudder_lower.r
62
253
10
-0.168750
20
-0.084375
30
-8.093129
11
-0.168750
21
-0.084375
31
-21.600000
12
-0.129688
22
-0.126562
32
-8.084540
0
3DFACE
8
/rudders.g/rudder_lower.r
62
253
10
-0.168750
20
-0.084375
30
-21.600000
11
-0.129688
21
-0.126562
31
-21.600000
12
-0.129688
22
-0.126562
32
-8.084540
0
3DFACE
8
/rudders.g/rudder_lower.r
62
253
10
-0.129688
20
-0.126562
30
-21.600000
11
-0.075000
21
-0.168750
31
-8.072516
12
-0.129688
22
-0.126562
32
-8.084540
0
3DFACE
8
/rudders.g/rudder_lower.r
62
253
10
-0.129688
20
-0.126562
30
-21.600000
11
-0.075000
21
-0.168750
31
-21.600000
12
-0.075000
22
-0.168750
32
-8.072516
0
3DFACE
8
/rudders.g/rudder_lower.r
62
253
10
-0.075000
20
-0.168750
30
-21.600000
11
0.081250
21
-0.253125
31
-8.038162
12
-0.075000
22
-0.168750
32
-8.072516
0
3DFACE
8
/rudders.g/rudder_lower.r
62
253
10
-0.075000
20
-0.168750
30
-21.600000
11
0.081250
21
-0.253125
31
-21.600000
12
0.081250
22
-0.253125
32
-8.038162
0
3DFACE
8
/rudders.g/rudder_lower.r
62
253
10
0.081250
20
-0.253125
30
-21.600000
11
0.300000
21
-0.337500
31
-7.990065
12
0.081250
22
-0.253125
32
-8.038162
0
3DFACE
8
/rudders.g/rudder_lower.r
62
253
10
0.081250
20
-0.253125
30
-21.600000
11
0.300000
21
-0.337500
31
-21.600000
12
0.300000
22
-0.337500
32
-7.990065
0
3DFACE
8
/rudders.g/rudder_lower.r
62
253
10
0.300000
20
-0.337500
30
-21.600000
11
0.581250
21
-0.421875
31
-7.928227
12
0.300000
22
-0.337500
32
-7.990065
0
3DFACE
8
/rudders.g/rudder_lower.r
62
253
10
0.300000
20
-0.337500
30
-21.600000
11
0.581250
21
-0.421875
31
-21.600000
12
0.581250
22
-0.421875
32
-7.928227
0
3DFACE
8
/rudders.g/rudder_lower.r
62
253
10
0.581250
20
-0.421875
30
-21.600000
11
0.925000
21
-0.506250
31
-7.852647
12
0.581250
22
-0.421875
32
-7.928227
0
3DFACE
8
/rudders.g/rudder_lower.r
62
253
10
0.581250
20
-0.421875
30
-21.600000
11
0.925000
21
-0.506250
31
-21.600000
12
0.925000
22
-0.506250
32
-7.852647
0
3DFACE
8
/rudders.g/rudder_lower.r
62
253
10
0.925000
20
-0.506250
30
-21.600000
11
1.331250
21
-0.590625
31
-14.666734
12
0.925000
22
-0.506250
32
-7.852647
0
3DFACE
8
/rudders.g/rudder_lower.r
62
253
10
1.331250
20
-0.590625
30
-14.666734
11
1.331250
21
-0.590625
31
-7.763325
12
0.925000
22
-0.506250
32
-7.852647
0
3DFACE
8
/rudders.g/rudder_lower.r
62
253
10
0.925000
20
-0.506250
30
-21.600000
11
0.943056
21
-0.510000
31
-21.600000
12
1.112934
22
-0.545282
32
-18.424582
0
3DFACE
8
/rudders.g/rudder_lower.r
62
253
10
0.925000
20
-0.506250
30
-21.600000
11
1.112934
21
-0.545282
31
-18.424582
12
1.331250
22
-0.590625
32
-14.666734
0
3DFACE
8
/rudders.g/rudder_lower.r
62
253
10
1.800000
20
-0.675000
30
-7.660261
11
1.331250
21
-0.590625
31
-7.763325
12
1.331250
22
-0.590625
32
-14.666734
0
3DFACE
8
/rudders.g/rudder_lower.r
62
253
10
1.800000
20
-0.675000
30
-7.660261
11
1.800000
21
0.672465
31
-7.882011
12
1.800000
22
0.675000
32
-7.660261
0
3DFACE
8
/rudders.g/rudder_lower.r
62
253
10
1.800000
20
0.508038
30
-21.600000
11
1.800000
21
0.510000
31
-21.600000
12
1.800000
22
0.536788
32
-19.408251
0
3DFACE
8
/rudders.g/rudder_lower.r
62
253
10
1.800000
20
-0.520865
30
-20.622168
11
1.800000
21
-0.510000
31
-21.600000
12
1.800000
22
-0.508038
32
-21.600000
0
3DFACE
8
/rudders.g/rudder_lower.r
62
253
10
1.800000
20
-0.675000
30
-7.660261
11
1.800000
21
-0.672290
31
-7.882011
12
1.800000
22
0.672465
32
-7.882011
0
3DFACE
8
/rudders.g/rudder_lower.r
62
253
10
4.050000
20
0.045342
30
-21.600000
11
4.574485
21
-0.042187
31
-17.479043
12
4.050000
22
-0.045342
32
-21.600000
0
3DFACE
8
/rudders.g/rudder_lower.r
62
253
10
4.050000
20
0.045342
30
-21.600000
11
4.574485
21
0.042187
31
-17.479043
12
5.933556
22
0.017663
32
-6.800630
0
3DFACE
8
/rudders.g/rudder_lower.r
62
253
10
4.050000
20
0.045342
30
-21.600000
11
5.933556
21
0.017663
31
-6.800630
12
5.933556
22
-0.017663
32
-6.800630
0
3DFACE
8
/rudders.g/rudder_lower.r
62
253
10
4.050000
20
0.045342
30
-21.600000
11
5.933556
21
-0.017663
31
-6.800630
12
4.574485
22
-0.042187
32
-17.479043
0
3DFACE
8
/rudders.g/rudder_lower.r
62
253
10
0.943056
20
-0.510000
30
-21.600000
11
1.800000
21
-0.520865
31
-20.622168
12
1.112934
22
-0.545282
32
-18.424582
0
3DFACE
8
/rudders.g/rudder_lower.r
62
253
10
1.800000
20
-0.520865
30
-20.622168
11
1.878279
21
-0.565850
31
-16.573544
12
1.112934
22
-0.545282
32
-18.424582
0
3DFACE
8
/rudders.g/rudder_lower.r
62
253
10
0.943056
20
-0.510000
30
-21.600000
11
1.800000
21
-0.510000
31
-21.600000
12
1.800000
22
-0.520865
32
-20.622168
0
3DFACE
8
/rudders.g/rudder_lower.r
62
253
10
1.331250
20
0.590625
30
-15.003409
11
1.800000
21
0.510000
31
-21.600000
12
0.943056
22
0.510000
32
-21.600000
0
3DFACE
8
/rudders.g/rudder_lower.r
62
253
10
1.833788
20
0.596041
30
-14.560267
11
1.331250
21
0.590625
31
-15.003409
12
1.445161
22
0.611129
32
-13.325806
0
3DFACE
8
/rudders.g/rudder_lower.r
62
253
10
1.833788
20
0.596041
30
-14.560267
11
1.837996
21
0.590625
31
-15.003426
12
1.331250
22
0.590625
32
-15.003409
0
3DFACE
8
/rudders.g/rudder_lower.r
62
253
10
1.331250
20
0.590625
30
-15.003409
11
1.837996
21
0.590625
31
-15.003426
12
1.800000
22
0.536788
32
-19.408251
0
3DFACE
8
/rudders.g/rudder_lower.r
62
253
10
1.331250
20
0.590625
30
-15.003409
11
1.800000
21
0.536788
31
-19.408251
12
1.800000
22
0.510000
32
-21.600000
0
3DFACE
8
/rudders.g/rudder_lower.r
62
253
10
1.828835
20
-0.675000
30
-7.653923
11
2.793958
21
0.590625
31
-7.441719
12
1.828835
22
0.675000
32
-7.653924
0
3DFACE
8
/rudders.g/rudder_lower.r
62
253
10
1.800000
20
0.675000
30
-7.660261
11
1.331250
21
-0.590625
31
-7.763325
12
1.800000
22
-0.675000
32
-7.660261
0
3DFACE
8
/rudders.g/rudder_lower.r
62
253
10
1.828835
20
-0.675000
30
-7.653923
11
2.793958
21
-0.590625
31
-7.441719
12
3.630397
22
-0.506250
32
-7.257812
0
3DFACE
8
/rudders.g/rudder_lower.r
62
253
10
1.828835
20
-0.675000
30
-7.653923
11
3.630397
21
-0.506250
31
-7.257812
12
4.338153
22
-0.421875
32
-7.102198
0
3DFACE
8
/rudders.g/rudder_lower.r
62
253
10
1.828835
20
-0.675000
30
-7.653923
11
4.338153
21
-0.421875
31
-7.102198
12
4.917227
22
-0.337500
32
-6.974877
0
3DFACE
8
/rudders.g/rudder_lower.r
62
253
10
1.828835
20
-0.675000
30
-7.653923
11
4.917227
21
-0.337500
31
-6.974877
12
5.367617
22
-0.253125
32
-6.875850
0
3DFACE
8
/rudders.g/rudder_lower.r
62
253
10
1.828835
20
-0.675000
30
-7.653923
11
5.367617
21
-0.253125
31
-6.875850
12
5.689324
22
-0.168750
32
-6.805116
0
3DFACE
8
/rudders.g/rudder_lower.r
62
253
10
1.828835
20
-0.675000
30
-7.653923
11
5.689324
21
-0.168750
31
-6.805116
12
5.791789
22
-0.130359
32
-6.782587
0
3DFACE
8
/rudders.g/rudder_lower.r
62
253
10
1.828835
20
-0.675000
30
-7.653923
11
5.791789
21
-0.130359
31
-6.782587
12
5.791789
22
0.130359
32
-6.782587
0
3DFACE
8
/rudders.g/rudder_lower.r
62
253
10
1.828835
20
-0.675000
30
-7.653923
11
5.791789
21
0.130359
31
-6.782587
12
5.689324
22
0.168750
32
-6.805116
0
3DFACE
8
/rudders.g/rudder_lower.r
62
253
10
1.828835
20
-0.675000
30
-7.653923
11
5.689324
21
0.168750
31
-6.805116
12
5.367617
22
0.253125
32
-6.875850
0
3DFACE
8
/rudders.g/rudder_lower.r
62
253
10
1.828835
20
-0.675000
30
-7.653923
11
5.367617
21
0.253125
31
-6.875850
12
4.917227
22
0.337500
32
-6.974877
0
3DFACE
8
/rudders.g/rudder_lower.r
62
253
10
1.828835
20
-0.675000
30
-7.653923
11
4.917227
21
0.337500
31
-6.974877
12
4.338153
22
0.421875
32
-7.102198
0
3DFACE
8
/rudders.g/rudder_lower.r
62
253
10
1.828835
20
-0.675000
30
-7.653923
11
4.338153
21
0.421875
31
-7.102198
12
3.630397
22
0.506250
32
-7.257812
0
3DFACE
8
/rudders.g/rudder_lower.r
62
253
10
1.828835
20
-0.675000
30
-7.653923
11
3.630397
21
0.506250
31
-7.257812
12
2.793958
22
0.590625
32
-7.441719
0
3DFACE
8
/rudders.g/rudder_lower.r
62
253
10
1.800000
20
0.675000
30
-7.660261
11
1.331250
21
0.590625
31
-7.763325
12
0.925000
22
0.506250
32
-7.852647
0
3DFACE
8
/rudders.g/rudder_lower.r
62
253
10
1.800000
20
0.675000
30
-7.660261
11
0.925000
21
0.506250
31
-7.852647
12
0.581250
22
0.421875
32
-7.928227
0
3DFACE
8
/rudders.g/rudder_lower.r
62
253
10
1.800000
20
0.675000
30
-7.660261
11
0.581250
21
0.421875
31
-7.928227
12
0.300000
22
0.337500
32
-7.990065
0
3DFACE
8
/rudders.g/rudder_lower.r
62
253
10
1.800000
20
0.675000
30
-7.660261
11
0.300000
21
0.337500
31
-7.990065
12
0.081250
22
0.253125
32
-8.038162
0
3DFACE
8
/rudders.g/rudder_lower.r
62
253
10
1.800000
20
0.675000
30
-7.660261
11
0.081250
21
0.253125
31
-8.038162
12
-0.075000
22
0.168750
32
-8.072516
0
3DFACE
8
/rudders.g/rudder_lower.r
62
253
10
1.800000
20
0.675000
30
-7.660261
11
-0.075000
21
0.168750
31
-8.072516
12
-0.129688
22
0.126562
32
-8.084540
0
3DFACE
8
/rudders.g/rudder_lower.r
62
253
10
1.800000
20
0.675000
30
-7.660261
11
-0.129688
21
0.126562
31
-8.084540
12
-0.168750
22
0.084375
32
-8.093129
0
3DFACE
8
/rudders.g/rudder_lower.r
62
253
10
1.800000
20
0.675000
30
-7.660261
11
-0.168750
21
0.084375
31
-8.093129
12
-0.192188
22
0.042188
32
-8.098282
0
3DFACE
8
/rudders.g/rudder_lower.r
62
253
10
1.800000
20
0.675000
30
-7.660261
11
-0.192188
21
0.042188
31
-8.098282
12
-0.200000
22
0.000000
32
-8.100000
0
3DFACE
8
/rudders.g/rudder_lower.r
62
253
10
1.800000
20
0.675000
30
-7.660261
11
-0.200000
21
0.000000
31
-8.100000
12
-0.192188
22
-0.042188
32
-8.098282
0
3DFACE
8
/rudders.g/rudder_lower.r
62
253
10
1.800000
20
0.675000
30
-7.660261
11
-0.192188
21
-0.042188
31
-8.098282
12
-0.168750
22
-0.084375
32
-8.093129
0
3DFACE
8
/rudders.g/rudder_lower.r
62
253
10
1.800000
20
0.675000
30
-7.660261
11
-0.168750
21
-0.084375
31
-8.093129
12
-0.129688
22
-0.126562
32
-8.084540
0
3DFACE
8
/rudders.g/rudder_lower.r
62
253
10
1.800000
20
0.675000
30
-7.660261
11
-0.129688
21
-0.126562
31
-8.084540
12
-0.075000
22
-0.168750
32
-8.072516
0
3DFACE
8
/rudders.g/rudder_lower.r
62
253
10
1.800000
20
0.675000
30
-7.660261
11
-0.075000
21
-0.168750
31
-8.072516
12
0.081250
22
-0.253125
32
-8.038162
0
3DFACE
8
/rudders.g/rudder_lower.r
62
253
10
1.800000
20
0.675000
30
-7.660261
11
0.081250
21
-0.253125
31
-8.038162
12
0.300000
22
-0.337500
32
-7.990065
0
3DFACE
8
/rudders.g/rudder_lower.r
62
253
10
1.800000
20
0.675000
30
-7.660261
11
0.300000
21
-0.337500
31
-7.990065
12
0.581250
22
-0.421875
32
-7.928227
0
3DFACE
8
/rudders.g/rudder_lower.r
62
253
10
1.800000
20
0.675000
30
-7.660261
11
0.581250
21
-0.421875
31
-7.928227
12
0.925000
22
-0.506250
32
-7.852647
0
3DFACE
8
/rudders.g/rudder_lower.r
62
253
10
1.800000
20
0.675000
30
-7.660261
11
0.925000
21
-0.506250
31
-7.852647
12
1.331250
22
-0.590625
32
-7.763325
0
3DFACE
8
/rudders.g/rudder_lower.r
62
253
10
1.800000
20
0.508038
30
-21.600000
11
0.943056
21
0.510000
31
-21.600000
12
1.800000
22
0.510000
32
-21.600000
0
3DFACE
8
/rudders.g/rudder_lower.r
62
253
10
1.817237
20
0.506250
30
-21.600000
11
0.925000
21
0.506250
31
-21.600000
12
1.800000
22
0.508038
32
-21.600000
0
3DFACE
8
/rudders.g/rudder_lower.r
62
253
10
0.925000
20
0.506250
30
-21.600000
11
0.943056
21
0.510000
31
-21.600000
12
1.800000
22
0.508038
32
-21.600000
0
3DFACE
8
/rudders.g/rudder_lower.r
62
253
10
2.505321
20
0.421875
30
-21.600000
11
0.581250
21
0.421875
31
-21.600000
12
1.817237
22
0.506250
32
-21.600000
0
3DFACE
8
/rudders.g/rudder_lower.r
62
253
10
0.581250
20
0.421875
30
-21.600000
11
0.925000
21
0.506250
31
-21.600000
12
1.817237
22
0.506250
32
-21.600000
0
3DFACE
8
/rudders.g/rudder_lower.r
62
253
10
3.068298
20
0.337500
30
-21.600000
11
0.300000
21
0.337500
31
-21.600000
12
2.505321
22
0.421875
32
-21.600000
0
3DFACE
8
/rudders.g/rudder_lower.r
62
253
10
0.300000
20
0.337500
30
-21.600000
11
0.581250
21
0.421875
31
-21.600000
12
2.505321
22
0.421875
32
-21.600000
0
3DFACE
8
/rudders.g/rudder_lower.r
62
253
10
3.506169
20
0.253125
30
-21.600000
11
0.081250
21
0.253125
31
-21.600000
12
3.068298
22
0.337500
32
-21.600000
0
3DFACE
8
/rudders.g/rudder_lower.r
62
253
10
0.081250
20
0.253125
30
-21.600000
11
0.300000
21
0.337500
31
-21.600000
12
3.068298
22
0.337500
32
-21.600000
0
3DFACE
8
/rudders.g/rudder_lower.r
62
253
10
3.818934
20
0.168750
30
-21.600000
11
-0.075000
21
0.168750
31
-21.600000
12
3.506169
22
0.253125
32
-21.600000
0
3DFACE
8
/rudders.g/rudder_lower.r
62
253
10
-0.075000
20
0.168750
30
-21.600000
11
0.081250
21
0.253125
31
-21.600000
12
3.506169
22
0.253125
32
-21.600000
0
3DFACE
8
/rudders.g/rudder_lower.r
62
253
10
3.928402
20
0.126562
30
-21.600000
11
-0.129688
21
0.126562
31
-21.600000
12
3.818934
22
0.168750
32
-21.600000
0
3DFACE
8
/rudders.g/rudder_lower.r
62
253
10
-0.129688
20
0.126562
30
-21.600000
11
-0.075000
21
0.168750
31
-21.600000
12
3.818934
22
0.168750
32
-21.600000
0
3DFACE
8
/rudders.g/rudder_lower.r
62
253
10
4.006593
20
0.084375
30
-21.600000
11
-0.168750
21
0.084375
31
-21.600000
12
3.928402
22
0.126562
32
-21.600000
0
3DFACE
8
/rudders.g/rudder_lower.r
62
253
10
-0.168750
20
0.084375
30
-21.600000
11
-0.129688
21
0.126562
31
-21.600000
12
3.928402
22
0.126562
32
-21.600000
0
3DFACE
8
/rudders.g/rudder_lower.r
62
253
10
4.050000
20
-0.045342
30
-21.600000
11
-0.192188
21
0.042188
31
-21.600000
12
4.050000
22
0.045342
32
-21.600000
0
3DFACE
8
/rudders.g/rudder_lower.r
62
253
10
-0.192188
20
0.042188
30
-21.600000
11
-0.168750
21
0.084375
31
-21.600000
12
4.050000
22
0.045342
32
-21.600000
0
3DFACE
8
/rudders.g/rudder_lower.r
62
253
10
3.928402
20
-0.126562
30
-21.600000
11
-0.168750
21
-0.084375
31
-21.600000
12
4.006593
22
-0.084375
32
-21.600000
0
3DFACE
8
/rudders.g/rudder_lower.r
62
253
10
-0.168750
20
-0.084375
30
-21.600000
11
-0.192188
21
-0.042188
31
-21.600000
12
4.006593
22
-0.084375
32
-21.600000
0
3DFACE
8
/rudders.g/rudder_lower.r
62
253
10
3.818934
20
-0.168750
30
-21.600000
11
-0.129688
21
-0.126562
31
-21.600000
12
3.928402
22
-0.126562
32
-21.600000
0
3DFACE
8
/rudders.g/rudder_lower.r
62
253
10
-0.129688
20
-0.126562
30
-21.600000
11
-0.168750
21
-0.084375
31
-21.600000
12
3.928402
22
-0.126562
32
-21.600000
0
3DFACE
8
/rudders.g/rudder_lower.r
62
253
10
3.506169
20
-0.253125
30
-21.600000
11
-0.075000
21
-0.168750
31
-21.600000
12
3.818934
22
-0.168750
32
-21.600000
0
3DFACE
8
/rudders.g/rudder_lower.r
62
253
10
-0.075000
20
-0.168750
30
-21.600000
11
-0.129688
21
-0.126562
31
-21.600000
12
3.818934
22
-0.168750
32
-21.600000
0
3DFACE
8
/rudders.g/rudder_lower.r
62
253
10
3.068298
20
-0.337500
30
-21.600000
11
0.081250
21
-0.253125
31
-21.600000
12
3.506169
22
-0.253125
32
-21.600000
0
3DFACE
8
/rudders.g/rudder_lower.r
62
253
10
0.081250
20
-0.253125
30
-21.600000
11
-0.075000
21
-0.168750
31
-21.600000
12
3.506169
22
-0.253125
32
-21.600000
0
3DFACE
8
/rudders.g/rudder_lower.r
62
253
10
2.505321
20
-0.421875
30
-21.600000
11
0.300000
21
-0.337500
31
-21.600000
12
3.068298
22
-0.337500
32
-21.600000
0
3DFACE
8
/rudders.g/rudder_lower.r
62
253
10
0.300000
20
-0.337500
30
-21.600000
11
0.081250
21
-0.253125
31
-21.600000
12
3.068298
22
-0.337500
32
-21.600000
0
3DFACE
8
/rudders.g/rudder_lower.r
62
253
10
1.817237
20
-0.506250
30
-21.600000
11
0.581250
21
-0.421875
31
-21.600000
12
2.505321
22
-0.421875
32
-21.600000
0
3DFACE
8
/rudders.g/rudder_lower.r
62
253
10
0.581250
20
-0.421875
30
-21.600000
11
0.300000
21
-0.337500
31
-21.600000
12
2.505321
22
-0.421875
32
-21.600000
0
3DFACE
8
/rudders.g/rudder_lower.r
62
253
10
1.800000
20
-0.508038
30
-21.600000
11
0.925000
21
-0.506250
31
-21.600000
12
1.817237
22
-0.506250
32
-21.600000
0
3DFACE
8
/rudders.g/rudder_lower.r
62
253
10
0.925000
20
-0.506250
30
-21.600000
11
0.581250
21
-0.421875
31
-21.600000
12
1.817237
22
-0.506250
32
-21.600000
0
3DFACE
8
/rudders.g/rudder_lower.r
62
253
10
0.925000
20
-0.506250
30
-21.600000
11
1.800000
21
-0.510000
31
-21.600000
12
0.943056
22
-0.510000
32
-21.600000
0
3DFACE
8
/rudders.g/rudder_lower.r
62
253
10
4.050000
20
-0.045342
30
-21.600000
11
-0.192188
21
-0.042188
31
-21.600000
12
-0.200000
22
0.000000
32
-21.600000
0
3DFACE
8
/rudders.g/rudder_lower.r
62
253
10
4.050000
20
-0.045342
30
-21.600000
11
-0.200000
21
0.000000
31
-21.600000
12
-0.192188
22
0.042188
32
-21.600000
0
3DFACE
8
/rudders.g/rudder_lower.r
62
253
10
-0.168750
20
0.084375
30
-21.600000
11
4.006593
21
0.084375
31
-21.600000
12
4.050000
22
0.045342
32
-21.600000
0
3DFACE
8
/rudders.g/rudder_lower.r
62
253
10
-0.192188
20
-0.042188
30
-21.600000
11
4.050000
21
-0.045342
31
-21.600000
12
4.006593
22
-0.084375
32
-21.600000
0
3DFACE
8
/rudders.g/rudder_lower.r
62
253
10
0.925000
20
-0.506250
30
-21.600000
11
1.800000
21
-0.508038
31
-21.600000
12
1.800000
22
-0.510000
32
-21.600000
0
3DFACE
8
/rudders.g/rudder_lower.r
62
253
10
1.800000
20
0.672465
30
-7.882011
11
1.445161
21
0.611129
31
-13.325806
12
1.800000
22
0.675000
32
-7.660261
0
3DFACE
8
/rudders.g/rudder_lower.r
62
253
10
1.833788
20
0.596041
30
-14.560267
11
1.800000
21
0.672465
31
-7.882011
12
1.828835
22
0.675000
32
-7.653924
0
3DFACE
8
/rudders.g/rudder_lower.r
62
253
10
1.833788
20
0.596041
30
-14.560267
11
1.445161
21
0.611129
31
-13.325806
12
1.800000
22
0.672465
32
-7.882011
0
3DFACE
8
/rudders.g/rudder_lower.r
62
253
10
1.331250
20
-0.590625
30
-14.666734
11
1.800000
21
-0.672290
31
-7.882011
12
1.800000
22
-0.675000
32
-7.660261
0
3DFACE
8
/rudders.g/rudder_lower.r
62
253
10
1.896264
20
-0.590625
30
-14.542521
11
1.828835
21
-0.675000
31
-7.653923
12
1.800000
22
-0.672290
32
-7.882011
0
3DFACE
8
/rudders.g/rudder_lower.r
62
253
10
1.878279
20
-0.565850
30
-16.573544
11
1.331250
21
-0.590625
31
-14.666734
12
1.112934
22
-0.545282
32
-18.424582
0
3DFACE
8
/rudders.g/rudder_lower.r
62
253
10
1.878279
20
-0.565850
30
-16.573544
11
1.896264
21
-0.590625
31
-14.542521
12
1.331250
22
-0.590625
32
-14.666734
0
3DFACE
8
/rudders.g/rudder_lower.r
62
253
10
1.331250
20
-0.590625
30
-14.666734
11
1.896264
21
-0.590625
31
-14.542521
12
1.800000
22
-0.672290
32
-7.882011
0
3DFACE
8
/rudders.g/rudder_lower.r
62
253
10
1.828835
20
0.675000
30
-7.653924
11
1.800000
21
-0.672290
31
-7.882011
12
1.828835
22
-0.675000
32
-7.653923
0
3DFACE
8
/rudders.g/rudder_lower.r
62
253
10
1.828835
20
0.675000
30
-7.653924
11
1.800000
21
0.672465
31
-7.882011
12
1.800000
22
-0.672290
32
-7.882011
0
3DFACE
8
/rudders.g/rudder_lower.r
62
253
10
1.837996
20
0.590625
30
-15.003426
11
1.828835
21
0.675000
31
-7.653924
12
2.793958
22
0.590625
32
-7.441719
0
3DFACE
8
/rudders.g/rudder_lower.r
62
253
10
1.837996
20
0.590625
30
-15.003426
11
1.833788
21
0.596041
31
-14.560267
12
1.828835
22
0.675000
32
-7.653924
0
3DFACE
8
/rudders.g/rudder_lower.r
62
253
10
1.800000
20
0.536788
30
-19.408251
11
1.817237
21
0.506250
31
-21.600000
12
1.800000
22
0.508038
32
-21.600000
0
3DFACE
8
/rudders.g/rudder_lower.r
62
253
10
1.817237
20
0.506250
30
-21.600000
11
2.793958
21
0.590625
31
-7.441719
12
3.630397
22
0.506250
32
-7.257812
0
3DFACE
8
/rudders.g/rudder_lower.r
62
253
10
1.817237
20
0.506250
30
-21.600000
11
1.800000
21
0.536788
31
-19.408251
12
1.837996
22
0.590625
32
-15.003426
0
3DFACE
8
/rudders.g/rudder_lower.r
62
253
10
1.817237
20
0.506250
30
-21.600000
11
1.837996
21
0.590625
31
-15.003426
12
2.793958
22
0.590625
32
-7.441719
0
3DFACE
8
/rudders.g/rudder_lower.r
62
253
10
3.630397
20
0.506250
30
-7.257812
11
2.505321
21
0.421875
31
-21.600000
12
1.817237
22
0.506250
32
-21.600000
0
3DFACE
8
/rudders.g/rudder_lower.r
62
253
10
3.630397
20
0.506250
30
-7.257812
11
4.338153
21
0.421875
31
-7.102198
12
2.505321
22
0.421875
32
-21.600000
0
3DFACE
8
/rudders.g/rudder_lower.r
62
253
10
4.338153
20
0.421875
30
-7.102198
11
3.068298
21
0.337500
31
-21.600000
12
2.505321
22
0.421875
32
-21.600000
0
3DFACE
8
/rudders.g/rudder_lower.r
62
253
10
4.338153
20
0.421875
30
-7.102198
11
4.917227
21
0.337500
31
-6.974877
12
3.068298
22
0.337500
32
-21.600000
0
3DFACE
8
/rudders.g/rudder_lower.r
62
253
10
4.917227
20
0.337500
30
-6.974877
11
3.506169
21
0.253125
31
-21.600000
12
3.068298
22
0.337500
32
-21.600000
0
3DFACE
8
/rudders.g/rudder_lower.r
62
253
10
4.917227
20
0.337500
30
-6.974877
11
5.367617
21
0.253125
31
-6.875850
12
3.506169
22
0.253125
32
-21.600000
0
3DFACE
8
/rudders.g/rudder_lower.r
62
253
10
5.367617
20
0.253125
30
-6.875850
11
3.818934
21
0.168750
31
-21.600000
12
3.506169
22
0.253125
32
-21.600000
0
3DFACE
8
/rudders.g/rudder_lower.r
62
253
10
5.367617
20
0.253125
30
-6.875850
11
5.689324
21
0.168750
31
-6.805116
12
3.818934
22
0.168750
32
-21.600000
0
3DFACE
8
/rudders.g/rudder_lower.r
62
253
10
5.689324
20
0.168750
30
-6.805116
11
3.928402
21
0.126562
31
-21.600000
12
3.818934
22
0.168750
32
-21.600000
0
3DFACE
8
/rudders.g/rudder_lower.r
62
253
10
3.928402
20
0.126562
30
-21.600000
11
5.791789
21
0.130359
31
-6.782587
12
5.801484
22
0.126562
32
-6.783821
0
3DFACE
8
/rudders.g/rudder_lower.r
62
253
10
3.928402
20
0.126562
30
-21.600000
11
5.689324
21
0.168750
31
-6.805116
12
5.791789
22
0.130359
32
-6.782587
0
3DFACE
8
/rudders.g/rudder_lower.r
62
253
10
5.801484
20
0.126562
30
-6.783821
11
4.006593
21
0.084375
31
-21.600000
12
3.928402
22
0.126562
32
-21.600000
0
3DFACE
8
/rudders.g/rudder_lower.r
62
253
10
5.801484
20
0.126562
30
-6.783821
11
5.878438
21
0.084375
31
-6.793615
12
4.006593
22
0.084375
32
-21.600000
0
3DFACE
8
/rudders.g/rudder_lower.r
62
253
10
5.878438
20
0.084375
30
-6.793615
11
4.050000
21
0.045342
31
-21.600000
12
4.006593
22
0.084375
32
-21.600000
0
3DFACE
8
/rudders.g/rudder_lower.r
62
253
10
5.878438
20
0.084375
30
-6.793615
11
5.924609
21
0.042187
31
-6.799491
12
4.574485
22
0.042187
32
-17.479043
0
3DFACE
8
/rudders.g/rudder_lower.r
62
253
10
5.878438
20
0.084375
30
-6.793615
11
4.574485
21
0.042187
31
-17.479043
12
4.050000
22
0.045342
32
-21.600000
0
3DFACE
8
/rudders.g/rudder_lower.r
62
253
10
5.924609
20
0.042187
30
-6.799491
11
5.933556
21
0.017663
31
-6.800630
12
4.574485
22
0.042187
32
-17.479043
0
3DFACE
8
/rudders.g/rudder_lower.r
62
253
10
5.933556
20
-0.017663
30
-6.800630
11
5.924609
21
-0.042187
31
-6.799491
12
4.574485
22
-0.042187
32
-17.479043
0
3DFACE
8
/rudders.g/rudder_lower.r
62
253
10
4.006593
20
-0.084375
30
-21.600000
11
4.574485
21
-0.042187
31
-17.479043
12
5.878438
22
-0.084375
32
-6.793615
0
3DFACE
8
/rudders.g/rudder_lower.r
62
253
10
4.574485
20
-0.042187
30
-17.479043
11
5.924609
21
-0.042187
31
-6.799491
12
5.878438
22
-0.084375
32
-6.793615
0
3DFACE
8
/rudders.g/rudder_lower.r
62
253
10
4.006593
20
-0.084375
30
-21.600000
11
4.050000
21
-0.045342
31
-21.600000
12
4.574485
22
-0.042187
32
-17.479043
0
3DFACE
8
/rudders.g/rudder_lower.r
62
253
10
4.006593
20
-0.084375
30
-21.600000
11
5.801484
21
-0.126562
31
-6.783821
12
3.928402
22
-0.126562
32
-21.600000
0
3DFACE
8
/rudders.g/rudder_lower.r
62
253
10
4.006593
20
-0.084375
30
-21.600000
11
5.878438
21
-0.084375
31
-6.793615
12
5.801484
22
-0.126562
32
-6.783821
0
3DFACE
8
/rudders.g/rudder_lower.r
62
253
10
3.928402
20
-0.126562
30
-21.600000
11
5.689324
21
-0.168750
31
-6.805116
12
3.818934
22
-0.168750
32
-21.600000
0
3DFACE
8
/rudders.g/rudder_lower.r
62
253
10
3.928402
20
-0.126562
30
-21.600000
11
5.801484
21
-0.126562
31
-6.783821
12
5.689324
22
-0.168750
32
-6.805116
0
3DFACE
8
/rudders.g/rudder_lower.r
62
253
10
5.801484
20
-0.126562
30
-6.783821
11
5.791789
21
-0.130359
31
-6.782587
12
5.689324
22
-0.168750
32
-6.805116
0
3DFACE
8
/rudders.g/rudder_lower.r
62
253
10
3.818934
20
-0.168750
30
-21.600000
11
5.367617
21
-0.253125
31
-6.875850
12
3.506169
22
-0.253125
32
-21.600000
0
3DFACE
8
/rudders.g/rudder_lower.r
62
253
10
3.818934
20
-0.168750
30
-21.600000
11
5.689324
21
-0.168750
31
-6.805116
12
5.367617
22
-0.253125
32
-6.875850
0
3DFACE
8
/rudders.g/rudder_lower.r
62
253
10
3.506169
20
-0.253125
30
-21.600000
11
4.917227
21
-0.337500
31
-6.974877
12
3.068298
22
-0.337500
32
-21.600000
0
3DFACE
8
/rudders.g/rudder_lower.r
62
253
10
3.506169
20
-0.253125
30
-21.600000
11
5.367617
21
-0.253125
31
-6.875850
12
4.917227
22
-0.337500
32
-6.974877
0
3DFACE
8
/rudders.g/rudder_lower.r
62
253
10
3.068298
20
-0.337500
30
-21.600000
11
4.338153
21
-0.421875
31
-7.102198
12
2.505321
22
-0.421875
32
-21.600000
0
3DFACE
8
/rudders.g/rudder_lower.r
62
253
10
3.068298
20
-0.337500
30
-21.600000
11
4.917227
21
-0.337500
31
-6.974877
12
4.338153
22
-0.421875
32
-7.102198
0
3DFACE
8
/rudders.g/rudder_lower.r
62
253
10
2.505321
20
-0.421875
30
-21.600000
11
3.630397
21
-0.506250
31
-7.257812
12
1.817237
22
-0.506250
32
-21.600000
0
3DFACE
8
/rudders.g/rudder_lower.r
62
253
10
2.505321
20
-0.421875
30
-21.600000
11
4.338153
21
-0.421875
31
-7.102198
12
3.630397
22
-0.506250
32
-7.257812
0
3DFACE
8
/rudders.g/rudder_lower.r
62
253
10
1.817237
20
-0.506250
30
-21.600000
11
1.800000
21
-0.520865
31
-20.622168
12
1.800000
22
-0.508038
32
-21.600000
0
3DFACE
8
/rudders.g/rudder_lower.r
62
253
10
1.817237
20
-0.506250
30
-21.600000
11
3.630397
21
-0.506250
31
-7.257812
12
1.800000
22
-0.520865
32
-20.622168
0
3DFACE
8
/rudders.g/rudder_lower.r
62
253
10
3.630397
20
-0.506250
30
-7.257812
11
2.793958
21
-0.590625
31
-7.441719
12
1.896264
22
-0.590625
32
-14.542521
0
3DFACE
8
/rudders.g/rudder_lower.r
62
253
10
3.630397
20
-0.506250
30
-7.257812
11
1.896264
21
-0.590625
31
-14.542521
12
1.878279
22
-0.565850
32
-16.573544
0
3DFACE
8
/rudders.g/rudder_lower.r
62
253
10
3.630397
20
-0.506250
30
-7.257812
11
1.878279
21
-0.565850
31
-16.573544
12
1.800000
22
-0.520865
32
-20.622168
0
3DFACE
8
/rudders.g/rudder_lower.r
62
253
10
2.793958
20
-0.590625
30
-7.441719
11
1.828835
21
-0.675000
31
-7.653923
12
1.896264
22
-0.590625
32
-14.542521
0
3DFACE
8
/rudders.g/rudder_lower.r
62
253
10
5.791789
20
-0.130359
30
-6.782587
11
5.801484
21
0.126562
31
-6.783821
12
5.791789
22
0.130359
32
-6.782587
0
3DFACE
8
/rudders.g/rudder_lower.r
62
253
10
5.791789
20
-0.130359
30
-6.782587
11
5.801484
21
-0.126562
31
-6.783821
12
5.878438
22
-0.084375
32
-6.793615
0
3DFACE
8
/rudders.g/rudder_lower.r
62
253
10
5.791789
20
-0.130359
30
-6.782587
11
5.878438
21
-0.084375
31
-6.793615
12
5.924609
22
-0.042187
32
-6.799491
0
3DFACE
8
/rudders.g/rudder_lower.r
62
253
10
5.791789
20
-0.130359
30
-6.782587
11
5.924609
21
-0.042187
31
-6.799491
12
5.933556
22
-0.017663
32
-6.800630
0
3DFACE
8
/rudders.g/rudder_lower.r
62
253
10
5.791789
20
-0.130359
30
-6.782587
11
5.933556
21
-0.017663
31
-6.800630
12
5.933556
22
0.017663
32
-6.800630
0
3DFACE
8
/rudders.g/rudder_lower.r
62
253
10
5.791789
20
-0.130359
30
-6.782587
11
5.933556
21
0.017663
31
-6.800630
12
5.924609
22
0.042187
32
-6.799491
0
3DFACE
8
/rudders.g/rudder_lower.r
62
253
10
5.791789
20
-0.130359
30
-6.782587
11
5.924609
21
0.042187
31
-6.799491
12
5.878438
22
0.084375
32
-6.793615
0
3DFACE
8
/rudders.g/rudder_lower.r
62
253
10
5.791789
20
-0.130359
30
-6.782587
11
5.878438
21
0.084375
31
-6.793615
12
5.801484
22
0.126562
32
-6.783821
0
3DFACE
8
/rudders.g/rudder_upper.r
62
253
10
1.331250
20
-0.590625
30
15.003409
11
1.331250
21
-0.590625
31
7.763325
12
1.445161
22
-0.611129
32
13.325806
0
3DFACE
8
/rudders.g/rudder_upper.r
62
253
10
1.331250
20
-0.590625
30
7.763325
11
1.800000
21
-0.675000
31
7.660261
12
1.445161
22
-0.611129
32
13.325806
0
3DFACE
8
/rudders.g/rudder_upper.r
62
253
10
0.925000
20
-0.506250
30
7.852647
11
0.943056
21
-0.510000
31
21.600000
12
0.925000
22
-0.506250
32
21.600000
0
3DFACE
8
/rudders.g/rudder_upper.r
62
253
10
0.925000
20
-0.506250
30
7.852647
11
1.331250
21
-0.590625
31
7.763325
12
1.331250
22
-0.590625
32
15.003409
0
3DFACE
8
/rudders.g/rudder_upper.r
62
253
10
0.925000
20
-0.506250
30
7.852647
11
1.331250
21
-0.590625
31
15.003409
12
0.943056
22
-0.510000
32
21.600000
0
3DFACE
8
/rudders.g/rudder_upper.r
62
253
10
0.581250
20
-0.421875
30
7.928227
11
0.925000
21
-0.506250
31
21.600000
12
0.581250
22
-0.421875
32
21.600000
0
3DFACE
8
/rudders.g/rudder_upper.r
62
253
10
0.581250
20
-0.421875
30
7.928227
11
0.925000
21
-0.506250
31
7.852647
12
0.925000
22
-0.506250
32
21.600000
0
3DFACE
8
/rudders.g/rudder_upper.r
62
253
10
0.300000
20
-0.337500
30
7.990065
11
0.581250
21
-0.421875
31
21.600000
12
0.300000
22
-0.337500
32
21.600000
0
3DFACE
8
/rudders.g/rudder_upper.r
62
253
10
0.300000
20
-0.337500
30
7.990065
11
0.581250
21
-0.421875
31
7.928227
12
0.581250
22
-0.421875
32
21.600000
0
3DFACE
8
/rudders.g/rudder_upper.r
62
253
10
0.081250
20
-0.253125
30
8.038162
11
0.300000
21
-0.337500
31
21.600000
12
0.081250
22
-0.253125
32
21.600000
0
3DFACE
8
/rudders.g/rudder_upper.r
62
253
10
0.081250
20
-0.253125
30
8.038162
11
0.300000
21
-0.337500
31
7.990065
12
0.300000
22
-0.337500
32
21.600000
0
3DFACE
8
/rudders.g/rudder_upper.r
62
253
10
-0.075000
20
-0.168750
30
8.072516
11
0.081250
21
-0.253125
31
21.600000
12
-0.075000
22
-0.168750
32
21.600000
0
3DFACE
8
/rudders.g/rudder_upper.r
62
253
10
-0.075000
20
-0.168750
30
8.072516
11
0.081250
21
-0.253125
31
8.038162
12
0.081250
22
-0.253125
32
21.600000
0
3DFACE
8
/rudders.g/rudder_upper.r
62
253
10
-0.129688
20
-0.126562
30
8.084540
11
-0.075000
21
-0.168750
31
21.600000
12
-0.129688
22
-0.126562
32
21.600000
0
3DFACE
8
/rudders.g/rudder_upper.r
62
253
10
-0.129688
20
-0.126562
30
8.084540
11
-0.075000
21
-0.168750
31
8.072516
12
-0.075000
22
-0.168750
32
21.600000
0
3DFACE
8
/rudders.g/rudder_upper.r
62
253
10
-0.168750
20
-0.084375
30
8.093129
11
-0.129688
21
-0.126562
31
21.600000
12
-0.168750
22
-0.084375
32
21.600000
0
3DFACE
8
/rudders.g/rudder_upper.r
62
253
10
-0.168750
20
-0.084375
30
8.093129
11
-0.129688
21
-0.126562
31
8.084540
12
-0.129688
22
-0.126562
32
21.600000
0
3DFACE
8
/rudders.g/rudder_upper.r
62
253
10
-0.192188
20
-0.042188
30
8.098282
11
-0.168750
21
-0.084375
31
21.600000
12
-0.192188
22
-0.042188
32
21.600000
0
3DFACE
8
/rudders.g/rudder_upper.r
62
253
10
-0.192188
20
-0.042188
30
8.098282
11
-0.168750
21
-0.084375
31
8.093129
12
-0.168750
22
-0.084375
32
21.600000
0
3DFACE
8
/rudders.g/rudder_upper.r
62
253
10
-0.200000
20
0.000000
30
8.100000
11
-0.192188
21
-0.042188
31
21.600000
12
-0.200000
22
0.000000
32
21.600000
0
3DFACE
8
/rudders.g/rudder_upper.r
62
253
10
-0.200000
20
0.000000
30
8.100000
11
-0.192188
21
-0.042188
31
8.098282
12
-0.192188
22
-0.042188
32
21.600000
0
3DFACE
8
/rudders.g/rudder_upper.r
62
253
10
-0.192188
20
0.042188
30
21.600000
11
-0.200000
21
0.000000
31
8.100000
12
-0.200000
22
0.000000
32
21.600000
0
3DFACE
8
/rudders.g/rudder_upper.r
62
253
10
-0.192188
20
0.042188
30
21.600000
11
-0.192188
21
0.042188
31
8.098282
12
-0.200000
22
0.000000
32
8.100000
0
3DFACE
8
/rudders.g/rudder_upper.r
62
253
10
-0.168750
20
0.084375
30
21.600000
11
-0.192188
21
0.042188
31
8.098282
12
-0.192188
22
0.042188
32
21.600000
0
3DFACE
8
/rudders.g/rudder_upper.r
62
253
10
-0.168750
20
0.084375
30
21.600000
11
-0.168750
21
0.084375
31
8.093129
12
-0.192188
22
0.042188
32
8.098282
0
3DFACE
8
/rudders.g/rudder_upper.r
62
253
10
-0.129688
20
0.126562
30
21.600000
11
-0.168750
21
0.084375
31
8.093129
12
-0.168750
22
0.084375
32
21.600000
0
3DFACE
8
/rudders.g/rudder_upper.r
62
253
10
-0.129688
20
0.126562
30
21.600000
11
-0.129688
21
0.126562
31
8.084540
12
-0.168750
22
0.084375
32
8.093129
0
3DFACE
8
/rudders.g/rudder_upper.r
62
253
10
-0.075000
20
0.168750
30
21.600000
11
-0.129688
21
0.126562
31
8.084540
12
-0.129688
22
0.126562
32
21.600000
0
3DFACE
8
/rudders.g/rudder_upper.r
62
253
10
-0.075000
20
0.168750
30
21.600000
11
-0.075000
21
0.168750
31
8.072516
12
-0.129688
22
0.126562
32
8.084540
0
3DFACE
8
/rudders.g/rudder_upper.r
62
253
10
0.081250
20
0.253125
30
21.600000
11
-0.075000
21
0.168750
31
8.072516
12
-0.075000
22
0.168750
32
21.600000
0
3DFACE
8
/rudders.g/rudder_upper.r
62
253
10
0.081250
20
0.253125
30
21.600000
11
0.081250
21
0.253125
31
8.038162
12
-0.075000
22
0.168750
32
8.072516
0
3DFACE
8
/rudders.g/rudder_upper.r
62
253
10
0.300000
20
0.337500
30
21.600000
11
0.081250
21
0.253125
31
8.038162
12
0.081250
22
0.253125
32
21.600000
0
3DFACE
8
/rudders.g/rudder_upper.r
62
253
10
0.300000
20
0.337500
30
21.600000
11
0.300000
21
0.337500
31
7.990065
12
0.081250
22
0.253125
32
8.038162
0
3DFACE
8
/rudders.g/rudder_upper.r
62
253
10
0.581250
20
0.421875
30
21.600000
11
0.300000
21
0.337500
31
7.990065
12
0.300000
22
0.337500
32
21.600000
0
3DFACE
8
/rudders.g/rudder_upper.r
62
253
10
0.581250
20
0.421875
30
21.600000
11
0.581250
21
0.421875
31
7.928227
12
0.300000
22
0.337500
32
7.990065
0
3DFACE
8
/rudders.g/rudder_upper.r
62
253
10
0.925000
20
0.506250
30
21.600000
11
0.581250
21
0.421875
31
7.928227
12
0.581250
22
0.421875
32
21.600000
0
3DFACE
8
/rudders.g/rudder_upper.r
62
253
10
0.925000
20
0.506250
30
21.600000
11
0.925000
21
0.506250
31
7.852647
12
0.581250
22
0.421875
32
7.928227
0
3DFACE
8
/rudders.g/rudder_upper.r
62
253
10
0.925000
20
0.506250
30
21.600000
11
1.331250
21
0.590625
31
14.666734
12
0.925000
22
0.506250
32
7.852647
0
3DFACE
8
/rudders.g/rudder_upper.r
62
253
10
1.331250
20
0.590625
30
14.666734
11
1.331250
21
0.590625
31
7.763325
12
0.925000
22
0.506250
32
7.852647
0
3DFACE
8
/rudders.g/rudder_upper.r
62
253
10
0.925000
20
0.506250
30
21.600000
11
0.943056
21
0.510000
31
21.600000
12
1.112934
22
0.545282
32
18.424582
0
3DFACE
8
/rudders.g/rudder_upper.r
62
253
10
0.925000
20
0.506250
30
21.600000
11
1.112934
21
0.545282
31
18.424582
12
1.331250
22
0.590625
32
14.666734
0
3DFACE
8
/rudders.g/rudder_upper.r
62
253
10
1.800000
20
0.675000
30
7.660261
11
1.331250
21
0.590625
31
7.763325
12
1.331250
22
0.590625
32
14.666734
0
3DFACE
8
/rudders.g/rudder_upper.r
62
253
10
1.800000
20
-0.508038
30
21.600000
11
1.800000
21
-0.510000
31
21.600000
12
1.800000
22
-0.536788
32
19.408251
0
3DFACE
8
/rudders.g/rudder_upper.r
62
253
10
1.800000
20
0.520865
30
20.622168
11
1.800000
21
0.510000
31
21.600000
12
1.800000
22
0.508038
32
21.600000
0
3DFACE
8
/rudders.g/rudder_upper.r
62
253
10
1.800000
20
0.675000
30
7.660261
11
1.800000
21
-0.672465
31
7.882011
12
1.800000
22
-0.675000
32
7.660261
0
3DFACE
8
/rudders.g/rudder_upper.r
62
253
10
1.800000
20
0.675000
30
7.660261
11
1.800000
21
0.672290
31
7.882011
12
1.800000
22
-0.672465
32
7.882011
0
3DFACE
8
/rudders.g/rudder_upper.r
62
253
10
4.050000
20
-0.045342
30
21.600000
11
4.574485
21
0.042187
31
17.479043
12
4.050000
22
0.045342
32
21.600000
0
3DFACE
8
/rudders.g/rudder_upper.r
62
253
10
4.050000
20
-0.045342
30
21.600000
11
4.574485
21
-0.042187
31
17.479043
12
5.933556
22
-0.017663
32
6.800630
0
3DFACE
8
/rudders.g/rudder_upper.r
62
253
10
4.050000
20
-0.045342
30
21.600000
11
5.933556
21
-0.017663
31
6.800630
12
5.933556
22
0.017663
32
6.800630
0
3DFACE
8
/rudders.g/rudder_upper.r
62
253
10
4.050000
20
-0.045342
30
21.600000
11
5.933556
21
0.017663
31
6.800630
12
4.574485
22
0.042187
32
17.479043
0
3DFACE
8
/rudders.g/rudder_upper.r
62
253
10
0.943056
20
0.510000
30
21.600000
11
1.800000
21
0.520865
31
20.622168
12
1.112934
22
0.545282
32
18.424582
0
3DFACE
8
/rudders.g/rudder_upper.r
62
253
10
1.800000
20
0.520865
30
20.622168
11
1.878279
21
0.565850
31
16.573544
12
1.112934
22
0.545282
32
18.424582
0
3DFACE
8
/rudders.g/rudder_upper.r
62
253
10
0.943056
20
0.510000
30
21.600000
11
1.800000
21
0.510000
31
21.600000
12
1.800000
22
0.520865
32
20.622168
0
3DFACE
8
/rudders.g/rudder_upper.r
62
253
10
1.331250
20
-0.590625
30
15.003409
11
1.800000
21
-0.510000
31
21.600000
12
0.943056
22
-0.510000
32
21.600000
0
3DFACE
8
/rudders.g/rudder_upper.r
62
253
10
1.833788
20
-0.596041
30
14.560267
11
1.331250
21
-0.590625
31
15.003409
12
1.445161
22
-0.611129
32
13.325806
0
3DFACE
8
/rudders.g/rudder_upper.r
62
253
10
1.833788
20
-0.596041
30
14.560267
11
1.837996
21
-0.590625
31
15.003426
12
1.331250
22
-0.590625
32
15.003409
0
3DFACE
8
/rudders.g/rudder_upper.r
62
253
10
1.331250
20
-0.590625
30
15.003409
11
1.837996
21
-0.590625
31
15.003426
12
1.800000
22
-0.536788
32
19.408251
0
3DFACE
8
/rudders.g/rudder_upper.r
62
253
10
1.331250
20
-0.590625
30
15.003409
11
1.800000
21
-0.536788
31
19.408251
12
1.800000
22
-0.510000
32
21.600000
0
3DFACE
8
/rudders.g/rudder_upper.r
62
253
10
1.828835
20
0.675000
30
7.653923
11
2.793958
21
-0.590625
31
7.441719
12
1.828835
22
-0.675000
32
7.653924
0
3DFACE
8
/rudders.g/rudder_upper.r
62
253
10
1.800000
20
-0.675000
30
7.660261
11
1.331250
21
0.590625
31
7.763325
12
1.800000
22
0.675000
32
7.660261
0
3DFACE
8
/rudders.g/rudder_upper.r
62
253
10
1.828835
20
0.675000
30
7.653923
11
2.793958
21
0.590625
31
7.441719
12
3.630397
22
0.506250
32
7.257812
0
3DFACE
8
/rudders.g/rudder_upper.r
62
253
10
1.828835
20
0.675000
30
7.653923
11
3.630397
21
0.506250
31
7.257812
12
4.338153
22
0.421875
32
7.102198
0
3DFACE
8
/rudders.g/rudder_upper.r
62
253
10
1.828835
20
0.675000
30
7.653923
11
4.338153
21
0.421875
31
7.102198
12
4.917227
22
0.337500
32
6.974877
0
3DFACE
8
/rudders.g/rudder_upper.r
62
253
10
1.828835
20
0.675000
30
7.653923
11
4.917227
21
0.337500
31
6.974877
12
5.367617
22
0.253125
32
6.875850
0
3DFACE
8
/rudders.g/rudder_upper.r
62
253
10
1.828835
20
0.675000
30
7.653923
11
5.367617
21
0.253125
31
6.875850
12
5.689324
22
0.168750
32
6.805116
0
3DFACE
8
/rudders.g/rudder_upper.r
62
253
10
1.828835
20
0.675000
30
7.653923
11
5.689324
21
0.168750
31
6.805116
12
5.791789
22
0.130359
32
6.782587
0
3DFACE
8
/rudders.g/rudder_upper.r
62
253
10
1.828835
20
0.675000
30
7.653923
11
5.791789
21
0.130359
31
6.782587
12
5.791789
22
-0.130359
32
6.782587
0
3DFACE
8
/rudders.g/rudder_upper.r
62
253
10
1.828835
20
0.675000
30
7.653923
11
5.791789
21
-0.130359
31
6.782587
12
5.689324
22
-0.168750
32
6.805116
0
3DFACE
8
/rudders.g/rudder_upper.r
62
253
10
1.828835
20
0.675000
30
7.653923
11
5.689324
21
-0.168750
31
6.805116
12
5.367617
22
-0.253125
32
6.875850
0
3DFACE
8
/rudders.g/rudder_upper.r
62
253
10
1.828835
20
0.675000
30
7.653923
11
5.367617
21
-0.253125
31
6.875850
12
4.917227
22
-0.337500
32
6.974877
0
3DFACE
8
/rudders.g/rudder_upper.r
62
253
10
1.828835
20
0.675000
30
7.653923
11
4.917227
21
-0.337500
31
6.974877
12
4.338153
22
-0.421875
32
7.102198
0
3DFACE
8
/rudders.g/rudder_upper.r
62
253
10
1.828835
20
0.675000
30
7.653923
11
4.338153
21
-0.421875
31
7.102198
12
3.630397
22
-0.506250
32
7.257812
0
3DFACE
8
/rudders.g/rudder_upper.r
62
253
10
1.828835
20
0.675000
30
7.653923
11
3.630397
21
-0.506250
31
7.257812
12
2.793958
22
-0.590625
32
7.441719
0
3DFACE
8
/rudders.g/rudder_upper.r
62
253
10
1.800000
20
-0.675000
30
7.660261
11
1.331250
21
-0.590625
31
7.763325
12
0.925000
22
-0.506250
32
7.852647
0
3DFACE
8
/rudders.g/rudder_upper.r
62
253
10
1.800000
20
-0.675000
30
7.660261
11
0.925000
21
-0.506250
31
7.852647
12
0.581250
22
-0.421875
32
7.928227
0
3DFACE
8
/rudders.g/rudder_upper.r
62
253
10
1.800000
20
-0.675000
30
7.660261
11
0.581250
21
-0.421875
31
7.928227
12
0.300000
22
-0.337500
32
7.990065
0
3DFACE
8
/rudders.g/rudder_upper.r
62
253
10
1.800000
20
-0.675000
30
7.660261
11
0.300000
21
-0.337500
31
7.990065
12
0.081250
22
-0.253125
32
8.038162
0
3DFACE
8
/rudders.g/rudder_upper.r
62
253
10
1.800000
20
-0.675000
30
7.660261
11
0.081250
21
-0.253125
31
8.038162
12
-0.075000
22
-0.168750
32
8.072516
0
3DFACE
8
/rudders.g/rudder_upper.r
62
253
10
1.800000
20
-0.675000
30
7.660261
11
-0.075000
21
-0.168750
31
8.072516
12
-0.129688
22
-0.126562
32
8.084540
0
3DFACE
8
/rudders.g/rudder_upper.r
62
253
10
1.800000
20
-0.675000
30
7.660261
11
-0.129688
21
-0.126562
31
8.084540
12
-0.168750
22
-0.084375
32
8.093129
0
3DFACE
8
/rudders.g/rudder_upper.r
62
253
10
1.800000
20
-0.675000
30
7.660261
11
-0.168750
21
-0.084375
31
8.093129
12
-0.192188
22
-0.042188
32
8.098282
0
3DFACE
8
/rudders.g/rudder_upper.r
62
253
10
1.800000
20
-0.675000
30
7.660261
11
-0.192188
21
-0.042188
31
8.098282
12
-0.200000
22
0.000000
32
8.100000
0
3DFACE
8
/rudders.g/rudder_upper.r
62
253
10
1.800000
20
-0.675000
30
7.660261
11
-0.200000
21
0.000000
31
8.100000
12
-0.192188
22
0.042188
32
8.098282
0
3DFACE
8
/rudders.g/rudder_upper.r
62
253
10
1.800000
20
-0.675000
30
7.660261
11
-0.192188
21
0.042188
31
8.098282
12
-0.168750
22
0.084375
32
8.093129
0
3DFACE
8
/rudders.g/rudder_upper.r
62
253
10
1.800000
20
-0.675000
30
7.660261
11
-0.168750
21
0.084375
31
8.093129
12
-0.129688
22
0.126562
32
8.084540
0
3DFACE
8
/rudders.g/rudder_upper.r
62
253
10
1.800000
20
-0.675000
30
7.660261
11
-0.129688
21
0.126562
31
8.084540
12
-0.075000
22
0.168750
32
8.072516
0
3DFACE
8
/rudders.g/rudder_upper.r
62
253
10
1.800000
20
-0.675000
30
7.660261
11
-0.075000
21
0.168750
31
8.072516
12
0.081250
22
0.253125
32
8.038162
0
3DFACE
8
/rudders.g/rudder_upper.r
62
253
10
1.800000
20
-0.675000
30
7.660261
11
0.081250
21
0.253125
31
8.038162
12
0.300000
22
0.337500
32
7.990065
0
3DFACE
8
/rudders.g/rudder_upper.r
62
253
10
1.800000
20
-0.675000
30
7.660261
11
0.300000
21
0.337500
31
7.990065
12
0.581250
22
0.421875
32
7.928227
0
3DFACE
8
/rudders.g/rudder_upper.r
62
253
10
1.800000
20
-0.675000
30
7.660261
11
0.581250
21
0.421875
31
7.928227
12
0.925000
22
0.506250
32
7.852647
0
3DFACE
8
/rudders.g/rudder_upper.r
62
253
10
1.800000
20
-0.675000
30
7.660261
11
0.925000
21
0.506250
31
7.852647
12
1.331250
22
0.590625
32
7.763325
0
3DFACE
8
/rudders.g/rudder_upper.r
62
253
10
0.925000
20
0.506250
30
21.600000
11
1.800000
21
0.510000
31
21.600000
12
0.943056
22
0.510000
32
21.600000
0
3DFACE
8
/rudders.g/rudder_upper.r
62
253
10
0.581250
20
0.421875
30
21.600000
11
1.817237
21
0.506250
31
21.600000
12
0.925000
22
0.506250
32
21.600000
0
3DFACE
8
/rudders.g/rudder_upper.r
62
253
10
1.817237
20
0.506250
30
21.600000
11
1.800000
21
0.508038
31
21.600000
12
0.925000
22
0.506250
32
21.600000
0
3DFACE
8
/rudders.g/rudder_upper.r
62
253
10
0.300000
20
0.337500
30
21.600000
11
2.505321
21
0.421875
31
21.600000
12
0.581250
22
0.421875
32
21.600000
0
3DFACE
8
/rudders.g/rudder_upper.r
62
253
10
2.505321
20
0.421875
30
21.600000
11
1.817237
21
0.506250
31
21.600000
12
0.581250
22
0.421875
32
21.600000
0
3DFACE
8
/rudders.g/rudder_upper.r
62
253
10
0.081250
20
0.253125
30
21.600000
11
3.068298
21
0.337500
31
21.600000
12
0.300000
22
0.337500
32
21.600000
0
3DFACE
8
/rudders.g/rudder_upper.r
62
253
10
3.068298
20
0.337500
30
21.600000
11
2.505321
21
0.421875
31
21.600000
12
0.300000
22
0.337500
32
21.600000
0
3DFACE
8
/rudders.g/rudder_upper.r
62
253
10
-0.075000
20
0.168750
30
21.600000
11
3.506169
21
0.253125
31
21.600000
12
0.081250
22
0.253125
32
21.600000
0
3DFACE
8
/rudders.g/rudder_upper.r
62
253
10
3.506169
20
0.253125
30
21.600000
11
3.068298
21
0.337500
31
21.600000
12
0.081250
22
0.253125
32
21.600000
0
3DFACE
8
/rudders.g/rudder_upper.r
62
253
10
-0.129688
20
0.126562
30
21.600000
11
3.818934
21
0.168750
31
21.600000
12
-0.075000
22
0.168750
32
21.600000
0
3DFACE
8
/rudders.g/rudder_upper.r
62
253
10
3.818934
20
0.168750
30
21.600000
11
3.506169
21
0.253125
31
21.600000
12
-0.075000
22
0.168750
32
21.600000
0
3DFACE
8
/rudders.g/rudder_upper.r
62
253
10
-0.168750
20
0.084375
30
21.600000
11
3.928402
21
0.126562
31
21.600000
12
-0.129688
22
0.126562
32
21.600000
0
3DFACE
8
/rudders.g/rudder_upper.r
62
253
10
3.928402
20
0.126562
30
21.600000
11
3.818934
21
0.168750
31
21.600000
12
-0.129688
22
0.126562
32
21.600000
0
3DFACE
8
/rudders.g/rudder_upper.r
62
253
10
-0.192188
20
0.042188
30
21.600000
11
4.006593
21
0.084375
31
21.600000
12
-0.168750
22
0.084375
32
21.600000
0
3DFACE
8
/rudders.g/rudder_upper.r
62
253
10
4.006593
20
0.084375
30
21.600000
11
3.928402
21
0.126562
31
21.600000
12
-0.168750
22
0.084375
32
21.600000
0
3DFACE
8
/rudders.g/rudder_upper.r
62
253
10
-0.168750
20
-0.084375
30
21.600000
11
4.050000
21
-0.045342
31
21.600000
12
-0.192188
22
-0.042188
32
21.600000
0
3DFACE
8
/rudders.g/rudder_upper.r
62
253
10
4.050000
20
-0.045342
30
21.600000
11
4.050000
21
0.045342
31
21.600000
12
-0.192188
22
-0.042188
32
21.600000
0
3DFACE
8
/rudders.g/rudder_upper.r
62
253
10
-0.129688
20
-0.126562
30
21.600000
11
3.928402
21
-0.126562
31
21.600000
12
-0.168750
22
-0.084375
32
21.600000
0
3DFACE
8
/rudders.g/rudder_upper.r
62
253
10
3.928402
20
-0.126562
30
21.600000
11
4.006593
21
-0.084375
31
21.600000
12
-0.168750
22
-0.084375
32
21.600000
0
3DFACE
8
/rudders.g/rudder_upper.r
62
253
10
-0.075000
20
-0.168750
30
21.600000
11
3.818934
21
-0.168750
31
21.600000
12
-0.129688
22
-0.126562
32
21.600000
0
3DFACE
8
/rudders.g/rudder_upper.r
62
253
10
3.818934
20
-0.168750
30
21.600000
11
3.928402
21
-0.126562
31
21.600000
12
-0.129688
22
-0.126562
32
21.600000
0
3DFACE
8
/rudders.g/rudder_upper.r
62
253
10
0.081250
20
-0.253125
30
21.600000
11
3.506169
21
-0.253125
31
21.600000
12
-0.075000
22
-0.168750
32
21.600000
0
3DFACE
8
/rudders.g/rudder_upper.r
62
253
10
3.506169
20
-0.253125
30
21.600000
11
3.818934
21
-0.168750
31
21.600000
12
-0.075000
22
-0.168750
32
21.600000
0
3DFACE
8
/rudders.g/rudder_upper.r
62
253
10
0.300000
20
-0.337500
30
21.600000
11
3.068298
21
-0.337500
31
21.600000
12
0.081250
22
-0.253125
32
21.600000
0
3DFACE
8
/rudders.g/rudder_upper.r
62
253
10
3.068298
20
-0.337500
30
21.600000
11
3.506169
21
-0.253125
31
21.600000
12
0.081250
22
-0.253125
32
21.600000
0
3DFACE
8
/rudders.g/rudder_upper.r
62
253
10
0.581250
20
-0.421875
30
21.600000
11
2.505321
21
-0.421875
31
21.600000
12
0.300000
22
-0.337500
32
21.600000
0
3DFACE
8
/rudders.g/rudder_upper.r
62
253
10
2.505321
20
-0.421875
30
21.600000
11
3.068298
21
-0.337500
31
21.600000
12
0.300000
22
-0.337500
32
21.600000
0
3DFACE
8
/rudders.g/rudder_upper.r
62
253
10
0.925000
20
-0.506250
30
21.600000
11
1.817237
21
-0.506250
31
21.600000
12
0.581250
22
-0.421875
32
21.600000
0
3DFACE
8
/rudders.g/rudder_upper.r
62
253
10
1.817237
20
-0.506250
30
21.600000
11
2.505321
21
-0.421875
31
21.600000
12
0.581250
22
-0.421875
32
21.600000
0
3DFACE
8
/rudders.g/rudder_upper.r
62
253
10
0.943056
20
-0.510000
30
21.600000
11
1.800000
21
-0.508038
31
21.600000
12
0.925000
22
-0.506250
32
21.600000
0
3DFACE
8
/rudders.g/rudder_upper.r
62
253
10
1.800000
20
-0.508038
30
21.600000
11
1.817237
21
-0.506250
31
21.600000
12
0.925000
22
-0.506250
32
21.600000
0
3DFACE
8
/rudders.g/rudder_upper.r
62
253
10
0.943056
20
-0.510000
30
21.600000
11
1.800000
21
-0.510000
31
21.600000
12
1.800000
22
-0.508038
32
21.600000
0
3DFACE
8
/rudders.g/rudder_upper.r
62
253
10
0.925000
20
0.506250
30
21.600000
11
1.800000
21
0.508038
31
21.600000
12
1.800000
22
0.510000
32
21.600000
0
3DFACE
8
/rudders.g/rudder_upper.r
62
253
10
-0.192188
20
0.042188
30
21.600000
11
4.050000
21
0.045342
31
21.600000
12
4.006593
22
0.084375
32
21.600000
0
3DFACE
8
/rudders.g/rudder_upper.r
62
253
10
-0.168750
20
-0.084375
30
21.600000
11
4.006593
21
-0.084375
31
21.600000
12
4.050000
22
-0.045342
32
21.600000
0
3DFACE
8
/rudders.g/rudder_upper.r
62
253
10
4.050000
20
0.045342
30
21.600000
11
-0.192188
21
0.042188
31
21.600000
12
-0.200000
22
0.000000
32
21.600000
0
3DFACE
8
/rudders.g/rudder_upper.r
62
253
10
4.050000
20
0.045342
30
21.600000
11
-0.200000
21
0.000000
31
21.600000
12
-0.192188
22
-0.042188
32
21.600000
0
3DFACE
8
/rudders.g/rudder_upper.r
62
253
10
1.800000
20
-0.672465
30
7.882011
11
1.445161
21
-0.611129
31
13.325806
12
1.800000
22
-0.675000
32
7.660261
0
3DFACE
8
/rudders.g/rudder_upper.r
62
253
10
1.833788
20
-0.596041
30
14.560267
11
1.800000
21
-0.672465
31
7.882011
12
1.828835
22
-0.675000
32
7.653924
0
3DFACE
8
/rudders.g/rudder_upper.r
62
253
10
1.833788
20
-0.596041
30
14.560267
11
1.445161
21
-0.611129
31
13.325806
12
1.800000
22
-0.672465
32
7.882011
0
3DFACE
8
/rudders.g/rudder_upper.r
62
253
10
1.331250
20
0.590625
30
14.666734
11
1.800000
21
0.672290
31
7.882011
12
1.800000
22
0.675000
32
7.660261
0
3DFACE
8
/rudders.g/rudder_upper.r
62
253
10
1.896264
20
0.590625
30
14.542521
11
1.828835
21
0.675000
31
7.653923
12
1.800000
22
0.672290
32
7.882011
0
3DFACE
8
/rudders.g/rudder_upper.r
62
253
10
1.878279
20
0.565850
30
16.573544
11
1.331250
21
0.590625
31
14.666734
12
1.112934
22
0.545282
32
18.424582
0
3DFACE
8
/rudders.g/rudder_upper.r
62
253
10
1.878279
20
0.565850
30
16.573544
11
1.896264
21
0.590625
31
14.542521
12
1.331250
22
0.590625
32
14.666734
0
3DFACE
8
/rudders.g/rudder_upper.r
62
253
10
1.331250
20
0.590625
30
14.666734
11
1.896264
21
0.590625
31
14.542521
12
1.800000
22
0.672290
32
7.882011
0
3DFACE
8
/rudders.g/rudder_upper.r
62
253
10
1.828835
20
-0.675000
30
7.653924
11
1.800000
21
0.672290
31
7.882011
12
1.828835
22
0.675000
32
7.653923
0
3DFACE
8
/rudders.g/rudder_upper.r
62
253
10
1.828835
20
-0.675000
30
7.653924
11
1.800000
21
-0.672465
31
7.882011
12
1.800000
22
0.672290
32
7.882011
0
3DFACE
8
/rudders.g/rudder_upper.r
62
253
10
2.793958
20
-0.590625
30
7.441719
11
1.837996
21
-0.590625
31
15.003426
12
1.828835
22
-0.675000
32
7.653924
0
3DFACE
8
/rudders.g/rudder_upper.r
62
253
10
1.837996
20
-0.590625
30
15.003426
11
1.833788
21
-0.596041
31
14.560267
12
1.828835
22
-0.675000
32
7.653924
0
3DFACE
8
/rudders.g/rudder_upper.r
62
253
10
3.630397
20
-0.506250
30
7.257812
11
1.817237
21
-0.506250
31
21.600000
12
2.793958
22
-0.590625
32
7.441719
0
3DFACE
8
/rudders.g/rudder_upper.r
62
253
10
1.817237
20
-0.506250
30
21.600000
11
1.800000
21
-0.508038
31
21.600000
12
1.800000
22
-0.536788
32
19.408251
0
3DFACE
8
/rudders.g/rudder_upper.r
62
253
10
1.817237
20
-0.506250
30
21.600000
11
1.800000
21
-0.536788
31
19.408251
12
1.837996
22
-0.590625
32
15.003426
0
3DFACE
8
/rudders.g/rudder_upper.r
62
253
10
1.817237
20
-0.506250
30
21.600000
11
1.837996
21
-0.590625
31
15.003426
12
2.793958
22
-0.590625
32
7.441719
0
3DFACE
8
/rudders.g/rudder_upper.r
62
253
10
4.338153
20
-0.421875
30
7.102198
11
2.505321
21
-0.421875
31
21.600000
12
3.630397
22
-0.506250
32
7.257812
0
3DFACE
8
/rudders.g/rudder_upper.r
62
253
10
2.505321
20
-0.421875
30
21.600000
11
1.817237
21
-0.506250
31
21.600000
12
3.630397
22
-0.506250
32
7.257812
0
3DFACE
8
/rudders.g/rudder_upper.r
62
253
10
4.917227
20
-0.337500
30
6.974877
11
3.068298
21
-0.337500
31
21.600000
12
4.338153
22
-0.421875
32
7.102198
0
3DFACE
8
/rudders.g/rudder_upper.r
62
253
10
3.068298
20
-0.337500
30
21.600000
11
2.505321
21
-0.421875
31
21.600000
12
4.338153
22
-0.421875
32
7.102198
0
3DFACE
8
/rudders.g/rudder_upper.r
62
253
10
5.367617
20
-0.253125
30
6.875850
11
3.506169
21
-0.253125
31
21.600000
12
4.917227
22
-0.337500
32
6.974877
0
3DFACE
8
/rudders.g/rudder_upper.r
62
253
10
3.506169
20
-0.253125
30
21.600000
11
3.068298
21
-0.337500
31
21.600000
12
4.917227
22
-0.337500
32
6.974877
0
3DFACE
8
/rudders.g/rudder_upper.r
62
253
10
5.689324
20
-0.168750
30
6.805116
11
3.506169
21
-0.253125
31
21.600000
12
5.367617
22
-0.253125
32
6.875850
0
3DFACE
8
/rudders.g/rudder_upper.r
62
253
10
5.689324
20
-0.168750
30
6.805116
11
3.818934
21
-0.168750
31
21.600000
12
3.506169
22
-0.253125
32
21.600000
0
3DFACE
8
/rudders.g/rudder_upper.r
62
253
10
5.689324
20
-0.168750
30
6.805116
11
5.801484
21
-0.126562
31
6.783821
12
3.818934
22
-0.168750
32
21.600000
0
3DFACE
8
/rudders.g/rudder_upper.r
62
253
10
5.801484
20
-0.126562
30
6.783821
11
3.928402
21
-0.126562
31
21.600000
12
3.818934
22
-0.168750
32
21.600000
0
3DFACE
8
/rudders.g/rudder_upper.r
62
253
10
5.689324
20
-0.168750
30
6.805116
11
5.791789
21
-0.130359
31
6.782587
12
5.801484
22
-0.126562
32
6.783821
0
3DFACE
8
/rudders.g/rudder_upper.r
62
253
10
5.801484
20
-0.126562
30
6.783821
11
5.878438
21
-0.084375
31
6.793615
12
3.928402
22
-0.126562
32
21.600000
0
3DFACE
8
/rudders.g/rudder_upper.r
62
253
10
5.878438
20
-0.084375
30
6.793615
11
4.006593
21
-0.084375
31
21.600000
12
3.928402
22
-0.126562
32
21.600000
0
3DFACE
8
/rudders.g/rudder_upper.r
62
253
10
5.878438
20
-0.084375
30
6.793615
11
4.574485
21
-0.042187
31
17.479043
12
4.006593
22
-0.084375
32
21.600000
0
3DFACE
8
/rudders.g/rudder_upper.r
62
253
10
4.574485
20
-0.042187
30
17.479043
11
4.050000
21
-0.045342
31
21.600000
12
4.006593
22
-0.084375
32
21.600000
0
3DFACE
8
/rudders.g/rudder_upper.r
62
253
10
5.878438
20
-0.084375
30
6.793615
11
5.924609
21
-0.042187
31
6.799491
12
4.574485
22
-0.042187
32
17.479043
0
3DFACE
8
/rudders.g/rudder_upper.r
62
253
10
4.574485
20
-0.042187
30
17.479043
11
5.924609
21
-0.042187
31
6.799491
12
5.933556
22
-0.017663
32
6.800630
0
3DFACE
8
/rudders.g/rudder_upper.r
62
253
10
4.574485
20
0.042187
30
17.479043
11
5.933556
21
0.017663
31
6.800630
12
5.924609
22
0.042187
32
6.799491
0
3DFACE
8
/rudders.g/rudder_upper.r
62
253
10
4.006593
20
0.084375
30
21.600000
11
5.924609
21
0.042187
31
6.799491
12
5.878438
22
0.084375
32
6.793615
0
3DFACE
8
/rudders.g/rudder_upper.r
62
253
10
4.006593
20
0.084375
30
21.600000
11
4.050000
21
0.045342
31
21.600000
12
4.574485
22
0.042187
32
17.479043
0
3DFACE
8
/rudders.g/rudder_upper.r
62
253
10
4.006593
20
0.084375
30
21.600000
11
4.574485
21
0.042187
31
17.479043
12
5.924609
22
0.042187
32
6.799491
0
3DFACE
8
/rudders.g/rudder_upper.r
62
253
10
3.928402
20
0.126562
30
21.600000
11
5.878438
21
0.084375
31
6.793615
12
5.801484
22
0.126562
32
6.783821
0
3DFACE
8
/rudders.g/rudder_upper.r
62
253
10
3.928402
20
0.126562
30
21.600000
11
4.006593
21
0.084375
31
21.600000
12
5.878438
22
0.084375
32
6.793615
0
3DFACE
8
/rudders.g/rudder_upper.r
62
253
10
3.818934
20
0.168750
30
21.600000
11
5.791789
21
0.130359
31
6.782587
12
5.689324
22
0.168750
32
6.805116
0
3DFACE
8
/rudders.g/rudder_upper.r
62
253
10
3.818934
20
0.168750
30
21.600000
11
3.928402
21
0.126562
31
21.600000
12
5.801484
22
0.126562
32
6.783821
0
3DFACE
8
/rudders.g/rudder_upper.r
62
253
10
3.818934
20
0.168750
30
21.600000
11
5.801484
21
0.126562
31
6.783821
12
5.791789
22
0.130359
32
6.782587
0
3DFACE
8
/rudders.g/rudder_upper.r
62
253
10
3.506169
20
0.253125
30
21.600000
11
5.689324
21
0.168750
31
6.805116
12
5.367617
22
0.253125
32
6.875850
0
3DFACE
8
/rudders.g/rudder_upper.r
62
253
10
3.506169
20
0.253125
30
21.600000
11
3.818934
21
0.168750
31
21.600000
12
5.689324
22
0.168750
32
6.805116
0
3DFACE
8
/rudders.g/rudder_upper.r
62
253
10
3.506169
20
0.253125
30
21.600000
11
5.367617
21
0.253125
31
6.875850
12
3.068298
22
0.337500
32
21.600000
0
3DFACE
8
/rudders.g/rudder_upper.r
62
253
10
5.367617
20
0.253125
30
6.875850
11
4.917227
21
0.337500
31
6.974877
12
3.068298
22
0.337500
32
21.600000
0
3DFACE
8
/rudders.g/rudder_upper.r
62
253
10
3.068298
20
0.337500
30
21.600000
11
4.917227
21
0.337500
31
6.974877
12
2.505321
22
0.421875
32
21.600000
0
3DFACE
8
/rudders.g/rudder_upper.r
62
253
10
4.917227
20
0.337500
30
6.974877
11
4.338153
21
0.421875
31
7.102198
12
2.505321
22
0.421875
32
21.600000
0
3DFACE
8
/rudders.g/rudder_upper.r
62
253
10
2.505321
20
0.421875
30
21.600000
11
4.338153
21
0.421875
31
7.102198
12
1.817237
22
0.506250
32
21.600000
0
3DFACE
8
/rudders.g/rudder_upper.r
62
253
10
4.338153
20
0.421875
30
7.102198
11
3.630397
21
0.506250
31
7.257812
12
1.817237
22
0.506250
32
21.600000
0
3DFACE
8
/rudders.g/rudder_upper.r
62
253
10
3.630397
20
0.506250
30
7.257812
11
1.800000
21
0.508038
31
21.600000
12
1.817237
22
0.506250
32
21.600000
0
3DFACE
8
/rudders.g/rudder_upper.r
62
253
10
3.630397
20
0.506250
30
7.257812
11
2.793958
21
0.590625
31
7.441719
12
1.896264
22
0.590625
32
14.542521
0
3DFACE
8
/rudders.g/rudder_upper.r
62
253
10
3.630397
20
0.506250
30
7.257812
11
1.896264
21
0.590625
31
14.542521
12
1.878279
22
0.565850
32
16.573544
0
3DFACE
8
/rudders.g/rudder_upper.r
62
253
10
3.630397
20
0.506250
30
7.257812
11
1.878279
21
0.565850
31
16.573544
12
1.800000
22
0.520865
32
20.622168
0
3DFACE
8
/rudders.g/rudder_upper.r
62
253
10
3.630397
20
0.506250
30
7.257812
11
1.800000
21
0.520865
31
20.622168
12
1.800000
22
0.508038
32
21.600000
0
3DFACE
8
/rudders.g/rudder_upper.r
62
253
10
1.896264
20
0.590625
30
14.542521
11
2.793958
21
0.590625
31
7.441719
12
1.828835
22
0.675000
32
7.653923
0
3DFACE
8
/rudders.g/rudder_upper.r
62
253
10
5.791789
20
0.130359
30
6.782587
11
5.801484
21
-0.126562
31
6.783821
12
5.791789
22
-0.130359
32
6.782587
0
3DFACE
8
/rudders.g/rudder_upper.r
62
253
10
5.791789
20
0.130359
30
6.782587
11
5.801484
21
0.126562
31
6.783821
12
5.878438
22
0.084375
32
6.793615
0
3DFACE
8
/rudders.g/rudder_upper.r
62
253
10
5.791789
20
0.130359
30
6.782587
11
5.878438
21
0.084375
31
6.793615
12
5.924609
22
0.042187
32
6.799491
0
3DFACE
8
/rudders.g/rudder_upper.r
62
253
10
5.791789
20
0.130359
30
6.782587
11
5.924609
21
0.042187
31
6.799491
12
5.933556
22
0.017663
32
6.800630
0
3DFACE
8
/rudders.g/rudder_upper.r
62
253
10
5.791789
20
0.130359
30
6.782587
11
5.933556
21
0.017663
31
6.800630
12
5.933556
22
-0.017663
32
6.800630
0
3DFACE
8
/rudders.g/rudder_upper.r
62
253
10
5.791789
20
0.130359
30
6.782587
11
5.933556
21
-0.017663
31
6.800630
12
5.924609
22
-0.042187
32
6.799491
0
3DFACE
8
/rudders.g/rudder_upper.r
62
253
10
5.791789
20
0.130359
30
6.782587
11
5.924609
21
-0.042187
31
6.799491
12
5.878438
22
-0.084375
32
6.793615
0
3DFACE
8
/rudders.g/rudder_upper.r
62
253
10
5.791789
20
0.130359
30
6.782587
11
5.878438
21
-0.084375
31
6.793615
12
5.801484
22
-0.126562
32
6.783821
0
ENDSEC
0
EOF
